<svg width="45" height="44" viewBox="0 0 45 44" fill="none" xmlns="http://www.w3.org/2000/svg"><path d="M38.161 27.485a85.01 85.01 0 00-.703-.705c-.33-.325-.69-.678-.792-.785a64.612 64.612 0 00-1.265-1.26c-.398-.396-.816-.803-.918-.91-.103-.107-.267-.272-.36-.368-.3-.302-1.842-1.84-1.959-1.956a44.282 44.282 0 01-.935-.925c-.465-.471-.462-.46-.296-1.032.048-.154.105-.36.128-.457l.106-.42c.037-.13.142-.515.233-.853.087-.339.196-.731.237-.875.04-.144.093-.34.116-.439l.106-.42c.068-.24.344-1.264.455-1.686.057-.23.123-.475.245-.922.04-.143.085-.32.105-.394.017-.072.091-.338.158-.593.07-.252.147-.557.18-.68.083-.297.164-.61.249-.92.04-.143.085-.31.098-.373.016-.062.061-.238.109-.393.043-.157.089-.308.097-.339.027-.095-.073-.089-.256.015l-.922.542a3.856 3.856 0 01-.283.162c-.028.013-.233.135-.464.276l-.574.343c-.453.259-1.16.67-1.978 1.152-.096.06-.271.158-.384.228-.114.064-.33.189-.482.281-.151.093-.345.206-.429.252-.083.047-.249.146-.365.214-.119.072-.398.235-.623.365-.225.13-.535.31-.686.403-.152.093-.372.216-.488.283a1.165 1.165 0 00-.233.146c-.01.014-.07.04-.133.052-.109.022-.124.013-.405-.267-.163-.159-.365-.36-.45-.453-.083-.09-.653-.655-1.265-1.26a241.488 241.488 0 01-1.281-1.275c-.094-.097-.585-.584-1.092-1.086-.91-.9-1.21-1.197-1.388-1.39-.049-.054-.147-.143-.208-.2a4.475 4.475 0 01-.206-.205c-.048-.054-.674-.678-1.39-1.386a183.009 183.009 0 01-1.833-1.829c-.105-.103-.303-.303-.442-.442a10.54 10.54 0 01-.319-.328c-.041-.04-.08-.059-.092-.04-.011.019.227.96.529 2.091.82 3.07.963 3.608 1.2 4.502.117.452.295 1.108.388 1.458.099.35.367 1.36.6 2.242.234.882.545 2.04.693 2.576.147.53.25.989.235 1.015a7.99 7.99 0 01-.199.248l-.238.187s-.038.08-.608.415c-.494.285-1.47.86-1.686.985-.127.077-.313.184-.407.24a9.58 9.58 0 00-.38.22c-.11.067-.293.17-.406.24-.11.067-.28.164-.377.218-.094.055-.28.163-.406.24-.131.074-.413.241-.623.364-.627.363-1.056.615-1.485.867-.126.077-.32.19-.425.255-.185.107-.496.288-.894.523-.212.127-.398.234-1.168.684-.953.554-1.002.586-1.249.728-.127.077-.32.19-.425.255-.186.107-.496.288-.894.523-.51.3-.6.352-.762.444-.094.056-.28.163-.406.24-.217.125-1.193.7-1.689.989-.994.58-1.234.727-1.23.755.007.014.398.019.87.016.476-.005.897-.007.934 0a54.254 54.254 0 011.063-.005c.592-.002 4.546-.027 4.71-.031.043-.005.33-.006.635-.007a1425.776 1425.776 0 015.514-.033l.685-.006a2.21 2.21 0 01.209-.003c.036.007.913.002 1.943-.007 1.03-.01 1.906.006 1.938.035.068.056.401 1.252 1.282 4.592.123.47.297 1.123.389 1.458.092.335.347 1.291.571 2.122.828 3.1 1.172 4.38 1.374 5.146.12.432.231.769.258.75.036-.035.165-.462.268-.894.023-.098.072-.297.113-.44.04-.144.085-.311.097-.374.017-.062.062-.238.11-.393.043-.157.105-.37.131-.48.05-.194.229-.871.361-1.361l.098-.374c.017-.071.064-.242.102-.372.034-.132.09-.337.12-.462.112-.422.388-1.447.455-1.686l.106-.42c.023-.098.076-.295.116-.439.041-.143.15-.536.237-.875.091-.338.196-.723.234-.853.034-.132.082-.322.105-.42.023-.098.08-.303.124-.46a6.32 6.32 0 00.106-.404 3.99 3.99 0 01.068-.265c.043-.147.267-.959.357-1.302.043-.183.103-.391.248-.92.179-.66.268-.953.292-.96a398.27 398.27 0 014.617-.035c.068.005 1.117-.003 2.331-.014s2.268-.017 2.345-.011c.17.01.19-.03.073-.165z" fill="#fff" opacity=".3"/></svg>