<svg width="49" height="48" viewBox="0 0 49 48" fill="none" xmlns="http://www.w3.org/2000/svg"><path d="M31.366 8.59c-.066.056-.42.371-.793.703-.365.33-.761.69-.881.792-.467.405-.638.557-1.416 1.263-.445.398-.904.816-1.024.918-.12.102-.304.266-.413.359-.338.299-2.066 1.84-2.197 1.956-.364.337-.622.568-1.04.935-.53.463-.517.461-1.114.25-.16-.06-.375-.133-.477-.164-.103-.03-.302-.093-.44-.137a86.367 86.367 0 00-.89-.3 46.837 46.837 0 01-.915-.304c-.15-.052-.356-.12-.459-.15l-.44-.138c-.249-.086-1.32-.441-1.76-.585a49.24 49.24 0 01-.964-.316c-.15-.052-.335-.11-.413-.136-.074-.022-.352-.117-.619-.203-.264-.09-.583-.19-.71-.233-.31-.105-.637-.21-.961-.32a7.728 7.728 0 00-.391-.126c-.064-.021-.249-.08-.41-.14-.164-.055-.322-.112-.354-.123-.1-.035-.1.071 0 .272l.519 1.01c.073.139.144.282.153.31.013.03.13.255.265.508.132.252.277.533.329.63.246.496.64 1.27 1.1 2.167.057.105.15.297.218.42.06.126.18.362.269.529.089.166.197.378.241.47.044.09.14.272.204.4.069.13.225.436.35.682.123.246.296.586.385.752.089.166.205.407.27.534.058.129.12.244.14.257.015.01.038.075.047.143.016.117.006.132-.309.413-.178.163-.405.365-.508.45-.101.082-.736.652-1.417 1.264-.677.607-1.324 1.186-1.432 1.28-.109.092-.656.583-1.22 1.09-1.012.909-1.346 1.21-1.562 1.386-.06.048-.161.147-.226.208a4.692 4.692 0 01-.23.206c-.06.048-.761.673-1.558 1.39a194.799 194.799 0 01-2.055 1.83l-.497.44c-.156.14-.32.283-.367.318-.046.042-.068.083-.048.096.019.013 1.033-.183 2.253-.433 3.31-.682 3.89-.8 4.853-.996.487-.098 1.194-.246 1.572-.323.377-.083 1.466-.306 2.417-.5.951-.193 2.2-.452 2.778-.576.572-.123 1.065-.205 1.092-.187.027.019.25.226.25.226l.185.265s.082.044.403.669c.271.54.822 1.61.94 1.847.074.14.177.343.23.445.051.107.144.293.211.416.063.121.162.322.23.446.063.12.156.306.206.413.054.103.156.306.23.446.071.142.23.451.349.682.346.686.587 1.156.828 1.626.074.139.182.351.244.466.103.203.275.543.5.98.121.233.224.436.654 1.28.53 1.043.56 1.098.695 1.368.074.139.182.351.244.466.103.203.275.543.5.98.288.557.337.658.425.834.053.103.156.306.23.445.119.237.67 1.307.945 1.85.554 1.09.695 1.352.724 1.35.016-.006.045-.42.072-.92.024-.506.048-.952.057-.99a3.26 3.26 0 00.014-.269 1706.62 1706.62 0 00.305-5.852c-.002-.046.016-.351.033-.673a1546.763 1546.763 0 01.307-5.846c.015-.319.03-.647.035-.728 0-.083.005-.18.01-.22.01-.039.059-.968.113-2.06.054-1.094.124-2.02.158-2.053.063-.068 1.354-.348 4.954-1.078.506-.1 1.21-.245 1.572-.322.361-.078 1.392-.29 2.288-.476 3.342-.688 4.721-.975 5.548-1.142.466-.1.83-.198.811-.227-.034-.04-.479-.204-.931-.338-.103-.031-.312-.095-.461-.147a7.867 7.867 0 00-.391-.127c-.064-.021-.249-.08-.41-.14-.164-.055-.386-.133-.502-.168-.203-.065-.91-.296-1.422-.466-.139-.044-.313-.101-.391-.127a13.033 13.033 0 01-.388-.13c-.139-.044-.353-.117-.483-.156-.441-.144-1.512-.499-1.762-.585a35.522 35.522 0 00-.44-.138c-.102-.03-.308-.098-.458-.15-.15-.052-.56-.192-.915-.305a85.537 85.537 0 01-.89-.3 37.32 37.32 0 00-.44-.137c-.102-.03-.316-.103-.48-.16a6.63 6.63 0 00-.423-.136 4.265 4.265 0 01-.277-.088 94.415 94.415 0 00-1.36-.458c-.191-.057-.41-.133-.961-.32-.69-.23-.996-.342-1-.368-.007-.048.224-4.638.247-4.895.01-.071.067-1.184.13-2.472.063-1.287.122-2.404.133-2.485.022-.18-.02-.203-.17-.088z" fill="#fff" opacity=".2"/></svg>