<svg width="20" height="20" viewBox="0 0 20 20" fill="none" xmlns="http://www.w3.org/2000/svg"><path d="M6.53 2.578l.008.498c.005.232.012.483.011.557.002.291.003.399.016.893.006.28.014.572.013.646 0 .075.002.19.001.258l.024 1.384c.008.233.011.396.013.657.003.331.006.326-.252.474-.071.039-.163.093-.205.12a17.007 17.007 0 01-.565.339c-.15.092-.325.195-.39.232l-.194.117-.184.114a94.302 94.302 0 00-1.158.694c-.065.037-.142.085-.176.105-.03.02-.15.09-.262.158-.114.066-.247.149-.302.181l-.409.244a3.672 3.672 0 00-.165.1c-.027.017-.105.065-.176.104l-.152.088c-.043.025-.005.057.097.084l.52.125a7.855 7.855 0 00.42.103l.325.076c.253.065.65.163 1.111.274.055.013.153.038.217.052.064.017.185.047.271.067l.242.058c.046.013.14.034.206.05l.35.086c.126.031.3.075.387.094.086.02.208.052.273.068a.581.581 0 00.135.029c.008-.002.038.01.066.027.046.03.048.039.052.237a54.324 54.324 0 00.02 1.212c.009.428.016.837.016.904 0 .067.007.413.015.77.013.64.018.85.015.982-.002.036.002.102.005.144.002.042.003.107.002.145-.001.036.007.478.017.982.018.892.02 1.017.022 1.294l.005.313c.001.098.002.201 0 .229.001.028.009.049.02.046.01-.003.252-.424.537-.935.773-1.389.91-1.631 1.136-2.035.115-.203.279-.5.367-.659.086-.16.341-.616.565-1.014.223-.398.514-.922.647-1.166.132-.242.254-.443.269-.447.015-.004.157-.02.157-.02l.151.016s.041-.015.363.062c.276.07.827.203.948.233l.23.055c.053.015.148.039.212.053.063.015.165.041.23.055l.21.053c.054.013.158.04.23.056l.35.085c.352.088.594.146.835.205l.241.056c.104.026.279.07.503.124.121.028.225.054.658.16.535.133.564.138.702.173l.24.056c.105.027.28.07.504.124.287.069.338.082.428.105l.23.055.95.232c.559.137.696.168.704.157a4.107 4.107 0 00-.306-.308 11.68 11.68 0 01-.336-.325 790.203 790.203 0 00-2.085-1.995c-.018-.014-.121-.114-.23-.219l-.229-.22a714.79 714.79 0 01-2.012-1.922 44.745 44.745 0 00-.776-.745c-.373-.355-.682-.665-.683-.687-.005-.044.291-.59 1.137-2.096.12-.211.284-.506.368-.659.083-.152.324-.584.533-.96.78-1.402 1.102-1.981 1.296-2.327.108-.197.185-.357.168-.359-.024 0-.22.108-.406.228-.043.027-.13.081-.194.119a3.664 3.664 0 00-.165.1c-.028.016-.105.064-.176.103-.07.041-.166.096-.215.127-.085.052-.385.233-.603.363l-.165.1c-.03.02-.107.065-.165.099l-.205.124c-.186.113-.642.385-.75.447a17.46 17.46 0 00-.184.114c-.042.027-.13.08-.194.118-.065.037-.24.14-.39.232a17.296 17.296 0 00-.564.34c-.042.026-.134.08-.205.121-.07.04-.15.09-.178.108-.027.019-.08.05-.117.072-.066.038-.43.252-.58.344-.08.05-.174.104-.41.244-.294.175-.428.249-.439.243-.019-.013-1.585-1.506-1.67-1.593a83.565 83.565 0 00-.842-.806c-.44-.418-.82-.783-.846-.812-.057-.063-.078-.055-.083.034z" fill="#fff" opacity=".2"/></svg>