<svg width="36" height="36" viewBox="0 0 36 36" fill="none" xmlns="http://www.w3.org/2000/svg"><path d="M27.553 26.29a64.145 64.145 0 00-.339-.7c-.161-.323-.336-.675-.385-.78-.194-.41-.267-.561-.611-1.252-.194-.394-.398-.8-.446-.906-.048-.105-.127-.268-.172-.363-.144-.298-.89-1.826-.947-1.942a34.7 34.7 0 01-.454-.92c-.222-.467-.223-.457.046-.836.075-.102.17-.238.212-.305l.186-.282c.061-.086.237-.343.391-.568.152-.227.333-.489.4-.584.067-.095.157-.227.199-.293.042-.067.127-.194.186-.283a145.823 145.823 0 001.186-1.741c.067-.096.146-.214.18-.264.03-.048.153-.225.268-.396.117-.168.252-.373.308-.454.137-.198.277-.407.42-.614.067-.096.142-.207.168-.25.028-.041.107-.16.182-.262.072-.104.144-.204.158-.224.045-.064-.03-.085-.193-.055l-.82.164a11.724 11.724 0 00-.665.131l-.513.105c-.401.075-1.029.197-1.758.342-.086.019-.241.047-.343.07-.1.017-.292.054-.428.083-.136.03-.308.063-.382.076-.074.013-.221.044-.325.064l-.554.11c-.2.037-.475.091-.611.12-.136.03-.33.064-.433.084a.913.913 0 00-.21.047c-.01.009-.062.012-.112.005-.086-.012-.095-.022-.23-.301a13.72 13.72 0 01-.218-.449c-.038-.087-.314-.65-.612-1.252a180.3 180.3 0 01-.62-1.267c-.044-.095-.282-.58-.528-1.079-.442-.896-.589-1.192-.67-1.38-.022-.052-.072-.142-.103-.2a141.95 141.95 0 01-1.658-3.397l-.213-.44a8.203 8.203 0 01-.151-.322c-.021-.04-.045-.064-.058-.053-.014.01-.079.765-.146 1.676-.18 2.47-.214 2.903-.268 3.623-.029.363-.066.891-.087 1.173-.017.282-.077 1.095-.131 1.805-.054.71-.12 1.641-.149 2.074-.027.428-.068.793-.087.808-.018.015-.21.132-.21.132l-.225.077s-.048.048-.555.15c-.438.083-1.308.257-1.5.293l-.362.073a7.38 7.38 0 00-.338.065c-.098.02-.26.05-.362.073-.098.02-.248.049-.334.063l-.363.072-.554.11c-.556.106-.938.182-1.32.258-.113.024-.285.058-.38.079-.164.031-.44.085-.795.156-.19.039-.354.07-1.04.205l-1.11.216-.38.078-.795.157c-.453.091-.534.106-.677.132-.084.017-.249.049-.362.073-.192.036-1.062.21-1.502.296-.884.172-1.1.219-1.104.24.002.012.29.116.639.235.354.119.666.225.691.239a43.284 43.284 0 01.788.269c.438.15 3.368 1.144 3.49 1.183.033.008.246.081.471.158a1131.54 1131.54 0 014.086 1.388 116.628 116.628 0 01.664.222c.025.014.675.235 1.439.493.764.257 1.407.492 1.424.522.036.058-.025 1.025-.23 3.71-.03.378-.07.903-.087 1.174-.018.27-.075 1.04-.122 1.709-.183 2.495-.257 3.525-.304 4.142-.023.349-.027.625-.002.618.035-.017.24-.297.427-.59.043-.066.13-.2.197-.295.067-.096.142-.207.168-.25.028-.042.107-.16.181-.262.073-.104.173-.245.221-.32l.616-.91.169-.25c.03-.048.109-.162.17-.248.059-.088.154-.225.208-.31.19-.281.657-.965.769-1.124l.186-.283c.042-.066.132-.198.198-.293.067-.096.249-.357.4-.584.154-.225.33-.482.391-.568.06-.09.144-.217.186-.283.043-.066.137-.202.21-.307a4.91 4.91 0 00.182-.27c.026-.044.08-.123.118-.178.07-.097.444-.638.598-.868.08-.123.177-.261.42-.614.302-.44.443-.633.462-.631a311.94 311.94 0 013.423 1.156c.049.02.827.284 1.728.587.9.302 1.68.568 1.736.592.124.051.148.027.097-.103z" fill="#fff" opacity=".4"/></svg>