<svg width="41" height="40" viewBox="0 0 41 40" fill="none" xmlns="http://www.w3.org/2000/svg"><path d="M32.372 27.643a74.676 74.676 0 00-.46-.74c-.217-.34-.454-.712-.52-.823a56.615 56.615 0 00-.83-1.322c-.261-.416-.536-.845-.603-.957-.066-.111-.173-.283-.234-.384a908.418 908.418 0 00-1.284-2.05 38.245 38.245 0 01-.614-.973c-.303-.493-.303-.482-.047-.936.071-.122.16-.285.2-.364l.174-.336c.058-.103.224-.41.368-.679.142-.271.314-.584.377-.698.063-.114.147-.271.187-.35.039-.078.118-.23.173-.336.106-.19.545-1.008.724-1.344.095-.185.2-.38.392-.736.064-.114.137-.255.169-.315.029-.057.145-.269.252-.472.111-.201.237-.445.29-.543.129-.236.26-.486.395-.733.063-.114.134-.247.158-.299.026-.049.1-.19.17-.312l.151-.269c.042-.076-.044-.09-.222-.038l-.894.279c-.123.04-.25.078-.274.08-.027.007-.226.07-.451.145-.223.071-.473.149-.559.178-.438.13-1.122.34-1.918.587-.093.032-.263.081-.373.118-.11.032-.32.095-.467.144-.148.049-.336.107-.416.13-.081.023-.242.075-.355.11-.115.037-.387.12-.604.186-.218.067-.519.159-.666.208-.148.048-.36.109-.473.144-.113.029-.215.063-.228.077-.011.01-.068.02-.124.019-.097-.004-.108-.014-.293-.308-.107-.167-.24-.38-.295-.475a94.325 94.325 0 00-.829-1.322c-.4-.633-.78-1.237-.84-1.338-.06-.1-.383-.612-.716-1.14-.598-.945-.796-1.258-.91-1.456-.03-.056-.096-.151-.137-.212a3.823 3.823 0 01-.135-.215c-.03-.056-.44-.71-.912-1.455-.831-1.319-.947-1.504-1.2-1.918-.07-.108-.199-.318-.29-.464-.09-.145-.184-.299-.207-.341-.027-.043-.057-.066-.07-.053-.014.014.003.862.035 1.884.09 2.774.105 3.26.13 4.067.01.407.031 1 .04 1.317.016.316.044 1.228.068 2.025.024.797.06 1.843.079 2.328.02.48.017.891-.002.91-.018.02-.219.171-.219.171l-.24.113s-.048.06-.602.232c-.478.145-1.426.44-1.635.504-.124.04-.304.095-.395.124a8.337 8.337 0 00-.368.112c-.108.035-.285.087-.395.124a11.56 11.56 0 01-.365.11c-.092.028-.272.083-.395.123-.127.038-.4.124-.605.188-.607.184-1.023.314-1.44.443-.123.04-.31.098-.413.132-.18.055-.48.147-.867.268-.207.066-.387.12-1.134.351-.924.282-.972.3-1.211.372-.124.04-.312.097-.414.132-.18.055-.48.147-.867.268-.494.155-.583.18-.739.227-.091.029-.271.084-.395.124-.21.063-1.157.36-1.638.506-.964.297-1.198.375-1.2.399.002.013.335.095.738.185.409.091.768.172.798.185.033.01.127.032.217.05a1439.26 1439.26 0 004.72 1.064c.037.004.284.06.543.12l.541.122c.09.017 3.581.805 4.174.94l.587.13c.067.013.146.03.178.04.03.013.78.182 1.661.379.882.196 1.626.382 1.648.413.047.061.093 1.145.181 4.16.011.424.03 1.014.042 1.317.012.303.04 1.167.066 1.918.09 2.8.13 3.957.15 4.649.016.391.044.7.07.688.038-.022.233-.36.407-.706.04-.079.12-.24.184-.353.063-.114.134-.247.158-.299.026-.049.1-.19.171-.312.069-.125.163-.293.208-.383.082-.155.369-.695.58-1.086.054-.105.125-.238.157-.298.029-.057.103-.193.16-.296.056-.106.145-.269.195-.37.18-.336.619-1.153.724-1.343.056-.106.134-.258.174-.337.04-.078.123-.236.187-.35.063-.114.234-.426.376-.698.145-.268.31-.575.369-.678.055-.106.134-.258.173-.337.04-.079.13-.241.198-.366.071-.123.145-.27.17-.323.024-.052.075-.147.111-.212.066-.117.42-.763.564-1.037.073-.147.166-.312.395-.733.284-.527.419-.758.44-.758.04.002 3.744.829 3.95.883.056.018.954.22 1.993.45 1.038.23 1.939.434 2.004.455.143.042.167.012.095-.126z" fill="#fff" opacity=".1"/></svg>