<svg width="41" height="41" viewBox="0 0 41 41" fill="none" xmlns="http://www.w3.org/2000/svg"><path d="M12.315 32.448c.061-.035.398-.235.75-.445.347-.211.724-.44.837-.504.441-.256.603-.352 1.342-.803.423-.253.858-.52.971-.584.113-.064.288-.168.39-.227.32-.189 1.96-1.168 2.083-1.242.347-.216.592-.363.987-.595.5-.293.49-.293.941-.031.122.073.284.165.363.205.078.04.23.122.335.179.102.06.408.23.675.378.27.146.581.322.695.387.113.064.27.15.348.191.079.041.23.122.335.179a165.546 165.546 0 002.07 1.146c.114.065.255.14.314.173.057.03.267.148.47.26.2.113.443.242.54.296.236.133.484.268.73.406.114.065.246.138.298.162.048.027.189.103.31.176.125.07.244.14.268.154.076.043.091-.043.042-.22l-.265-.895a3.399 3.399 0 01-.076-.274 12.9 12.9 0 00-.137-.451c-.068-.223-.142-.473-.17-.56-.122-.437-.322-1.122-.557-1.918-.03-.094-.076-.263-.112-.373-.03-.11-.09-.32-.137-.467a13.87 13.87 0 01-.123-.417c-.021-.08-.07-.242-.103-.355a52.056 52.056 0 01-.178-.604c-.063-.218-.15-.519-.197-.666-.046-.148-.104-.36-.136-.473a1.006 1.006 0 00-.074-.229c-.011-.01-.02-.067-.017-.123.005-.097.016-.107.315-.286.169-.104.384-.232.481-.286.094-.05.697-.413 1.343-.802.643-.387 1.256-.755 1.358-.813.103-.059.622-.371 1.157-.694.96-.578 1.278-.77 1.48-.88.056-.029.153-.093.215-.133a3.93 3.93 0 01.218-.13c.056-.03.721-.427 1.477-.883 1.34-.805 1.528-.918 1.948-1.163l.47-.28c.149-.088.305-.178.348-.2.043-.026.067-.056.053-.07-.013-.013-.865-.01-1.893.004-2.788.043-3.276.05-4.088.06-.41.003-1.005.014-1.323.019-.319.01-1.235.022-2.036.032-.801.01-1.853.028-2.34.04-.483.01-.896.001-.915-.018-.019-.019-.168-.22-.168-.22l-.109-.242s-.06-.049-.223-.602c-.137-.479-.419-1.427-.479-1.637-.038-.123-.09-.303-.117-.395a8.2 8.2 0 00-.107-.368c-.033-.107-.082-.284-.117-.395-.033-.107-.08-.271-.104-.365l-.118-.395c-.035-.126-.117-.4-.177-.604-.175-.608-.298-1.024-.421-1.44-.038-.124-.093-.312-.126-.414l-.254-.868c-.063-.207-.115-.387-.334-1.134-.267-.924-.284-.973-.352-1.212-.038-.123-.093-.311-.126-.413l-.254-.868c-.147-.495-.172-.583-.216-.74l-.117-.394c-.06-.21-.342-1.158-.481-1.639-.282-.965-.355-1.198-.38-1.201-.013.003-.101.332-.2.732-.097.405-.185.761-.198.79a48.615 48.615 0 01-.223.9c-.125.503-.948 3.854-.98 3.994-.005.037-.066.281-.13.539a1276.793 1276.793 0 01-1.15 4.673c-.06.255-.124.517-.14.582a1.932 1.932 0 01-.042.177c-.014.03-.197.772-.41 1.646-.212.874-.411 1.611-.443 1.633-.062.045-1.151.073-4.182.11-.426.003-1.02.012-1.324.019-.305.007-1.173.02-1.928.032-2.815.043-3.978.063-4.673.071-.394.01-.704.032-.693.06.022.037.357.237.703.415.078.04.238.124.351.19.114.064.246.137.297.162.049.026.19.102.311.175.124.07.292.168.381.214.154.083.692.378 1.081.594l.297.162c.057.03.192.106.295.165.105.057.268.149.367.2.336.184 1.149.635 1.338.743l.335.179c.079.04.235.127.349.192.113.065.424.24.694.386.268.149.573.319.676.379l.335.178c.079.04.24.132.365.203.122.073.268.148.322.175.05.025.145.076.21.114.117.067.76.43 1.033.578.146.076.31.17.73.405.524.292.753.43.754.452-.003.04-.897 3.71-.956 3.914-.019.056-.236.946-.486 1.976s-.47 1.922-.49 1.987c-.046.142-.017.166.123.097z" fill="#fff" opacity=".1"/></svg>