<svg width="48" height="48" viewBox="0 0 48 48" fill="none" xmlns="http://www.w3.org/2000/svg"><path d="M11.11 35.13a91.76 91.76 0 001.016-.292c.472-.141.984-.295 1.136-.335.596-.165.815-.228 1.821-.53.574-.168 1.167-.347 1.319-.388.152-.04.39-.109.527-.146.434-.124 2.656-.77 2.824-.82.473-.147.805-.244 1.34-.395.677-.19.665-.194 1.112.254.12.123.28.282.36.353.079.072.23.215.336.314.102.102.407.397.674.654.27.256.58.559.693.67.112.112.269.262.348.334.08.072.231.214.337.314.188.185 1 .968 1.335 1.288.185.171.379.359.732.7.113.112.254.245.313.301.057.053.267.258.47.45.199.196.443.424.54.518.234.228.483.465.728.703.113.111.245.238.298.283.048.047.19.179.31.303.123.12.24.24.264.264.075.074.12-.022.118-.246-.007-.26-.02-.75-.032-1.136a4.178 4.178 0 01-.004-.346c.002-.033-.007-.286-.02-.574l-.024-.71c-.008-.554-.029-1.423-.057-2.432-.006-.12-.008-.333-.015-.474a18.908 18.908 0 00-.015-.593 16.928 16.928 0 01-.014-.528c0-.102-.008-.307-.011-.45a63.223 63.223 0 01-.02-.767 49.407 49.407 0 00-.024-.845c-.008-.189-.01-.456-.013-.6a1.228 1.228 0 00-.015-.29c-.01-.017-.001-.086.019-.151.036-.113.052-.122.457-.24.23-.07.522-.154.652-.187.126-.03.944-.272 1.821-.53.873-.257 1.706-.501 1.843-.538.138-.038.843-.245 1.57-.46 1.304-.384 1.736-.512 2.006-.578.075-.017.208-.063.293-.09.085-.029.217-.068.296-.087.075-.017.977-.28 2.003-.583a193.29 193.29 0 012.642-.767c.15-.045.437-.127.638-.185.2-.057.411-.116.468-.128.059-.018.096-.045.085-.065-.012-.02-1.01-.281-2.217-.581-3.277-.811-3.85-.955-4.804-1.193-.48-.122-1.182-.294-1.556-.387-.375-.087-1.452-.356-2.393-.591-.94-.235-2.177-.54-2.752-.677-.568-.136-1.048-.274-1.065-.302-.016-.029-.128-.312-.128-.312l-.052-.319s-.055-.075-.074-.778c-.012-.605-.046-1.809-.052-2.074-.006-.158-.01-.386-.014-.502 0-.118-.003-.325-.01-.466-.006-.137-.008-.36-.015-.502a14.026 14.026 0 01-.009-.462c-.003-.116-.008-.344-.014-.501-.003-.16-.013-.508-.02-.767-.016-.77-.03-1.297-.045-1.826-.007-.157-.012-.396-.019-.526-.005-.228-.014-.61-.028-1.1-.009-.264-.014-.492-.038-1.439-.026-1.17-.03-1.233-.036-1.535-.006-.158-.011-.396-.018-.527-.005-.228-.014-.609-.028-1.1-.019-.628-.02-.74-.023-.937-.003-.116-.008-.344-.015-.501-.005-.266-.04-1.47-.053-2.079-.03-1.223-.044-1.52-.071-1.531-.017-.001-.222.36-.461.8-.24.446-.454.84-.48.87a58.176 58.176 0 01-.541.992c-.301.551-2.306 4.244-2.387 4.398-.018.043-.165.311-.32.595-.158.285-.301.551-.322.59-.049.098-2.122 3.911-2.476 4.557-.15.282-.306.571-.345.642-.036.075-.082.16-.105.196-.025.03-.47.848-.99 1.812-.52.963-.983 1.77-1.027 1.785-.087.034-1.37-.27-4.93-1.163-.5-.127-1.197-.3-1.556-.386-.359-.086-1.379-.34-2.267-.558-3.308-.819-4.675-1.155-5.492-1.36-.463-.111-.834-.18-.83-.145.015.051.345.39.694.707.08.072.24.22.353.331.112.112.245.239.297.283.049.047.19.18.31.303.123.121.289.288.379.37.154.146.692.659 1.08 1.034l.298.282c.057.053.192.184.294.285.105.1.267.258.368.35.335.32 1.147 1.102 1.335 1.288.105.1.257.242.336.314.08.072.236.222.349.333.113.112.422.415.693.67.267.258.571.553.673.654.106.1.258.242.337.314.079.072.24.23.364.351.12.124.267.258.322.307.052.044.147.134.211.198.115.116.756.741 1.029 1 .147.135.31.297.728.703.523.506.75.74.742.765-.015.046-2.203 4.092-2.335 4.314-.04.06-.57 1.041-1.183 2.177a144.552 144.552 0 01-1.192 2.188c-.097.153-.07.19.115.152z" fill="#fff" opacity=".4"/></svg>