<svg width="50" height="49" viewBox="0 0 50 49" fill="none" xmlns="http://www.w3.org/2000/svg"><path d="M39.375 34.07c-.043-.075-.29-.48-.55-.904-.261-.418-.545-.872-.624-1.008a68.867 68.867 0 00-.993-1.617c-.314-.509-.644-1.034-.723-1.17-.08-.136-.208-.347-.28-.47-.235-.386-1.446-2.359-1.538-2.508a47.577 47.577 0 01-.736-1.19c-.363-.602-.363-.59-.05-1.14.087-.148.197-.346.245-.441l.213-.409c.07-.125.274-.497.452-.823.174-.33.383-.709.46-.847.078-.138.181-.33.23-.425.048-.095.145-.28.213-.408.129-.231.667-1.223.887-1.631.116-.224.245-.462.48-.893.078-.139.168-.31.207-.382.035-.07.177-.326.31-.574.135-.243.29-.54.354-.659.158-.286.32-.59.484-.89.077-.137.165-.299.194-.361.032-.06.122-.231.21-.38.083-.151.167-.296.183-.326.052-.092-.053-.11-.268-.048l-1.085.332c-.15.048-.303.093-.332.097-.033.007-.274.082-.547.171-.27.086-.574.178-.678.213-.531.154-1.362.405-2.326.7-.114.037-.32.096-.453.14a18.62 18.62 0 00-.567.172c-.18.058-.407.127-.505.154-.098.028-.293.09-.43.13-.14.045-.47.145-.733.223-.264.08-.63.19-.808.247-.18.058-.437.13-.574.172-.136.035-.26.076-.276.092-.014.014-.082.024-.15.022-.118-.005-.131-.018-.352-.377a18.665 18.665 0 01-.353-.58c-.063-.114-.512-.84-.994-1.618-.478-.774-.933-1.513-1.006-1.636-.073-.123-.459-.749-.858-1.394-.716-1.156-.953-1.539-1.089-1.782-.036-.068-.115-.185-.165-.26a4.667 4.667 0 01-.162-.262c-.036-.068-.527-.868-1.092-1.779a192.849 192.849 0 01-1.438-2.346c-.083-.133-.238-.389-.347-.567a11.378 11.378 0 01-.247-.418c-.034-.052-.07-.081-.086-.064-.016.016-.003 1.049.028 2.294.088 3.379.101 3.97.124 4.954.01.497.031 1.22.04 1.605.016.385.043 1.496.065 2.467.023.97.057 2.245.078 2.837.02.584.013 1.085-.01 1.108-.022.023-.266.206-.266.206l-.293.135s-.058.073-.73.279c-.58.172-1.73.525-1.983.6-.15.048-.369.114-.48.148-.113.03-.312.09-.446.134-.13.04-.345.103-.479.147-.13.041-.329.1-.443.13-.11.035-.329.1-.479.148-.153.045-.485.148-.733.223-.736.22-1.241.374-1.746.528-.15.048-.378.117-.502.158-.218.065-.583.175-1.052.32-.251.078-.47.143-1.375.418-1.12.336-1.18.357-1.47.442-.15.048-.377.117-.501.158-.218.065-.583.175-1.052.319-.6.185-.707.216-.896.271-.111.034-.33.1-.48.148-.253.075-1.404.428-1.987.603-1.17.354-1.453.446-1.456.476.004.016.406.118.893.232.494.114.928.216.964.231.04.013.154.04.262.062a1655.957 1655.957 0 005.705 1.334c.046.006.344.077.657.15.318.078.612.146.654.155.108.021 4.33 1.01 5.045 1.18.31.07.631.144.71.163.081.015.176.036.215.049.037.016.942.228 2.008.475 1.066.246 1.965.478 1.992.517.055.075.103 1.395.186 5.068.01.516.028 1.235.04 1.604.012.37.039 1.422.064 2.337.088 3.412.127 4.82.145 5.663.016.477.048.853.08.84.046-.028.285-.436.498-.858.048-.095.148-.29.226-.428.077-.139.164-.3.193-.362.032-.06.123-.231.21-.38.084-.151.2-.355.255-.464.1-.188.451-.843.71-1.318.067-.128.154-.29.193-.362.035-.07.125-.234.196-.36.068-.128.178-.325.24-.447.218-.409.757-1.4.886-1.631.068-.129.165-.313.213-.409.048-.095.151-.286.229-.425.077-.138.287-.517.461-.846.178-.327.38-.699.452-.824l.213-.409c.048-.095.158-.293.242-.444a6.7 6.7 0 00.21-.392c.028-.063.09-.178.135-.257.08-.142.513-.926.69-1.259.09-.178.203-.379.484-.89.348-.639.513-.919.539-.92.049.003 4.525 1.04 4.773 1.11.07.021 1.155.274 2.41.563 1.256.29 2.344.545 2.423.57.173.053.202.017.116-.152z" fill="#fff" opacity=".3"/></svg>