<svg width="49" height="49" viewBox="0 0 49 49" fill="none" xmlns="http://www.w3.org/2000/svg"><path d="M38.679 34.184a92.008 92.008 0 00-.553-.901c-.261-.417-.546-.869-.625-1.005-.318-.53-.437-.723-.996-1.612-.315-.507-.646-1.03-.725-1.166-.08-.136-.209-.346-.282-.468-.235-.385-1.45-2.352-1.542-2.5-.268-.418-.45-.712-.738-1.186-.364-.601-.364-.588-.05-1.137.088-.148.198-.345.246-.44.049-.095.146-.28.214-.407l.453-.822c.174-.328.385-.706.462-.844.078-.138.182-.328.23-.424l.214-.407c.13-.23.67-1.218.89-1.626.116-.223.245-.46.482-.89.077-.138.168-.309.207-.38.035-.07.178-.326.31-.572.136-.243.292-.539.356-.657.159-.286.32-.588.486-.887.077-.138.165-.3.194-.361.032-.06.123-.23.21-.378.084-.151.169-.296.185-.325.052-.092-.053-.11-.27-.049l-1.087.332c-.15.048-.304.092-.334.096-.032.007-.274.082-.549.17-.271.086-.575.178-.68.213-.532.154-1.366.404-2.333.698-.114.037-.32.096-.454.14-.134.038-.39.113-.569.17-.18.059-.408.127-.506.155-.098.027-.294.089-.432.13-.14.044-.47.143-.735.222-.265.079-.63.188-.81.246-.18.058-.439.13-.576.171a1.24 1.24 0 00-.278.092c-.013.014-.081.024-.15.022-.118-.005-.131-.018-.353-.376a18.84 18.84 0 01-.354-.578c-.063-.114-.513-.837-.996-1.613-.48-.771-.937-1.508-1.01-1.63-.072-.124-.46-.747-.86-1.39-.718-1.153-.956-1.534-1.092-1.777-.037-.068-.116-.184-.166-.258a4.721 4.721 0 01-.162-.262c-.036-.068-.53-.866-1.095-1.773-1-1.61-1.139-1.835-1.443-2.34-.083-.132-.239-.387-.348-.565-.109-.177-.221-.365-.248-.417-.033-.051-.07-.08-.086-.064-.016.017-.003 1.047.028 2.288.088 3.369.102 3.958.124 4.939.01.495.031 1.215.04 1.6.016.384.043 1.492.065 2.46.023.967.058 2.237.078 2.827.02.583.013 1.082-.01 1.105-.022.023-.266.206-.266.206l-.294.134s-.059.073-.732.278c-.582.171-1.735.523-1.99.599-.15.048-.37.113-.48.147-.115.03-.314.089-.448.133-.131.041-.347.103-.48.147-.132.041-.331.1-.445.13-.112.035-.33.1-.48.147-.154.045-.488.148-.736.223-.739.219-1.245.373-1.752.527-.15.047-.379.116-.503.157-.22.065-.585.174-1.056.318-.251.078-.47.143-1.379.417-1.124.336-1.183.356-1.474.442-.15.048-.379.116-.503.157-.22.065-.585.174-1.056.318-.601.184-.709.215-.898.27-.112.035-.33.1-.48.147-.256.076-1.41.428-1.994.602-1.174.353-1.458.445-1.461.474.003.017.407.118.895.232.496.113.932.215.968.23.04.013.154.04.262.062a1716.205 1716.205 0 005.723 1.33c.046.005.344.076.66.15a1514.18 1514.18 0 015.716 1.33l.711.162c.082.015.177.036.217.049.036.015.944.227 2.013.473 1.07.245 1.971.477 1.998.516.056.074.104 1.39.187 5.052.01.514.027 1.231.04 1.6.012.367.038 1.416.064 2.329.088 3.4.126 4.805.145 5.645.016.476.048.85.08.837.046-.027.286-.434.5-.855.048-.095.148-.288.226-.426a7.72 7.72 0 00.194-.362c.032-.059.123-.23.21-.378.084-.15.2-.354.256-.463.1-.187.453-.84.712-1.313l.194-.362c.035-.069.126-.233.197-.358.068-.128.178-.325.24-.447.22-.407.76-1.395.89-1.625.067-.129.165-.312.213-.408.048-.095.152-.285.23-.423.077-.138.288-.516.463-.845.178-.325.381-.696.453-.82.068-.129.165-.313.213-.408.049-.095.159-.292.243-.443.087-.148.178-.326.21-.391.03-.063.09-.177.136-.256.08-.142.515-.923.693-1.255.09-.177.203-.378.485-.887.35-.637.515-.917.54-.917.05.002 4.54 1.037 4.789 1.105.069.022 1.157.273 2.417.562 1.26.288 2.351.543 2.43.568.174.053.203.017.117-.152z" fill="#fff" opacity=".3"/></svg>