<svg width="41" height="41" viewBox="0 0 41 41" fill="none" xmlns="http://www.w3.org/2000/svg"><path d="M12.316 32.446c.062-.035.398-.235.75-.445.348-.211.724-.44.837-.504.442-.256.603-.352 1.343-.803.422-.253.858-.52.971-.584.113-.064.288-.168.39-.227.32-.189 1.959-1.168 2.083-1.242.347-.216.591-.363.987-.595.5-.293.49-.293.941-.031.122.073.284.165.362.205.078.04.23.122.335.179.103.06.408.23.676.378.27.146.58.322.694.386.114.065.27.152.349.192.078.04.23.122.335.179a169.24 169.24 0 002.07 1.146c.114.064.254.14.314.173l.47.259c.2.114.443.243.54.297.236.133.484.268.73.406.114.064.246.137.297.162.049.027.19.103.311.176.125.07.243.14.268.154.075.043.091-.043.042-.22l-.265-.895a3.399 3.399 0 01-.077-.274 12.9 12.9 0 00-.136-.451c-.069-.223-.142-.473-.17-.56a168.25 168.25 0 00-.557-1.918c-.03-.094-.077-.263-.112-.373-.03-.11-.09-.32-.137-.468a13.878 13.878 0 01-.123-.416c-.022-.08-.07-.242-.104-.355a52.272 52.272 0 01-.177-.604c-.063-.218-.15-.519-.197-.666-.047-.148-.104-.36-.137-.473a1.006 1.006 0 00-.073-.229c-.011-.01-.02-.067-.017-.123.005-.097.016-.108.314-.286.17-.104.385-.232.482-.285.094-.051.697-.414 1.342-.803.643-.387 1.257-.755 1.36-.813.101-.059.62-.371 1.156-.694.96-.578 1.278-.77 1.48-.88.056-.029.153-.093.215-.133a115.22 115.22 0 001.695-1.013c1.34-.805 1.528-.917 1.948-1.163l.47-.28c.148-.088.304-.178.348-.2.043-.026.067-.056.053-.07-.013-.013-.865-.01-1.893.004-2.788.043-3.276.05-4.088.06-.41.003-1.005.015-1.324.019-.318.01-1.235.022-2.036.032-.8.01-1.852.028-2.34.04-.483.01-.895.001-.914-.018a6.969 6.969 0 01-.168-.22l-.11-.242s-.059-.049-.223-.602c-.136-.479-.418-1.427-.478-1.636-.038-.124-.09-.304-.117-.396a8.159 8.159 0 00-.107-.367c-.033-.108-.082-.285-.118-.396-.032-.107-.079-.27-.104-.365-.027-.091-.079-.271-.117-.395-.035-.126-.117-.4-.178-.604-.175-.607-.297-1.024-.42-1.44-.039-.124-.093-.312-.126-.414l-.254-.868c-.063-.207-.115-.387-.334-1.134-.268-.924-.284-.972-.352-1.211-.039-.124-.093-.312-.126-.414l-.254-.868c-.148-.494-.172-.583-.216-.739l-.118-.395c-.06-.21-.341-1.158-.48-1.639-.282-.964-.356-1.198-.38-1.2-.014.002-.101.332-.2.731-.098.405-.185.762-.199.791a46.753 46.753 0 01-.223.9c-.124.502-.947 3.854-.98 3.993-.004.038-.066.282-.13.539a1220.828 1220.828 0 01-1.15 4.673c-.06.255-.123.518-.14.582a1.89 1.89 0 01-.042.177c-.013.03-.196.772-.409 1.646-.212.874-.411 1.611-.444 1.633-.061.045-1.15.073-4.182.11-.426.003-1.019.012-1.324.019-.304.007-1.173.02-1.928.033-2.815.042-3.977.062-4.673.07-.393.01-.703.032-.693.06.022.037.357.237.703.415.079.04.238.124.351.19.114.064.246.137.298.162.048.027.189.102.31.175.125.07.292.168.382.214.154.083.691.378 1.08.594l.298.162c.057.03.192.106.294.165.106.057.268.149.368.2.335.184 1.149.635 1.338.743.105.057.256.138.335.179.078.04.235.127.348.192.114.065.425.24.695.386l.676.378c.105.057.256.138.335.179.078.04.24.132.364.203.122.072.268.148.322.175.051.025.146.076.21.114.117.067.76.43 1.033.578.146.076.311.17.73.405.524.292.754.43.754.451-.002.04-.897 3.711-.955 3.915-.02.056-.237.946-.486 1.976-.25 1.03-.47 1.922-.491 1.987-.046.142-.016.166.124.097z" fill="#fff" opacity=".1"/></svg>