<svg width="36" height="36" viewBox="0 0 36 36" fill="none" xmlns="http://www.w3.org/2000/svg"><path d="M27.553 26.288a67.271 67.271 0 00-.339-.7c-.16-.324-.336-.675-.384-.78-.195-.412-.268-.562-.612-1.253-.194-.393-.398-.8-.446-.905-.048-.106-.127-.269-.172-.364-.144-.298-.89-1.826-.947-1.941a34.7 34.7 0 01-.453-.921c-.223-.467-.224-.457.046-.836.074-.102.17-.238.212-.304l.185-.283c.061-.086.238-.343.391-.568.152-.227.333-.488.4-.584.067-.095.157-.227.2-.293.041-.066.126-.194.185-.283a150.236 150.236 0 001.186-1.74c.067-.096.146-.215.18-.265.03-.048.154-.225.268-.395.117-.168.253-.373.309-.455.136-.198.277-.407.42-.614.066-.095.142-.207.167-.25.028-.041.107-.16.182-.261.072-.105.144-.204.158-.225.045-.063-.03-.084-.193-.055l-.82.164c-.114.024-.23.046-.251.046-.024.003-.207.04-.414.085-.205.043-.434.088-.513.106-.4.074-1.029.196-1.758.341-.086.02-.241.047-.342.07-.101.018-.293.054-.429.084-.136.029-.308.062-.382.075-.073.013-.221.044-.325.064l-.554.11c-.2.038-.475.091-.61.12-.137.03-.33.064-.434.084a.91.91 0 00-.21.047c-.01.01-.062.012-.112.005-.086-.012-.094-.022-.23-.3a13.72 13.72 0 01-.218-.45c-.038-.087-.314-.649-.611-1.251-.296-.6-.576-1.172-.62-1.267-.045-.096-.283-.58-.53-1.08-.441-.895-.588-1.192-.67-1.379-.021-.052-.07-.143-.102-.2a141.836 141.836 0 01-1.658-3.397l-.213-.44a8.36 8.36 0 01-.152-.323c-.02-.04-.044-.064-.058-.053-.013.011-.078.766-.145 1.676-.18 2.471-.214 2.904-.268 3.623-.029.363-.066.891-.087 1.173-.017.283-.077 1.095-.131 1.805-.054.71-.12 1.642-.149 2.075-.027.428-.068.792-.087.808a6.28 6.28 0 01-.21.13l-.225.078s-.048.049-.555.15c-.438.083-1.308.257-1.5.294-.114.024-.279.055-.362.072a7.464 7.464 0 00-.338.066c-.098.02-.26.05-.362.072-.098.02-.248.049-.335.063l-.362.073c-.115.021-.367.072-.554.11-.556.106-.938.182-1.32.258-.113.023-.286.057-.38.078-.164.032-.44.085-.795.156-.19.04-.355.071-1.04.205-.846.164-.89.175-1.11.216-.113.024-.286.058-.38.079-.164.031-.44.085-.795.156-.453.091-.534.106-.677.132-.084.017-.249.049-.362.073l-1.503.296c-.884.173-1.098.22-1.103.24.002.013.29.116.639.235.354.12.666.225.69.24a43.318 43.318 0 01.788.269c.439.15 3.369 1.143 3.491 1.182.033.008.246.081.471.158a1126.939 1126.939 0 014.086 1.388 112.02 112.02 0 01.664.222c.025.015.675.236 1.439.493s1.407.492 1.424.522c.036.059-.025 1.025-.23 3.71-.03.378-.07.904-.087 1.174-.018.27-.075 1.04-.122 1.71-.183 2.494-.257 3.524-.304 4.14-.023.35-.027.626-.002.619.035-.017.24-.297.427-.59.043-.066.13-.2.197-.295.067-.096.142-.207.168-.25.028-.041.107-.16.181-.262.073-.104.173-.245.221-.32l.616-.91.169-.25c.03-.048.109-.161.17-.248.06-.088.154-.225.208-.309.19-.282.657-.966.769-1.125l.186-.283c.042-.066.132-.198.198-.293.067-.095.249-.357.4-.584.154-.225.33-.482.392-.568.059-.089.143-.216.185-.282.043-.067.137-.203.21-.307.075-.102.154-.225.182-.271.026-.044.08-.123.118-.178.07-.097.444-.638.598-.868.08-.123.177-.261.42-.613.302-.441.443-.634.462-.632.036.005 3.246 1.088 3.423 1.156.049.021.827.284 1.728.587.9.302 1.68.568 1.737.592.123.051.147.027.096-.102z" fill="#fff" opacity=".4"/></svg>