<svg width="40" height="41" viewBox="0 0 40 41" fill="none" xmlns="http://www.w3.org/2000/svg"><path d="M27.951 8.866a74.85 74.85 0 00-.748.447c-.345.211-.72.442-.833.506-.44.257-.6.353-1.338.805-.421.254-.855.522-.968.586-.113.064-.287.169-.389.228-.319.19-1.951 1.172-2.075 1.247-.346.216-.59.364-.984.596-.498.295-.488.295-.937.032a8.42 8.42 0 00-.361-.206 28.91 28.91 0 01-.334-.18c-.102-.059-.407-.23-.673-.38-.27-.146-.58-.322-.692-.387-.114-.065-.27-.152-.348-.192l-.334-.18a162.46 162.46 0 00-2.063-1.15c-.113-.065-.253-.14-.312-.173-.056-.03-.267-.15-.468-.26-.2-.114-.442-.244-.54-.299-.233-.133-.481-.268-.726-.407a6.432 6.432 0 00-.296-.162c-.049-.027-.189-.103-.31-.177-.124-.07-.242-.14-.267-.154-.075-.043-.091.043-.042.22l.264.898c.038.124.074.251.077.275.005.027.065.227.136.453.068.224.141.475.168.561.123.44.322 1.127.556 1.925.03.095.076.265.112.375.03.11.09.321.136.47.046.148.1.336.122.417.022.081.071.243.104.356.035.116.114.388.177.607.063.218.15.52.196.668.046.149.104.362.136.475.027.113.06.216.074.23.01.01.019.067.016.123-.005.097-.015.108-.313.287-.169.105-.383.233-.48.286-.094.051-.694.415-1.338.806-.64.388-1.252.757-1.354.816-.101.059-.619.372-1.152.696-.957.58-1.274.773-1.475.883-.056.03-.153.093-.214.134a114.265 114.265 0 00-1.689 1.017c-1.335.808-1.523.92-1.941 1.166-.11.067-.322.193-.47.281-.147.088-.302.18-.345.2-.043.027-.067.057-.054.07.014.014.863.012 1.887-.003 2.778-.043 3.264-.05 4.073-.06.408-.003 1.002-.014 1.32-.019.316-.01 1.23-.022 2.028-.032.798-.01 1.846-.028 2.332-.04.481-.011.893-.001.911.017.02.02.168.222.168.222l.108.243s.06.049.223.604c.136.48.417 1.432.477 1.642.038.124.09.305.117.396.024.095.07.26.106.37.033.108.082.285.117.396.033.108.079.272.104.367.027.091.078.272.117.396.035.127.117.402.177.607.174.61.296 1.027.419 1.445.038.124.093.313.125.415l.253.871c.063.208.115.388.333 1.138.267.927.283.976.351 1.216.038.124.093.313.125.415l.253.871c.148.496.172.585.216.741.027.092.079.273.117.397.06.21.34 1.162.48 1.645.28.968.353 1.202.377 1.205.014-.003.101-.334.199-.735.098-.406.185-.764.198-.793a48.84 48.84 0 01.222-.904c.125-.503.945-3.867.977-4.007.005-.037.066-.282.13-.54a1254.105 1254.105 0 011.145-4.69c.06-.256.124-.52.14-.584.013-.067.031-.146.042-.178.013-.03.196-.775.408-1.652.211-.877.41-1.617.442-1.638.062-.046 1.147-.074 4.167-.11.425-.004 1.016-.013 1.32-.02.303-.007 1.169-.02 1.92-.033 2.806-.043 3.964-.062 4.657-.07.393-.01.702-.033.69-.06-.02-.038-.355-.238-.7-.417-.078-.04-.236-.125-.35-.19a6.31 6.31 0 00-.296-.163c-.048-.027-.188-.103-.31-.176-.123-.07-.29-.168-.38-.214-.153-.084-.689-.38-1.076-.597l-.297-.163c-.056-.03-.19-.105-.293-.165-.105-.057-.267-.15-.366-.2-.334-.185-1.145-.638-1.333-.747a28.91 28.91 0 00-.334-.179c-.078-.04-.235-.127-.348-.192a37.579 37.579 0 00-.692-.388c-.266-.15-.57-.32-.673-.38a28.91 28.91 0 00-.334-.179c-.078-.04-.24-.133-.363-.203a5.513 5.513 0 00-.321-.177 3.437 3.437 0 01-.21-.114 78.019 78.019 0 00-1.029-.58c-.145-.076-.31-.17-.727-.407-.522-.293-.751-.43-.751-.452.002-.04.894-3.724.952-3.929.018-.056.235-.95.484-1.983.248-1.033.468-1.929.49-1.993.044-.143.015-.167-.125-.098z" fill="#fff" opacity=".1"/></svg>