<svg width="25" height="24" viewBox="0 0 25 24" fill="none" xmlns="http://www.w3.org/2000/svg"><path d="M18.965 6.68l-.509.145c-.236.07-.492.146-.568.166-.298.081-.408.112-.911.262-.287.083-.584.171-.66.191l-.264.072-1.413.405c-.237.073-.403.121-.67.196-.34.094-.333.096-.556-.13a5.089 5.089 0 00-.179-.177c-.04-.036-.115-.107-.168-.157-.05-.051-.202-.2-.335-.329-.135-.128-.289-.28-.345-.336a7.286 7.286 0 00-.173-.167 17.39 17.39 0 01-.168-.158 103.49 103.49 0 00-1.03-.998c-.055-.056-.126-.123-.155-.151-.029-.027-.133-.13-.234-.226-.1-.099-.22-.213-.27-.26-.116-.115-.24-.233-.362-.353a3.884 3.884 0 00-.148-.142c-.024-.023-.094-.09-.154-.152l-.132-.132c-.037-.038-.06.01-.06.122l.014.568a7.888 7.888 0 00.01.46l.012.356c.002.277.011.711.023 1.216.003.06.003.167.007.237 0 .07.002.203.006.297.004.094.006.213.006.264 0 .051.003.154.005.225l.008.384c.003.138.006.328.01.423.004.094.004.228.006.3a.616.616 0 00.007.145c.004.008 0 .043-.01.076-.018.056-.026.06-.229.119a57.727 57.727 0 00-1.238.354c-.436.127-.853.247-.922.266-.069.018-.422.12-.785.227-.653.19-.869.253-1.004.286-.038.008-.104.03-.147.044a96.439 96.439 0 01-2.472.71l-.32.091a5.66 5.66 0 01-.234.064c-.03.008-.048.022-.042.032.006.01.504.142 1.107.295 1.636.411 1.922.484 2.398.605.24.062.59.149.777.196.188.044.726.18 1.195.3.47.12 1.087.274 1.375.343.283.069.523.14.531.153.008.014.064.156.064.156l.025.16s.027.038.036.39c.004.302.02.904.021 1.037l.007.25c0 .06 0 .164.004.234.002.068.003.18.006.25s.004.173.004.232c.001.058.003.172.006.25 0 .08.005.255.008.384.007.385.013.65.02.914.002.078.005.198.008.263.002.114.005.305.011.55.004.132.006.246.016.72l.015.768.009.263c.002.114.005.305.011.55.009.315.01.37.01.47l.006.25c.003.133.018.735.023 1.04.013.611.019.76.033.766.008 0 .111-.18.232-.4.12-.222.228-.418.24-.434a30.166 30.166 0 01.272-.495c.153-.275 1.162-2.119 1.203-2.196.009-.02.083-.155.161-.296a745.801 745.801 0 011.583-2.89c.018-.038.041-.08.052-.098.013-.015.237-.424.499-.905.262-.48.495-.883.517-.891.043-.017.684.137 2.462.59.25.065.597.153.776.196l1.132.283c1.652.416 2.335.586 2.743.69.231.057.416.092.414.074-.007-.025-.171-.195-.345-.355-.04-.036-.12-.11-.176-.166a3.996 3.996 0 00-.148-.142c-.024-.024-.094-.09-.154-.152-.061-.06-.144-.144-.189-.185a106.28 106.28 0 01-.538-.52l-.148-.142a6.515 6.515 0 01-.146-.143c-.053-.05-.133-.129-.184-.175-.166-.16-.57-.553-.664-.647l-.168-.157a7.484 7.484 0 01-.174-.168 22.88 22.88 0 00-.345-.336l-.335-.328a15.97 15.97 0 00-.168-.158c-.039-.036-.12-.115-.18-.176a3.354 3.354 0 00-.161-.154 2.094 2.094 0 01-.105-.1 48.216 48.216 0 00-.512-.502c-.074-.067-.155-.149-.363-.353-.26-.253-.373-.37-.37-.383.008-.023 1.11-2.043 1.176-2.154.02-.03.287-.52.595-1.087a72.66 72.66 0 01.6-1.092c.05-.076.036-.095-.057-.076z" fill="#fff" opacity=".25"/></svg>