<svg width="36" height="37" viewBox="0 0 36 37" fill="none" xmlns="http://www.w3.org/2000/svg"><path d="M7.772 10.437c.026.058.178.372.337.702.16.325.335.677.383.783.193.412.266.563.61 1.256.192.395.395.803.443.908.048.106.127.27.17.365.144.3.886 1.832.943 1.948.165.325.277.554.452.924.222.467.223.458-.046.838a7.54 7.54 0 00-.212.305c-.042.067-.126.195-.185.284a66.39 66.39 0 00-.39.57c-.151.229-.332.49-.4.586a10.79 10.79 0 00-.197.295 26.41 26.41 0 01-.186.283 148.416 148.416 0 00-1.183 1.749c-.067.095-.145.214-.179.264-.031.048-.153.226-.268.398-.117.168-.252.374-.307.456-.137.198-.277.409-.419.616a5.794 5.794 0 00-.168.251c-.028.041-.106.16-.18.262l-.159.226c-.044.064.03.085.193.055l.817-.165c.113-.024.229-.046.25-.046.025-.003.206-.04.413-.086l.511-.106c.4-.075 1.026-.198 1.752-.344.086-.019.24-.047.342-.07.1-.018.291-.055.427-.084.135-.03.307-.063.38-.076l.324-.065.553-.11c.198-.038.473-.092.608-.122.136-.03.33-.064.432-.084a.9.9 0 00.21-.047c.01-.01.06-.012.11-.005.087.012.095.022.23.302.08.158.177.36.217.45.037.087.313.651.609 1.256.293.601.573 1.175.617 1.27.044.096.281.582.526 1.083.44.899.586 1.196.667 1.384.022.052.071.143.102.201.03.059.075.15.1.204.02.053.322.674.669 1.382.611 1.254.696 1.43.881 1.822.051.103.146.302.213.44.066.139.135.284.15.324.02.04.045.064.058.053.013-.01.078-.767.146-1.681.182-2.48.215-2.914.27-3.636.028-.364.066-.894.087-1.177.017-.284.078-1.099.132-1.811.053-.712.12-1.648.15-2.082.027-.43.068-.795.086-.81.018-.016.21-.133.21-.133l.224-.077s.048-.05.554-.151c.436-.084 1.303-.259 1.495-.295.113-.025.277-.057.36-.074.086-.014.236-.042.337-.065.098-.02.26-.05.36-.073.099-.021.249-.05.334-.064.084-.017.248-.049.361-.073.116-.022.366-.073.553-.11.554-.107.935-.184 1.315-.26.113-.024.285-.058.379-.079.164-.032.439-.086.792-.157.19-.04.354-.072 1.036-.207l1.107-.217c.113-.024.285-.058.379-.079.164-.032.439-.086.792-.157.452-.092.533-.107.675-.134.084-.017.248-.049.361-.073.192-.037 1.058-.212 1.498-.298.88-.173 1.095-.22 1.1-.242-.002-.012-.289-.116-.637-.235a18.49 18.49 0 01-.688-.239 1277.346 1277.346 0 00-4.263-1.455c-.033-.007-.245-.08-.47-.158a1111.081 1111.081 0 01-4.071-1.39 110.636 110.636 0 01-.661-.223 69.385 69.385 0 00-1.434-.493c-.762-.258-1.402-.493-1.419-.523-.035-.059.026-1.028.232-3.723.03-.38.07-.907.087-1.178.018-.271.075-1.043.123-1.715.184-2.504.258-3.538.305-4.156.023-.35.027-.628.003-.62-.036.016-.24.298-.426.591-.043.067-.13.202-.196.297a5.816 5.816 0 00-.168.252c-.028.04-.107.16-.181.262-.073.105-.172.246-.22.321-.087.13-.392.585-.615.913l-.168.252a9.572 9.572 0 01-.17.248c-.059.09-.153.226-.207.31-.19.284-.656.97-.767 1.13l-.186.284c-.042.066-.131.199-.198.294-.067.096-.248.358-.399.587-.153.226-.329.483-.39.57l-.185.283c-.043.067-.137.204-.21.309a4.907 4.907 0 00-.181.271 3.131 3.131 0 01-.118.179c-.07.097-.443.64-.596.87-.08.124-.177.263-.419.617-.301.442-.442.636-.461.634-.036-.005-3.234-1.09-3.41-1.158-.05-.021-.825-.285-1.722-.588s-1.675-.569-1.73-.593c-.124-.051-.148-.027-.097.103z" fill="#fff" opacity=".4"/></svg>