<svg width="40" height="40" viewBox="0 0 40 40" fill="none" xmlns="http://www.w3.org/2000/svg"><path d="M7.903 12.278c.035.061.241.394.458.742.217.343.453.715.519.827.264.436.363.596.826 1.327.261.418.536.848.601.96.066.112.174.285.234.386.195.316 1.203 1.935 1.28 2.058.222.343.373.585.612.976.302.494.302.484.047.939-.071.122-.16.286-.2.365-.039.079-.117.231-.172.337-.058.104-.223.412-.368.682a38.66 38.66 0 01-.375.7c-.063.114-.147.272-.186.351l-.173.338a165.026 165.026 0 00-1.112 2.086c-.063.115-.136.256-.168.316-.028.058-.144.27-.251.474-.11.202-.236.447-.289.545-.128.237-.26.488-.393.736a6.396 6.396 0 00-.157.3c-.027.048-.1.19-.171.313-.068.125-.137.245-.15.27-.042.076.045.09.221.038l.891-.28a12.976 12.976 0 00.723-.225c.222-.072.471-.15.557-.179.436-.13 1.118-.341 1.91-.59.094-.031.263-.08.373-.118.11-.032.318-.095.465-.144.148-.049.335-.107.415-.13.08-.023.241-.075.354-.11.115-.037.385-.121.602-.188.216-.066.516-.158.663-.207.148-.05.36-.11.471-.145.113-.03.215-.064.228-.077.01-.011.067-.02.123-.02.097.004.108.015.292.31.107.167.239.38.294.476a96 96 0 00.826 1.327c.398.635.777 1.242.838 1.343.06.1.381.614.713 1.143.596.95.794 1.263.906 1.463.03.056.096.151.138.212a115.51 115.51 0 001.043 1.675c.829 1.325.944 1.51 1.197 1.926.069.109.198.319.288.465.09.146.184.3.206.343.028.043.058.066.07.053.014-.014-.003-.865-.035-1.89-.09-2.784-.105-3.271-.129-4.082-.01-.409-.032-1.004-.041-1.321-.015-.318-.044-1.233-.068-2.033-.023-.8-.059-1.85-.079-2.336-.02-.482-.017-.894.002-.913.018-.02.218-.172.218-.172l.24-.113s.048-.06.6-.233c.476-.145 1.42-.442 1.629-.506.123-.04.303-.095.393-.124.094-.026.257-.075.367-.113.107-.034.284-.086.393-.124.108-.034.27-.084.365-.11.09-.029.27-.084.393-.124.126-.037.399-.124.602-.188.605-.185 1.02-.314 1.435-.444.123-.04.31-.099.412-.133.18-.055.479-.147.864-.268.206-.067.386-.122 1.13-.353.92-.283.969-.3 1.207-.373.123-.04.31-.098.412-.132.18-.055.48-.148.864-.269.493-.155.581-.182.736-.228l.394-.124c.209-.064 1.153-.36 1.633-.508.96-.298 1.193-.375 1.196-.4-.003-.013-.335-.095-.737-.186a20.868 20.868 0 01-.795-.186 1382.211 1382.211 0 00-4.92-1.117c-.037-.005-.282-.061-.54-.12a1258.25 1258.25 0 01-4.698-1.068l-.586-.131a1.928 1.928 0 01-.178-.04c-.03-.012-.776-.183-1.655-.38s-1.62-.383-1.642-.415c-.046-.061-.093-1.149-.181-4.174-.011-.426-.03-1.018-.042-1.322-.012-.304-.04-1.171-.066-1.925-.09-2.81-.13-3.97-.15-4.665-.016-.393-.044-.702-.07-.69-.038.022-.232.36-.405.708-.04.079-.12.24-.183.354a6.416 6.416 0 00-.158.3c-.026.049-.1.19-.17.313-.069.125-.163.294-.208.384-.08.155-.367.697-.576 1.09l-.158.3c-.029.057-.102.193-.16.296-.055.107-.144.27-.194.37a164.85 164.85 0 01-.721 1.35c-.055.105-.134.258-.173.337-.04.079-.123.237-.186.351-.063.115-.234.428-.375.7l-.367.682c-.055.106-.134.258-.173.337-.04.08-.129.243-.197.368-.071.123-.144.27-.17.324a3.486 3.486 0 01-.11.213c-.066.117-.418.765-.562 1.04-.073.147-.165.314-.393.736-.284.528-.418.76-.44.76-.04-.001-3.73-.832-3.934-.887-.057-.017-.952-.22-1.987-.451a119.226 119.226 0 01-1.997-.457c-.143-.042-.167-.012-.095.126z" fill="#fff" opacity=".1"/></svg>