<svg width="49" height="50" viewBox="0 0 49 50" fill="none" xmlns="http://www.w3.org/2000/svg"><path d="M9.66 15.546c.043.075.29.48.551.905.26.418.544.872.623 1.008.317.532.436.727.993 1.618.314.509.643 1.034.723 1.17.079.137.207.347.28.47.234.387 1.445 2.36 1.537 2.51.267.418.448.713.735 1.19.363.603.363.59.05 1.14-.087.149-.196.347-.245.442-.048.096-.145.28-.213.409-.07.125-.274.498-.45.824-.175.33-.385.709-.462.847-.077.139-.18.33-.229.425-.048.096-.145.28-.213.409-.129.23-.667 1.223-.886 1.632-.116.224-.245.461-.48.893-.078.138-.168.31-.207.382-.035.07-.177.327-.31.574-.135.244-.29.54-.354.659-.158.287-.32.59-.484.89-.077.138-.164.3-.193.362-.032.06-.123.231-.21.38-.083.151-.167.296-.183.326-.052.092.053.11.267.048l1.085-.332c.15-.048.303-.093.332-.097.033-.007.274-.082.547-.171.27-.086.573-.178.677-.213.531-.154 1.362-.405 2.326-.7.114-.038.319-.096.452-.14.134-.038.388-.114.567-.172.179-.058.407-.127.505-.155.097-.027.293-.089.43-.13.14-.044.468-.144.732-.223.264-.08.629-.189.808-.247.179-.058.436-.13.573-.172.137-.035.26-.076.277-.092.013-.013.081-.024.15-.022.117.005.13.018.351.378.129.204.287.463.353.58.063.114.512.84.993 1.618.478.775.934 1.514 1.006 1.637.073.123.459.75.858 1.394.715 1.158.953 1.54 1.088 1.784.036.068.116.184.165.259.05.074.122.191.162.262.036.069.527.87 1.091 1.78a194.438 194.438 0 011.438 2.348c.083.133.238.389.347.567.108.178.22.367.247.419.033.051.07.08.085.064.017-.017.003-1.05-.028-2.296-.087-3.38-.1-3.972-.124-4.956-.01-.497-.03-1.22-.04-1.606a239.01 239.01 0 01-.065-2.468c-.022-.971-.057-2.246-.077-2.838-.02-.585-.014-1.085.01-1.109.022-.023.265-.206.265-.206l.293-.135s.058-.073.73-.279c.579-.172 1.729-.525 1.983-.6.15-.049.367-.114.478-.148.114-.031.313-.09.446-.134.13-.041.346-.103.479-.148.13-.04.329-.1.443-.13.11-.035.329-.1.479-.148.153-.044.485-.147.732-.223.736-.22 1.241-.374 1.746-.528.15-.048.378-.117.501-.158.219-.065.583-.175 1.052-.32.251-.078.47-.143 1.375-.418 1.12-.336 1.178-.357 1.468-.443.15-.048.378-.117.502-.158.218-.065.583-.175 1.052-.319.599-.185.706-.216.895-.27.11-.035.329-.1.479-.148.254-.076 1.403-.43 1.986-.605 1.17-.353 1.453-.445 1.456-.475-.004-.016-.406-.118-.893-.232a25.351 25.351 0 01-.964-.232 3.264 3.264 0 00-.261-.062 1678.596 1678.596 0 00-5.703-1.334c-.046-.006-.343-.077-.657-.151a1517.94 1517.94 0 01-5.696-1.335c-.31-.07-.63-.144-.71-.163a2.344 2.344 0 01-.215-.05 95.45 95.45 0 00-2.006-.474c-1.066-.246-1.965-.479-1.99-.518-.057-.074-.105-1.395-.188-5.07-.01-.516-.027-1.236-.04-1.605-.012-.37-.038-1.422-.064-2.338-.087-3.413-.126-4.822-.145-5.666-.016-.477-.047-.852-.08-.839-.046.027-.284.436-.497.858-.048.095-.148.29-.226.428a7.86 7.86 0 00-.193.362c-.032.06-.122.231-.21.38-.083.151-.2.356-.254.464-.1.188-.452.844-.71 1.319-.067.128-.154.29-.193.362-.035.07-.126.234-.197.36-.067.128-.177.326-.238.448-.22.409-.758 1.4-.887 1.631-.067.129-.164.314-.212.41-.049.095-.152.286-.23.424-.077.139-.286.518-.46.847-.178.327-.38.7-.452.825l-.213.408c-.048.096-.157.293-.241.445a6.775 6.775 0 00-.21.392c-.029.063-.09.178-.135.257-.08.142-.513.927-.69 1.26-.09.178-.203.379-.484.89-.348.64-.513.92-.539.92-.049-.003-4.523-1.04-4.771-1.11-.069-.021-1.154-.274-2.409-.563-1.255-.29-2.343-.546-2.421-.57-.174-.054-.203-.018-.117.151z" fill="#fff" opacity=".3"/></svg>