<svg width="17" height="18" viewBox="0 0 17 18" fill="none" xmlns="http://www.w3.org/2000/svg"><path d="M6.84 1.015c-.012.041-.07.271-.13.513-.058.239-.12.499-.142.575-.079.299-.106.41-.23.92-.071.29-.143.592-.164.668-.02.075-.05.195-.07.264l-.357 1.427c-.055.241-.097.41-.167.678-.088.341-.083.336-.39.417-.083.02-.192.05-.243.067a17.983 17.983 0 01-.672.193c-.179.053-.387.11-.464.131-.076.02-.18.05-.232.067l-.22.067a100.322 100.322 0 00-1.38.393c-.076.02-.169.048-.208.06-.037.011-.179.05-.313.09-.135.036-.295.085-.36.103l-.487.138c-.076.02-.164.046-.197.058-.032.009-.125.037-.209.057l-.18.049c-.052.013-.021.057.076.112l.499.272a7.903 7.903 0 00.403.22l.313.169c.241.135.622.345 1.064.586l.21.113c.06.035.175.1.259.143l.232.126c.044.026.134.074.197.109.065.034.216.117.336.184.12.066.288.158.371.202.084.044.2.11.262.145.06.037.118.067.13.067.01 0 .037.02.06.046.04.043.04.053-.011.257a57.72 57.72 0 00-.313 1.25l-.232.932c-.019.069-.107.425-.197.794-.163.66-.216.879-.255 1.012-.012.037-.026.106-.035.15A69.546 69.546 0 003.104 16c-.227.92-.26 1.049-.334 1.334l-.081.322a5.657 5.657 0 01-.063.235c-.007.03-.004.053.007.053.012 0 .376-.366.81-.812a730.576 730.576 0 011.725-1.777c.174-.177.424-.437.559-.575.132-.14.519-.538.858-.886.338-.347.781-.805.985-1.02.202-.21.383-.383.399-.383.016 0 .167.023.167.023l.15.057s.047-.004.355.164c.265.147.793.434.91.499l.22.12c.05.03.141.08.204.112.06.032.157.088.22.12.06.032.15.083.202.113l.22.12.336.183c.337.187.568.313.8.44l.232.124.482.265c.116.062.216.117.631.345l.673.37c.07.037.174.095.232.124.1.056.266.148.482.265.276.15.325.177.41.226l.22.12c.117.064.645.351.912.499.536.294.668.363.68.354.004-.007-.1-.187-.23-.4a12.72 12.72 0 01-.255-.426 27.91 27.91 0 01-.292-.483l-1.299-2.138c-.014-.018-.093-.15-.176-.288l-.174-.287a776.84 776.84 0 01-1.535-2.527 47.83 47.83 0 00-.591-.978c-.286-.467-.518-.87-.513-.892.007-.046.461-.525 1.744-1.839a72.1 72.1 0 00.559-.575c.127-.133.493-.51.811-.84 1.188-1.224 1.677-1.73 1.971-2.031.165-.173.288-.316.272-.323-.026-.007-.255.051-.48.122a6.857 6.857 0 01-.232.07 3.84 3.84 0 00-.197.057c-.033.01-.126.037-.21.057-.083.023-.196.053-.254.072l-.719.207-.197.057a6.51 6.51 0 01-.197.056c-.07.02-.179.05-.244.07-.222.065-.765.22-.893.254-.07.02-.169.05-.22.067a7.33 7.33 0 01-.232.066c-.076.021-.285.079-.463.132-.179.05-.383.108-.453.126-.07.02-.169.05-.22.067-.05.016-.16.046-.243.069-.084.02-.179.05-.214.062-.032.012-.095.03-.139.041-.079.021-.51.14-.69.194-.096.03-.207.06-.488.138-.35.099-.508.138-.517.129a211.281 211.281 0 01-1.275-2.094 88.875 88.875 0 00-.643-1.059 72.89 72.89 0 01-.644-1.065c-.042-.08-.065-.078-.095.012z" fill="#fff" opacity=".35"/></svg>