<svg width="44" height="44" viewBox="0 0 44 44" fill="none" xmlns="http://www.w3.org/2000/svg"><path d="M4.93 19.981c.071.047.474.297.898.56.42.255.878.532 1.01.618.522.332.716.452 1.615.997.508.313 1.039.633 1.171.719.132.085.342.215.462.293.383.239 2.352 1.455 2.501 1.547.427.253.722.434 1.192.73.595.375.59.363.557.995-.011.172-.02.398-.02.505l-.008.46c-.007.144-.021.568-.033.938a47.02 47.02 0 01-.032.964c-.008.158-.014.375-.014.482 0 .107-.004.315-.007.46-.012.265-.048 1.392-.06 1.855-.004.252-.012.522-.029 1.013-.007.159-.01.352-.013.434 0 .078-.012.371-.02.651-.01.279-.016.613-.02.748-.013.327-.02.67-.033 1.012a7.733 7.733 0 00-.01.41c-.003.068-.007.261-.018.433-.007.173-.017.34-.018.374-.004.105.097.075.262-.078l.82-.785c.113-.11.23-.219.254-.235.026-.02.208-.197.412-.4.204-.197.433-.416.51-.493a206.51 206.51 0 001.766-1.672c.085-.085.242-.23.341-.33.103-.093.296-.275.43-.407.134-.133.307-.297.382-.366.075-.068.222-.211.326-.31.105-.102.355-.339.555-.528.2-.19.478-.452.612-.584.134-.133.331-.313.435-.411.107-.093.2-.185.206-.207.006-.018.062-.058.125-.087.107-.049.124-.043.484.178.206.125.464.285.576.36.107.072.834.518 1.614.996.776.476 1.515.93 1.635 1.008.12.077.746.462 1.393.857 1.16.71 1.544.945 1.774 1.101.063.045.186.113.264.158.077.044.195.115.262.161.063.045.862.538 1.776 1.097 1.615.992 1.841 1.132 2.34 1.447.133.081.387.24.564.35.178.11.362.227.41.262.052.031.097.04.104.019.008-.023-.468-.938-1.055-2.036-1.596-2.976-1.874-3.498-2.336-4.366-.232-.439-.576-1.074-.757-1.414a236.22 236.22 0 01-1.166-2.173c-.456-.856-1.06-1.978-1.343-2.497-.281-.513-.5-.962-.49-.993.01-.031.145-.304.145-.304l.201-.253s.02-.09.527-.576c.442-.415 1.311-1.247 1.504-1.43.113-.11.279-.266.362-.346.088-.08.24-.22.34-.32.097-.096.262-.248.361-.348.098-.095.25-.236.338-.316.083-.08.249-.236.361-.347.117-.108.368-.35.556-.528.56-.528.941-.893 1.323-1.258.113-.11.286-.274.378-.366.166-.157.443-.419.797-.758.19-.184.355-.34 1.042-.993.85-.804.894-.849 1.114-1.056.113-.11.286-.274.378-.366.166-.157.443-.419.797-.759.453-.434.535-.51.68-.645.083-.08.25-.236.361-.347.194-.181 1.063-1.014 1.506-1.433.887-.841 1.099-1.051 1.088-1.079-.01-.013-.416.077-.902.194-.493.12-.927.226-.967.228-.04.006-.155.033-.261.062a1682.71 1682.71 0 00-5.7 1.376c-.043.016-.34.087-.655.162-.318.074-.611.146-.653.156-.106.03-4.324 1.046-5.04 1.217l-.708.174c-.08.023-.174.046-.215.053-.04.002-.944.22-2.008.48-1.063.26-1.971.456-2.012.434-.084-.042-.72-1.198-2.444-4.44-.24-.456-.58-1.09-.756-1.414-.177-.324-.673-1.251-1.107-2.056-1.61-3.006-2.278-4.246-2.673-4.99-.229-.419-.426-.74-.45-.713-.028.045-.058.517-.058.989 0 .107-.003.325-.01.484a7.845 7.845 0 00-.01.41c-.002.068-.006.261-.017.433-.007.173-.02.407-.02.53-.005.212-.024.955-.042 1.495l-.01.41c0 .078-.008.265-.015.41-.003.144-.012.37-.012.506-.012.464-.049 1.591-.06 1.855-.003.145-.007.353-.007.46 0 .107-.007.324-.014.483-.007.158-.024.59-.032.963-.012.371-.026.795-.034.939-.002.145-.006.353-.006.46 0 .107-.01.333-.017.506a6.672 6.672 0 00-.011.444c.002.069 0 .2-.006.29a97.916 97.916 0 00-.052 1.434c0 .2-.011.43-.032 1.012-.025.727-.046 1.051-.07 1.064a424.03 424.03 0 01-4.765 1.158c-.07.011-1.155.274-2.407.58-1.252.307-2.34.569-2.422.582-.179.03-.188.076-.036.188z" fill="#fff" opacity=".1"/></svg>