<svg width="143" height="56" viewBox="0 0 143 56" fill="none" xmlns="http://www.w3.org/2000/svg"><path d="M5.442.719c-.188.398-.375.887-.422 1.07-.093.26-.265.337-1.045.43-1.84.213-1.84.213-.78 1.01l.92.688-.39.918c-.904 2.126-.997 2.402-.795 2.249.11-.077.749-.582 1.435-1.087.671-.52 1.295-.902 1.404-.841.094.061.905.643 1.778 1.316.89.658 1.638 1.178 1.67 1.147.015-.03-.313-.841-.718-1.805a56.82 56.82 0 01-.842-2.005c-.063-.168.343-.566 1.357-1.33.78-.613 1.388-1.102 1.341-1.102-.031 0-.827.107-1.763.23-.92.137-1.715.198-1.778.152-.047-.046-.234-.444-.42-.887-.188-.429-.406-.811-.5-.842-.078-.015-.28.291-.452.689zM97.269 2.525c0 .045.218.612.5 1.254l.498 1.163-.39.321c-.218.169-.64.52-.935.75l-.53.428.467-.076c.265-.046.796-.122 1.186-.184l.733-.091.28.719.281.719.343-.75c.359-.826.578-.964 1.404-.964.577 0 .687-.199.265-.444-.873-.504-.873-.52-.452-1.56.218-.52.39-.98.359-1.01-.031-.015-.421.23-.889.566-.453.337-.905.566-.999.505a26.133 26.133 0 01-1.06-.765c-.843-.627-1.061-.75-1.061-.581zM13.584 6.243c-.81.505-1.747 1.637-2.308 2.8-1.482 3.075-2.636 8.43-3.089 14.367-.171 2.31-.312 2.754-.795 2.754-.328 0 .109-5.753.826-10.864.25-1.805.453-3.503.453-3.779 0-.964-.827-1.33-3.588-1.591-2.043-.184-2.34-.076-2.823 1.01C1.324 13.005.872 16.662.872 22.11c0 4.33.156 6.502.702 9.792 1.2 7.344 3.837 11.659 7.144 11.704.67 0 1.825-.52 1.825-.826 0-.107-.266-.78-.609-1.484-.795-1.713-1.341-3.198-1.794-5.003-.499-1.897-.904-4.667-.842-5.63.047-.72.062-.75.593-.842.296-.046.686-.138.858-.184.28-.092.452.184 1.513 2.31 4.57 9.211 10.092 15.699 15.13 17.75 1.56.642 3.229.887 4.508.657 2.075-.352 2.792-1.836.89-1.851-.282 0-.921-.169-1.405-.367-3.244-1.316-7.362-6.09-11.823-13.725-1.217-2.096-3.588-6.61-3.588-6.84 0-.091.328-.336.749-.58 1.076-.613 3.104-2.204 4.102-3.23 2.964-3.014 4.352-6.135 4.352-9.761 0-2.938-.717-5.462-1.934-6.778-.874-.949-1.591-1.132-4.617-1.209-2.324-.061-2.62-.03-3.042.23zm2.558 2.02c1.45.718 2.2 2.447 2.2 5.018-.016 3.61-2.137 7.023-6.286 10.052-1.17.872-2.746 1.836-2.824 1.745-.093-.107.343-4.132.687-6.335.92-5.906 2.199-9.67 3.603-10.603.452-.306.655-.352 1.294-.26.422.046 1.014.214 1.326.382zM26.92 6.579c0 .275.11.306 1.093.306h1.092l.03 2.785.048 2.8h.78l.046-2.8.032-2.785h1.013c.905 0 1.014-.03 1.014-.306 0-.29-.109-.306-2.573-.306-2.465 0-2.574.015-2.574.306zM33.036 9.363c.046 3.091.046 3.106.405 3.152.343.046.343.016.343-1.469 0-1.3.047-1.575.328-1.927.234-.291.468-.398.827-.398.842 0 1.014.336 1.06 2.142.047 1.53.063 1.606.406 1.652.343.046.343.03.343-1.866 0-1.882 0-1.913-.406-2.219-.28-.214-.64-.321-1.076-.321-.437 0-.795.107-1.076.321l-.406.306V7.512c0-1.224 0-1.24-.39-1.24h-.39l.032 3.091zM51.38 7.267c-.141.628-.188 1.04-.095 1.087.219.137.5-.215.952-1.209l.406-.872h-.515c-.484 0-.515.015-.749.994zM73.248 9.41c0 3.03.015 3.136.311 3.136.203 0 .313-.107.313-.29 0-.276.015-.276.577 0 .686.352 1.123.367 1.84.076.78-.321 1.06-.98.983-2.264-.047-.872-.125-1.102-.468-1.439-.515-.52-1.576-.657-2.277-.306l-.5.26V7.422c0-1.117-.015-1.148-.39-1.148h-.39V9.41zm2.745-.49c.577.49.702 1.775.234 2.51-.28.428-.406.504-.936.504-.998 0-1.388-.596-1.28-1.912.11-1.255 1.124-1.821 1.982-1.102zM83.901 7.145c-.109.03-.203.276-.203.52 0 .368-.062.444-.39.444-.28 0-.39.077-.39.306 0 .23.11.306.39.306h.39v1.76c0 1.958.063 2.065 1.155 2.065.452 0 .561-.06.561-.29 0-.215-.125-.322-.421-.352l-.437-.046-.046-1.576-.047-1.56h1.887v1.667c0 1.928.11 2.157 1.108 2.157.499 0 .608-.045.608-.306 0-.214-.11-.306-.374-.306-.5 0-.562-.23-.562-1.851V8.721h.468c.359 0 .468-.061.468-.306s-.11-.306-.468-.306c-.437 0-.468-.046-.468-.535 0-.291-.062-.536-.14-.536-.406 0-.64.23-.64.612 0 .367-.078.444-.421.49-.25.03-.67.015-.936-.015-.468-.046-.515-.092-.515-.567 0-.505-.124-.596-.577-.413zM38.994 8.4c-.655.398-.89 1.025-.811 2.249.062.918.11 1.07.561 1.453.92.811 2.777.52 3.12-.474.156-.413.14-.459-.156-.459-.172 0-.515.199-.749.46-.265.29-.592.458-.842.458-.577 0-1.185-.627-1.185-1.224v-.459h3.166l-.11-.734c-.124-1.01-.748-1.561-1.777-1.561-.437 0-.92.107-1.217.29zm1.919.52c.093.107.234.367.28.597l.11.428h-1.186c-1.045 0-1.185-.03-1.185-.275 0-.857 1.341-1.362 1.98-.75zM43.424 8.216c-.031.077-.031 1.071 0 2.234.047 2.08.047 2.112.39 2.066.327-.046.343-.138.42-1.622.079-1.745.235-2.02 1.124-2.02.374 0 .437-.061.437-.398 0-.367-.047-.398-.5-.306-.265.046-.608.2-.764.337-.234.199-.265.199-.343-.092-.078-.29-.655-.444-.764-.199zM47.401 8.415c-.655.383-.873.811-.889 1.836-.03 1.607.593 2.295 2.075 2.295.608 0 .873-.091 1.248-.397.577-.475.64-.98.125-.98a.577.577 0 00-.5.337c-.218.474-.889.688-1.403.459-.422-.184-.936-1.148-.78-1.408.062-.091.795-.153 1.669-.153h1.575l-.11-.658c-.202-1.178-.732-1.637-1.933-1.637-.312 0-.796.138-1.077.306zm1.935.505c.093.107.202.352.234.566.046.367.015.383-1.077.429-1.216.046-1.357-.062-.967-.75.312-.581 1.326-.704 1.81-.245zM53.344 8.384c-1.123.704-.733 1.76.811 2.219 1.139.337 1.404.566 1.17.994-.327.612-1.59.536-1.81-.107-.062-.214-.233-.321-.483-.321-.514 0-.499.505.032 1.025.358.352.483.383 1.497.321 1.263-.06 1.684-.382 1.684-1.27 0-.657-.374-.948-1.575-1.27-.951-.244-.998-.29-.998-.719 0-.397.062-.459.452-.505.64-.076 1.186.092 1.186.352 0 .138.156.23.39.23.28 0 .39-.077.39-.276 0-.81-1.81-1.239-2.746-.673zM59.989 10.328v2.218h.39c.39 0 .39 0 .39-1.514 0-1.286.047-1.561.327-1.913.234-.29.468-.398.827-.398.842 0 1.014.337 1.06 2.142.047 1.53.063 1.607.406 1.653.343.046.343.03.343-1.699 0-.979-.046-1.882-.093-2.02-.265-.672-1.778-.902-2.465-.366l-.405.306V8.43c0-.245-.094-.322-.39-.322h-.39v2.219zM65.98 8.4c-.859.505-1.233 1.943-.78 2.983.342.796.935 1.163 1.902 1.163 1.045 0 1.45-.183 1.919-.841.312-.46.358-.673.296-1.5-.062-1.025-.39-1.637-1.03-1.927-.577-.26-1.762-.2-2.308.122zm1.886.413c.344.138.702.872.702 1.438 0 1.24-.904 2.066-1.856 1.683-.468-.183-.561-.32-.81-1.132-.188-.612.077-1.545.53-1.851.343-.245.982-.306 1.434-.138zM79.222 8.415c-.655.383-.874.811-.89 1.836-.03 1.607.593 2.295 2.075 2.295.609 0 .874-.091 1.248-.397.577-.475.64-.98.125-.98a.577.577 0 00-.5.337c-.218.474-.888.688-1.403.459-.421-.184-.936-1.148-.78-1.408.062-.091.796-.153 1.669-.153h1.575l-.109-.658C82.03 8.568 81.5 8.11 80.298 8.11c-.312 0-.796.138-1.076.306zm1.934.505c.093.107.203.352.234.566.047.367.016.383-1.076.429-1.217.046-1.357-.062-.967-.75.312-.581 1.325-.704 1.809-.245zM89.766 8.461c-.904.597-1.17 1.943-.608 3.137.343.734.749.948 1.872.948.593 0 .858-.091 1.232-.397.609-.49.64-.98.094-.98-.234 0-.39.092-.39.214 0 .307-.608.704-1.045.704-.5 0-1.123-.612-1.17-1.147l-.047-.46 1.607-.045c1.762-.046 1.747-.03 1.42-1.148-.313-1.117-1.873-1.545-2.965-.826zm1.623.276c.436.23.577.428.577.856 0 .337-.063.352-1.092.352-1.045 0-1.092-.015-1.092-.352 0-.367.343-.75.78-.918.359-.122.468-.122.827.062zM94.212 8.308c-.032.107-.047 1.086-.032 2.188.047 1.882.063 1.973.375 2.02.327.045.343-.031.405-1.515.047-1.393.094-1.576.422-1.836.202-.169.561-.291.81-.291.375 0 .453-.061.453-.383 0-.275-.078-.382-.312-.382-.374 0-1.092.321-1.092.49 0 .06-.062.122-.156.122-.078 0-.156-.138-.156-.306 0-.352-.577-.444-.717-.107zM101.247 12.714c-.109.169-.546 2.831-1.326 8.17-.265 1.76-.515 3.367-.546 3.55l-.078.337-.593-.336c-.514-.306-.795-.337-2.683-.337-1.95 0-2.168.03-2.963.398-3.042 1.408-5.553 6.059-5.865 10.817-.094 1.637-.562 3.045-1.903 5.876-1.357 2.892-1.81 1.713-2.012-5.203-.094-3.411-.125-3.763-.406-4.115-.515-.643-1.435-.964-2.792-.964-1.06 0-1.248.046-1.67.398-.28.23-.498.581-.545.872-.031.275-.156 1.055-.25 1.76-.202 1.453-1.013 4.283-1.747 6.074-.889 2.188-1.341 2.708-1.965 2.28-1.201-.812-1.045-6.32.28-10.206.983-2.877 2.715-5.325 4.275-6.06.951-.458 1.856-.427 2.261.077.422.52.796 1.76.796 2.601 0 .903.125 1.133.608 1.133.609 0 .796-.26.796-1.102 0-1.76-.593-3.244-1.576-3.948-.889-.627-1.98-.81-4.492-.734-1.965.046-2.184.092-2.948.474-2.293 1.179-4.102 3.917-5.132 7.743-.53 1.958-.67 5.523-.296 7.114.655 2.693 2.386 4.223 4.82 4.223.499 0 1.091-.092 1.341-.214.827-.428 1.763-1.622 2.62-3.427.562-1.148.905-1.683.968-1.546.062.123.312.918.561 1.775.827 2.938 2.153 4.759 3.62 5.034 1.278.23 2.526-1.01 4.07-4.04l.874-1.713.499 1.056c.92 1.958 2.527 3.06 4.664 3.198 1.903.122 3.073-.628 4.71-2.969.484-.703.936-1.239.999-1.178.062.077.358.689.67 1.377 2.964 6.824 6.583 11.46 10.03 12.868.437.184.842.337.889.337.281 0-.031-.735-1.06-2.586-2.621-4.682-4.087-8.553-5.039-13.312-.39-1.974-.421-2.325-.421-6.518.016-4.13.031-4.59.421-6.732.234-1.27.499-2.693.577-3.167.078-.49.437-2.035.796-3.443.343-1.423.671-2.892.717-3.274.078-.658.063-.72-.545-1.224-1.155-.98-3.682-1.73-4.009-1.194zm-3.822 13.297c.343.336.406 1.422.156 2.83-.14.857.047 1.148.733 1.148h.375l-.11 1.637c-.14 2.555-.826 4.666-2.573 8.033-1.42 2.708-2.137 3.335-2.917 2.524-1.045-1.086-1.326-3.213-.905-6.686.64-5.11 2.106-8.553 4.071-9.548.609-.32.796-.306 1.17.062zM45.482 13.923c0 .413.047.46.468.46.421 0 .468-.047.468-.46 0-.413-.047-.459-.468-.459-.42 0-.468.046-.468.46zM66.696 16.6v3.137h.39c.39 0 .39-.03.39-1.193 0-1.959.328-2.632 1.295-2.632.702 0 .873.398.92 2.142.047 1.607.047 1.607.437 1.607h.39v-1.79c0-1.622-.031-1.836-.328-2.112-.452-.444-1.435-.566-2.059-.245-.265.138-.514.2-.546.123-.046-.061-.078-.505-.078-.995-.015-.474-.015-.948-.015-1.025-.016-.092-.187-.153-.406-.153h-.39v3.137zM43.034 14.336c-.11.03-.203.276-.203.52 0 .368-.062.444-.39.444-.515 0-.546.566-.031.643.327.046.343.122.39 1.713.015.934.125 1.775.218 1.882.094.107.468.2.843.2.577 0 .686-.047.686-.291 0-.215-.125-.322-.421-.352l-.437-.046-.047-1.576-.047-1.56h.484c.359 0 .468-.062.468-.307s-.11-.306-.468-.306c-.437 0-.468-.046-.468-.535 0-.52-.125-.612-.577-.429zM64.17 14.398c-.156.076-.281.32-.281.52 0 .26-.094.382-.343.413-.53.077-.577.581-.063.581h.406v1.668c0 1.974.125 2.203 1.154 2.127.749-.061.92-.474.219-.55-.546-.062-.624-.337-.562-1.944l.047-1.224.515-.046c.701-.076.64-.55-.094-.612-.452-.046-.5-.092-.5-.582 0-.55-.077-.596-.498-.351zM49.351 15.59c-.483.383-.593.399-.593.093 0-.138-.14-.23-.39-.23h-.405l.047 2.096.047 2.112h.39c.39 0 .39-.016.42-1.377.032-.765.079-1.53.125-1.699.094-.413.874-.734 1.404-.612.546.138.702.628.702 2.326 0 1.438 0 1.438.39 1.438h.39v-1.576c0-1.453.031-1.606.359-1.912.452-.413 1.107-.429 1.513-.03.265.26.312.504.312 1.912v1.606h.78v-1.744c0-1.606-.032-1.79-.359-2.157-.452-.52-1.42-.674-2.106-.322-.28.138-.499.337-.499.429 0 .092-.172.015-.374-.168-.562-.52-1.607-.597-2.153-.184zM57.01 15.652c-.67.444-.983 1.286-.858 2.326.047.413.218.933.374 1.148.39.505 1.28.826 1.966.703 1.092-.198 2.059-1.468 1.138-1.468-.25 0-.436.137-.546.382-.343.735-1.575.689-1.98-.076-.453-.873-.39-.919 1.325-.919 1.779 0 1.84-.045 1.56-1.04-.343-1.316-1.81-1.82-2.98-1.056zm1.919.52c.155.138.28.414.28.613 0 .336-.047.352-1.185.352-1.154 0-1.17-.016-1.06-.352.17-.582.545-.873 1.122-.873.312 0 .687.108.843.26zM72.826 15.453c-.327.138-.67.582-.67.903 0 .321.655.168.966-.214.172-.214.453-.383.656-.383.499 0 1.03.429 1.03.826 0 .322-.094.368-.906.46-1.216.137-1.856.535-1.996 1.239-.14.734.296 1.316 1.107 1.53.484.122.687.092 1.186-.184.468-.26.608-.275.608-.107 0 .123.156.214.39.214h.39v-1.652c0-1.99-.078-2.28-.64-2.555-.483-.245-1.59-.291-2.12-.077zm1.981 2.448c0 .52-.437 1.178-.842 1.286-.484.122-1.108-.108-1.248-.46-.25-.657.312-1.101 1.435-1.116.562-.016.655.03.655.29zM78.707 15.407a1.71 1.71 0 00-.5.322c-.249.214-.28.199-.28-.016 0-.168-.125-.26-.39-.26h-.39v4.284h.374c.375 0 .375-.03.437-1.622.047-1.484.078-1.637.421-1.912.437-.352.92-.367 1.388-.046.312.214.344.352.344 1.913v1.667h.78v-1.805c-.016-1.867-.078-2.112-.734-2.448-.343-.184-1.045-.23-1.45-.077zM45.639 17.595v2.142h.78v-4.284h-.78v2.142zM26.53 17.687c.079.551.047.643-.265.78l-.343.154.453.214c.25.122.499.382.546.596l.093.383.219-.337c.171-.26.28-.29.577-.183.624.23.748.153.374-.23l-.359-.382.344-.551c.187-.306.311-.582.265-.627-.032-.046-.328.045-.655.198l-.578.276-.39-.46-.374-.458.094.627z" fill="#fff"/><path d="M84.853 17.947c.093.52.078.597-.203.673-.437.107-.406.291.047.413a.656.656 0 01.468.49c.109.383.124.398.405.138.25-.214.39-.23.78-.107.546.199.593.107.14-.367l-.343-.352.344-.567c.405-.657.327-.81-.203-.459-.515.322-.702.306-1.154-.107l-.39-.336.109.581zM52.86 23.134c-1.762.444-3.68 5.263-5.287 13.28l-.453 2.22-.046-1.378c-.032-.765.03-2.142.109-3.075.093-.918.172-2.234.172-2.922 0-1.194-.016-1.255-.5-1.714-.624-.597-2.152-1.087-3.4-1.087-1.123 0-1.404.245-1.123.965.14.32.218 1.728.25 4.085l.046 3.595-.764 1.882c-.983 2.448-1.638 3.703-1.919 3.703-.624 0-.858-1.423-.998-6.304-.14-4.605-.156-4.666-1.31-5.187-.827-.367-2.73-.398-3.385-.06-.593.305-.718.565-.842 1.774-.203 2.05-1.451 6.334-2.387 8.17-1.06 2.081-1.887 1.775-2.262-.841-.296-1.99.188-5.692 1.077-8.262 1.325-3.81 3.51-6.274 5.568-6.274.67 0 .733.031 1.092.643.39.658.718 2.035.718 2.984 0 .459.046.505.452.505.78 0 .998-.368.873-1.439-.233-2.142-.842-3.274-2.168-3.962-.592-.306-.858-.337-3.369-.337s-2.776.03-3.37.337c-3.212 1.683-5.521 6.319-5.77 11.597-.219 4.59 1.481 7.33 4.71 7.544.905.06 1.201.015 1.747-.26.858-.43 1.81-1.699 2.683-3.581.374-.81.718-1.484.764-1.484.047 0 .297.719.546 1.606.437 1.592 1.373 3.688 1.919 4.285.483.535 1.201.963 1.794 1.07 1.294.245 2.495-.948 4.024-3.962.515-.995.951-1.73.998-1.607.032.123.188.597.343 1.056.375 1.178.734 1.836 1.342 2.402 1.295 1.224 3.322 1.3 3.026.123-.062-.215.11-1.393.359-2.647.265-1.24.733-3.596 1.045-5.233 1.294-6.84 2.2-9.731 3.182-10.252.25-.122.328-.091.484.184.249.474.093 3.61-.406 7.85-.577 4.895-.655 6.777-.328 7.634.53 1.347 2.403 2.494 3.869 2.357.436-.031.592-.169.998-.857.577-.934 1.638-3.458 2.59-6.12.717-1.99.857-2.05.888-.398.047 2.647 1.186 5.92 2.465 7.13.686.658 1.232.887 2.059.887.936 0 .967-.138.624-2.448-.374-2.555-.421-5.585-.094-8.063.25-2.005.188-2.754-.312-3.29-.452-.52-1.544-.903-2.76-.994l-1.124-.092-.592.673c-.827.948-1.482 2.295-2.917 6.028-.811 2.081-1.17 2.709-1.014 1.76.28-1.76.468-4.407.452-6.809-.015-3.03-.28-4.529-1.06-5.83-.734-1.223-2.106-1.866-3.307-1.56zM137.825 23.792c-.546.398-1.622 1.79-2.168 2.846-.172.306-.375.704-.468.857-.655 1.147-2.496 5.906-3.525 9.104-.437 1.33-.843 2.417-.905 2.417-.078 0-.109-1.912-.094-4.253.031-3.183-.015-4.33-.156-4.59-.374-.674-1.466-1.026-3.244-1.026-1.31 0-1.638.046-1.872.276-.25.245-.25.29 0 .704.203.336.265.826.281 2.034 0 .857.062 2.158.125 2.877.078.72.093 1.362.046 1.454a.747.747 0 00-.124.306c-.047.32-1.623 4.07-2.091 4.957-1.091 2.127-1.528.734-1.7-5.37-.14-4.637-.14-4.667-1.388-5.203-.889-.382-2.589-.413-3.322-.046-.546.291-.687.582-.827 1.913-.312 2.77-1.981 7.834-2.979 9.012-1.155 1.331-2.028-1.102-1.685-4.697.452-4.698 2.09-8.737 4.243-10.512 1.029-.826 1.809-1.178 2.558-1.117.577.046.686.107 1.014.674.218.397.421 1.178.546 2.065l.187 1.438.468-.046c.686-.06.889-.428.811-1.407-.187-2.234-.796-3.305-2.293-4.04-1.326-.657-5.335-.627-6.692.062-2.542 1.27-4.492 4.498-5.506 9.103-.296 1.408-.25 5.004.094 6.12.53 1.714 1.388 2.847 2.651 3.474.702.352 2.106.52 2.98.367.982-.184 1.949-1.3 2.994-3.443.5-1.01.936-1.85.983-1.85.047 0 .297.733.531 1.636 1.372 4.973 3.837 6.687 6.036 4.193.593-.674 2.792-4.744 2.792-5.157 0-.382.265-.214.359.215.047.23.234.81.405 1.27.796 2.065 2.059 3.197 3.557 3.197h.827l.53-1.055c.515-.98 1.856-4.866 3.619-10.344 1.154-3.641 1.622-5.034 1.731-5.125.047-.046.047.122 0 .382-.359 1.668-.92 6.855-.998 9.12-.094 2.922.015 3.763.686 5.08.78 1.53 2.262 2.63 3.744 2.814 1.138.123 1.248-.076.826-1.667-.202-.827-.358-2.005-.421-3.336-.093-2.218 0-3.09.905-7.956 1.108-5.89 1.139-6.32.499-6.931-1.216-1.133-3.541-1.53-4.57-.796zM122.382 50.553v3.152h.78v-1.53c0-1.439.031-1.576.39-1.913.421-.428.967-.49 1.42-.168.249.183.296.443.343 1.912.062 1.683.062 1.699.437 1.699.374 0 .374 0 .374-1.745 0-1.514-.047-1.79-.312-2.126-.452-.567-1.232-.674-2.028-.306l-.608.306-.047-1.163c-.047-1.071-.078-1.163-.39-1.209l-.359-.046v3.137zM132.786 47.523c-.062.061-.109 1.484-.109 3.152v3.03h.78l-.031-3.091c-.047-2.662-.078-3.106-.281-3.152-.14-.015-.296 0-.359.061zM141.1 48.38c0 .536.047 1.637.109 2.448.078 1.316.125 1.5.39 1.5.25 0 .281-.123.281-.964 0-.52.047-1.622.109-2.448l.094-1.484h-.983v.948zM44.594 48.564c-.203.398-.437.673-.546.642-.11-.046-.406-.107-.67-.168l-.469-.107.437.459c.343.352.421.535.328.857-.094.382-.078.398.327.245.374-.138.5-.107.811.168l.359.337v-.413c0-.337.11-.46.468-.597.515-.2.624-.413.203-.413-.515 0-.733-.276-.811-1.01l-.094-.704-.343.704zM111.9 48.365c-.171.092-.28.337-.28.597 0 .382-.063.459-.39.459-.499 0-.531.413-.032.49.328.045.344.122.422 1.805.078 1.683.093 1.76.468 1.943.592.306 1.154.199 1.216-.245.031-.214 0-.321-.109-.26-.094.061-.312.03-.483-.061-.297-.153-.312-.29-.281-1.653l.047-1.484.436-.046c.234-.03.421-.137.421-.26 0-.122-.187-.23-.421-.26-.374-.046-.436-.122-.483-.627-.047-.597-.109-.643-.531-.398zM115.425 49.482c-1.123.49-1.591 1.882-1.06 3.12.686 1.623 3.166 1.684 3.946.108.499-.995.187-2.433-.624-3.03-.53-.382-1.638-.474-2.262-.198zm1.888.887c.374.428.421.597.359 1.3-.094 1.01-.562 1.577-1.311 1.577-.842 0-1.201-.429-1.279-1.5-.062-.887-.047-.964.406-1.408.655-.627 1.263-.627 1.825.031zM128.824 49.375c-.639.122-1.248.872-1.341 1.683-.11.795.062 1.76.374 2.127.952 1.132 3.416.688 3.416-.612 0-.398-.546-.276-.905.214-.374.49-1.014.612-1.591.306-.249-.123-.624-.888-.624-1.24 0-.076.749-.137 1.654-.137h1.669l-.109-.72c-.172-1.254-1.217-1.912-2.543-1.621zm1.404.765c.125.153.265.413.296.581.047.276-.046.306-1.076.352-1.061.046-1.139.016-1.139-.275 0-.78 1.373-1.255 1.919-.658zM136.623 49.574c-.546.244-.67.244-.67.076 0-.153-.156-.23-.422-.23h-.436l.047 3c.046 2.983.046 2.983.389 2.937.312-.046.344-.153.39-1.01.047-.948.047-.948.39-.719.453.306 1.435.29 1.997-.03.593-.352.92-1.072.92-2.035 0-1.102-.343-1.76-1.107-2.05-.749-.307-.702-.307-1.498.06zm1.014.397c.78.215 1.077 1.836.499 2.77-.265.428-.39.505-.936.505-.405 0-.733-.108-.92-.291-.671-.658-.515-2.417.265-2.83.484-.26.593-.276 1.092-.154zM141.1 53.322c0 .321.078.383.468.383s.468-.062.468-.383-.078-.382-.468-.382-.468.06-.468.382z" fill="#fff"/></svg>