<svg width="41" height="40" viewBox="0 0 41 40" fill="none" xmlns="http://www.w3.org/2000/svg"><path d="M32.371 27.644a72.68 72.68 0 00-.46-.74c-.217-.341-.454-.712-.52-.824a56.319 56.319 0 00-.83-1.322c-.261-.416-.536-.845-.602-.956l-.235-.384a871.754 871.754 0 00-1.284-2.051 38.528 38.528 0 01-.614-.973c-.303-.492-.303-.482-.047-.935.071-.123.16-.285.2-.364l.174-.337c.058-.103.224-.41.368-.678.142-.272.314-.584.377-.698.063-.114.147-.272.187-.35l.173-.337a164.448 164.448 0 001.116-2.08c.064-.113.137-.255.169-.314.029-.057.145-.269.253-.473.11-.2.236-.445.289-.542.129-.237.26-.486.395-.733.063-.115.134-.248.158-.3.026-.048.1-.19.17-.311l.151-.27c.042-.075-.044-.09-.221-.038l-.895.28a3.41 3.41 0 01-.274.08c-.027.006-.226.07-.451.144l-.559.178c-.438.13-1.123.34-1.918.588-.093.031-.263.08-.373.118-.11.031-.32.095-.467.144-.148.048-.336.106-.416.13-.081.022-.242.074-.355.109-.116.037-.387.12-.604.187-.218.066-.519.158-.666.207-.148.049-.36.11-.473.144-.113.03-.215.064-.228.077-.011.011-.068.02-.124.019-.097-.003-.108-.014-.293-.308a15.31 15.31 0 01-.295-.474 95.809 95.809 0 00-.829-1.322c-.4-.634-.78-1.238-.84-1.338-.06-.101-.383-.612-.716-1.14-.598-.945-.796-1.258-.91-1.457-.03-.056-.096-.151-.137-.212a3.823 3.823 0 01-.135-.214c-.03-.056-.44-.71-.912-1.455-.831-1.32-.947-1.505-1.2-1.918-.07-.109-.199-.318-.29-.464-.09-.146-.184-.3-.207-.342-.027-.042-.057-.066-.07-.052-.014.014.003.861.035 1.883.09 2.774.105 3.26.13 4.067.01.408.031 1 .04 1.317.016.317.044 1.229.068 2.025.024.797.06 1.843.079 2.329.02.48.017.89-.002.91-.018.019-.218.17-.218.17l-.242.113s-.047.06-.6.233c-.479.144-1.427.44-1.636.504-.124.04-.304.095-.395.123a8.329 8.329 0 00-.368.113c-.108.034-.285.086-.395.123-.107.035-.271.084-.365.11-.092.029-.272.084-.395.124-.127.037-.4.124-.604.187-.608.184-1.024.314-1.44.443-.124.04-.312.098-.414.133-.18.054-.48.146-.867.267-.207.066-.387.121-1.134.352-.924.282-.972.299-1.211.371-.124.04-.312.098-.414.132-.18.055-.48.147-.867.268-.494.155-.583.181-.739.228-.091.028-.271.083-.395.123-.21.064-1.157.36-1.638.507-.964.297-1.198.374-1.2.398.002.014.335.095.738.186.409.09.768.172.798.185a48.693 48.693 0 01.909.206c.506.116 3.887.877 4.028.906.037.005.284.062.543.12a1263.841 1263.841 0 014.715 1.064l.587.13c.067.012.146.03.178.04.03.012.78.182 1.661.378.882.196 1.626.382 1.648.414.047.06.093 1.144.181 4.16.011.423.03 1.014.042 1.317.012.303.04 1.166.066 1.917.09 2.8.13 3.957.15 4.65.016.39.044.699.07.688.038-.023.233-.36.407-.707.04-.079.12-.239.184-.353.063-.114.134-.247.158-.298.026-.05.1-.19.171-.313.069-.124.163-.293.208-.382.082-.155.368-.695.58-1.086.054-.106.125-.24.157-.299.029-.057.103-.193.16-.296.056-.106.145-.269.195-.369.18-.337.619-1.154.724-1.344l.174-.336c.04-.079.123-.236.187-.35.063-.114.234-.427.376-.698.145-.269.31-.576.369-.679.055-.106.134-.258.173-.336.04-.079.13-.242.198-.367.071-.122.145-.269.17-.323.024-.051.075-.146.111-.212.066-.116.42-.763.564-1.037.073-.146.166-.312.395-.733.284-.527.419-.757.44-.758.04.002 3.744.83 3.95.884.056.018.954.219 1.993.45 1.038.23 1.939.434 2.004.454.143.043.167.013.095-.125z" fill="#fff" opacity=".1"/></svg>