<svg width="36" height="36" viewBox="0 0 36 36" fill="none" xmlns="http://www.w3.org/2000/svg"><path d="M27.556 26.29a64.575 64.575 0 00-.34-.699c-.16-.324-.335-.675-.384-.78-.194-.411-.267-.562-.611-1.252-.194-.394-.398-.801-.446-.906-.048-.105-.128-.268-.172-.364-.144-.298-.89-1.826-.947-1.941a34.556 34.556 0 01-.454-.921c-.222-.466-.223-.457.046-.836.075-.102.17-.238.212-.304l.186-.282.391-.568c.152-.228.333-.49.4-.585.067-.095.156-.227.199-.293.042-.066.127-.194.186-.282a148.193 148.193 0 001.186-1.742c.067-.095.146-.213.18-.264.03-.047.153-.225.268-.395.117-.168.252-.373.308-.455.137-.198.277-.407.42-.614.067-.095.142-.207.168-.25.028-.04.107-.16.181-.261.073-.105.145-.204.16-.225.044-.063-.032-.084-.194-.055l-.82.164a11.475 11.475 0 00-.665.131c-.205.043-.434.088-.513.106-.401.074-1.029.196-1.758.341-.086.02-.241.047-.343.07-.1.018-.292.054-.428.084-.136.029-.308.063-.382.075l-.325.064-.554.11c-.2.038-.475.091-.611.12-.136.03-.33.064-.433.084a.91.91 0 00-.21.047c-.01.01-.062.012-.112.005-.086-.012-.095-.022-.23-.3-.08-.159-.178-.36-.218-.45-.038-.087-.314-.649-.612-1.251-.295-.6-.575-1.172-.62-1.267-.044-.095-.282-.58-.528-1.08-.442-.895-.589-1.192-.67-1.379-.022-.052-.072-.143-.103-.2a141.842 141.842 0 01-1.658-3.397l-.213-.44a8.196 8.196 0 01-.152-.323c-.02-.04-.044-.064-.058-.053-.013.011-.078.766-.145 1.676-.18 2.471-.214 2.904-.268 3.623-.029.363-.066.892-.087 1.174-.017.282-.077 1.094-.131 1.804-.054.71-.12 1.642-.149 2.075-.027.428-.068.792-.087.808-.018.015-.21.131-.21.131l-.225.077s-.048.049-.556.15c-.438.083-1.307.257-1.5.294-.113.024-.278.056-.361.072a7.48 7.48 0 00-.338.066c-.098.02-.26.05-.362.072-.098.02-.248.049-.335.063l-.362.073c-.115.021-.367.072-.554.11-.556.106-.938.182-1.32.258-.113.024-.286.057-.38.078-.164.032-.44.085-.795.156-.19.04-.355.071-1.04.205-.846.164-.89.175-1.11.216-.113.025-.285.058-.38.079-.164.032-.44.085-.795.156-.453.091-.534.106-.677.133-.084.017-.249.048-.362.072l-1.502.296c-.885.173-1.1.22-1.104.24.002.013.29.117.639.235.354.12.666.225.69.24a45.203 45.203 0 01.788.269c.439.15 3.369 1.143 3.491 1.183.033.007.246.08.471.157a1102.825 1102.825 0 014.086 1.388 116.628 116.628 0 01.664.223c.025.014.674.235 1.439.492.764.257 1.407.492 1.424.523.036.058-.025 1.024-.23 3.71-.03.377-.07.903-.087 1.173-.018.27-.075 1.04-.122 1.71-.183 2.495-.257 3.525-.304 4.141-.023.35-.027.626-.002.618.035-.016.24-.297.427-.589.042-.066.13-.2.197-.296.067-.095.142-.207.168-.25.028-.041.107-.16.181-.261.073-.105.173-.245.221-.32.087-.13.393-.583.616-.91l.168-.25c.032-.049.11-.162.171-.248.059-.09.154-.225.208-.31.19-.282.657-.966.769-1.125l.186-.282c.042-.067.131-.198.198-.294.067-.095.249-.356.4-.584.154-.225.33-.482.391-.568.06-.089.144-.216.186-.282.043-.066.137-.203.21-.307.075-.102.154-.225.182-.27.026-.044.08-.124.118-.178.07-.098.444-.639.598-.868.08-.123.177-.262.42-.614.302-.441.443-.633.462-.632.036.006 3.245 1.088 3.423 1.156.049.021.827.285 1.728.587.9.303 1.68.568 1.736.592.124.052.148.027.097-.102z" fill="#fff" opacity=".4"/></svg>