<svg width="49" height="49" viewBox="0 0 49 49" fill="none" xmlns="http://www.w3.org/2000/svg"><path d="M38.678 34.187a87.511 87.511 0 00-.553-.902c-.261-.416-.546-.869-.625-1.004-.318-.53-.437-.724-.997-1.612-.314-.508-.645-1.03-.724-1.166-.08-.136-.209-.346-.282-.47-.235-.384-1.45-2.351-1.542-2.5-.268-.416-.45-.71-.738-1.185-.364-.601-.364-.588-.05-1.137.088-.148.198-.345.246-.44.049-.095.146-.28.214-.407.07-.125.275-.496.453-.822.174-.328.385-.706.462-.844.078-.138.182-.328.23-.423.049-.096.146-.28.214-.408.13-.23.67-1.218.89-1.626.116-.223.245-.46.482-.89.077-.138.168-.308.207-.38.035-.07.178-.326.31-.572.136-.243.291-.539.356-.657.159-.286.32-.588.486-.887.077-.138.165-.299.194-.361.032-.06.123-.23.21-.378.084-.151.168-.296.185-.325.051-.092-.053-.11-.27-.049l-1.087.332a4.17 4.17 0 01-.334.096c-.032.007-.274.082-.549.17-.271.086-.575.178-.68.213-.532.154-1.366.404-2.333.698-.114.037-.32.096-.454.14a18.96 18.96 0 00-.569.171c-.18.058-.408.126-.507.154-.098.027-.294.089-.43.13-.141.044-.471.143-.736.222-.265.079-.63.188-.81.246-.18.058-.439.13-.576.172a1.237 1.237 0 00-.278.092c-.013.013-.081.024-.15.021-.118-.005-.131-.017-.353-.376a18.598 18.598 0 01-.354-.578c-.063-.113-.513-.837-.996-1.612a250.46 250.46 0 01-1.01-1.632c-.072-.123-.46-.746-.86-1.389-.718-1.153-.956-1.534-1.092-1.777-.037-.068-.116-.184-.166-.258a4.721 4.721 0 01-.162-.262c-.036-.068-.53-.866-1.095-1.773-1-1.61-1.139-1.835-1.443-2.34-.083-.132-.238-.387-.348-.565-.109-.177-.221-.365-.248-.417-.033-.051-.07-.08-.085-.064-.017.017-.003 1.047.027 2.288.088 3.369.102 3.958.124 4.939.01.495.031 1.215.04 1.6.016.384.043 1.492.066 2.46.022.967.057 2.237.077 2.827.02.583.014 1.082-.01 1.105a8.615 8.615 0 01-.267.206l-.293.134s-.059.073-.732.278c-.582.171-1.735.524-1.99.599-.15.048-.37.113-.48.147-.115.03-.314.09-.448.133-.131.041-.347.103-.48.147-.131.041-.33.1-.445.13-.111.035-.33.1-.48.148-.154.044-.488.147-.736.222-.739.22-1.245.373-1.752.527-.15.048-.379.116-.503.157-.219.065-.585.175-1.056.318-.251.079-.47.144-1.379.418-1.124.335-1.183.355-1.474.44-.15.049-.379.117-.503.158-.219.065-.585.175-1.055.318-.602.185-.71.216-.9.27-.11.035-.33.1-.48.148-.254.075-1.408.427-1.993.602-1.173.352-1.458.444-1.46.474.003.016.406.117.895.231.495.114.931.215.967.23.04.013.154.04.263.062a1716.6 1716.6 0 005.723 1.33c.045.006.344.076.658.15.319.077.614.144.656.154a1540.3 1540.3 0 015.06 1.175c.312.07.634.145.712.163.082.015.177.037.217.05.036.015.944.227 2.013.472 1.07.246 1.971.477 1.998.516.056.074.104 1.39.187 5.052.01.515.027 1.232.04 1.6.012.368.038 1.417.064 2.33.088 3.4.126 4.804.145 5.645.016.476.048.85.08.837.046-.027.286-.435.5-.855.048-.095.148-.289.226-.427a7.81 7.81 0 00.194-.361c.032-.06.123-.23.21-.378.084-.151.201-.355.256-.463.1-.187.453-.841.712-1.314l.194-.361c.035-.07.126-.234.197-.358.068-.128.178-.325.24-.447.22-.407.76-1.396.89-1.626.067-.128.165-.312.213-.407.049-.095.152-.286.23-.424.078-.138.288-.516.462-.844.178-.325.382-.696.454-.821.067-.128.165-.312.213-.407.049-.096.159-.293.243-.444.087-.148.178-.325.21-.39.03-.063.09-.178.136-.257.08-.141.514-.923.692-1.255.091-.177.204-.377.486-.887.35-.637.514-.916.54-.917.05.003 4.54 1.037 4.789 1.105.069.022 1.157.274 2.417.562a147.5 147.5 0 012.43.568c.174.053.203.017.117-.151z" fill="#fff" opacity=".3"/></svg>