<svg width="41" height="41" viewBox="0 0 41 41" fill="none" xmlns="http://www.w3.org/2000/svg"><path d="M12.315 32.448c.061-.034.398-.234.75-.445.347-.21.724-.44.837-.504.441-.256.603-.352 1.342-.802.423-.254.858-.52.971-.584.113-.064.288-.168.39-.227.32-.19 1.96-1.168 2.083-1.243.347-.216.592-.362.987-.594.5-.294.49-.294.941-.032.122.073.284.165.362.206.079.04.23.122.335.178.103.06.409.23.676.379.27.145.581.321.695.386.113.065.27.151.348.192.079.04.23.122.335.178a165.546 165.546 0 002.07 1.146c.114.065.255.14.314.173.057.03.267.149.47.26.2.113.443.243.54.297l.73.405c.114.065.246.138.298.163.048.027.189.102.31.175.125.07.244.14.268.154.076.043.091-.042.042-.22l-.265-.894a3.41 3.41 0 01-.076-.274 12.9 12.9 0 00-.137-.452c-.068-.223-.142-.473-.17-.559-.122-.438-.322-1.123-.557-1.918-.03-.094-.076-.263-.112-.374-.03-.11-.09-.32-.137-.467a13.791 13.791 0 01-.123-.416c-.021-.081-.07-.242-.103-.355a51.942 51.942 0 01-.178-.605c-.063-.217-.15-.518-.197-.666-.046-.148-.104-.36-.136-.473a1.01 1.01 0 00-.074-.228c-.011-.011-.02-.067-.017-.124.005-.096.016-.107.315-.286.169-.104.384-.232.481-.285.094-.05.697-.413 1.343-.803.643-.386 1.256-.754 1.358-.813.103-.059.622-.37 1.157-.693.96-.579 1.278-.77 1.48-.88.056-.03.153-.094.215-.134a114.438 114.438 0 001.695-1.013c1.34-.805 1.528-.917 1.948-1.162.11-.067.323-.192.47-.28.149-.088.305-.179.348-.2.043-.027.067-.056.053-.07-.013-.013-.865-.011-1.893.004-2.788.043-3.276.049-4.088.059-.41.004-1.005.015-1.323.019-.319.01-1.235.022-2.036.032-.801.01-1.853.028-2.34.04-.483.011-.896.002-.915-.017-.019-.02-.168-.22-.168-.22l-.109-.243s-.06-.048-.223-.602c-.137-.478-.419-1.427-.479-1.636-.038-.124-.09-.304-.117-.395a8.2 8.2 0 00-.107-.368c-.033-.108-.082-.285-.117-.395-.033-.108-.08-.271-.104-.365-.027-.092-.08-.272-.118-.396-.035-.126-.117-.4-.177-.604-.175-.607-.298-1.024-.421-1.44-.038-.124-.093-.312-.126-.414l-.254-.868c-.063-.207-.115-.387-.334-1.133-.267-.925-.284-.973-.352-1.212-.038-.124-.093-.312-.126-.414l-.254-.868c-.147-.494-.172-.583-.216-.739l-.117-.395c-.06-.21-.342-1.158-.481-1.639-.282-.964-.355-1.198-.38-1.2-.013.002-.101.332-.2.731a20.53 20.53 0 01-.198.791 46.777 46.777 0 01-.223.9c-.125.502-.948 3.854-.98 3.993-.005.038-.066.282-.13.54-.066.26-.125.5-.133.535-.018.089-.87 3.55-1.016 4.137l-.141.582a1.932 1.932 0 01-.042.177c-.014.03-.197.772-.41 1.646-.212.875-.411 1.612-.443 1.633-.062.046-1.151.073-4.182.11-.426.004-1.02.012-1.324.02l-1.928.032c-2.815.043-3.978.063-4.673.07-.394.01-.704.033-.693.06.022.037.357.237.703.416.078.04.238.124.351.189.114.065.246.138.297.162.049.027.19.103.311.176.124.07.292.167.381.213.154.084.692.378 1.081.595.105.056.238.13.297.162.057.03.192.105.295.165.105.056.267.148.367.2.336.183 1.149.635 1.338.743.106.057.257.138.335.178.079.04.235.127.349.192.113.065.424.24.694.387.268.148.573.319.676.378.105.057.257.138.335.178.079.04.24.133.365.203.122.073.268.149.322.176.05.024.145.076.21.113.117.068.76.43 1.033.579.146.075.31.17.73.405.524.292.753.43.754.451-.003.04-.897 3.71-.956 3.915-.019.056-.236.946-.486 1.976s-.47 1.922-.491 1.986c-.045.142-.015.167.125.097z" fill="#fff" opacity=".1"/></svg>