<svg width="18" height="18" viewBox="0 0 18 18" fill="none" xmlns="http://www.w3.org/2000/svg"><path d="M10.376 17.609c.012-.041.07-.272.13-.513.058-.24.12-.5.142-.575.078-.3.106-.41.23-.92.07-.29.143-.592.164-.668.02-.076.05-.196.07-.265l.356-1.426c.056-.242.098-.41.167-.679.088-.34.084-.336.39-.416.083-.021.192-.051.243-.067a16.13 16.13 0 01.673-.193c.178-.053.387-.11.464-.132.076-.02.18-.05.232-.066l.22-.067a101.803 101.803 0 001.38-.393l.208-.06c.037-.012.179-.05.313-.09.135-.037.295-.085.36-.104.157-.043.322-.092.487-.138.076-.02.164-.046.197-.057.032-.01.125-.037.208-.058l.181-.048c.051-.014.021-.057-.076-.113l-.499-.271a8.032 8.032 0 00-.403-.22l-.313-.17c-.241-.135-.622-.344-1.065-.586-.053-.027-.146-.08-.208-.113a9.429 9.429 0 00-.26-.142 8.415 8.415 0 01-.232-.127l-.197-.108a30.947 30.947 0 01-.336-.184c-.12-.067-.288-.159-.371-.203-.084-.043-.2-.11-.262-.144a.615.615 0 00-.13-.067c-.01 0-.037-.02-.06-.046-.04-.044-.04-.053.011-.258a57.18 57.18 0 00.313-1.25c.11-.441.213-.862.232-.931.019-.07.107-.426.197-.794.162-.66.216-.879.255-1.012.012-.037.026-.106.035-.15a70.107 70.107 0 00.29-1.162c.227-.92.26-1.05.334-1.335l.08-.322c.027-.1.054-.207.064-.234.007-.03.004-.053-.007-.053-.012 0-.376.366-.81.812-1.175 1.213-1.382 1.424-1.725 1.776-.174.177-.424.437-.559.575-.132.14-.52.539-.858.886-.338.348-.781.806-.985 1.02-.202.211-.383.384-.4.384-.015 0-.166-.023-.166-.023l-.15-.058s-.047.005-.356-.163c-.264-.147-.793-.435-.909-.5-.07-.036-.169-.091-.22-.119a5.05 5.05 0 00-.204-.113l-.22-.12a7.06 7.06 0 01-.202-.112c-.051-.028-.15-.083-.22-.12l-.336-.184-.8-.44c-.07-.036-.174-.094-.232-.124l-.483-.264c-.116-.062-.215-.117-.63-.345l-.673-.37c-.07-.038-.174-.095-.232-.125a74.9 74.9 0 00-.482-.265c-.276-.15-.325-.177-.41-.225l-.22-.12-.912-.499c-.536-.295-.668-.364-.68-.354-.004.007.1.186.23.4.132.216.248.407.255.426a29.47 29.47 0 01.292.483c.163.27 1.252 2.064 1.299 2.137.014.019.093.15.176.288l.174.288A761 761 0 014.47 8.037a47.634 47.634 0 00.591.978c.286.467.517.87.513.893-.007.046-.462.524-1.744 1.838l-.559.575c-.127.134-.494.511-.811.84L.489 15.193c-.165.173-.288.315-.272.322.026.007.255-.05.48-.122.051-.016.156-.048.232-.069.077-.02.165-.046.197-.057.033-.01.125-.037.209-.058.083-.023.197-.053.255-.071.102-.03.46-.134.719-.207l.197-.058c.037-.011.128-.037.197-.055.07-.02.179-.05.244-.071.222-.065.765-.219.892-.254l.22-.066a7.33 7.33 0 01.232-.067c.077-.02.286-.078.464-.131l.452-.127.22-.066c.052-.016.16-.046.244-.07.084-.02.179-.05.214-.061.032-.012.095-.03.139-.042.079-.02.51-.14.69-.193.096-.03.207-.06.488-.138.35-.1.508-.138.517-.13a211.7 211.7 0 011.275 2.095c.016.032.306.508.642 1.058.337.55.627 1.029.645 1.066.042.08.065.078.095-.012z" fill="#fff" opacity=".35"/></svg>