<svg width="49" height="49" viewBox="0 0 49 49" fill="none" xmlns="http://www.w3.org/2000/svg"><path d="M31.363 8.758c-.066.055-.42.37-.792.702-.366.33-.762.69-.882.792-.467.405-.637.557-1.415 1.263-.445.399-.904.816-1.024.918-.12.102-.304.266-.412.36-.338.298-2.066 1.839-2.197 1.956-.363.337-.621.568-1.04.934-.529.464-.516.462-1.113.25-.16-.059-.375-.132-.477-.163a35.7 35.7 0 01-.44-.137 86.982 86.982 0 00-.89-.3 45.693 45.693 0 01-.914-.305c-.15-.052-.357-.12-.459-.15a34.05 34.05 0 01-.44-.138c-.25-.086-1.32-.442-1.76-.585-.241-.075-.498-.16-.964-.316-.15-.052-.334-.11-.412-.136-.075-.023-.352-.117-.619-.204-.264-.09-.583-.19-.71-.233-.31-.105-.638-.21-.962-.32a7.871 7.871 0 00-.39-.126c-.064-.021-.249-.08-.41-.14-.164-.056-.322-.113-.354-.123-.1-.035-.099.071 0 .272l.519 1.01c.074.139.145.282.153.31.013.031.13.255.266.509.132.251.276.533.328.63.246.495.64 1.27 1.1 2.167.057.106.15.298.218.421.061.125.18.362.269.528.089.166.197.379.241.47.044.092.14.273.204.4.069.13.225.437.35.683.123.246.296.586.385.752.089.166.205.407.27.535.058.128.12.243.14.256.015.01.038.076.047.144.017.117.006.132-.309.413-.178.163-.405.365-.508.45-.1.082-.736.652-1.416 1.263-.677.608-1.324 1.187-1.432 1.28-.108.093-.655.584-1.22 1.09-1.011.91-1.345 1.212-1.56 1.388-.061.048-.162.146-.227.208a4.696 4.696 0 01-.23.205c-.06.048-.76.674-1.557 1.39a193.307 193.307 0 01-2.054 1.83c-.116.105-.34.303-.497.442-.156.138-.321.282-.367.317-.046.042-.068.083-.048.096.019.013 1.033-.182 2.252-.433 3.309-.682 3.888-.8 4.852-.996.487-.097 1.194-.245 1.572-.322.376-.084 1.465-.306 2.416-.5.95-.193 2.198-.452 2.777-.576.572-.123 1.065-.205 1.092-.187.027.018.25.226.25.226l.184.265s.082.044.403.669c.272.54.822 1.611.942 1.848.073.139.176.343.23.446.05.106.142.292.21.415.063.121.162.322.23.446.063.121.155.307.206.413.053.103.156.307.23.446.07.143.23.452.349.683.346.686.587 1.156.828 1.626.073.14.181.352.243.466.103.204.276.544.5.98.122.233.225.437.655 1.28.529 1.045.56 1.099.695 1.37.073.138.181.35.244.466.102.203.275.543.5.98.287.557.337.658.424.834.053.103.156.306.23.446.12.237.67 1.307.945 1.85.554 1.09.695 1.353.725 1.35.015-.006.044-.42.07-.92.025-.506.049-.952.058-.99a57.004 57.004 0 01.06-1.127c.035-.629.253-4.822.26-4.996-.003-.046.014-.351.031-.673.02-.326.035-.628.037-.672.001-.11.229-4.44.27-5.176.014-.318.03-.646.035-.727 0-.083.004-.18.01-.221.009-.038.058-.968.112-2.06.054-1.094.124-2.02.158-2.053.063-.069 1.353-.349 4.953-1.078.506-.101 1.21-.245 1.571-.323.361-.077 1.392-.288 2.287-.475 3.341-.688 4.72-.975 5.547-1.142.466-.1.83-.198.81-.227-.034-.04-.478-.203-.93-.339a13.23 13.23 0 01-.461-.146 7.871 7.871 0 00-.391-.127c-.064-.021-.248-.08-.41-.14-.164-.055-.385-.134-.502-.169-.202-.065-.91-.295-1.422-.466l-.39-.126a13.142 13.142 0 01-.389-.13c-.138-.045-.352-.118-.482-.157-.441-.144-1.512-.5-1.762-.586a35.7 35.7 0 00-.44-.137c-.102-.03-.308-.099-.458-.15a46.36 46.36 0 00-.914-.305 87.841 87.841 0 01-.89-.3 35.7 35.7 0 00-.44-.137c-.102-.031-.316-.104-.48-.16a6.756 6.756 0 00-.423-.137 4.19 4.19 0 01-.277-.088 96.797 96.797 0 00-1.36-.458c-.19-.058-.408-.133-.96-.32-.69-.23-.996-.343-1-.368-.007-.05.224-4.64.247-4.897.01-.071.066-1.185.13-2.472.062-1.288.121-2.405.132-2.487.022-.18-.02-.202-.17-.087z" fill="#fff" opacity=".2"/></svg>