<svg width="48" height="49" viewBox="0 0 48 49" fill="none" xmlns="http://www.w3.org/2000/svg"><path d="M30.369 8.739c-.066.055-.42.37-.793.702-.365.33-.76.69-.88.792-.468.405-.638.557-1.416 1.263-.446.398-.904.816-1.024.918-.12.102-.304.266-.413.36-.337.298-2.065 1.839-2.196 1.956-.364.337-.622.567-1.04.934-.529.464-.516.462-1.113.25-.161-.059-.375-.132-.477-.163-.103-.03-.302-.093-.44-.137a86.17 86.17 0 00-.89-.3 47.343 47.343 0 01-.915-.305c-.15-.052-.356-.12-.458-.15-.103-.031-.301-.094-.44-.138-.25-.086-1.32-.442-1.76-.585-.242-.075-.498-.16-.964-.316-.15-.052-.334-.11-.412-.136-.075-.023-.353-.117-.62-.204-.263-.09-.582-.19-.71-.233-.31-.105-.637-.21-.96-.32a7.722 7.722 0 00-.391-.126c-.064-.021-.249-.08-.41-.14-.164-.056-.322-.113-.354-.123-.1-.035-.099.071 0 .272l.519 1.01c.073.139.144.282.153.31.013.03.13.255.265.509.132.251.277.533.329.63.246.495.64 1.27 1.1 2.167.057.106.15.297.218.421.06.125.18.362.269.528.089.166.196.379.24.47.045.092.14.273.205.4.069.13.225.437.349.683.124.246.297.586.386.752.088.166.205.407.27.535.058.128.12.243.14.256.015.01.037.076.047.144.016.117.006.132-.309.413-.178.163-.405.364-.508.45-.1.082-.736.652-1.416 1.264-.677.607-1.324 1.186-1.432 1.28-.109.093-.656.583-1.22 1.09-1.011.91-1.345 1.21-1.56 1.387-.061.048-.162.146-.227.208a4.72 4.72 0 01-.23.205c-.06.048-.76.674-1.557 1.39a195.205 195.205 0 01-2.054 1.83c-.116.105-.34.303-.497.442a11.26 11.26 0 01-.368.317c-.045.042-.067.083-.048.096.02.013 1.033-.183 2.253-.433 3.309-.682 3.888-.8 4.852-.996.487-.097 1.194-.245 1.572-.322.376-.083 1.465-.306 2.416-.5.95-.193 2.198-.452 2.777-.576.572-.123 1.065-.205 1.092-.187.027.018.25.226.25.226l.184.265s.082.044.403.669c.272.54.822 1.61.941 1.848.074.139.177.342.23.446.05.106.143.292.21.415.064.122.163.322.23.446.064.121.156.306.207.413.053.103.156.307.23.446.07.143.23.452.348.683.347.686.588 1.156.829 1.626.073.14.181.352.243.466.103.204.276.544.5.98.122.233.225.437.655 1.28.529 1.045.559 1.099.695 1.37.073.138.181.35.243.466l.5.98c.288.557.338.658.425.834.053.103.156.306.23.446.119.237.67 1.307.945 1.85.554 1.09.695 1.352.724 1.35.016-.006.045-.42.072-.92.024-.506.048-.952.057-.99a59.938 59.938 0 01.06-1.127c.035-.629.253-4.822.259-4.996-.002-.046.015-.351.032-.673a1555.46 1555.46 0 01.306-5.847l.035-.728c0-.083.005-.18.01-.221.01-.039.06-.968.113-2.061.054-1.093.124-2.02.157-2.052.064-.069 1.354-.349 4.953-1.078.507-.101 1.21-.246 1.572-.323.361-.077 1.392-.289 2.287-.475 3.341-.688 4.72-.975 5.547-1.142.466-.1.83-.198.81-.227-.034-.04-.478-.204-.93-.339-.103-.03-.312-.095-.462-.146a7.698 7.698 0 00-.39-.127c-.064-.021-.249-.08-.41-.14-.164-.056-.386-.134-.502-.169-.203-.065-.91-.295-1.422-.466l-.39-.127a12.994 12.994 0 01-.389-.13c-.138-.044-.352-.117-.483-.156-.44-.144-1.511-.5-1.76-.586a37.515 37.515 0 00-.44-.137c-.103-.03-.309-.099-.459-.15-.15-.052-.56-.192-.914-.305a83.965 83.965 0 01-.89-.3 37.515 37.515 0 00-.44-.138c-.102-.03-.316-.103-.48-.16a6.662 6.662 0 00-.423-.136 4.265 4.265 0 01-.277-.088 95.86 95.86 0 00-1.36-.458c-.19-.058-.409-.134-.96-.32-.691-.23-.996-.343-1-.369-.007-.048.223-4.639.247-4.896.01-.071.066-1.185.129-2.472.063-1.288.122-2.405.133-2.487.022-.18-.02-.202-.17-.087z" fill="#fff" opacity=".2"/></svg>