<svg width="35" height="35" viewBox="0 0 35 35" fill="none" xmlns="http://www.w3.org/2000/svg"><path d="M33.877 14.563c-.083-.024-.543-.14-1.026-.26-.479-.116-.999-.241-1.15-.283-.599-.158-.82-.213-1.841-.46-.58-.143-1.183-.287-1.335-.329-.152-.041-.391-.101-.529-.139l-2.853-.714c-.483-.111-.82-.195-1.358-.334-.68-.176-.672-.167-.833-.779a10.17 10.17 0 00-.133-.487 36.027 36.027 0 01-.134-.44c-.036-.14-.151-.548-.253-.905a46.75 46.75 0 01-.262-.927 14.666 14.666 0 00-.133-.464 36.016 36.016 0 01-.134-.44c-.069-.256-.377-1.341-.506-1.786-.074-.241-.147-.501-.28-.974-.042-.153-.098-.339-.12-.417-.023-.075-.102-.358-.18-.627-.074-.269-.17-.589-.207-.718-.087-.316-.184-.645-.276-.974a7.777 7.777 0 00-.115-.395c-.019-.064-.074-.25-.115-.417-.046-.167-.088-.33-.097-.362-.027-.102-.115-.041-.225.153l-.543.997c-.074.14-.152.279-.17.302-.02.028-.139.25-.272.505l-.336.627c-.272.482-.69 1.242-1.174 2.128-.055.107-.16.292-.225.418-.07.12-.198.352-.285.519-.088.167-.203.376-.254.464-.05.088-.147.269-.216.394-.069.13-.234.431-.368.672-.133.242-.317.576-.405.743-.087.166-.22.398-.29.524-.073.12-.133.236-.133.26 0 .018-.042.074-.092.12-.088.079-.106.079-.516-.023-.234-.056-.529-.13-.658-.167-.124-.037-.952-.241-1.84-.46-.884-.217-1.726-.426-1.864-.463-.138-.037-.852-.213-1.588-.394-1.32-.325-1.758-.432-2.025-.51-.073-.024-.211-.052-.299-.07a4.71 4.71 0 01-.299-.074c-.074-.023-.985-.25-2.025-.506a193.94 193.94 0 01-2.669-.668c-.152-.037-.442-.11-.644-.162a11.27 11.27 0 01-.47-.125c-.06-.014-.105-.01-.105.014 0 .023.731.751 1.624 1.618 2.425 2.352 2.849 2.764 3.553 3.45.354.349.874.85 1.15 1.118.28.265 1.077 1.04 1.772 1.716.695.678 1.61 1.563 2.039 1.971.423.404.768.766.768.798 0 .033-.046.334-.046.334l-.115.301s.01.093-.327.71c-.294.529-.87 1.586-.998 1.818-.074.14-.184.339-.24.44-.06.103-.16.284-.225.409-.065.12-.175.315-.24.44-.064.12-.165.302-.225.404-.055.102-.166.301-.24.44l-.367.673c-.373.672-.626 1.136-.88 1.6-.073.139-.188.348-.248.464l-.53.964c-.123.232-.234.432-.69 1.262-.565 1.025-.593 1.08-.74 1.345-.074.139-.189.348-.249.463-.11.2-.294.534-.529.965-.3.552-.354.65-.45.821-.056.102-.167.302-.24.44-.13.232-.704 1.29-.999 1.823-.589 1.072-.727 1.336-.709 1.36.014.008.373-.2.801-.46.433-.264.815-.496.852-.51a58.557 58.557 0 01.966-.584c.538-.325 4.128-2.505 4.275-2.598.037-.027.3-.185.575-.352.281-.167.539-.325.576-.348.092-.06 3.8-2.31 4.431-2.69l.621-.38c.07-.047.152-.098.19-.116.036-.014.832-.496 1.766-1.067.934-.57 1.74-1.034 1.786-1.025.092.014 1.049.923 3.677 3.488.368.362.883.862 1.15 1.117.267.256 1.022.988 1.68 1.624 2.448 2.374 3.46 3.353 4.063 3.942.345.33.63.575.644.542.014-.05-.1-.51-.243-.96-.033-.102-.097-.31-.139-.463a7.837 7.837 0 00-.114-.395c-.019-.064-.074-.25-.116-.417-.046-.167-.105-.394-.142-.51-.06-.204-.267-.918-.414-1.438-.042-.139-.092-.315-.115-.394a12.726 12.726 0 01-.11-.394c-.042-.14-.102-.357-.143-.487-.13-.445-.438-1.53-.507-1.786a36.17 36.17 0 00-.133-.44c-.032-.102-.092-.311-.134-.464-.041-.153-.156-.57-.262-.928a86.335 86.335 0 01-.253-.904 36.11 36.11 0 00-.134-.44c-.032-.103-.092-.32-.138-.488a6.702 6.702 0 00-.124-.426 4.227 4.227 0 01-.083-.278c-.041-.158-.28-1.02-.386-1.383-.06-.19-.12-.412-.276-.973-.198-.7-.276-1.016-.258-1.035.037-.032 3.962-2.425 4.188-2.55.064-.033 1.017-.613 2.117-1.285 1.1-.673 2.057-1.252 2.13-1.29.161-.083.157-.13-.023-.19z" fill="#fff" opacity=".25"/></svg>