<svg width="43" height="44" viewBox="0 0 43 44" fill="none" xmlns="http://www.w3.org/2000/svg"><path d="M23.34 5.122c-.047.072-.297.475-.559.899-.256.42-.533.878-.62 1.01-.331.522-.451.716-.996 1.614-.313.509-.633 1.04-.72 1.172-.085.132-.215.341-.293.461-.239.383-1.456 2.352-1.547 2.502-.253.426-.435.721-.731 1.192-.375.595-.363.589-.996.557-.171-.012-.397-.02-.504-.021-.107 0-.316-.004-.46-.007a88.664 88.664 0 00-.94-.033 46.616 46.616 0 01-.963-.032 14.724 14.724 0 00-.482-.014c-.107 0-.315-.004-.46-.007-.264-.011-1.392-.047-1.855-.06a49.55 49.55 0 01-1.014-.028c-.158-.007-.352-.01-.434-.013-.077 0-.37-.012-.65-.019-.28-.011-.614-.017-.749-.021-.327-.012-.67-.02-1.011-.033a7.737 7.737 0 00-.411-.01c-.067-.002-.261-.006-.433-.017-.173-.007-.34-.017-.374-.018-.105-.005-.074.097.078.261.178.188.518.542.785.82.11.113.219.23.235.254.02.026.197.208.4.413.197.203.416.432.494.51.377.405.974 1.035 1.671 1.764.085.085.23.242.33.342.093.102.275.296.407.43.133.134.297.307.365.382.069.074.212.221.31.325.103.105.34.355.529.555.19.2.451.477.584.611.132.134.313.332.411.436.092.107.185.199.207.206.018.005.058.062.087.124.048.107.043.125-.179.484-.124.207-.284.465-.359.576-.073.107-.52.835-.997 1.614a245.46 245.46 0 01-1.008 1.635c-.078.12-.462.747-.858 1.393-.711 1.16-.946 1.544-1.102 1.774-.044.063-.113.186-.157.264a4.742 4.742 0 01-.162.262c-.044.064-.538.863-1.097 1.776a194.627 194.627 0 01-1.447 2.34l-.35.564c-.111.178-.228.362-.263.41-.031.052-.04.098-.019.105.022.007.939-.47 2.036-1.056 2.978-1.597 3.5-1.875 4.367-2.337.44-.232 1.075-.575 1.415-.757.337-.187 1.317-.71 2.173-1.166.857-.457 1.979-1.06 2.498-1.344.513-.28.963-.5.994-.49.03.01.304.146.304.146l.252.2s.091.02.577.527c.414.442 1.246 1.31 1.428 1.504.11.112.267.278.347.362.08.088.22.24.32.338.096.099.248.263.348.362.095.098.236.25.316.338.08.083.236.249.347.361.108.117.35.368.528.555.528.56.893.942 1.258 1.324.11.112.274.285.366.377.156.166.419.443.758.797.183.19.34.355.992 1.041.805.85.85.894 1.056 1.114.11.113.275.286.367.378.156.166.419.443.758.797.435.453.511.535.645.68.08.083.237.249.347.361.182.193 1.015 1.062 1.433 1.505.842.886 1.052 1.098 1.08 1.088.012-.01-.077-.416-.195-.903-.12-.492-.225-.926-.227-.965a60.414 60.414 0 01-.263-1.098c-.146-.612-1.131-4.694-1.175-4.862-.015-.044-.086-.342-.161-.655a1518.211 1518.211 0 01-1.372-5.692l-.174-.708a2.343 2.343 0 01-.053-.215 95.11 95.11 0 00-.48-2.008c-.259-1.063-.456-1.971-.433-2.012.041-.084 1.198-.72 4.44-2.444.457-.24 1.09-.58 1.415-.756.324-.177 1.252-.674 2.057-1.108 3.006-1.61 4.246-2.278 4.99-2.674.42-.228.74-.425.714-.448-.045-.03-.517-.059-.99-.06-.106 0-.325-.002-.483-.009a7.736 7.736 0 00-.41-.01c-.068-.002-.261-.006-.433-.017-.173-.007-.408-.02-.53-.02-.212-.004-.956-.024-1.495-.041l-.41-.01c-.078-.001-.266-.008-.41-.015-.145-.003-.37-.012-.507-.012-.464-.013-1.591-.048-1.855-.06a36.215 36.215 0 00-.46-.007c-.108 0-.325-.007-.483-.014a46.616 46.616 0 00-.963-.031 85.795 85.795 0 01-.939-.034 36.201 36.201 0 00-.46-.006c-.107 0-.333-.01-.506-.017a6.726 6.726 0 00-.444-.011c-.07.002-.2 0-.29-.006a97.202 97.202 0 00-1.435-.051c-.2 0-.43-.011-1.012-.033-.727-.024-1.052-.045-1.064-.069-.02-.044-1.106-4.51-1.157-4.764-.011-.071-.274-1.155-.58-2.407a146.28 146.28 0 01-.581-2.421c-.031-.179-.076-.189-.189-.036z" fill="#fff" opacity=".1"/></svg>