<svg width="36" height="36" viewBox="0 0 36 36" fill="none" xmlns="http://www.w3.org/2000/svg"><path d="M27.555 26.288a67.271 67.271 0 00-.339-.7c-.16-.324-.336-.675-.385-.78-.194-.411-.267-.562-.611-1.252-.194-.394-.398-.801-.446-.906-.048-.105-.127-.268-.172-.363-.144-.299-.89-1.826-.947-1.942a34.7 34.7 0 01-.454-.921c-.222-.466-.223-.457.046-.835.075-.102.17-.239.212-.305l.186-.282c.061-.086.238-.343.391-.568.152-.228.333-.489.4-.584.067-.096.157-.228.2-.294.041-.066.126-.193.185-.282a148.427 148.427 0 001.186-1.742c.067-.095.146-.213.18-.263.03-.048.153-.225.268-.396.118-.168.253-.373.309-.455.136-.197.277-.407.42-.613.066-.096.142-.207.167-.25.028-.041.107-.16.182-.262.072-.104.144-.204.158-.224.045-.064-.03-.085-.193-.055l-.82.163a11.475 11.475 0 00-.665.131l-.513.106a150.7 150.7 0 00-1.758.342c-.086.019-.241.046-.343.07-.1.017-.292.054-.428.083-.136.03-.308.063-.382.076-.073.013-.221.044-.325.064-.106.022-.355.07-.554.109-.2.038-.475.092-.61.121-.137.03-.33.064-.434.084a.902.902 0 00-.21.047c-.01.009-.062.011-.112.005-.086-.012-.094-.023-.23-.301a13.96 13.96 0 01-.218-.449c-.038-.087-.314-.65-.612-1.252-.295-.6-.575-1.172-.62-1.267-.044-.095-.282-.58-.528-1.079-.442-.896-.589-1.192-.67-1.38-.022-.052-.072-.143-.103-.2a141.87 141.87 0 01-1.658-3.397l-.213-.44a8.196 8.196 0 01-.152-.322c-.02-.04-.044-.064-.058-.053-.013.01-.078.765-.145 1.676-.18 2.47-.214 2.903-.268 3.623-.029.363-.066.891-.087 1.173-.017.282-.077 1.095-.131 1.804-.054.71-.12 1.642-.149 2.075-.027.428-.068.793-.087.808-.018.015-.21.131-.21.131l-.225.077s-.048.05-.556.15c-.438.084-1.307.258-1.5.294-.113.024-.278.056-.361.073a7.32 7.32 0 00-.338.065c-.098.02-.26.05-.362.073-.098.02-.249.048-.335.063-.083.017-.248.048-.362.072l-.554.11c-.556.106-.938.182-1.32.258-.113.024-.286.057-.38.078l-.795.157c-.19.039-.355.07-1.04.205l-1.11.216c-.113.024-.286.057-.38.078-.164.032-.44.085-.795.156-.453.092-.534.106-.677.133-.084.017-.249.048-.362.072-.192.037-1.062.211-1.503.296-.884.173-1.098.22-1.103.24.001.013.29.117.639.235.354.12.665.225.69.24a43.27 43.27 0 01.788.269c.438.15 3.369 1.144 3.49 1.183.034.007.247.08.472.158a1134.678 1134.678 0 014.086 1.388 110.551 110.551 0 01.664.222c.025.014.674.235 1.439.492.764.258 1.407.492 1.424.523.036.058-.025 1.024-.23 3.71-.03.377-.07.903-.087 1.173-.018.27-.075 1.04-.122 1.71-.183 2.494-.257 3.525-.304 4.141-.023.35-.027.626-.002.618.036-.016.24-.297.427-.589.042-.066.13-.2.197-.296.067-.095.142-.207.168-.25.028-.041.107-.16.181-.261.073-.105.173-.245.221-.32.087-.13.393-.583.616-.91l.169-.25c.03-.048.109-.162.17-.248.059-.089.154-.225.208-.31.19-.282.657-.966.769-1.125l.186-.282c.042-.066.132-.198.198-.294.067-.095.249-.356.4-.584.154-.225.33-.482.391-.568.06-.088.144-.216.186-.282.043-.066.137-.203.21-.307.075-.102.154-.225.182-.27.026-.044.08-.124.118-.178.07-.098.444-.638.598-.868.08-.123.177-.262.42-.614.302-.44.443-.633.462-.632.036.006 3.246 1.089 3.423 1.157.049.02.827.284 1.728.586.9.303 1.68.569 1.737.592.123.052.147.027.096-.102z" fill="#fff" opacity=".4"/></svg>