<svg width="49" height="49" viewBox="0 0 49 49" fill="none" xmlns="http://www.w3.org/2000/svg"><path d="M38.677 34.184a90.258 90.258 0 00-.553-.901c-.261-.417-.546-.87-.625-1.005-.318-.53-.437-.724-.996-1.612-.315-.507-.646-1.03-.725-1.166-.08-.136-.209-.346-.282-.468-.235-.385-1.45-2.352-1.542-2.501-.268-.417-.45-.71-.738-1.185-.364-.602-.364-.588-.05-1.137.088-.148.198-.345.246-.44.049-.096.146-.28.214-.408.071-.125.275-.496.453-.82.175-.33.385-.707.463-.845.077-.138.18-.329.23-.424.048-.095.145-.279.213-.407.13-.23.67-1.219.89-1.626.116-.223.246-.46.482-.89.078-.138.168-.309.207-.38.035-.07.178-.326.31-.572.136-.243.292-.54.356-.657.159-.286.32-.588.486-.887.078-.138.165-.3.194-.361.032-.06.123-.23.21-.378l.185-.325c.052-.092-.053-.11-.269-.049l-1.088.332a4.12 4.12 0 01-.334.096c-.032.007-.274.082-.549.17-.27.086-.575.178-.68.212-.532.155-1.365.404-2.333.699-.114.037-.32.095-.454.14-.134.038-.389.113-.569.17-.18.059-.408.127-.506.155-.098.027-.294.089-.432.13-.14.044-.47.143-.735.222-.265.079-.63.188-.81.246-.18.058-.438.13-.576.171a1.235 1.235 0 00-.277.092c-.014.014-.082.024-.151.022-.118-.005-.131-.018-.353-.376a18.953 18.953 0 01-.354-.579c-.063-.113-.513-.836-.996-1.611-.48-.773-.937-1.51-1.01-1.632-.072-.123-.46-.746-.86-1.389-.718-1.153-.956-1.534-1.092-1.777-.037-.068-.116-.184-.166-.258a4.725 4.725 0 01-.162-.262c-.036-.068-.53-.866-1.095-1.773-1-1.61-1.139-1.835-1.443-2.34-.083-.132-.238-.387-.348-.565-.109-.177-.221-.365-.248-.417-.033-.051-.07-.08-.086-.064-.016.017-.003 1.047.028 2.288.088 3.368.102 3.958.124 4.939.01.495.031 1.215.04 1.6.016.384.043 1.491.065 2.459.023.968.058 2.238.078 2.828.02.583.013 1.082-.01 1.105-.022.023-.267.206-.267.206l-.293.134s-.059.073-.732.278c-.582.171-1.735.523-1.99.599-.15.047-.37.112-.48.147-.115.03-.314.089-.448.133-.131.041-.347.103-.48.147-.132.041-.331.1-.445.13-.111.034-.33.1-.48.147-.154.045-.488.147-.736.223-.739.219-1.245.373-1.752.527-.15.047-.379.116-.503.157-.22.065-.585.174-1.056.318-.251.078-.47.143-1.379.417-1.124.336-1.183.356-1.474.442-.15.047-.379.116-.503.157-.22.065-.585.174-1.056.318-.601.184-.709.215-.898.27-.112.034-.33.1-.48.147-.256.075-1.41.428-1.994.602-1.174.353-1.458.445-1.461.474.003.016.407.118.895.232.496.113.932.215.968.23.04.013.154.04.262.062a1716.14 1716.14 0 005.723 1.33c.046.005.344.076.66.15a1514.18 1514.18 0 015.716 1.33l.711.162c.082.015.177.036.217.049.036.015.944.227 2.013.473 1.07.245 1.971.477 1.998.515.056.075.104 1.39.187 5.053.01.514.027 1.231.04 1.6.012.367.038 1.416.064 2.328.088 3.402.126 4.806.145 5.646.016.476.048.85.08.837.046-.027.286-.434.5-.855.048-.095.148-.289.226-.427.077-.138.165-.299.194-.36.032-.06.123-.23.21-.379.084-.15.201-.355.256-.463.1-.187.453-.84.712-1.314l.194-.36c.035-.07.126-.234.197-.359.068-.128.178-.325.24-.447.22-.407.76-1.396.89-1.626.067-.128.165-.312.213-.407.049-.095.152-.285.23-.424.078-.137.288-.515.463-.844.177-.325.381-.696.453-.82.068-.129.165-.313.213-.408.049-.095.159-.292.243-.444.087-.147.178-.325.21-.39.03-.063.09-.178.136-.256.08-.142.515-.924.692-1.255.091-.178.204-.378.486-.887.35-.637.515-.917.54-.917.05.002 4.54 1.037 4.789 1.105.069.021 1.158.273 2.417.562 1.26.288 2.351.543 2.43.568.174.053.203.016.117-.152z" fill="#fff" opacity=".3"/></svg>