<svg width="160" height="61" viewBox="0 0 160 61" fill="none" xmlns="http://www.w3.org/2000/svg"><path d="M4.122 18V7.146H.252v-2.16H10.8v2.16H6.93V18H4.122zm8.124 0V5.004h2.646v5.148c.648-.912 1.524-1.368 2.628-1.368 1.128 0 2.01.408 2.646 1.224.396.552.594 1.374.594 2.466V18h-2.646v-5.436c0-1.32-.498-1.98-1.494-1.98-.456 0-.858.15-1.206.45-.336.288-.504.756-.504 1.404L14.928 18h-2.682zm19.176-3.87H25.32c0 1.62.618 2.43 1.854 2.43.852 0 1.38-.42 1.584-1.26h2.43c-.06.78-.348 1.44-.864 1.98-.672.708-1.734 1.062-3.186 1.062-1.404 0-2.472-.378-3.204-1.134-.78-.816-1.17-1.998-1.17-3.546 0-1.992.63-3.426 1.89-4.302.756-.504 1.608-.756 2.556-.756a4.45 4.45 0 012.106.522c.66.336 1.182.894 1.566 1.674.42.864.6 1.974.54 3.33zm-6.012-1.674h3.294c0-.18-.012-.348-.036-.504a3.407 3.407 0 00-.18-.648 1.15 1.15 0 00-.486-.63c-.228-.168-.522-.252-.882-.252-.552 0-.972.192-1.26.576-.276.384-.426.87-.45 1.458zm6.852-3.546h2.88l1.998 6.3 2.034-6.3h2.646l-3.438 8.928-1.098 3.618h-2.682l1.152-3.42-3.492-9.126zm21.941 1.116V5.004h2.682v11.52c0 .528.025 1.02.073 1.476h-2.7l-.073-1.314c-.252.456-.558.798-.918 1.026-.48.312-1.068.468-1.764.468-1.212 0-2.16-.396-2.843-1.188-.684-.804-1.026-1.914-1.026-3.33 0-1.488.365-2.67 1.097-3.546.744-.888 1.716-1.332 2.916-1.332 1.105 0 1.956.414 2.556 1.242zm-3.87 3.564c0 .828.15 1.512.45 2.052.3.54.762.81 1.386.81a1.83 1.83 0 001.009-.288c.3-.192.528-.438.684-.738.288-.552.431-1.266.431-2.142 0-.876-.18-1.554-.54-2.034-.347-.48-.828-.72-1.44-.72-.42 0-.774.114-1.062.342-.276.216-.48.504-.611.864-.12.36-.205.684-.252.972a7.105 7.105 0 00-.054.882zm8.448-.054c0-.588.078-1.152.234-1.692.168-.54.42-1.05.756-1.53.348-.492.84-.882 1.476-1.17.636-.3 1.38-.45 2.232-.45 1.56 0 2.736.456 3.528 1.368.792.9 1.188 2.034 1.188 3.402 0 1.38-.408 2.538-1.224 3.474-.804.924-1.986 1.386-3.546 1.386-1.356 0-2.472-.414-3.348-1.242-.864-.828-1.296-2.01-1.296-3.546zm2.736.018c0 1.944.666 2.916 1.998 2.916.636 0 1.122-.234 1.458-.702.336-.468.504-1.272.504-2.412 0-1.92-.666-2.88-1.998-2.88-1.308 0-1.962 1.026-1.962 3.078zM70.235 18v-7.47c0-.684-.018-1.236-.054-1.656h2.556l.072 1.368c.648-1.056 1.632-1.584 2.952-1.584.792 0 1.41.18 1.854.54.456.348.762.738.918 1.17.168.468.252 1.374.252 2.718V18h-2.718v-5.652c0-.468-.048-.798-.144-.99-.252-.516-.684-.774-1.296-.774s-1.074.234-1.386.702c-.216.312-.324.774-.324 1.386V18h-2.682zm11.202-8.082l-.486-4.464h2.394l-.486 4.464h-1.422zm9.401 6.21v1.746a7.892 7.892 0 01-2.07.288c-.504 0-.942-.066-1.314-.198-.36-.132-.624-.276-.792-.432a1.576 1.576 0 01-.396-.63c-.096-.276-.15-.486-.162-.63a6.98 6.98 0 01-.018-.558v-4.986H84.34V8.964h1.746V7.182l2.646-.972v2.754h2.16v1.764h-2.16v4.104c0 .264.006.456.018.576.024.12.072.252.144.396a.613.613 0 00.36.306c.168.048.396.072.684.072.276 0 .576-.018.9-.054zM1.242 37V24.004h2.646v5.148c.648-.912 1.524-1.368 2.628-1.368 1.128 0 2.01.408 2.646 1.224.396.552.594 1.374.594 2.466V37H7.11v-5.436c0-1.32-.498-1.98-1.494-1.98-.456 0-.858.15-1.206.45-.336.288-.504.756-.504 1.404L3.924 37H1.242zm18.798 0h-2.412a7.836 7.836 0 01-.09-1.242c-.672.972-1.578 1.458-2.718 1.458-1.008 0-1.764-.24-2.268-.72-.528-.528-.792-1.194-.792-1.998 0-1.296.642-2.238 1.926-2.826.744-.336 1.944-.504 3.6-.504 0-.552-.042-.954-.126-1.206-.18-.504-.576-.756-1.188-.756-.444 0-.78.168-1.008.504-.132.204-.198.474-.198.81h-2.61c.036-.96.378-1.674 1.026-2.142.684-.492 1.602-.738 2.754-.738 1.488 0 2.568.39 3.24 1.17.42.504.63 1.248.63 2.232l.018 3.654c0 .864.072 1.632.216 2.304zm-2.754-4.284c-.876-.072-1.584.024-2.124.288-.54.264-.81.66-.81 1.188 0 .336.114.636.342.9.228.264.546.396.954.396.456 0 .834-.174 1.134-.522a1.93 1.93 0 00.414-.882c.06-.336.09-.792.09-1.368zm3.846-4.806h2.844l2.052 6.174 2.088-6.174h2.574L27.414 37h-2.952l-3.33-9.09zm19.29 5.22H34.32c0 1.62.618 2.43 1.854 2.43.852 0 1.38-.42 1.584-1.26h2.43c-.06.78-.348 1.44-.864 1.98-.672.708-1.734 1.062-3.186 1.062-1.404 0-2.472-.378-3.204-1.134-.78-.816-1.17-1.998-1.17-3.546 0-1.992.63-3.426 1.89-4.302.756-.504 1.608-.756 2.556-.756a4.45 4.45 0 012.106.522c.66.336 1.182.894 1.566 1.674.42.864.6 1.974.54 3.33zm-6.012-1.674h3.294c0-.18-.012-.348-.036-.504a3.407 3.407 0 00-.18-.648 1.15 1.15 0 00-.486-.63c-.228-.168-.522-.252-.882-.252-.552 0-.972.192-1.26.576-.276.384-.426.87-.45 1.458zm12.132 2.916h2.502c.024.336.156.63.396.882.24.24.611.36 1.116.36.444 0 .786-.102 1.026-.306.252-.216.377-.474.377-.774 0-.228-.09-.42-.27-.576-.167-.168-.498-.318-.99-.45l-1.655-.45a7.928 7.928 0 01-.702-.234 6.971 6.971 0 01-.703-.396 1.778 1.778 0 01-.666-.756c-.155-.324-.233-.702-.233-1.134 0-.876.365-1.566 1.097-2.07.732-.516 1.692-.774 2.88-.774.985 0 1.794.228 2.43.684.648.456.99 1.122 1.026 1.998h-2.43c-.047-.72-.48-1.08-1.296-1.08-.372 0-.678.084-.918.252a.743.743 0 00-.342.648c0 .276.09.474.27.594.18.108.505.228.972.36l1.639.45c1.62.444 2.43 1.29 2.43 2.538 0 .852-.366 1.59-1.098 2.214-.72.612-1.746.918-3.078.918-1.369 0-2.407-.372-3.114-1.116-.408-.432-.63-1.026-.666-1.782zM64.055 37h-2.412a7.836 7.836 0 01-.09-1.242c-.671.972-1.578 1.458-2.717 1.458-1.008 0-1.764-.24-2.268-.72-.529-.528-.792-1.194-.792-1.998 0-1.296.641-2.238 1.925-2.826.745-.336 1.944-.504 3.6-.504 0-.552-.041-.954-.126-1.206-.18-.504-.575-.756-1.188-.756-.444 0-.78.168-1.008.504-.132.204-.197.474-.197.81h-2.61c.036-.96.378-1.674 1.026-2.142.684-.492 1.602-.738 2.754-.738 1.488 0 2.568.39 3.24 1.17.42.504.63 1.248.63 2.232l.017 3.654c0 .864.072 1.632.216 2.304zm-2.754-4.284c-.876-.072-1.584.024-2.123.288-.54.264-.81.66-.81 1.188 0 .336.113.636.341.9.228.264.546.396.954.396.457 0 .835-.174 1.135-.522a1.93 1.93 0 00.413-.882c.06-.336.09-.792.09-1.368zM66.371 37v-7.2h-1.35v-1.89h1.35v-1.242c0-.912.223-1.62.666-2.124.444-.516 1.266-.774 2.466-.774.457 0 .936.03 1.44.09v1.854a5.33 5.33 0 00-.558-.054c-.324 0-.588.036-.791.108a.768.768 0 00-.414.324c-.073.144-.12.264-.145.36a3.374 3.374 0 00-.017.396v1.062h1.692v1.89h-1.692V37H66.37zm14.059-3.87h-6.102c0 1.62.618 2.43 1.854 2.43.852 0 1.38-.42 1.584-1.26h2.43c-.06.78-.348 1.44-.864 1.98-.672.708-1.734 1.062-3.186 1.062-1.404 0-2.472-.378-3.204-1.134-.78-.816-1.17-1.998-1.17-3.546 0-1.992.63-3.426 1.89-4.302.756-.504 1.608-.756 2.556-.756a4.45 4.45 0 012.106.522c.66.336 1.182.894 1.566 1.674.42.864.6 1.974.54 3.33zm-6.012-1.674h3.294c0-.18-.012-.348-.036-.504a3.407 3.407 0 00-.18-.648 1.15 1.15 0 00-.486-.63c-.228-.168-.522-.252-.882-.252-.552 0-.972.192-1.26.576-.276.384-.426.87-.45 1.458zm11.7-3.546h2.825l1.674 6.858 1.926-6.858h2.934l1.908 6.858 1.782-6.858h2.646L98.699 37h-2.898l-1.872-6.732L92.021 37h-2.934l-2.97-9.09zM111.058 37h-2.412a7.836 7.836 0 01-.09-1.242c-.672.972-1.578 1.458-2.718 1.458-1.008 0-1.764-.24-2.268-.72-.528-.528-.792-1.194-.792-1.998 0-1.296.642-2.238 1.926-2.826.744-.336 1.944-.504 3.6-.504 0-.552-.042-.954-.126-1.206-.18-.504-.576-.756-1.188-.756-.444 0-.78.168-1.008.504-.132.204-.198.474-.198.81h-2.61c.036-.96.378-1.674 1.026-2.142.684-.492 1.602-.738 2.754-.738 1.488 0 2.568.39 3.24 1.17.42.504.63 1.248.63 2.232l.018 3.654c0 .864.072 1.632.216 2.304zm-2.754-4.284c-.876-.072-1.584.024-2.124.288-.54.264-.81.66-.81 1.188 0 .336.114.636.342.9.228.264.546.396.954.396.456 0 .834-.174 1.134-.522a1.93 1.93 0 00.414-.882c.06-.336.09-.792.09-1.368zm10.236 2.412v1.746a7.892 7.892 0 01-2.07.288c-.504 0-.942-.066-1.314-.198-.36-.132-.624-.276-.792-.432a1.576 1.576 0 01-.396-.63c-.096-.276-.15-.486-.162-.63a6.98 6.98 0 01-.018-.558v-4.986h-1.746v-1.764h1.746v-1.782l2.646-.972v2.754h2.16v1.764h-2.16v4.104c0 .264.006.456.018.576.024.12.072.252.144.396a.613.613 0 00.36.306c.168.048.396.072.684.072.276 0 .576-.018.9-.054zm9.894-1.998h-6.102c0 1.62.618 2.43 1.854 2.43.852 0 1.38-.42 1.584-1.26h2.43c-.06.78-.348 1.44-.864 1.98-.672.708-1.734 1.062-3.186 1.062-1.404 0-2.472-.378-3.204-1.134-.78-.816-1.17-1.998-1.17-3.546 0-1.992.63-3.426 1.89-4.302.756-.504 1.608-.756 2.556-.756a4.45 4.45 0 012.106.522c.66.336 1.182.894 1.566 1.674.42.864.6 1.974.54 3.33zm-6.012-1.674h3.294c0-.18-.012-.348-.036-.504a3.407 3.407 0 00-.18-.648 1.15 1.15 0 00-.486-.63c-.228-.168-.522-.252-.882-.252-.552 0-.972.192-1.26.576-.276.384-.426.87-.45 1.458zm7.77 5.544v-6.858c0-.696-.042-1.452-.126-2.268h2.502l.054 1.746c.108-.252.216-.462.324-.63.12-.168.294-.354.522-.558.228-.216.534-.372.918-.468a4.61 4.61 0 011.332-.108v2.394c-.636-.06-1.164-.036-1.584.072-.408.108-.702.294-.882.558a2.246 2.246 0 00-.324.756 4.415 4.415 0 00-.072.882V37h-2.664zM6.516 54.128v1.746a7.892 7.892 0 01-2.07.288c-.504 0-.942-.066-1.314-.198-.36-.132-.624-.276-.792-.432a1.576 1.576 0 01-.396-.63c-.096-.276-.15-.486-.162-.63a6.98 6.98 0 01-.018-.558v-4.986H.018v-1.764h1.746v-1.782l2.646-.972v2.754h2.16v1.764H4.41v4.104c0 .264.006.456.018.576.024.12.072.252.144.396a.613.613 0 00.36.306c.168.048.396.072.684.072.276 0 .576-.018.9-.054zm1.236-2.592c0-.588.078-1.152.234-1.692.168-.54.42-1.05.756-1.53.348-.492.84-.882 1.476-1.17.636-.3 1.38-.45 2.232-.45 1.56 0 2.736.456 3.528 1.368.792.9 1.188 2.034 1.188 3.402 0 1.38-.408 2.538-1.224 3.474-.804.924-1.986 1.386-3.546 1.386-1.356 0-2.472-.414-3.348-1.242-.864-.828-1.296-2.01-1.296-3.546zm2.736.018c0 1.944.666 2.916 1.998 2.916.636 0 1.122-.234 1.458-.702.336-.468.504-1.272.504-2.412 0-1.92-.666-2.88-1.998-2.88-1.308 0-1.962 1.026-1.962 3.078zm19.704-3.528v-5.022h2.682v11.52c0 .528.024 1.02.072 1.476h-2.7l-.072-1.314c-.252.456-.558.798-.918 1.026-.48.312-1.068.468-1.764.468-1.212 0-2.16-.396-2.844-1.188-.684-.804-1.026-1.914-1.026-3.33 0-1.488.366-2.67 1.098-3.546.744-.888 1.716-1.332 2.916-1.332 1.104 0 1.956.414 2.556 1.242zm-3.87 3.564c0 .828.15 1.512.45 2.052.3.54.762.81 1.386.81a1.83 1.83 0 001.008-.288c.3-.192.528-.438.684-.738.288-.552.432-1.266.432-2.142 0-.876-.18-1.554-.54-2.034-.348-.48-.828-.72-1.44-.72-.42 0-.774.114-1.062.342-.276.216-.48.504-.612.864-.12.36-.204.684-.252.972a7.105 7.105 0 00-.054.882zM35.184 56v-6.858c0-.696-.042-1.452-.126-2.268h2.502l.054 1.746c.108-.252.216-.462.324-.63.12-.168.294-.354.522-.558.228-.216.534-.372.918-.468a4.61 4.61 0 011.332-.108v2.394c-.636-.06-1.164-.036-1.584.072-.408.108-.702.294-.882.558a2.246 2.246 0 00-.324.756 4.415 4.415 0 00-.072.882V56h-2.664zm6.906-10.674v-2.322h2.844v2.322H42.09zM42.18 56v-9.108h2.664V56H42.18zm5.045 0v-7.47c0-.684-.017-1.236-.053-1.656h2.556l.072 1.368c.648-1.056 1.632-1.584 2.952-1.584.791 0 1.41.18 1.853.54.457.348.763.738.919 1.17.167.468.252 1.374.252 2.718V56h-2.719v-5.652c0-.468-.047-.798-.144-.99-.252-.516-.683-.774-1.295-.774-.613 0-1.075.234-1.387.702-.215.312-.324.774-.324 1.386V56h-2.681zm11.004 0V42.986h2.646v7.668l2.754-3.798h3.006l-3.114 3.96L66.833 56h-3.15l-2.808-4.95V56H58.23z" fill="#fff"/></svg>