<svg width="28" height="29" viewBox="0 0 28 29" fill="none" xmlns="http://www.w3.org/2000/svg"><path d="M21.426 7.949c-.05.013-.318.089-.6.17-.278.08-.58.17-.67.193-.35.096-.48.132-1.072.307-.338.098-.688.202-.777.225-.09.023-.23.063-.31.085-.256.071-1.566.446-1.665.474-.279.086-.475.142-.79.23-.399.11-.391.112-.654-.153a5.903 5.903 0 00-.211-.208 22.464 22.464 0 01-.198-.186c-.06-.06-.238-.234-.395-.386-.159-.15-.34-.33-.406-.395a8.831 8.831 0 00-.205-.197 21.132 21.132 0 01-.198-.185 119.287 119.287 0 00-1.213-1.174c-.066-.066-.149-.144-.184-.178-.033-.03-.156-.152-.276-.266-.116-.115-.26-.25-.317-.305-.137-.135-.283-.274-.427-.415a4.579 4.579 0 00-.175-.167c-.028-.028-.11-.106-.181-.179-.073-.071-.142-.142-.156-.156-.044-.043-.07.013-.07.145l.017.667a9.266 9.266 0 00.012.54c.006.168.01.354.014.418.003.326.014.836.028 1.43.004.07.004.196.008.278 0 .082.003.238.008.349.004.11.007.25.007.31s.004.18.006.265c.003.086.008.288.01.45.003.162.008.387.013.497.004.111.004.268.006.352a.724.724 0 00.009.172c.005.01 0 .05-.012.088-.021.066-.03.072-.27.14-.135.04-.307.09-.384.108-.074.018-.556.158-1.073.308-.514.148-1.005.29-1.086.311-.081.022-.497.142-.925.266-.769.223-1.023.297-1.182.335-.044.01-.123.036-.173.053a81.933 81.933 0 00-1.355.388c-1.072.309-1.222.352-1.556.444l-.376.106a6.734 6.734 0 01-.277.075c-.034.01-.056.026-.05.038.007.012.595.167 1.305.347 1.928.485 2.265.57 2.826.713.283.073.695.175.915.231.22.052.854.213 1.408.353.553.14 1.28.323 1.619.405.334.081.616.164.626.18.01.017.075.184.075.184l.03.187s.032.045.042.458c.006.355.024 1.063.027 1.22l.007.294c0 .07.002.191.006.274.002.08.003.212.007.295.003.08.005.202.004.271l.008.295c.001.094.007.299.01.45.008.453.016.763.023 1.074.004.092.007.233.01.31.003.133.007.357.015.646.005.155.007.289.02.845.012.689.015.725.017.903l.01.31c.003.133.007.357.015.646.01.37.01.435.011.55l.008.296.028 1.221c.015.719.023.894.039.9.01.001.13-.21.273-.469.142-.261.268-.492.283-.51a35.12 35.12 0 01.32-.582c.18-.323 1.367-2.488 1.415-2.578.01-.025.097-.183.189-.349a911.4 911.4 0 011.862-3.395 56.434 56.434 0 00.649-1.177c.307-.565.581-1.038.607-1.047.051-.02.807.162 2.9.696.295.076.705.18.916.231l1.333.333c1.947.49 2.75.69 3.231.814.273.066.49.107.488.087-.008-.03-.201-.23-.407-.418a7.903 7.903 0 01-.206-.195 4.568 4.568 0 00-.175-.167c-.029-.028-.111-.106-.182-.179-.072-.072-.17-.17-.222-.218-.091-.086-.407-.39-.635-.61l-.174-.167a7.386 7.386 0 01-.173-.169c-.062-.058-.156-.152-.216-.206-.196-.189-.673-.65-.783-.76a23.82 23.82 0 00-.198-.186 8.392 8.392 0 01-.204-.197 27.967 27.967 0 00-.407-.395 51.14 51.14 0 01-.395-.386 19.874 19.874 0 00-.198-.185c-.046-.043-.14-.136-.213-.208a3.967 3.967 0 00-.19-.18 2.445 2.445 0 01-.123-.118 57.474 57.474 0 00-.604-.59c-.087-.08-.183-.175-.428-.415-.307-.298-.44-.436-.435-.45.009-.028 1.305-2.4 1.383-2.53.023-.036.338-.611.7-1.277.363-.666.68-1.242.706-1.283.058-.09.042-.112-.067-.09z" fill="#fff" opacity=".14"/></svg>