<svg width="66" height="66" viewBox="0 0 66 66" fill="none" xmlns="http://www.w3.org/2000/svg"><path fill="#1CABE2" d="M0 0h66v66H0z"/><path d="M10.16 55.07v-3.784h-.852v-.465h.852v-.905c0-.727.294-1.057 1.02-1.057.163.014.324.045.481.092v.407a1.866 1.866 0 00-.311-.034c-.692 0-.71.347-.684.955v.542h.965v.465h-.965v3.78l-.506.003zM15.758 52.946c0 1.117-.624 2.249-1.971 2.249s-1.973-1.13-1.973-2.249c0-1.12.624-2.249 1.968-2.249 1.344 0 1.971 1.13 1.971 2.249h.005zm-1.976-1.784c-1.02 0-1.424.998-1.424 1.784s.405 1.784 1.424 1.784c1.02 0 1.425-.998 1.425-1.784s-.405-1.784-1.425-1.784zM16.998 55.07h-.507v-3.29c0-.331-.024-.668-.041-.956h.522l.026.623h.016a1.092 1.092 0 01.952-.752c.16 0 .337 0 .506.008v.484c-.101-.008-.21-.033-.312-.033-.75 0-1.146.542-1.162 1.353v2.562zM20.927 53.06c.016.906.43 1.667 1.466 1.667a1.258 1.258 0 001.223-1.015h.53c-.26 1.015-.894 1.48-1.913 1.48-1.264 0-1.854-1.09-1.854-2.25 0-1.158.632-2.248 1.887-2.248 1.417 0 1.93 1.04 1.93 2.367h-3.269zm2.722-.464c-.06-.82-.497-1.438-1.374-1.438-.825 0-1.264.694-1.332 1.438h2.706zM24.88 50.824l1.457 3.543 1.407-3.543h.557l-1.677 4.245h-.574l-1.727-4.245h.556zM28.953 53.06c.016.906.43 1.667 1.467 1.667a1.258 1.258 0 001.222-1.015h.53c-.26 1.015-.894 1.48-1.913 1.48-1.264 0-1.854-1.09-1.854-2.25 0-1.158.632-2.248 1.888-2.248 1.416 0 1.929 1.04 1.929 2.367h-3.269zm2.722-.464c-.06-.82-.496-1.438-1.374-1.438-.825 0-1.264.694-1.332 1.438h2.706zM33.515 55.07h-.505v-3.29c0-.331-.026-.668-.042-.956h.523l.024.625h.017a1.09 1.09 0 01.952-.752c.169 0 .338 0 .507.008v.484c-.102-.008-.213-.034-.312-.034-.751 0-1.147.542-1.164 1.354v2.56zM36.076 50.824l1.424 3.552 1.417-3.552h.547l-2.333 5.868h-.557l.64-1.623-1.752-4.245h.614zM44.284 52.126c-.042-.645-.455-.968-1.155-.968-.775 0-1.255.807-1.255 1.775 0 .968.482 1.793 1.255 1.793.658 0 1.113-.407 1.155-.99h.548c-.135.969-.691 1.453-1.651 1.453-1.265 0-1.854-1.091-1.854-2.25 0-1.158.632-2.248 1.886-2.248.868 0 1.577.524 1.619 1.429l-.548.006zM46.043 51.467h.017a1.45 1.45 0 011.324-.77c1.38 0 1.49 1.226 1.49 1.717v2.655h-.505v-2.742c0-.735-.421-1.167-1.112-1.167-.835 0-1.214.702-1.214 1.463v2.445h-.505v-6.104h.505v2.503zM50.28 49.598h-.59v-.634h.59v.634zm-.043 1.226v4.245h-.504v-4.245h.505zM51.731 55.07h-.506v-6.106h.506v6.105zM55.71 54.443l-.016-.034a1.72 1.72 0 01-1.447.786c-1.255 0-1.734-1.2-1.734-2.259 0-1.1.482-2.233 1.734-2.233a1.69 1.69 0 011.447.77l.016-.018v-2.484h.507v5.148c0 .33.024.668.042.957h-.523l-.026-.626v-.007zm-1.38-3.281c-.965 0-1.274.897-1.274 1.708 0 .786.228 1.86 1.198 1.86 1.103 0 1.447-.92 1.447-1.886 0-.861-.38-1.682-1.365-1.682h-.007zM9.382 46.17v-.257h46.837v.257H9.382zM50.199 31.314c-.874 0-1.728.26-2.454.748a4.447 4.447 0 00-.666 6.82 4.404 4.404 0 004.815.96 4.421 4.421 0 001.982-1.632 4.445 4.445 0 00-.551-5.597 4.416 4.416 0 00-3.123-1.3h-.003zm3.445 1.96a6.107 6.107 0 01-.71.413 4.755 4.755 0 00-.528-.83c.181-.109.353-.233.515-.369.273.23.516.495.723.786zm-1.858-1.472c.353.145.686.337.99.57a3.974 3.974 0 01-.482.345 4.657 4.657 0 00-.727-.674c.08-.074.155-.155.223-.24h-.004zm.342 1.007a4.01 4.01 0 01-.744.311 6.623 6.623 0 00-.369-.722 2.03 2.03 0 00.404-.236c.259.189.497.405.709.645v.002zm-.523-1.074c-.06.072-.125.139-.196.2a4.474 4.474 0 00-.74-.41c.32.033.634.103.937.21zm-.345.322a1.842 1.842 0 01-.338.19 6.434 6.434 0 00-.426-.596c.268.11.524.247.765.406h-.001zm-.965-.374c.165.2.317.408.457.626a1.764 1.764 0 01-.457.08v-.706zm0 .89c.19-.009.377-.043.556-.103.136.227.257.463.362.705-.3.078-.608.12-.918.128v-.733.004zm-.183-.882v.699a1.862 1.862 0 01-.45-.081c.138-.214.288-.42.45-.618zm-.637.557a1.783 1.783 0 01-.34-.19c.241-.16.496-.295.763-.404a6.2 6.2 0 00-.423.594zm.254-.722a4.62 4.62 0 00-.746.413 2.077 2.077 0 01-.194-.2c.304-.107.62-.178.94-.213zm3.028 7.61c-.589-.322-.6-.772-.568-.937.032-.164.147-.095.219-.095.386 0 .792-.114 1.286-.627.564-.578.743-1.862-.125-2.701-.934-.902-1.93-.744-2.573.067a.974.974 0 01-.728.278c-.412-.015-.153.31-.153.377 0 .068-.063.117-.1.105-.138-.04-.083.162-.083.231a.094.094 0 01-.087.094c-.174 0-.125.161-.12.2a.163.163 0 01-.068.145.376.376 0 00-.12.273c0 .188.171.322.46.534a.684.684 0 01.32.564c0 .183.027.365.084.54.077.188.068.533-.33.55-.482.019-1.343.407-1.416.433a1.709 1.709 0 01-.918.062 4.541 4.541 0 01-.432-.352.668.668 0 01.14-.547.752.752 0 00.536.161c.3-.022.598-.066.891-.13a.24.24 0 01.193 0c.254.092.6.119.741-.367.142-.485-.193-.35-.234-.322-.042.027-.1.014-.08-.026.064-.124-.03-.111-.083-.116a.628.628 0 00-.37.182.126.126 0 01-.135.037c-.18-.09-.715.04-.88-.252a10.066 10.066 0 00-.215-1.464.199.199 0 01.021-.192c.135-.207.512.014.714.01a.364.364 0 00.35-.191c.064-.08.112-.036.145-.058.034-.023 0-.087.02-.118.019-.03.034-.016.074-.052.04-.035 0-.116.016-.146.06-.092.225-.02.125-.257a.384.384 0 01.095-.366c.117-.161.574-.797-.23-1.467-.767-.637-1.543-.585-2.045-.042-.502.544-.25 1.341-.198 1.55a.442.442 0 01-.27.485 3.829 3.829 0 00-.686.484 4.244 4.244 0 01.749-2.326 4.223 4.223 0 011.905-1.524c.069.086.143.166.224.24-.177.13-.561.475-.561.475s.053.008.1.021l.107.029s.34-.289.498-.405c.124.095.26.175.402.237-.077.13-.27.495-.27.495l.085.054a.743.743 0 01.066.05s.21-.397.29-.531c.177.06.362.094.55.102v.73c-.105 0-.372-.014-.483-.025h-.067l.037.056c.026.04.05.08.07.123l.008.014h.018c.079 0 .322.016.413.018v1.33h.184v-.33c.27-.013.493-.03.765-.054h.011l.238-.21-.13.011c-.286.037-.537.055-.765.068h-.12v-.844a4.24 4.24 0 00.993-.139c.088.22.255.752.255.752l.174-.055s-.16-.529-.256-.748c.275-.086.54-.2.793-.338.204.25.38.52.524.807-.13.061-.368.145-.368.145.113.013.225.035.334.068l.111-.048.05.114.238.107-.027-.067-.098-.232c.254-.126.5-.269.736-.427a4.26 4.26 0 01-.984 5.708l.018.013zM45.38 32.493l-.069.062c-.259.229-.85.837-.759 1.503l.008.047.03.132.083-.076c.361-.332.635-.897.746-1.547l.03-.184-.069.063zM44.178 33.644l-.03.08a3.072 3.072 0 00-.16.657c-.056.44-.044 1.063.337 1.528l.042.055.045.056.056-.282c.063-.5-.02-1.547-.202-2.015l-.064-.162-.03.08.006.003zM43.739 35.446v.082c-.033.447-.01 1.554.882 2.14l.106.069v-.126c-.014-.42-.503-1.673-.87-2.122l-.102-.126v.083h-.017zM43.893 37.424l.014.075c.132.636.732 1.664 1.66 1.962l.125.042-.045-.126c-.174-.476-1.066-1.582-1.642-1.947l-.128-.082.016.076zM45.755 33.45l-.073.045c-.691.421-1.014.934-.988 1.567v.143l.1-.084c.372-.31.84-1.102.978-1.552l.05-.161-.074.045.007-.003z" fill="#fff"/><path d="M45.35 34.83l-.053.048c-.177.161-.748.779-.7 1.534.01.127.037.251.079.371l.04.121.074-.103c.273-.387.643-1.405.616-1.878v-.144l-.052.05h-.005zM45.34 36.202c-.27.372-.418.818-.426 1.278.01.307.109.604.284.855l.06.09.051-.096c.124-.234.224-.997.21-1.6-.001-.17-.022-.342-.063-.509l-.039-.134-.077.116zM45.713 37.546l-.018.06c-.083.26-.124.533-.12.807a1.596 1.596 0 00.77 1.361l.083.054.018-.113v-.09c-.013-.477-.366-1.677-.643-2.043l-.077-.1-.02.06.007.004zM44.74 39.405l.036.06c.373.626 1.003 1.432 2.183 1.224l.098-.016-.056-.084c-.22-.323-1.651-1.139-2.158-1.223l-.138-.022.035.06zM46.486 40.992l-.186.05.178.073c.75.308 1.69.4 2.237.216.184-.07.35-.184.482-.332.965.1 1.859.9 2.383 1.555l.029.032.04-.012a.627.627 0 00.188-.133l.035-.04-.032-.044a4.736 4.736 0 00-1.447-1.179c-.77-.378-2.13-.671-3.912-.186h.005zM46.525 38.99l.011.063c.113.71.399 1.641 1.593 1.538h.076l-.02-.075c-.08-.322-1.173-1.26-1.556-1.523l-.114-.06.01.064v-.007zM54.964 32.43l.032.184c.111.646.383 1.215.746 1.547l.082.076.03-.132c0-.002.007-.044.009-.047.09-.666-.502-1.274-.76-1.503l-.07-.062-.069-.063zM56.207 33.565l-.063.16c-.183.469-.267 1.516-.204 2.016l.058.282.043-.056.042-.055c.381-.465.394-1.087.338-1.528a3.195 3.195 0 00-.16-.657l-.031-.08-.03-.08.007-.002zM56.67 35.363l-.104.126c-.365.449-.854 1.702-.87 2.122v.126l.104-.07c.893-.585.915-1.692.885-2.139v-.165h-.015zM56.537 37.348l-.129.082c-.574.365-1.468 1.471-1.642 1.947l-.046.126.129-.042c.926-.298 1.527-1.326 1.657-1.962l.016-.075.015-.076zM54.62 33.377l.048.162c.129.453.58 1.253.947 1.571l.1.087.008-.145c.037-.63-.276-1.15-.965-1.586l-.072-.047-.066-.042zM55.012 34.784v.144c-.019.473.343 1.49.616 1.878l.074.103.04-.121c.043-.12.07-.244.08-.371.049-.755-.523-1.365-.7-1.534l-.052-.049-.053-.05h-.005zM54.998 36.086l-.04.134a2.09 2.09 0 00-.061.51c-.015.602.083 1.365.207 1.599l.052.097.06-.09a1.59 1.59 0 00.284-.856 2.23 2.23 0 00-.426-1.278l-.037-.058-.039-.058zM54.681 37.487l-.077.1c-.276.366-.63 1.566-.643 2.042v.09l.02.113.083-.053a1.588 1.588 0 00.768-1.362 2.44 2.44 0 00-.12-.806l-.02-.06-.017-.06.006-.004zM55.709 39.347l-.137.022c-.507.084-1.94.896-2.16 1.223l-.054.084.098.016c1.18.209 1.81-.598 2.182-1.224l.035-.06.036-.061z" fill="#fff"/><path d="M50.015 41.178a4.738 4.738 0 00-1.439 1.18l-.033.043.037.04c.053.056.117.1.188.133l.04.012.027-.032c.524-.655 1.423-1.452 2.383-1.555.132.148.297.262.482.332.545.184 1.486.092 2.237-.216l.177-.073-.185-.05c-1.783-.484-3.144-.192-3.914.186zM53.898 38.927l-.114.06c-.383.263-1.476 1.2-1.556 1.523l-.02.074h.076c1.195.103 1.482-.827 1.595-1.537l.02-.126v.006zM23.364 31.627h1.512v1.381h-1.512v-1.38zm.12 9.68v-6.73h1.268V41.3l-1.269.006zM13.907 34.581h1.269v6.726h-1.233v-.992h-.028c-.506.844-1.361 1.192-2.297 1.192-1.4 0-2.203-1.073-2.203-2.42v-4.506h1.27v3.98c0 1.165.267 2.023 1.481 2.023.52 0 1.228-.267 1.495-.968.169-.51.255-1.043.254-1.58V34.58h-.008zM17.708 35.573h.027c.428-.843 1.362-1.192 2.03-1.192.467 0 2.537.12 2.537 2.278v4.648h-1.267v-4.233c0-1.112-.468-1.715-1.537-1.715-.459-.004-.9.174-1.229.495-.186.187-.534.484-.534 1.796v3.657h-1.268v-6.726h1.241v.992zM30.064 36.738c-.067-.839-.465-1.423-1.367-1.423-1.205 0-1.672 1.05-1.672 2.622 0 1.571.467 2.623 1.672 2.623.835 0 1.353-.544 1.419-1.505h1.262c-.108 1.505-1.222 2.42-2.695 2.42-2.135 0-2.984-1.517-2.984-3.488 0-1.972.98-3.595 3.092-3.595 1.407 0 2.466.892 2.53 2.343l-1.257.003zM33.272 38.176c-.094 1.173.384 2.384 1.67 2.384.983 0 1.473-.385 1.618-1.36h1.328c-.2 1.52-1.367 2.278-2.959 2.278-2.135 0-2.985-1.516-2.985-3.488 0-1.971.982-3.594 3.091-3.594 1.99.041 2.931 1.303 2.931 3.155v.625h-4.694zm3.368-.878c.027-1.116-.482-1.983-1.698-1.983-1.05 0-1.67.89-1.67 1.983h3.368zM39.394 41.283v-5.808h-1.146v-.881h1.146v-1.436c.04-1.465 1.14-1.85 2.082-1.85.305.018.607.062.904.132v1.05c-.214-.011-.425-.04-.643-.04-.716 0-1.126.189-1.087.92v1.224h1.538v.88H40.65v5.809h-1.256z" fill="#fff"/></svg>