<svg width="22" height="22" viewBox="0 0 22 22" fill="none" xmlns="http://www.w3.org/2000/svg"><path d="M14.203 4.433a40.32 40.32 0 00-.35.31c-.161.145-.336.304-.389.349-.206.179-.281.245-.625.557-.196.176-.398.36-.451.405l-.182.158c-.15.132-.912.812-.97.863-.16.149-.274.25-.459.413-.233.204-.227.203-.49.11a4.497 4.497 0 00-.212-.072 15.449 15.449 0 01-.586-.193c-.157-.05-.338-.111-.404-.134a6.465 6.465 0 00-.202-.067 16.118 16.118 0 01-.194-.06 88.41 88.41 0 00-1.202-.398c-.066-.023-.148-.048-.182-.06l-.273-.09c-.117-.04-.257-.083-.314-.102-.137-.047-.28-.093-.424-.141a3.45 3.45 0 00-.172-.056c-.029-.01-.11-.035-.181-.062-.073-.024-.142-.05-.156-.054-.044-.015-.044.032 0 .12.052.102.15.294.229.445a6.968 6.968 0 00.185.361l.144.279c.109.218.282.56.485.955.026.047.067.132.097.186l.118.233c.04.073.087.167.107.207l.09.177.154.301c.055.108.13.258.17.332.04.073.09.18.12.235a.54.54 0 00.06.113c.007.005.017.034.022.064.007.051.002.058-.137.182-.078.072-.178.16-.224.199a50.76 50.76 0 00-.625.557c-.299.268-.584.523-.632.564-.048.042-.29.258-.538.482-.446.4-.594.533-.689.611-.027.021-.071.065-.1.092a85.22 85.22 0 01-1.695 1.511l-.22.195a5.179 5.179 0 01-.162.14c-.02.018-.03.036-.02.042.008.006.455-.08.993-.19 1.46-.302 1.716-.354 2.142-.44.214-.043.526-.109.693-.143.166-.036.647-.135 1.066-.22.42-.085.97-.2 1.226-.255.252-.054.47-.09.482-.082.011.008.11.1.11.1l.081.117s.037.02.178.295c.12.238.363.71.415.815.033.061.078.15.102.196.022.047.063.13.093.184.028.053.071.142.1.196.029.054.07.135.092.182l.101.197.154.301c.153.303.26.51.366.717l.107.206.22.432c.054.103.1.193.29.565l.306.604c.033.06.08.155.108.205.045.09.121.24.22.432.127.246.15.29.188.368l.101.197c.053.105.296.576.417.816.245.48.307.597.32.596.007-.003.02-.186.031-.406.011-.224.021-.42.025-.437a27.498 27.498 0 01.027-.497c.016-.277.112-2.127.115-2.203-.001-.02.006-.155.014-.298.009-.143.015-.277.016-.296a693.987 693.987 0 01.135-2.604 41.468 41.468 0 00.054-1.006c.024-.482.055-.89.07-.905.027-.03.597-.154 2.185-.476.224-.044.534-.108.694-.142l1.01-.21c1.474-.304 2.082-.43 2.447-.504.206-.044.366-.087.358-.1-.015-.018-.212-.09-.411-.15a6.015 6.015 0 01-.204-.064 3.395 3.395 0 00-.172-.056c-.028-.01-.11-.035-.18-.061-.073-.025-.171-.06-.223-.075-.089-.029-.4-.13-.627-.206l-.172-.055a5.742 5.742 0 01-.172-.058l-.213-.069c-.194-.063-.667-.22-.777-.258-.06-.02-.149-.047-.194-.06a6.408 6.408 0 01-.202-.067 20.63 20.63 0 00-.404-.134c-.155-.052-.333-.111-.392-.132a15.25 15.25 0 00-.194-.06c-.046-.014-.14-.047-.212-.071a2.974 2.974 0 00-.187-.06 1.84 1.84 0 01-.122-.04 42.64 42.64 0 00-.6-.202c-.084-.025-.18-.058-.424-.14-.305-.102-.44-.152-.441-.163-.003-.021.099-2.046.109-2.16.004-.031.03-.522.057-1.09.028-.568.054-1.06.059-1.097.01-.08-.009-.089-.075-.038z" fill="#fff" opacity=".2"/></svg>