<svg width="43" height="44" viewBox="0 0 43 44" fill="none" xmlns="http://www.w3.org/2000/svg"><path d="M23.331 5.103c-.047.071-.297.475-.56.898-.255.421-.533.878-.619 1.01-.332.522-.452.716-.997 1.615-.313.508-.634 1.039-.72 1.171-.086.132-.216.342-.293.462-.24.383-1.457 2.352-1.548 2.501-.253.427-.435.721-.731 1.192-.375.595-.364.59-.996.557-.172-.011-.398-.02-.505-.02l-.46-.007a89.235 89.235 0 00-.939-.034 46.223 46.223 0 01-.963-.031 14.449 14.449 0 00-.483-.014c-.107 0-.315-.004-.46-.007-.264-.011-1.392-.047-1.855-.06a48.49 48.49 0 01-1.014-.028c-.158-.007-.352-.01-.434-.012-.077 0-.37-.012-.65-.02-.28-.01-.614-.016-.749-.02-.327-.013-.67-.02-1.012-.033a7.824 7.824 0 00-.41-.01c-.068-.002-.261-.006-.433-.017-.173-.007-.34-.017-.374-.018-.106-.005-.075.097.077.261l.785.82c.11.113.22.23.236.254.02.026.196.208.399.412.198.203.417.433.494.51.377.405.974 1.035 1.672 1.764.084.085.229.242.329.342.093.102.275.295.408.43.132.133.296.306.365.381.068.075.211.222.31.326.102.105.34.354.528.555.19.2.452.477.584.61.133.135.313.332.411.436.093.107.185.199.207.206.018.006.058.062.087.124.049.108.043.125-.179.484-.124.207-.284.465-.359.576-.073.108-.52.835-.997 1.615-.477.775-.931 1.514-1.009 1.634-.077.12-.462.747-.858 1.393-.711 1.16-.946 1.544-1.102 1.774-.045.063-.113.186-.157.264a4.708 4.708 0 01-.162.263c-.045.063-.538.862-1.097 1.775a194.839 194.839 0 01-1.448 2.34l-.351.565c-.11.177-.228.362-.262.409-.032.052-.041.098-.02.105.023.007.94-.47 2.037-1.056 2.978-1.597 3.5-1.875 4.368-2.337.44-.233 1.075-.576 1.415-.757.337-.187 1.317-.71 2.174-1.167a337.03 337.03 0 002.498-1.344c.513-.28.963-.5.994-.49.03.01.304.145.304.145l.252.201s.091.02.577.527c.414.441 1.247 1.31 1.428 1.503.11.113.267.278.347.362.08.088.22.24.32.339.096.098.248.262.348.361.095.098.236.25.315.338.08.083.237.249.348.361.108.117.35.368.528.555.528.56.893.941 1.258 1.323.11.112.274.285.366.378.156.165.418.442.758.797.183.188.34.354.992 1.04.804.85.849.894 1.056 1.114.11.113.274.285.367.378.156.165.418.442.758.797.434.452.51.534.645.678.08.084.236.25.347.362.181.193 1.014 1.062 1.433 1.505.841.886 1.051 1.098 1.079 1.087.013-.01-.077-.415-.194-.902-.12-.492-.225-.926-.227-.966a3.275 3.275 0 00-.063-.261 1686.852 1686.852 0 00-1.375-5.698c-.015-.043-.085-.341-.16-.655a1540.31 1540.31 0 01-1.372-5.692l-.174-.707a2.31 2.31 0 01-.053-.215c-.002-.039-.22-.944-.479-2.007-.26-1.063-.456-1.971-.433-2.012.04-.083 1.198-.72 4.44-2.444.458-.241 1.091-.58 1.416-.757.324-.177 1.252-.673 2.057-1.107 3.007-1.612 4.247-2.28 4.992-2.675.419-.228.74-.426.713-.449-.045-.028-.517-.058-.99-.059-.106 0-.325-.002-.483-.009a7.828 7.828 0 00-.41-.01c-.068-.002-.262-.006-.433-.017-.173-.007-.408-.019-.53-.02-.212-.004-.956-.024-1.495-.04l-.411-.011a13.2 13.2 0 01-.41-.014c-.144-.003-.37-.012-.507-.012-.463-.013-1.59-.048-1.855-.06a36.021 36.021 0 00-.46-.007c-.107 0-.324-.006-.483-.013a46.223 46.223 0 00-.963-.032 89.235 89.235 0 01-.939-.033 34.304 34.304 0 00-.46-.007c-.107 0-.333-.01-.506-.016a6.659 6.659 0 00-.445-.011c-.069.002-.199-.001-.29-.006a94.86 94.86 0 00-1.434-.051c-.2-.001-.43-.012-1.012-.033-.728-.024-1.052-.045-1.064-.068a420.37 420.37 0 01-1.157-4.764c-.011-.071-.274-1.155-.58-2.407-.306-1.251-.568-2.34-.58-2.42-.031-.18-.077-.19-.189-.036z" fill="#fff" opacity=".4"/></svg>