<svg width="41" height="41" viewBox="0 0 41 41" fill="none" xmlns="http://www.w3.org/2000/svg"><path d="M12.315 32.448c.062-.035.398-.235.75-.445.348-.211.724-.44.837-.504.442-.256.603-.352 1.343-.803.422-.253.858-.52.971-.584.113-.064.288-.168.39-.227.32-.189 1.959-1.168 2.082-1.242.348-.216.592-.363.988-.595.5-.293.49-.293.94-.031.122.073.285.165.363.205.078.04.23.122.335.179.103.06.408.23.676.378.27.146.58.322.694.387.114.064.27.15.349.191l.335.179a165.546 165.546 0 002.07 1.146c.114.065.254.14.314.173l.47.26c.2.113.443.242.54.296.235.133.484.268.73.406.113.065.246.138.297.162.049.027.19.103.31.176.125.07.244.14.268.154.076.043.092-.043.043-.22l-.265-.895a3.399 3.399 0 01-.077-.274 12.9 12.9 0 00-.137-.451l-.169-.56c-.123-.437-.322-1.122-.557-1.918-.03-.094-.077-.263-.112-.373-.03-.11-.09-.32-.137-.467a13.87 13.87 0 01-.123-.417c-.022-.08-.071-.242-.104-.355a52.056 52.056 0 01-.178-.604c-.062-.218-.15-.519-.196-.666-.047-.148-.104-.36-.137-.473a1.006 1.006 0 00-.074-.229c-.01-.01-.019-.067-.016-.123.005-.097.015-.107.314-.286.17-.104.385-.232.482-.286.094-.05.696-.413 1.342-.802.643-.387 1.257-.755 1.359-.813.102-.059.621-.371 1.157-.694.96-.578 1.277-.77 1.48-.88.056-.029.153-.093.215-.133a3.93 3.93 0 01.217-.13c.057-.03.721-.427 1.477-.883 1.34-.805 1.529-.918 1.948-1.163l.471-.28c.148-.088.304-.178.347-.2.043-.026.067-.056.054-.07-.014-.013-.866-.01-1.893.004-2.788.043-3.276.05-4.088.06-.41.003-1.006.014-1.324.019-.318.01-1.235.022-2.036.032-.8.01-1.852.028-2.34.04-.483.01-.896.001-.915-.018-.018-.019-.168-.22-.168-.22l-.108-.242s-.06-.049-.224-.602c-.137-.479-.418-1.427-.478-1.637-.039-.123-.09-.303-.118-.395a8.2 8.2 0 00-.106-.368c-.033-.107-.082-.284-.118-.395-.033-.107-.08-.271-.104-.365-.027-.091-.079-.271-.117-.395-.036-.126-.118-.4-.178-.604-.175-.608-.298-1.024-.42-1.44-.039-.124-.094-.312-.126-.414-.052-.18-.14-.481-.255-.868-.062-.207-.114-.387-.333-1.134-.268-.924-.284-.973-.353-1.212-.038-.123-.093-.311-.125-.413l-.254-.868c-.148-.495-.172-.583-.216-.74-.028-.09-.08-.27-.118-.394-.06-.21-.341-1.158-.48-1.639-.282-.965-.356-1.198-.38-1.201-.014.003-.101.332-.2.732-.098.405-.186.761-.199.79a46.777 46.777 0 01-.223.9c-.125.503-.947 3.854-.98 3.994-.005.037-.066.281-.13.539a1276.793 1276.793 0 01-1.15 4.673c-.06.255-.123.517-.14.582a1.932 1.932 0 01-.042.177c-.013.03-.197.772-.409 1.646-.212.874-.412 1.611-.444 1.633-.062.045-1.15.073-4.182.11-.426.003-1.02.012-1.324.019-.304.007-1.173.02-1.928.032-2.815.043-3.977.063-4.673.071-.393.01-.703.032-.693.06.022.037.357.237.703.415.079.04.238.124.352.19.113.064.245.137.297.162.048.026.189.102.31.175.125.07.292.168.382.214.154.083.691.378 1.08.594l.298.162c.057.03.192.106.294.165.106.057.268.149.368.2.335.184 1.149.635 1.338.743.105.057.256.138.335.179.078.04.235.127.348.192.114.065.425.24.695.386.267.149.573.319.676.379l.335.178c.078.04.24.132.364.203.122.073.268.148.322.175.051.025.146.076.21.114.117.067.76.43 1.033.578.146.076.311.17.73.405.524.292.754.43.754.452-.002.04-.897 3.71-.955 3.914-.02.056-.237.946-.486 1.976-.25 1.03-.47 1.922-.491 1.987-.046.142-.016.166.124.097z" fill="#fff" opacity=".1"/></svg>