<svg width="41" height="40" viewBox="0 0 41 40" fill="none" xmlns="http://www.w3.org/2000/svg"><path d="M32.372 27.643a74.676 74.676 0 00-.46-.74c-.218-.34-.454-.712-.52-.823a56.272 56.272 0 00-.83-1.322c-.262-.416-.537-.845-.603-.957-.066-.111-.174-.283-.234-.384a908.418 908.418 0 00-1.284-2.05 38.245 38.245 0 01-.614-.973c-.303-.493-.303-.482-.048-.936.072-.122.161-.285.2-.364l.174-.336c.058-.103.224-.41.369-.679.142-.271.313-.584.376-.698.064-.114.148-.271.187-.35l.174-.336a164.646 164.646 0 001.116-2.08c.063-.114.137-.255.168-.315l.253-.472c.11-.201.237-.445.29-.543.129-.236.26-.486.394-.733.064-.114.135-.247.158-.299.027-.049.1-.19.171-.312l.15-.269c.043-.076-.044-.09-.221-.038l-.894.279c-.124.04-.25.078-.274.08-.027.007-.226.07-.452.145-.223.071-.472.149-.558.178-.438.13-1.123.34-1.918.587-.094.032-.263.081-.373.118-.11.032-.32.095-.468.144-.147.049-.335.107-.416.13-.08.023-.242.075-.355.11-.115.037-.386.12-.604.186-.217.067-.518.159-.666.208-.148.048-.36.109-.473.144-.113.029-.215.063-.228.077-.01.01-.067.02-.124.019-.097-.004-.108-.014-.292-.308-.108-.167-.24-.38-.295-.475a95.809 95.809 0 00-.83-1.322c-.399-.633-.779-1.237-.84-1.338-.06-.1-.382-.612-.716-1.14-.597-.945-.796-1.258-.909-1.456-.03-.056-.096-.151-.137-.212a3.823 3.823 0 01-.135-.215c-.03-.056-.441-.71-.912-1.455-.832-1.319-.948-1.504-1.201-1.918-.069-.108-.198-.318-.29-.464-.09-.145-.184-.299-.206-.341-.028-.043-.058-.066-.071-.053-.013.014.003.862.036 1.884.09 2.774.104 3.26.129 4.067.01.407.032 1 .041 1.317.015.316.043 1.228.067 2.025.024.797.06 1.843.08 2.328.02.48.017.891-.002.91-.019.02-.219.171-.219.171l-.241.113s-.048.06-.601.232c-.478.145-1.426.44-1.636.504-.123.04-.304.095-.395.124a8.337 8.337 0 00-.368.112c-.107.035-.285.087-.395.124a11.56 11.56 0 01-.365.11c-.091.028-.271.083-.395.123-.126.038-.4.124-.604.188-.607.184-1.023.314-1.44.443-.123.04-.311.098-.413.132-.18.055-.481.147-.868.268-.207.066-.387.12-1.133.351-.924.282-.973.3-1.212.372-.123.04-.311.097-.413.132-.18.055-.481.147-.868.268-.494.155-.583.18-.738.227-.092.029-.272.084-.395.124-.21.063-1.158.36-1.639.506-.964.297-1.198.375-1.2.399.003.013.336.095.739.185.408.091.768.172.798.185.032.01.127.032.216.05a1438.523 1438.523 0 004.72 1.064c.038.004.284.06.544.12l.54.122c.09.017 3.582.805 4.174.94l.587.13c.068.013.146.03.179.04.03.013.779.182 1.66.379.882.196 1.626.382 1.648.413.047.061.094 1.145.182 4.16.01.424.03 1.014.041 1.317.013.303.04 1.167.066 1.918.09 2.8.13 3.957.15 4.649.016.391.044.7.071.688.038-.022.233-.36.406-.706.04-.079.121-.24.184-.353.064-.114.135-.247.158-.299.027-.049.1-.19.172-.312.068-.125.163-.293.208-.383.081-.155.368-.695.579-1.086l.157-.298c.03-.057.103-.193.161-.296.055-.106.145-.269.195-.37.179-.336.618-1.153.724-1.343.055-.106.134-.258.173-.337.04-.078.124-.236.187-.35.063-.114.235-.426.377-.698.145-.268.31-.575.368-.678.056-.106.135-.258.174-.337.04-.079.129-.241.197-.366.072-.123.145-.27.171-.323.024-.052.074-.147.11-.212.067-.117.42-.763.564-1.037.074-.147.166-.312.395-.733.285-.527.42-.758.44-.758.041.002 3.744.829 3.95.883.056.018.954.22 1.993.45 1.039.23 1.94.434 2.005.455.143.042.167.012.095-.126z" fill="#fff" opacity=".1"/></svg>