<svg width="36" height="36" viewBox="0 0 36 36" fill="none" xmlns="http://www.w3.org/2000/svg"><path d="M27.554 26.29a66.221 66.221 0 00-.338-.7c-.162-.323-.337-.675-.385-.78-.194-.41-.267-.561-.612-1.252-.193-.394-.397-.8-.446-.906-.048-.105-.127-.268-.171-.363-.144-.298-.89-1.826-.947-1.942a34.406 34.406 0 01-.454-.92c-.223-.467-.224-.457.046-.836.075-.102.17-.238.212-.305.042-.066.127-.193.186-.282.06-.086.237-.343.39-.568.152-.227.334-.489.4-.584.068-.095.157-.227.2-.293.042-.067.126-.194.185-.283a145.53 145.53 0 001.187-1.741c.067-.096.145-.214.179-.264.031-.048.154-.225.269-.396.117-.168.252-.373.308-.454.137-.198.277-.407.42-.614.066-.096.142-.207.168-.25.028-.041.106-.16.181-.262l.159-.224c.044-.064-.031-.085-.194-.055l-.82.164a11.624 11.624 0 00-.665.131l-.512.105c-.401.075-1.03.197-1.759.342-.086.019-.24.047-.342.07-.1.017-.293.054-.429.083-.135.03-.308.063-.381.076-.074.013-.222.044-.325.064l-.555.11c-.199.037-.475.091-.61.12-.136.03-.33.064-.434.084a.91.91 0 00-.21.047c-.01.009-.061.012-.111.005-.086-.012-.095-.022-.231-.301a13.72 13.72 0 01-.217-.449c-.038-.087-.315-.65-.612-1.252-.295-.6-.576-1.172-.62-1.267-.045-.095-.283-.58-.529-1.079-.442-.896-.588-1.192-.67-1.38-.022-.052-.071-.142-.102-.2a144.242 144.242 0 01-1.658-3.397l-.214-.44a8.358 8.358 0 01-.151-.322c-.02-.04-.045-.064-.058-.053-.013.01-.078.765-.146 1.676-.18 2.47-.213 2.903-.268 3.623-.029.363-.065.891-.087 1.173a171.48 171.48 0 01-.13 1.805c-.054.71-.121 1.641-.15 2.074-.027.428-.068.793-.086.808-.019.015-.21.132-.21.132l-.225.077s-.049.048-.556.15c-.438.083-1.308.257-1.5.293-.113.024-.278.056-.362.073a7.328 7.328 0 00-.337.065c-.099.02-.261.05-.362.073-.099.02-.249.049-.335.063l-.362.072c-.116.022-.367.073-.554.11-.557.106-.938.182-1.32.258-.114.024-.286.058-.38.079-.165.031-.44.085-.795.156-.19.039-.355.07-1.04.205l-1.11.216-.38.078-.795.157c-.454.091-.535.106-.677.132-.084.017-.25.049-.363.073-.192.036-1.061.21-1.502.296-.884.172-1.099.219-1.103.24.001.012.289.116.638.235.354.119.666.225.691.239a43.318 43.318 0 01.788.269c.438.15 3.368 1.144 3.49 1.183.034.008.247.081.472.158a1124.59 1124.59 0 014.086 1.388 107.76 107.76 0 01.663.222c.026.014.675.235 1.44.493.764.257 1.407.492 1.424.522.035.058-.025 1.025-.23 3.71-.03.378-.07.903-.088 1.174-.017.27-.074 1.04-.122 1.709-.183 2.495-.256 3.525-.304 4.142-.022.349-.026.625-.001.618.035-.017.24-.297.427-.59a9.9 9.9 0 01.196-.295c.067-.096.143-.207.168-.25.029-.042.107-.16.182-.262.072-.104.172-.245.22-.32.087-.13.393-.582.617-.91l.168-.25c.031-.048.11-.162.17-.248.06-.088.154-.225.208-.31.19-.281.658-.965.77-1.124l.185-.283c.042-.066.132-.198.199-.293.067-.096.248-.357.4-.584l.39-.568.187-.283c.042-.066.137-.202.21-.307.074-.102.153-.225.182-.27.026-.044.079-.123.118-.178.07-.097.443-.638.598-.868.079-.123.176-.261.42-.614.301-.44.442-.633.461-.631.036.005 3.246 1.088 3.423 1.156.05.02.828.284 1.728.587.9.302 1.681.568 1.737.592.123.051.147.027.096-.103z" fill="#fff" opacity=".4"/></svg>