<svg width="18" height="18" viewBox="0 0 18 18" fill="none" xmlns="http://www.w3.org/2000/svg"><path d="M10.376 17.61c.011-.042.07-.272.13-.514.057-.239.12-.499.141-.575.079-.299.107-.41.23-.92.071-.29.143-.592.164-.668.021-.075.051-.195.07-.264l.357-1.427c.056-.241.097-.41.167-.679.088-.34.083-.335.39-.416.083-.02.192-.05.243-.067a17.82 17.82 0 01.672-.193c.179-.053.388-.11.464-.131.077-.02.181-.05.232-.067l.22-.066a104.373 104.373 0 001.38-.394c.077-.02.17-.048.209-.06.037-.011.178-.05.313-.09.134-.036.294-.085.36-.103l.486-.138c.077-.02.165-.046.197-.058.033-.009.126-.037.209-.057l.18-.049c.052-.013.022-.057-.076-.112l-.498-.272a7.806 7.806 0 00-.404-.22L15.9 9.9a102.04 102.04 0 00-1.064-.586c-.054-.028-.146-.08-.209-.113a9.532 9.532 0 00-.26-.143 8.298 8.298 0 01-.231-.126c-.044-.026-.135-.074-.197-.108a30.744 30.744 0 01-.337-.185c-.12-.066-.287-.158-.37-.202-.084-.044-.2-.11-.263-.145a.615.615 0 00-.13-.067c-.009 0-.037-.02-.06-.046-.04-.043-.04-.053.012-.257.028-.118.065-.265.083-.33.019-.062.12-.476.23-.92.109-.442.213-.863.232-.932l.197-.794c.162-.66.215-.879.255-1.012.011-.037.025-.106.034-.15a70.107 70.107 0 00.29-1.162c.228-.92.26-1.049.334-1.334l.082-.322c.025-.101.053-.207.062-.235.007-.03.005-.053-.007-.053s-.376.366-.81.812c-1.175 1.213-1.381 1.425-1.724 1.777-.174.177-.425.437-.56.575-.131.14-.519.538-.857.886-.339.347-.782.805-.986 1.02-.201.21-.382.383-.399.383-.016 0-.167-.023-.167-.023l-.15-.057s-.047.004-.355-.163c-.264-.148-.793-.435-.909-.5-.07-.037-.17-.092-.22-.12a5.019 5.019 0 00-.204-.112c-.06-.032-.158-.088-.22-.12a7.06 7.06 0 01-.202-.113l-.22-.12-.337-.183c-.336-.187-.568-.313-.8-.44l-.232-.124a75.02 75.02 0 00-.482-.265c-.116-.062-.216-.117-.63-.345l-.673-.37c-.07-.037-.174-.095-.232-.124a75.02 75.02 0 00-.483-.265c-.276-.15-.324-.177-.41-.226l-.22-.12c-.116-.064-.645-.351-.912-.499C.653 1.55.521 1.48.508 1.49c-.004.007.1.186.23.4.133.217.249.408.256.426a29.637 29.637 0 01.292.483c.162.27 1.252 2.064 1.298 2.138.014.018.093.15.177.288.083.14.162.269.173.287A765.655 765.655 0 014.47 8.038a47.634 47.634 0 00.591.978c.285.467.517.87.512.892-.007.046-.461.525-1.743 1.839-.181.184-.432.441-.56.575l-.81.84C1.271 14.386.782 14.892.487 15.193c-.165.173-.287.316-.271.323.025.007.255-.051.48-.122.05-.016.155-.049.232-.07.076-.02.164-.045.197-.057.032-.01.125-.037.208-.057.084-.023.198-.053.256-.072l.718-.207.197-.057c.038-.012.128-.037.198-.056.07-.02.178-.05.243-.07.223-.065.765-.22.893-.254.07-.02.17-.05.22-.067.051-.016.155-.046.232-.066.077-.021.285-.079.464-.132.178-.05.382-.108.452-.126.07-.02.17-.05.22-.067.051-.016.16-.046.244-.069.083-.02.178-.05.213-.062.033-.011.095-.03.14-.041.078-.021.51-.14.69-.194.095-.03.207-.06.487-.138.35-.099.508-.138.517-.129a211.7 211.7 0 011.276 2.094c.016.032.306.509.642 1.059.336.55.626 1.028.645 1.065.041.08.065.078.095-.011z" fill="#fff" opacity=".35"/></svg>