<svg width="94" height="36" viewBox="0 0 94 36" fill="none" xmlns="http://www.w3.org/2000/svg"><path d="M3.236.463c-.123.255-.247.57-.277.688-.062.167-.175.216-.688.275-1.21.138-1.21.138-.512.65l.605.442-.257.59c-.594 1.368-.656 1.545-.523 1.446.072-.049.493-.373.944-.698.44-.334.851-.58.923-.541.062.04.595.413 1.17.846.584.423 1.076.757 1.097.738.01-.02-.205-.541-.472-1.161-.277-.62-.523-1.2-.554-1.289-.041-.108.226-.364.892-.855.513-.394.913-.709.882-.709-.02 0-.543.07-1.159.148-.605.089-1.128.128-1.169.098-.03-.03-.154-.285-.277-.57C3.738.285 3.595.04 3.533.02c-.051-.01-.185.187-.297.443zM63.615 1.623c0 .03.144.393.329.807l.328.747-.257.207c-.143.108-.42.334-.615.482l-.349.275.308-.05c.174-.029.523-.078.78-.117l.482-.06.184.463.185.462.225-.482c.236-.53.38-.62.923-.62.38 0 .452-.127.175-.285-.575-.324-.575-.334-.298-1.003.144-.334.257-.63.236-.649-.02-.01-.277.148-.584.364-.298.216-.595.364-.657.325a17.25 17.25 0 01-.697-.492c-.554-.404-.698-.482-.698-.374zM8.59 4.013c-.534.325-1.15 1.053-1.519 1.8-.974 1.977-1.733 5.42-2.03 9.236-.113 1.486-.205 1.77-.523 1.77-.216 0 .071-3.698.543-6.983.164-1.16.298-2.252.298-2.43 0-.62-.544-.855-2.36-1.022-1.343-.118-1.538-.05-1.856.649C.528 8.36.23 10.71.23 14.213c0 2.784.103 4.18.462 6.295.79 4.722 2.523 7.495 4.697 7.525.441 0 1.2-.335 1.2-.531 0-.07-.174-.502-.4-.954A16.892 16.892 0 015.01 23.33c-.328-1.22-.595-3-.554-3.62.03-.462.041-.481.39-.54a6.52 6.52 0 00.564-.119c.185-.058.297.119.995 1.486 3.005 5.921 6.636 10.092 9.948 11.41 1.026.413 2.124.57 2.965.422 1.364-.226 1.835-1.18.584-1.19-.184 0-.605-.108-.923-.236-2.133-.846-4.84-3.914-7.774-8.823-.8-1.347-2.36-4.249-2.36-4.396 0-.06.216-.217.493-.374.708-.394 2.041-1.416 2.698-2.075 1.948-1.938 2.861-3.945 2.861-6.276 0-1.888-.472-3.511-1.272-4.357-.574-.61-1.046-.728-3.036-.777-1.528-.04-1.723-.02-2 .147zm1.681 1.299c.954.462 1.447 1.573 1.447 3.226-.01 2.321-1.405 4.514-4.134 6.462-.769.56-1.805 1.18-1.856 1.121-.062-.069.226-2.655.451-4.072.605-3.796 1.446-6.216 2.37-6.816.297-.197.43-.226.85-.167.278.03.667.137.873.246zM17.358 4.23c0 .177.072.196.718.196h.718l.02 1.79.032 1.8h.512l.031-1.8.02-1.79h.667c.595 0 .667-.02.667-.196 0-.187-.072-.197-1.692-.197-1.62 0-1.693.01-1.693.197zM21.38 6.02c.03 1.987.03 1.997.266 2.026.226.03.226.01.226-.944 0-.836.03-1.013.215-1.24a.628.628 0 01.544-.255c.553 0 .666.216.697 1.377.03.983.041 1.033.267 1.062.225.03.225.02.225-1.2 0-1.21 0-1.23-.266-1.426-.185-.138-.42-.207-.708-.207-.287 0-.523.07-.708.207l-.266.197V4.83c0-.787 0-.797-.257-.797h-.256l.02 1.987zM33.44 4.672c-.092.404-.122.67-.06.699.143.088.327-.138.625-.777l.267-.561h-.339c-.318 0-.338.01-.492.64zM47.82 6.05c0 1.947.01 2.016.205 2.016.134 0 .206-.069.206-.187 0-.177.01-.177.38 0 .45.226.738.236 1.21.05.512-.207.697-.63.646-1.457-.031-.56-.083-.708-.308-.924-.339-.335-1.036-.423-1.498-.197l-.328.167v-.747c0-.718-.01-.738-.256-.738h-.257V6.05zm1.805-.315c.38.315.462 1.14.154 1.613-.184.275-.266.324-.615.324-.657 0-.913-.383-.841-1.229.072-.807.738-1.17 1.302-.708zM54.825 4.594c-.071.02-.133.177-.133.334 0 .236-.041.285-.256.285-.185 0-.257.05-.257.197 0 .148.072.197.257.197h.256v1.131c0 1.26.041 1.328.759 1.328.297 0 .37-.04.37-.187 0-.138-.083-.207-.278-.226l-.287-.03-.03-1.013-.031-1.003h1.241v1.072c0 1.24.071 1.387.728 1.387.328 0 .4-.03.4-.197 0-.138-.072-.197-.246-.197-.328 0-.37-.147-.37-1.19v-.875h.308c.236 0 .308-.04.308-.197s-.072-.197-.308-.197c-.287 0-.308-.029-.308-.344 0-.187-.04-.344-.092-.344-.267 0-.42.147-.42.393 0 .236-.052.286-.277.315a3.23 3.23 0 01-.616-.01c-.307-.03-.338-.059-.338-.364 0-.324-.082-.383-.38-.265zM25.297 5.4c-.43.256-.584.66-.533 1.446.04.59.072.689.37.934.604.522 1.825.335 2.05-.304.103-.266.093-.296-.102-.296-.113 0-.339.128-.492.296-.175.186-.39.295-.554.295-.38 0-.78-.404-.78-.787v-.295h2.082l-.072-.472c-.082-.65-.492-1.004-1.169-1.004-.287 0-.605.07-.8.187zm1.262.335a.978.978 0 01.184.383l.072.276h-.78c-.686 0-.779-.02-.779-.177 0-.551.882-.876 1.303-.482zM28.21 5.282c-.02.05-.02.689 0 1.436.031 1.338.031 1.357.257 1.328.215-.03.225-.089.277-1.043.05-1.121.153-1.298.738-1.298.246 0 .287-.04.287-.256 0-.236-.03-.256-.328-.196-.174.029-.4.127-.503.216-.153.128-.174.128-.225-.06-.052-.186-.431-.284-.503-.127zM30.825 5.41c-.43.246-.574.521-.584 1.18-.021 1.033.39 1.476 1.364 1.476.4 0 .574-.06.82-.256.38-.305.42-.63.082-.63a.38.38 0 00-.328.217c-.144.305-.585.443-.923.295-.277-.118-.616-.738-.513-.905.041-.059.523-.098 1.098-.098h1.035l-.071-.423c-.134-.757-.483-1.053-1.272-1.053a1.66 1.66 0 00-.708.197zm1.272.325a.812.812 0 01.154.364c.03.236.01.246-.708.275-.8.03-.892-.04-.636-.482.205-.374.872-.452 1.19-.157zM34.733 5.39c-.738.453-.482 1.132.533 1.427.749.216.923.364.77.64-.216.393-1.047.343-1.19-.07-.041-.137-.154-.206-.318-.206-.339 0-.328.324.02.659.236.226.318.246.985.206.83-.039 1.108-.246 1.108-.816 0-.423-.246-.61-1.036-.816-.626-.158-.657-.187-.657-.463 0-.255.041-.295.298-.324.42-.05.78.059.78.226 0 .088.102.147.256.147.184 0 .256-.049.256-.177 0-.52-1.19-.796-1.805-.432zM39.102 6.64v1.426h.257c.256 0 .256 0 .256-.974 0-.826.03-1.003.215-1.23a.628.628 0 01.544-.255c.554 0 .666.216.697 1.377.031.984.041 1.033.267 1.062.226.03.226.02.226-1.092 0-.63-.031-1.21-.062-1.298-.174-.433-1.17-.58-1.62-.236l-.267.197V5.42c0-.157-.062-.207-.257-.207h-.256V6.64zM43.04 5.4c-.563.325-.81 1.25-.512 1.918.226.512.615.748 1.251.748.688 0 .954-.118 1.262-.541.205-.295.236-.433.195-.964-.041-.659-.257-1.052-.677-1.24-.38-.167-1.16-.127-1.518.08zm1.242.266c.226.088.461.56.461.925 0 .796-.595 1.327-1.22 1.081-.308-.118-.37-.206-.534-.727-.122-.394.052-.994.35-1.19.225-.158.645-.197.943-.09zM51.748 5.41c-.43.246-.574.521-.584 1.18-.02 1.033.39 1.476 1.364 1.476.4 0 .574-.06.82-.256.38-.305.42-.63.083-.63a.38.38 0 00-.329.217c-.143.305-.584.443-.923.295-.277-.118-.615-.738-.513-.905.041-.059.524-.098 1.098-.098H53.8l-.072-.423c-.133-.757-.482-1.053-1.272-1.053a1.66 1.66 0 00-.708.197zm1.272.325a.81.81 0 01.154.364c.03.236.01.246-.708.275-.8.03-.892-.04-.636-.482.206-.374.872-.452 1.19-.157zM58.682 5.44c-.595.383-.77 1.249-.4 2.016.225.472.492.61 1.23.61.39 0 .565-.06.81-.256.4-.315.421-.63.062-.63-.154 0-.256.06-.256.138 0 .197-.4.453-.687.453-.329 0-.739-.394-.77-.738l-.03-.295 1.056-.03c1.159-.029 1.149-.02.933-.737-.205-.718-1.23-.994-1.948-.531zm1.066.177c.287.147.38.275.38.55 0 .217-.041.227-.718.227-.687 0-.718-.01-.718-.226 0-.237.225-.482.513-.59.236-.08.307-.08.543.039zM61.605 5.341c-.02.069-.03.698-.02 1.407.03 1.21.04 1.268.246 1.298.215.03.225-.02.266-.974.031-.895.062-1.013.277-1.18a.97.97 0 01.534-.187c.246 0 .297-.04.297-.246 0-.177-.051-.246-.205-.246-.246 0-.718.207-.718.315 0 .04-.041.079-.102.079-.052 0-.103-.089-.103-.197 0-.226-.38-.285-.472-.069zM66.23 8.174c-.071.108-.358 1.82-.871 5.252a291.876 291.876 0 01-.36 2.282l-.05.217-.39-.217c-.339-.196-.523-.216-1.764-.216-1.282 0-1.426.02-1.949.256-2 .905-3.651 3.895-3.856 6.954-.062 1.052-.37 1.957-1.252 3.777-.892 1.859-1.19 1.102-1.323-3.344-.061-2.194-.082-2.42-.266-2.646-.339-.413-.944-.62-1.836-.62-.698 0-.82.03-1.098.256-.184.147-.328.373-.359.56-.02.177-.102.68-.164 1.132-.133.934-.666 2.754-1.148 3.904-.585 1.407-.883 1.741-1.293 1.466-.79-.521-.687-4.062.185-6.56.646-1.85 1.784-3.424 2.81-3.896.626-.295 1.22-.275 1.487.05.277.334.523 1.13.523 1.672 0 .58.082.727.4.727.4 0 .523-.167.523-.708 0-1.13-.39-2.085-1.035-2.537-.585-.404-1.303-.522-2.954-.473-1.293.03-1.436.06-1.939.305-1.508.758-2.697 2.518-3.374 4.977-.349 1.26-.441 3.551-.195 4.574.43 1.731 1.57 2.715 3.17 2.715.327 0 .717-.06.881-.138.544-.275 1.16-1.042 1.723-2.203.37-.738.595-1.082.636-.994.041.08.205.59.37 1.142.543 1.888 1.415 3.058 2.379 3.236.841.147 1.661-.65 2.677-2.597l.574-1.102.328.679c.605 1.259 1.662 1.967 3.067 2.056 1.251.078 2.02-.404 3.097-1.909.319-.452.616-.796.657-.757.04.05.236.443.44.885 1.95 4.387 4.33 7.368 6.596 8.272.287.118.554.217.584.217.185 0-.02-.472-.697-1.663-1.723-3.01-2.687-5.498-3.313-8.557-.256-1.269-.277-1.495-.277-4.19.01-2.656.02-2.95.277-4.328.154-.816.328-1.731.38-2.036.05-.315.287-1.308.523-2.213.225-.915.44-1.86.471-2.105.052-.423.042-.462-.358-.787-.76-.63-2.421-1.111-2.636-.767zm-2.512 8.547c.225.217.266.915.102 1.82-.092.551.031.738.482.738h.247l-.072 1.052c-.093 1.643-.544 3-1.693 5.164-.933 1.741-1.405 2.145-1.917 1.623-.688-.698-.872-2.065-.595-4.298.42-3.285 1.384-5.498 2.677-6.138.4-.206.523-.197.769.04zM29.564 8.951c0 .266.03.295.307.295s.308-.03.308-.295c0-.266-.03-.295-.308-.295-.277 0-.307.03-.307.295zM43.513 10.673v2.016h.256c.257 0 .257-.02.257-.767 0-1.26.215-1.692.85-1.692.462 0 .575.256.606 1.377.03 1.033.03 1.033.287 1.033h.257v-1.151c0-1.043-.021-1.18-.216-1.357-.297-.286-.944-.364-1.354-.158-.174.089-.338.128-.359.079-.03-.04-.051-.325-.051-.64-.01-.304-.01-.61-.01-.658-.01-.06-.123-.099-.267-.099h-.256v2.017zM27.954 9.217c-.072.02-.133.177-.133.334 0 .236-.042.285-.257.285-.338 0-.359.364-.02.414.215.03.225.078.256 1.101.01.6.082 1.141.144 1.21.061.069.307.128.553.128.38 0 .452-.03.452-.187 0-.138-.082-.207-.277-.226l-.287-.03-.031-1.013-.03-1.003h.317c.236 0 .308-.04.308-.197s-.072-.197-.308-.197c-.287 0-.308-.029-.308-.344 0-.334-.082-.393-.38-.275zM41.85 9.256c-.102.05-.184.207-.184.335 0 .167-.061.246-.225.265-.35.05-.38.374-.041.374h.266v1.072c0 1.269.082 1.417.76 1.367.491-.039.604-.305.143-.354-.36-.04-.41-.216-.37-1.249l.031-.787.339-.03c.461-.049.42-.353-.062-.393-.297-.03-.328-.059-.328-.374 0-.354-.051-.383-.328-.226zM32.108 10.023c-.318.246-.39.256-.39.06 0-.09-.092-.148-.256-.148h-.267l.03 1.347.031 1.358h.257c.256 0 .256-.01.277-.886.02-.491.051-.983.082-1.091.061-.266.574-.472.923-.394.359.089.461.404.461 1.495 0 .925 0 .925.257.925h.256v-1.013c0-.935.02-1.033.236-1.23.297-.265.728-.275.995-.02.174.168.205.325.205 1.23v1.033h.513v-1.121c0-1.033-.02-1.151-.236-1.387-.297-.335-.933-.433-1.385-.207-.184.089-.328.217-.328.276 0 .059-.113.01-.246-.109-.37-.334-1.056-.383-1.415-.118zM37.143 10.063c-.44.285-.646.826-.564 1.495.031.265.144.6.246.737.257.325.841.532 1.293.453.718-.128 1.354-.944.748-.944-.164 0-.287.088-.358.245-.226.473-1.036.443-1.303-.049-.297-.56-.256-.59.872-.59 1.169 0 1.21-.03 1.025-.669-.225-.846-1.19-1.17-1.959-.678zm1.262.334a.595.595 0 01.184.393c0 .217-.03.227-.779.227-.759 0-.77-.01-.697-.226.112-.374.359-.561.738-.561.205 0 .451.069.554.167zM47.543 9.934c-.215.089-.44.374-.44.58 0 .207.43.109.635-.137.113-.138.297-.246.43-.246.329 0 .678.276.678.531 0 .207-.062.236-.595.295-.8.089-1.22.345-1.313.797-.092.472.195.846.728.984.318.078.452.059.78-.118.307-.167.4-.177.4-.07 0 .08.102.139.256.139h.257v-1.063c0-1.278-.052-1.465-.421-1.642-.318-.158-1.046-.187-1.395-.05zm1.303 1.574c0 .335-.287.758-.554.827-.318.078-.728-.07-.82-.296-.165-.423.204-.708.943-.718.37-.01.43.02.43.187zM51.41 9.905a1.13 1.13 0 00-.328.207c-.164.138-.185.128-.185-.01 0-.108-.082-.167-.256-.167h-.257v2.754h.246c.247 0 .247-.02.288-1.043.03-.954.05-1.052.276-1.23.288-.225.606-.235.913-.029.206.138.226.227.226 1.23v1.072h.513v-1.16c-.01-1.2-.051-1.358-.482-1.574-.226-.119-.687-.148-.954-.05zM29.666 11.312v1.377h.513V9.935h-.512v1.377zM17.102 11.37c.051.355.03.414-.174.502l-.226.099.298.137c.164.079.328.246.359.384l.061.246.144-.217c.113-.167.184-.187.38-.118.41.148.492.099.245-.147l-.236-.246.226-.354c.123-.197.205-.374.174-.404-.02-.029-.215.03-.43.128l-.38.177-.256-.295-.246-.295.061.404z" fill="#fff"/><path d="M55.45 11.538c.062.334.052.383-.133.433-.287.069-.266.187.031.265.154.04.267.158.308.315.072.246.082.256.267.089.164-.138.256-.148.512-.07.36.129.39.07.093-.235l-.226-.227.226-.364c.267-.422.215-.52-.133-.295-.339.207-.462.197-.76-.068l-.256-.217.072.374zM34.415 14.873c-1.16.285-2.42 3.383-3.477 8.537l-.297 1.427-.031-.886c-.02-.492.02-1.377.072-1.977a22.4 22.4 0 00.112-1.878c0-.768-.01-.807-.328-1.102-.41-.384-1.415-.698-2.236-.698-.738 0-.923.157-.738.62.092.206.143 1.11.164 2.625l.03 2.312-.502 1.21c-.646 1.574-1.077 2.38-1.261 2.38-.41 0-.564-.915-.657-4.052-.092-2.961-.102-3-.861-3.335-.544-.236-1.795-.256-2.226-.04-.39.198-.472.365-.554 1.142-.133 1.318-.954 4.072-1.57 5.252-.697 1.338-1.24 1.141-1.486-.54-.195-1.28.123-3.66.707-5.312.872-2.45 2.308-4.033 3.662-4.033.441 0 .482.02.718.413.256.423.472 1.308.472 1.918 0 .295.03.325.297.325.513 0 .657-.236.575-.925-.154-1.377-.554-2.105-1.426-2.547-.39-.197-.564-.217-2.216-.217-1.65 0-1.825.02-2.215.217-2.113 1.082-3.63 4.062-3.795 7.455-.143 2.951.975 4.712 3.098 4.85.595.039.79.01 1.148-.168.564-.275 1.19-1.091 1.764-2.301.247-.522.472-.954.503-.954.03 0 .195.462.359 1.032.287 1.023.903 2.37 1.262 2.755.317.344.79.62 1.18.688.85.157 1.64-.61 2.645-2.547.339-.64.626-1.112.657-1.033.02.078.123.383.225.678.246.758.482 1.18.882 1.545.852.787 2.185.836 1.99.078-.041-.137.072-.895.236-1.701.174-.797.482-2.312.687-3.364.851-4.397 1.446-6.256 2.093-6.59.164-.08.215-.06.317.118.165.305.062 2.32-.266 5.046-.38 3.147-.431 4.357-.216 4.908.35.865 1.58 1.603 2.544 1.514.287-.02.39-.108.656-.55.38-.6 1.077-2.223 1.703-3.935.472-1.279.564-1.318.585-.256.03 1.702.779 3.807 1.62 4.584.451.423.81.57 1.354.57.615 0 .636-.088.41-1.573-.246-1.643-.277-3.59-.061-5.184.164-1.288.123-1.77-.206-2.115-.297-.334-1.015-.58-1.815-.639l-.738-.059-.39.433c-.544.61-.974 1.475-1.918 3.875-.533 1.338-.77 1.741-.667 1.131.185-1.13.308-2.832.298-4.377-.01-1.947-.185-2.911-.698-3.747-.482-.787-1.384-1.2-2.174-1.003zM90.282 15.295c-.36.256-1.067 1.151-1.426 1.83-.113.197-.246.452-.308.55-.43.738-1.64 3.797-2.318 5.853-.287.856-.553 1.554-.594 1.554-.052 0-.072-1.23-.062-2.734.02-2.046-.01-2.784-.103-2.951-.246-.433-.964-.66-2.133-.66-.861 0-1.077.03-1.23.178-.165.157-.165.187 0 .452.133.217.174.532.184 1.309 0 .55.041 1.387.082 1.849.051.462.062.875.03.934a.478.478 0 00-.081.197c-.031.207-1.067 2.616-1.375 3.187-.718 1.367-1.005.472-1.118-3.453-.092-2.98-.092-3-.912-3.344-.585-.246-1.703-.265-2.185-.03-.359.188-.451.374-.544 1.23-.205 1.78-1.302 5.036-1.959 5.794-.759.855-1.333-.709-1.107-3.02.297-3.02 1.374-5.616 2.79-6.758.676-.53 1.19-.757 1.681-.718.38.03.452.07.667.433.144.256.277.758.36 1.328l.122.925.308-.03c.451-.04.585-.275.533-.905-.123-1.436-.523-2.124-1.507-2.596-.872-.423-3.508-.404-4.4.039-1.672.816-2.954 2.892-3.62 5.852-.196.905-.165 3.217.06 3.935.35 1.102.913 1.83 1.744 2.233.462.226 1.385.334 1.96.236.645-.118 1.281-.836 1.968-2.213.329-.65.616-1.19.647-1.19.03 0 .194.471.348 1.052.903 3.197 2.523 4.298 3.97 2.695.39-.433 1.835-3.05 1.835-3.315 0-.246.175-.137.236.138.031.147.154.521.267.816.523 1.328 1.354 2.056 2.338 2.056h.544l.349-.679c.338-.63 1.22-3.127 2.38-6.649.758-2.34 1.066-3.236 1.138-3.295.03-.03.03.079 0 .246-.236 1.072-.605 4.407-.657 5.862-.061 1.879.01 2.42.452 3.266.512.983 1.487 1.692 2.461 1.81.749.078.82-.05.544-1.073-.134-.53-.236-1.288-.277-2.144-.062-1.426 0-1.987.595-5.114.728-3.787.748-4.063.328-4.456-.8-.728-2.328-.984-3.005-.512zM80.128 32.499v2.026h.513v-.984c0-.924.02-1.013.256-1.23.277-.275.636-.314.933-.107.165.118.195.285.226 1.23.041 1.081.041 1.09.287 1.09.246 0 .246 0 .246-1.12 0-.974-.03-1.151-.205-1.368-.297-.364-.81-.432-1.333-.196l-.4.196-.03-.747c-.031-.689-.052-.748-.257-.777l-.236-.03V32.5zM86.969 30.551c-.041.04-.072.954-.072 2.026v1.948h.513l-.02-1.987c-.031-1.711-.052-1.997-.185-2.026-.093-.01-.195 0-.236.04zM92.436 31.102c0 .344.03 1.052.071 1.574.052.846.082.964.257.964.164 0 .184-.079.184-.62 0-.334.031-1.043.072-1.574l.062-.954h-.646v.61zM28.98 31.22c-.134.256-.288.433-.36.413-.072-.03-.266-.069-.44-.108l-.308-.07.287.296c.225.226.277.344.215.55-.061.247-.051.256.216.158.246-.088.328-.069.533.108l.236.217v-.266c0-.216.072-.295.307-.383.339-.128.41-.266.134-.266-.339 0-.482-.177-.534-.65l-.061-.452-.226.453zM73.236 31.092c-.113.06-.185.217-.185.384 0 .246-.04.295-.256.295-.329 0-.349.265-.02.315.215.03.225.078.276 1.16.051 1.082.062 1.131.308 1.25.39.196.759.127.8-.158.02-.138 0-.206-.072-.167-.062.04-.205.02-.318-.04-.195-.098-.205-.186-.184-1.062l.03-.954.287-.03c.154-.019.277-.088.277-.167 0-.078-.123-.147-.277-.167-.246-.03-.287-.079-.317-.403-.031-.384-.072-.413-.35-.256zM75.553 31.81c-.738.315-1.046 1.21-.697 2.007.451 1.042 2.082 1.082 2.595.069.328-.64.123-1.564-.41-1.948-.35-.246-1.077-.305-1.488-.128zm1.241.57c.246.276.277.384.236.837-.061.649-.369 1.013-.861 1.013-.554 0-.79-.276-.841-.964-.041-.57-.031-.62.266-.905.431-.403.831-.403 1.2.02zM84.364 31.741c-.42.08-.82.561-.882 1.082-.072.512.04 1.132.246 1.368.625.727 2.246.442 2.246-.394 0-.256-.359-.177-.595.138-.246.315-.667.393-1.046.197-.164-.08-.41-.57-.41-.797 0-.05.492-.089 1.087-.089h1.097l-.072-.462c-.112-.806-.8-1.23-1.671-1.043zm.923.492c.082.099.174.266.195.374.03.177-.031.197-.708.226-.698.03-.749.01-.749-.177 0-.501.903-.806 1.262-.423zM89.492 31.87c-.359.156-.441.156-.441.048 0-.098-.103-.147-.277-.147h-.287l.03 1.928c.031 1.918.031 1.918.257 1.888.205-.03.226-.098.256-.65.031-.609.031-.609.257-.461.297.196.943.187 1.313-.02.39-.226.605-.689.605-1.308 0-.708-.226-1.131-.728-1.318-.493-.197-.462-.197-.985.04zm.667.255c.512.138.707 1.18.328 1.78-.174.276-.257.325-.616.325-.266 0-.482-.07-.605-.187-.44-.423-.338-1.554.175-1.82.318-.167.39-.177.718-.098zM92.436 34.279c0 .207.05.246.307.246s.308-.04.308-.246c0-.207-.051-.246-.308-.246-.256 0-.307.04-.307.246z" fill="#fff"/></svg>