<svg width="84" height="84" viewBox="0 0 84 84" fill="none" xmlns="http://www.w3.org/2000/svg"><path d="M70.771 52.927c-.106-.112-.71-.712-1.343-1.34-.632-.617-1.319-1.286-1.514-1.49-.778-.79-1.068-1.078-2.417-2.393-.762-.752-1.56-1.526-1.755-1.73-.196-.203-.51-.515-.689-.698-.572-.572-3.519-3.494-3.743-3.714a85.683 85.683 0 01-1.787-1.758c-.888-.895-.882-.873-.575-1.948.087-.291.193-.677.235-.86.043-.185.132-.542.194-.791.07-.245.262-.969.43-1.603.16-.639.362-1.377.437-1.647.075-.27.172-.641.215-.825.042-.184.131-.542.193-.79.125-.45.634-2.378.84-3.171.104-.434.226-.895.45-1.734.074-.27.157-.602.194-.743.031-.133.167-.634.29-1.113.13-.476.272-1.05.333-1.28.151-.558.3-1.146.458-1.73.075-.27.156-.583.18-.703.03-.115.113-.447.2-.738.081-.295.165-.58.18-.637.05-.18-.14-.17-.486.024l-1.739 1.009c-.24.143-.486.281-.535.3-.053.024-.44.251-.876.514-.432.257-.918.538-1.084.639-.855.48-2.188 1.245-3.734 2.14-.182.111-.513.295-.725.425-.216.119-.624.351-.91.523-.286.173-.652.383-.81.47-.157.086-.47.27-.69.397-.224.133-.752.436-1.175.678-.424.243-1.01.579-1.296.75-.286.173-.701.401-.92.527-.223.115-.42.235-.441.27-.017.028-.131.074-.251.098-.206.039-.235.022-.772-.51-.311-.302-.697-.686-.862-.86a210.97 210.97 0 00-2.416-2.394 444.886 444.886 0 01-2.448-2.421 324.94 324.94 0 00-2.086-2.062c-1.738-1.71-2.314-2.275-2.654-2.64-.092-.103-.28-.273-.397-.382a8.628 8.628 0 01-.393-.388 253.25 253.25 0 00-2.658-2.633c-2.42-2.386-2.758-2.723-3.502-3.474-.2-.196-.58-.576-.844-.84-.266-.264-.541-.543-.61-.622-.079-.077-.154-.112-.175-.077-.02.035.445 1.813 1.034 3.95 1.601 5.798 1.879 6.813 2.34 8.502.23.854.577 2.092.758 2.754.193.66.716 2.566 1.172 4.233a606.018 606.018 0 001.351 4.865c.286 1.002.49 1.868.46 1.917-.03.05-.373.463-.373.463l-.45.35s-.07.15-1.146.774c-.932.53-2.775 1.6-3.184 1.832-.24.143-.59.343-.767.447-.185.099-.504.28-.717.41-.208.123-.555.316-.767.446-.209.123-.528.304-.713.403-.177.104-.528.304-.767.447-.247.138-.779.449-1.176.678a440.882 440.882 0 00-2.802 1.613c-.24.142-.606.352-.803.473-.35.2-.936.536-1.688.972-.401.237-.752.437-2.205 1.274-1.8 1.03-1.893 1.089-2.359 1.353-.24.143-.605.353-.802.473-.35.2-.937.536-1.689.973-.96.56-1.133.657-1.437.827-.178.104-.528.304-.768.447-.408.232-2.251 1.303-3.188 1.839-1.877 1.079-2.329 1.352-2.321 1.404.013.026.754.042 1.648.043.905-.001 1.703 0 1.772.013.074.006.284.008.48.001.185-.003.876 0 1.537.005 1.122.005 8.62.015 8.931.01.082-.007.629-.004 1.205-.002a76.42 76.42 0 001.2.004c.196-.007 7.942.008 9.256.014l1.301-.003c.148-.006.322-.007.395-.001.07.012 1.732.017 3.686.014 1.954-.002 3.614.039 3.676.095.13.106.779 2.366 2.498 8.673.24.888.579 2.122.758 2.754.18.633.677 2.439 1.114 4.008 1.616 5.854 2.288 8.27 2.682 9.718.233.817.449 1.453.5 1.416.067-.064.306-.866.494-1.679.043-.184.133-.56.208-.83.075-.27.157-.583.18-.702.03-.116.114-.448.201-.739.08-.295.194-.694.243-.904.093-.364.42-1.637.665-2.56.062-.248.144-.562.18-.702a22.7 22.7 0 01.187-.7c.063-.248.168-.633.222-.868.205-.793.714-2.721.839-3.171.062-.249.15-.606.193-.79.043-.185.14-.556.215-.826.075-.27.276-1.008.437-1.646.168-.635.36-1.359.43-1.603.062-.25.15-.606.194-.79.042-.185.148-.57.228-.865.088-.292.168-.635.196-.761.023-.12.08-.343.124-.498.08-.277.493-1.804.657-2.45.08-.343.19-.735.458-1.73.33-1.242.495-1.792.54-1.803.086-.015 8.295-.018 8.755 0 .129.01 2.12.011 4.422.007 2.302-.004 4.3.001 4.447.013.323.022.358-.052.136-.309z" fill="#fff" opacity=".4"/></svg>