<svg width="23" height="23" viewBox="0 0 23 23" fill="none" xmlns="http://www.w3.org/2000/svg"><path d="M18.253 15.777c-.02-.035-.137-.225-.26-.425-.123-.196-.257-.409-.294-.472-.15-.25-.206-.341-.47-.759-.147-.239-.303-.485-.34-.549l-.133-.22c-.11-.181-.682-1.107-.725-1.177a22.125 22.125 0 01-.348-.558c-.171-.283-.17-.277-.023-.535a4.79 4.79 0 00.116-.207 17.17 17.17 0 01.313-.578c.083-.155.181-.332.218-.397a7.23 7.23 0 00.108-.2l.1-.191a93.91 93.91 0 00.646-1.184c.037-.065.08-.146.098-.18.016-.032.084-.153.146-.269.064-.114.137-.253.167-.309.075-.134.151-.276.229-.417.036-.065.078-.14.091-.17.015-.028.058-.108.1-.178l.086-.153c.024-.043-.025-.052-.127-.023l-.512.156a7.502 7.502 0 00-.415.126c-.128.04-.27.083-.32.1-.25.072-.643.19-1.098.328-.054.018-.15.045-.214.066a8.903 8.903 0 00-.267.08c-.085.028-.192.06-.239.073l-.203.061-.346.105c-.124.037-.296.088-.381.116-.085.027-.206.06-.27.08a.582.582 0 00-.131.043c-.006.007-.039.012-.071.01-.056-.002-.062-.008-.166-.176a53.592 53.592 0 00-.635-1.03l-.476-.769a84.642 84.642 0 00-.405-.654c-.338-.542-.45-.722-.514-.836-.017-.032-.054-.086-.077-.121a91.915 91.915 0 01-1.27-2.058l-.165-.267a5.273 5.273 0 01-.117-.196c-.015-.024-.032-.038-.04-.03s-.001.492.013 1.076l.059 2.325c.004.233.014.571.018.752.008.181.02.702.031 1.158.01.455.027 1.053.036 1.33.01.275.007.51-.004.52-.01.011-.126.097-.126.097l-.138.064s-.027.034-.344.13c-.274.081-.817.247-.937.282-.07.023-.174.053-.226.07a4.762 4.762 0 00-.21.062c-.062.02-.164.049-.227.07a6.72 6.72 0 01-.209.06l-.226.07c-.072.02-.229.07-.346.105a119.2 119.2 0 00-.824.247c-.07.023-.179.055-.237.074l-.497.15c-.118.037-.221.068-.649.197l-.693.207-.237.074c-.103.03-.276.082-.497.15-.283.087-.334.101-.423.127l-.226.07c-.12.035-.663.2-.938.283-.552.165-.686.209-.687.223.001.007.191.055.42.109.234.053.44.1.456.108a28.812 28.812 0 01.519.121c.288.069 2.217.516 2.298.534.021.002.162.036.31.07.15.037.289.068.309.073a724.812 724.812 0 012.716.63 45.044 45.044 0 001.05.246c.502.115.927.224.94.242.026.035.048.654.087 2.378.005.242.013.579.019.752.006.174.018.667.03 1.096.041 1.601.06 2.262.068 2.657.008.224.023.4.038.394.022-.013.135-.204.235-.402.023-.045.07-.136.107-.201.036-.065.077-.14.091-.17.015-.028.058-.108.099-.178.04-.071.095-.167.12-.218.047-.088.213-.396.335-.618l.092-.17c.016-.033.059-.11.092-.169a91.33 91.33 0 01.531-.975c.033-.06.079-.147.101-.192a7.05 7.05 0 01.108-.199c.037-.065.136-.243.218-.397l.213-.387.101-.191c.023-.045.075-.138.114-.209.041-.07.084-.153.1-.184a1.94 1.94 0 01.063-.12c.038-.067.242-.435.326-.591.043-.083.096-.178.228-.417.165-.3.243-.432.255-.432.023.001 2.136.488 2.253.52.033.01.545.129 1.138.264.592.136 1.106.256 1.143.268.082.025.096.008.055-.072z" fill="#fff" opacity=".3"/></svg>