<svg width="41" height="41" viewBox="0 0 41 41" fill="none" xmlns="http://www.w3.org/2000/svg"><path d="M32.49 27.874a74.872 74.872 0 00-.458-.742c-.217-.343-.453-.716-.519-.828a56.363 56.363 0 00-.826-1.327c-.26-.418-.535-.849-.6-.96-.066-.112-.173-.285-.234-.386a865.12 865.12 0 00-1.279-2.06 39.41 39.41 0 01-.611-.976c-.302-.495-.302-.485-.048-.94.071-.123.16-.286.2-.365.039-.08.118-.232.173-.338.057-.104.222-.412.366-.682.142-.272.312-.586.375-.7.063-.115.147-.273.186-.352l.173-.338a168.073 168.073 0 001.111-2.087c.063-.115.137-.257.168-.317.029-.057.144-.27.252-.474.11-.202.236-.447.288-.545.128-.237.26-.488.393-.736a6.54 6.54 0 00.157-.3c.027-.049.1-.19.17-.313l.15-.27c.042-.077-.044-.091-.22-.039l-.891.28a3.38 3.38 0 01-.273.082c-.027.005-.225.069-.45.144-.221.072-.47.15-.556.178-.436.13-1.118.342-1.91.59-.093.032-.262.081-.371.118-.11.032-.319.096-.466.145-.147.049-.334.107-.414.13-.08.023-.241.075-.353.11a54.51 54.51 0 01-.602.188c-.217.066-.516.159-.664.208-.147.049-.358.11-.47.144-.113.03-.214.064-.228.078-.01.01-.066.02-.123.018-.097-.003-.107-.013-.291-.309a15.65 15.65 0 01-.294-.476c-.052-.093-.425-.69-.826-1.328-.398-.636-.776-1.242-.837-1.343-.06-.101-.381-.615-.713-1.144-.596-.95-.793-1.264-.906-1.464-.03-.056-.096-.151-.137-.213a3.881 3.881 0 01-.134-.215c-.03-.056-.44-.713-.909-1.46a160.32 160.32 0 01-1.196-1.927l-.288-.466c-.09-.146-.184-.3-.206-.343-.027-.043-.057-.066-.07-.053-.014.014.003.866.035 1.892.09 2.785.105 3.272.13 4.083.01.41.031 1.005.04 1.323.016.317.044 1.233.068 2.033.024.8.06 1.85.079 2.338.02.482.017.895-.001.914-.019.02-.218.172-.218.172l-.24.112s-.048.06-.6.234c-.475.145-1.42.442-1.628.506-.123.04-.302.095-.393.124a8.254 8.254 0 00-.367.113c-.107.034-.283.086-.393.124-.107.034-.27.084-.364.11-.09.029-.27.084-.393.124-.126.038-.399.124-.602.188-.604.185-1.019.315-1.434.445-.122.04-.31.098-.411.133-.18.055-.48.147-.864.268-.206.067-.385.122-1.13.353-.92.283-.967.3-1.205.373-.123.04-.31.098-.412.132-.18.055-.48.148-.864.27-.492.155-.58.181-.736.227-.09.03-.27.084-.393.125-.209.063-1.153.36-1.632.508-.96.298-1.193.375-1.195.4.003.013.334.095.736.187.406.09.765.172.794.185.033.01.127.033.216.05a1394.672 1394.672 0 004.7 1.069c.038.004.284.06.542.12a1246.55 1246.55 0 014.695 1.069c.257.056.52.115.585.13.068.012.146.03.178.04.03.012.776.183 1.654.38.878.197 1.62.384 1.641.416.047.06.093 1.149.181 4.176.012.426.03 1.019.042 1.323.012.304.04 1.172.066 1.926.09 2.812.13 3.973.15 4.668.016.393.044.702.07.69.038-.022.232-.36.405-.709.04-.078.12-.24.183-.354.063-.114.134-.248.158-.3.026-.049.1-.19.17-.313.068-.126.163-.294.207-.384.081-.156.367-.698.577-1.09l.157-.3c.029-.058.102-.194.16-.297.055-.107.144-.27.194-.371.178-.338.616-1.159.72-1.35.055-.106.134-.258.173-.337.04-.08.123-.237.186-.352.063-.114.234-.428.375-.7.144-.27.31-.578.367-.682.055-.106.134-.259.173-.338.04-.079.128-.242.197-.368a5.5 5.5 0 00.17-.324c.023-.052.073-.147.11-.213.066-.117.417-.766.56-1.041.074-.147.166-.313.394-.736.283-.529.417-.76.439-.761.04.002 3.728.833 3.933.888.056.018.95.22 1.985.451 1.034.232 1.931.437 1.996.457.143.043.167.013.095-.126z" fill="#fff" opacity=".1"/></svg>