<svg width="36" height="36" viewBox="0 0 36 36" fill="none" xmlns="http://www.w3.org/2000/svg"><path d="M27.6 25.802a64.637 64.637 0 00-.338-.702c-.16-.325-.334-.678-.382-.783a50.838 50.838 0 00-.609-1.257c-.192-.395-.395-.804-.443-.91-.048-.105-.127-.268-.17-.364l-.942-1.949a34.928 34.928 0 01-.452-.924c-.221-.468-.222-.458.047-.839.074-.102.169-.239.21-.305l.186-.284c.061-.087.237-.345.39-.57.151-.23.332-.492.399-.587.067-.096.156-.229.198-.295.042-.067.127-.195.185-.284A147.922 147.922 0 0027.062 14c.067-.096.145-.215.18-.265.03-.048.152-.226.267-.397.117-.17.252-.375.307-.457.137-.199.277-.409.419-.617.066-.095.142-.207.167-.251.028-.041.107-.16.181-.262.073-.105.145-.205.158-.226.045-.064-.03-.085-.192-.055l-.817.165a11.565 11.565 0 00-.662.132c-.204.043-.433.089-.511.107-.4.074-1.025.197-1.752.344-.086.019-.24.047-.34.07-.101.018-.293.055-.428.084-.135.03-.307.063-.38.077-.073.013-.22.044-.324.064-.105.022-.353.071-.552.11-.199.039-.473.093-.609.122-.135.03-.328.064-.431.084a.902.902 0 00-.21.048c-.01.009-.06.011-.11.005-.086-.012-.095-.023-.23-.302-.08-.159-.176-.36-.216-.45a84.678 84.678 0 00-.609-1.257 181.44 181.44 0 01-.616-1.272c-.044-.095-.281-.581-.526-1.083-.44-.899-.585-1.196-.666-1.384-.022-.053-.072-.144-.102-.202a142.605 142.605 0 01-1.65-3.41l-.212-.44a8.305 8.305 0 01-.15-.324c-.02-.04-.045-.064-.058-.053-.013.01-.078.768-.146 1.682-.182 2.482-.215 2.916-.27 3.638-.028.365-.066.895-.087 1.178-.017.284-.078 1.1-.132 1.812-.054.713-.121 1.649-.15 2.083-.027.43-.068.796-.086.811-.019.016-.21.132-.21.132l-.224.078s-.048.049-.553.151c-.437.084-1.303.259-1.494.296l-.361.073a7.345 7.345 0 00-.336.066c-.098.02-.26.05-.361.073-.098.02-.248.049-.333.063l-.361.074c-.115.021-.366.073-.552.11-.554.107-.935.184-1.315.26-.113.024-.285.058-.378.08-.165.031-.44.085-.793.156-.189.04-.353.072-1.035.207-.844.165-.888.176-1.106.218-.113.024-.285.058-.379.079-.164.032-.439.086-.792.157-.452.092-.532.107-.675.134-.083.017-.247.049-.36.073-.192.037-1.058.212-1.497.298-.88.174-1.094.221-1.099.242.001.013.288.117.636.236.352.119.663.225.688.239a44.772 44.772 0 01.784.27c.437.15 3.355 1.146 3.476 1.185.033.008.245.081.47.158a1111.582 1111.582 0 014.069 1.39 112.09 112.09 0 01.66.223c.025.015.672.236 1.433.494s1.402.493 1.418.523c.036.059-.025 1.03-.232 3.726-.03.379-.07.906-.087 1.178-.018.271-.075 1.044-.123 1.716-.184 2.505-.258 3.54-.306 4.158-.023.351-.027.628-.002.62.035-.016.24-.298.426-.59a9.92 9.92 0 01.196-.298c.066-.096.142-.208.168-.252.027-.04.106-.16.18-.262.073-.105.172-.246.22-.322.087-.13.392-.585.615-.913l.168-.252a9.78 9.78 0 01.17-.249c.058-.089.153-.226.207-.31.19-.284.655-.971.767-1.13l.185-.284c.042-.067.131-.2.198-.295.067-.096.247-.358.399-.587.153-.226.329-.484.39-.57l.185-.284c.042-.066.137-.203.21-.308a4.9 4.9 0 00.18-.272c.027-.044.08-.124.119-.178.069-.098.442-.642.596-.872.079-.124.176-.263.418-.617.301-.443.442-.636.46-.634.037.005 3.233 1.09 3.41 1.158.048.021.823.285 1.72.588.896.303 1.674.57 1.73.593.122.052.146.027.095-.103z" fill="#fff" opacity=".4"/></svg>