<svg width="41" height="41" viewBox="0 0 41 41" fill="none" xmlns="http://www.w3.org/2000/svg"><path d="M12.432 32.187c.062-.035.397-.236.748-.447.345-.212.72-.442.833-.507.44-.256.6-.353 1.337-.806.42-.254.854-.522.967-.586.113-.064.287-.169.389-.227.319-.19 1.95-1.173 2.073-1.248.346-.217.59-.364.984-.597.498-.295.487-.295.937-.032.121.074.283.166.36.207.079.04.23.122.334.179.103.06.407.23.673.38.27.146.579.323.692.388.113.065.269.152.347.192l.334.18a161.013 161.013 0 002.061 1.15c.113.065.253.141.313.174.056.03.266.15.468.26.199.114.441.245.538.299.234.133.482.268.727.407.113.065.245.138.296.163.048.027.188.103.31.176.123.07.242.141.266.155.075.043.09-.043.042-.221l-.264-.898a3.354 3.354 0 01-.076-.276 13.181 13.181 0 00-.136-.453c-.068-.224-.142-.475-.169-.561a171.63 171.63 0 00-.555-1.926c-.03-.095-.077-.265-.112-.375-.03-.11-.09-.321-.136-.47-.046-.148-.1-.337-.123-.418-.021-.08-.07-.243-.103-.356a51.123 51.123 0 01-.177-.607c-.062-.219-.15-.52-.196-.669-.046-.148-.103-.361-.136-.475a1.015 1.015 0 00-.073-.23c-.011-.01-.02-.067-.017-.123.005-.097.016-.108.313-.287.169-.105.383-.233.48-.287.094-.05.694-.415 1.337-.806.64-.388 1.251-.757 1.353-.816.102-.06.619-.372 1.152-.697.956-.58 1.273-.773 1.474-.883.056-.03.152-.094.214-.134a114.63 114.63 0 001.688-1.017c1.334-.809 1.522-.921 1.94-1.168.11-.067.321-.192.469-.28a9.25 9.25 0 01.345-.202c.043-.026.067-.056.054-.07-.014-.013-.862-.01-1.885.004-2.777.043-3.263.05-4.072.06-.408.003-1.001.015-1.318.019-.317.01-1.23.022-2.028.032-.797.01-1.845.028-2.33.04-.481.011-.892.002-.911-.017a7.043 7.043 0 01-.167-.222l-.109-.243s-.059-.049-.222-.604c-.136-.48-.417-1.433-.477-1.643-.038-.125-.09-.305-.117-.397a8.434 8.434 0 00-.106-.37c-.032-.107-.082-.285-.117-.396a11.718 11.718 0 01-.103-.367l-.117-.397-.177-.607a202.57 202.57 0 00-.42-1.446c-.037-.124-.092-.313-.125-.415-.051-.18-.138-.483-.253-.872-.062-.207-.114-.388-.332-1.138-.266-.928-.283-.977-.35-1.217-.039-.124-.093-.313-.126-.415-.052-.18-.139-.483-.253-.872-.147-.496-.172-.585-.215-.741l-.117-.397c-.06-.21-.34-1.163-.48-1.646-.28-.968-.353-1.203-.377-1.206-.014.003-.1.334-.199.735-.098.407-.185.765-.198.794a48.667 48.667 0 01-.222.905c-.124.503-.944 3.869-.976 4.009-.005.037-.066.282-.13.54a1259.838 1259.838 0 01-1.145 4.693l-.139.585a1.955 1.955 0 01-.042.177c-.014.03-.196.775-.407 1.653-.212.878-.41 1.618-.443 1.64-.061.045-1.146.073-4.165.11-.424.004-1.015.012-1.318.02l-1.92.032c-2.804.043-3.961.063-4.654.07-.392.01-.7.033-.69.06.022.038.356.239.7.418.078.04.237.125.35.19.113.065.245.138.296.163.048.027.188.103.31.176.123.07.29.168.379.214.153.085.689.38 1.076.598.105.056.237.13.296.162.057.03.192.106.294.166.105.057.266.15.366.2.334.185 1.144.638 1.332.747l.334.18c.078.04.234.127.347.192.113.065.423.241.692.388.266.149.57.32.673.38l.333.179c.078.04.24.133.364.203.12.074.266.15.32.177.051.024.145.076.21.114.115.068.756.431 1.028.58.145.076.31.171.727.408.522.293.75.43.75.452-.002.04-.893 3.727-.951 3.931-.019.057-.235.95-.484 1.984-.248 1.034-.468 1.93-.489 1.995-.045.143-.015.167.124.098z" fill="#fff" opacity=".1"/></svg>