<svg width="18" height="18" viewBox="0 0 18 18" fill="none" xmlns="http://www.w3.org/2000/svg"><path d="M10.414 17.324c.012-.042.07-.272.13-.513.058-.24.12-.5.142-.576.078-.299.106-.41.23-.92.071-.29.143-.591.164-.667.02-.076.05-.196.07-.265l.357-1.426c.055-.242.097-.41.166-.68.088-.34.084-.335.39-.416.083-.02.192-.05.243-.066a17.82 17.82 0 01.673-.194c.179-.053.387-.11.464-.13.076-.021.18-.051.232-.068l.22-.066a100.906 100.906 0 001.38-.394c.076-.02.169-.048.208-.06.037-.011.179-.05.313-.09.135-.036.295-.084.36-.103.158-.043.322-.092.487-.138.076-.02.164-.046.197-.057.032-.01.125-.037.209-.058l.18-.048c.051-.014.021-.058-.076-.113l-.499-.271a7.836 7.836 0 00-.403-.22l-.313-.17c-.241-.135-.622-.344-1.065-.586l-.208-.113a9.243 9.243 0 00-.26-.142 8.593 8.593 0 01-.232-.127l-.197-.108a31.9 31.9 0 01-.336-.184c-.12-.067-.288-.159-.371-.203-.084-.043-.2-.11-.262-.145a.615.615 0 00-.13-.066c-.01 0-.037-.021-.06-.046-.04-.044-.04-.053.011-.258a58.42 58.42 0 00.313-1.25l.232-.931c.019-.07.107-.426.197-.794.163-.66.216-.88.255-1.013.012-.036.026-.105.035-.15a70.145 70.145 0 00.29-1.162c.227-.92.26-1.048.334-1.334.018-.076.056-.22.081-.322.026-.101.053-.207.063-.235.007-.03.004-.052-.007-.052-.012 0-.376.365-.81.812a754.447 754.447 0 01-1.725 1.776c-.174.177-.424.437-.559.575-.132.14-.52.539-.858.886-.338.348-.781.806-.985 1.02-.202.211-.383.384-.399.384-.016 0-.167-.023-.167-.023l-.15-.058s-.047.005-.355-.163c-.265-.147-.794-.435-.91-.5-.069-.036-.169-.091-.22-.12a5.045 5.045 0 00-.204-.112l-.22-.12a7.098 7.098 0 01-.202-.112c-.05-.028-.15-.083-.22-.12L6.3 4.335l-.8-.44c-.07-.036-.174-.094-.232-.124l-.483-.264c-.116-.062-.215-.118-.63-.345l-.673-.37c-.07-.038-.174-.095-.232-.125l-.482-.265c-.276-.15-.325-.177-.41-.225l-.22-.12c-.117-.064-.645-.352-.912-.5-.536-.294-.668-.363-.68-.354-.004.007.1.187.23.4.132.217.248.408.255.427a29.23 29.23 0 01.292.483c.163.269 1.253 2.064 1.299 2.137.014.019.093.15.176.288l.174.288a763.236 763.236 0 011.535 2.526 47.609 47.609 0 00.591.978c.286.467.518.87.513.893-.007.046-.462.524-1.744 1.838l-.559.575c-.127.134-.494.511-.811.84L.527 14.908c-.165.172-.288.315-.272.322.026.007.255-.05.48-.122.051-.016.156-.048.232-.069.077-.02.165-.046.197-.057.033-.01.126-.037.209-.058.084-.023.197-.053.255-.071.102-.03.46-.134.719-.207l.197-.058c.037-.011.128-.037.197-.055.07-.02.179-.05.244-.072l.892-.253.22-.066c.052-.016.156-.046.233-.067.076-.02.285-.078.463-.131l.453-.127.22-.066c.05-.017.16-.046.243-.07.084-.02.179-.05.214-.062.032-.011.095-.03.139-.041.079-.02.51-.14.69-.193.096-.03.207-.06.488-.138.35-.1.508-.139.517-.13.016.02 1.213 1.982 1.275 2.095.016.032.306.508.643 1.058.336.55.626 1.029.644 1.065.042.08.065.079.095-.011z" fill="#fff" opacity=".35"/></svg>