<svg width="29" height="29" viewBox="0 0 29 29" fill="none" xmlns="http://www.w3.org/2000/svg"><path d="M23.56 10.749c-.032.039-.217.248-.412.466-.195.216-.406.449-.466.52-.239.275-.328.375-.743.833-.234.263-.48.532-.54.603l-.21.243c-.176.2-1.082 1.217-1.151 1.294-.198.214-.334.366-.55.612-.272.312-.27.304-.147.655.035.095.078.221.096.282l.08.258c.029.08.108.317.177.524.066.21.148.45.179.539.03.088.07.21.088.27l.08.259a119.554 119.554 0 01.53 1.603l.08.243c.013.044.069.208.12.364.052.156.111.343.136.419.062.182.124.375.188.566.03.088.064.19.074.23.013.037.047.146.082.24l.073.209c.02.059-.043.058-.16 0l-.594-.305a9.385 9.385 0 01-.481-.246l-.37-.194c-.291-.145-.746-.376-1.274-.647-.062-.033-.174-.089-.247-.128a11.137 11.137 0 01-.31-.158 9.852 9.852 0 00-.277-.142l-.235-.12c-.076-.04-.256-.133-.4-.206a29.826 29.826 0 01-.443-.227c-.098-.052-.239-.12-.314-.159a.721.721 0 01-.15-.082c-.007-.009-.045-.022-.085-.028-.069-.01-.078-.003-.243.182a11.26 11.26 0 00-.264.3c-.049.059-.384.433-.743.833-.358.4-.698.78-.753.844-.054.064-.343.386-.64.718-.535.596-.713.793-.816.92-.028.035-.086.095-.123.133a81.442 81.442 0 01-.938 1.053c-.744.83-.847.948-1.076 1.21l-.26.292c-.08.092-.165.189-.186.216-.024.027-.048.04-.056.029-.008-.012.107-.609.255-1.327.401-1.948.47-2.29.586-2.857.057-.287.145-.703.19-.925.049-.222.18-.863.294-1.423.114-.56.266-1.294.34-1.635.072-.337.12-.627.11-.643a4.95 4.95 0 00-.133-.147l-.156-.109s-.026-.048-.393-.237c-.318-.16-.947-.483-1.086-.553-.082-.044-.201-.104-.262-.136a5.856 5.856 0 01-.244-.123c-.071-.038-.19-.096-.262-.136a8.29 8.29 0 00-.243-.121l-.262-.135-.4-.205c-.404-.204-.68-.346-.956-.488l-.274-.143c-.12-.06-.32-.162-.576-.294-.137-.072-.257-.132-.752-.385l-.805-.41c-.081-.043-.206-.106-.274-.143-.12-.06-.319-.162-.576-.294-.327-.17-.386-.198-.49-.25-.06-.031-.18-.091-.262-.135-.139-.07-.768-.394-1.087-.556-.64-.326-.795-.409-.793-.426.003-.01.247-.027.54-.042.298-.015.56-.029.583-.034a34.79 34.79 0 00.663-.036c.368-.02 2.832-.15 2.935-.153.027.001.206-.01.396-.02a909.05 909.05 0 003.436-.181 95.405 95.405 0 00.558-.027 55.93 55.93 0 011.21-.066c.643-.033 1.188-.074 1.207-.094.04-.037.205-.797.634-2.916.06-.298.145-.713.19-.925.046-.213.17-.82.28-1.347.405-1.967.574-2.78.672-3.266.06-.275.117-.489.134-.478.024.02.12.282.199.549.018.06.056.183.086.271.03.088.064.19.074.23.013.038.047.146.082.241.033.097.079.227.1.296.038.12.173.535.273.837l.074.23.077.228c.026.082.069.208.092.285.084.26.293.89.344 1.037l.08.258c.018.06.058.182.089.27.03.088.112.33.178.539.07.207.148.444.176.524l.081.258c.018.06.061.187.094.283.035.095.069.207.08.249.01.04.034.112.052.163.032.09.2.59.269.8.034.113.078.241.187.566.136.407.202.586.217.589.029.003 2.727-.133 2.877-.147.043-.005.697-.04 1.453-.076a84.267 84.267 0 001.462-.08c.106-.012.119.012.051.1z" fill="#fff" opacity=".1"/></svg>