<svg width="44" height="44" viewBox="0 0 44 44" fill="none" xmlns="http://www.w3.org/2000/svg"><path d="M23.725 5.284a90.45 90.45 0 00-.559.899c-.255.42-.532.878-.618 1.01-.332.522-.452.716-.996 1.614-.313.51-.633 1.04-.719 1.172-.086.132-.216.342-.293.462-.239.382-1.455 2.352-1.546 2.501-.253.427-.434.721-.73 1.192-.374.595-.363.59-.995.557-.172-.011-.397-.02-.504-.021-.107 0-.315-.004-.46-.007a85.947 85.947 0 00-.939-.034 46.533 46.533 0 01-.963-.032 14.499 14.499 0 00-.482-.014c-.107 0-.315-.004-.46-.007-.264-.012-1.392-.048-1.855-.061a48.768 48.768 0 01-1.013-.029c-.158-.007-.352-.01-.434-.013-.077 0-.37-.012-.65-.02-.28-.01-.613-.016-.748-.02-.327-.013-.67-.021-1.012-.034a7.756 7.756 0 00-.41-.01c-.068-.002-.261-.006-.433-.018-.173-.006-.34-.016-.374-.017-.105-.005-.074.097.078.261.178.188.518.542.785.82.11.113.219.23.235.255.021.026.197.208.4.412.198.204.417.433.494.51.377.406.974 1.037 1.672 1.767.085.085.23.242.329.341.094.103.276.296.408.43.133.134.296.308.365.383.069.075.212.222.31.326.103.105.34.354.529.555.19.2.451.477.584.612.132.134.313.331.411.435.093.107.185.2.207.206.018.006.058.063.087.125.049.107.043.125-.178.484-.125.207-.285.465-.36.576-.072.107-.518.834-.995 1.614-.476.776-.93 1.515-1.008 1.635-.077.12-.461.747-.857 1.393-.71 1.16-.944 1.544-1.1 1.774-.045.063-.113.186-.157.264a4.699 4.699 0 01-.162.262c-.044.064-.537.863-1.096 1.776a194.093 194.093 0 01-1.446 2.34c-.081.134-.24.387-.35.565-.11.177-.227.362-.261.409-.032.053-.041.098-.02.105.023.007.938-.469 2.035-1.055 2.976-1.596 3.498-1.874 4.365-2.336.44-.232 1.074-.575 1.414-.756.337-.187 1.316-.71 2.172-1.166.856-.456 1.978-1.06 2.497-1.343.512-.28.962-.5.993-.49.03.01.304.146.304.146l.252.201s.091.02.577.527c.414.442 1.247 1.312 1.429 1.505.11.112.266.278.347.362.079.088.22.24.32.339.095.098.247.263.347.362.096.098.237.25.316.338.08.083.237.25.347.362.109.117.35.367.529.555.527.56.893.942 1.258 1.324.11.113.274.286.366.378.156.166.419.443.758.798.183.189.34.355.992 1.041.805.852.85.895 1.057 1.116.11.112.274.285.366.377.157.166.419.443.759.798.434.453.51.535.645.68.08.083.237.25.347.362.182.193 1.014 1.063 1.433 1.506.842.887 1.052 1.099 1.08 1.088.012-.01-.078-.416-.195-.902-.12-.493-.226-.927-.228-.967a3.253 3.253 0 00-.062-.261c-.027-.1-.116-.477-.201-.837-.146-.612-1.133-4.695-1.177-4.864-.015-.044-.086-.341-.161-.655a1537.886 1537.886 0 01-1.374-5.695l-.174-.708a2.326 2.326 0 01-.053-.215 95.42 95.42 0 00-.48-2.008c-.26-1.064-.458-1.972-.435-2.014.041-.083 1.197-.719 4.438-2.442.456-.24 1.09-.58 1.414-.756.324-.177 1.25-.673 2.056-1.107 3.004-1.61 4.244-2.277 4.988-2.672.418-.23.739-.426.712-.45-.044-.028-.517-.058-.988-.059-.107 0-.326-.002-.484-.01a7.868 7.868 0 00-.41-.01c-.068-.002-.261-.006-.433-.017-.173-.007-.408-.02-.53-.02-.212-.005-.955-.024-1.494-.042l-.41-.01c-.079-.001-.266-.008-.41-.015-.145-.003-.37-.012-.507-.012-.463-.013-1.59-.05-1.855-.061a34.7 34.7 0 00-.46-.007c-.107 0-.324-.007-.482-.014-.158-.007-.59-.025-.963-.032-.371-.013-.795-.027-.939-.034a34.675 34.675 0 00-.46-.007c-.107 0-.332-.01-.505-.017a6.686 6.686 0 00-.445-.011c-.068.002-.199-.001-.29-.006a95.872 95.872 0 00-1.434-.052c-.199 0-.43-.012-1.011-.033-.727-.025-1.051-.046-1.064-.07-.02-.044-1.108-4.513-1.159-4.766-.011-.07-.274-1.155-.581-2.407a145.684 145.684 0 01-.582-2.423c-.03-.179-.076-.188-.188-.036z" fill="#fff" opacity=".1"/></svg>