<svg width="42" height="43" viewBox="0 0 42 43" fill="none" xmlns="http://www.w3.org/2000/svg"><path d="M13.466 6.186c-.001.086.006.56.014 1.058.012.493.025 1.028.024 1.185.003.619.006.847.033 1.897.01.598.028 1.217.027 1.375-.002.157.002.404.002.547.005.451.044 2.766.048 2.941.017.496.023.842.028 1.398.006.704.012.693-.537 1.007-.15.083-.346.197-.436.255-.09.058-.267.167-.391.243-.125.072-.49.289-.808.479-.318.195-.691.414-.828.494-.137.08-.323.191-.414.249-.09.058-.267.167-.39.243-.23.133-1.198.712-1.594.952-.214.133-.446.272-.868.523-.138.08-.302.181-.373.224-.065.042-.318.19-.558.336-.24.14-.525.317-.64.386-.283.166-.576.345-.87.52-.137.079-.294.174-.351.213-.058.034-.223.136-.373.219-.15.088-.296.17-.325.187-.091.053-.01.122.206.178l1.104.266c.153.035.308.075.335.087.032.01.277.068.558.13.277.065.585.14.692.163.536.137 1.379.345 2.36.582.116.026.323.08.46.11.135.035.392.1.576.14.184.042.415.099.513.125.099.026.298.073.437.107.143.033.477.115.745.181.267.067.637.158.821.2.184.04.442.11.581.143.136.04.263.068.285.062.018-.005.083.02.14.058.1.064.104.081.111.503.007.242.012.545.01.68-.004.13.013.982.032 1.897.018.91.034 1.777.033 1.92 0 .143.014.878.03 1.636.028 1.36.038 1.81.03 2.088-.003.078.006.218.01.307.005.09.009.227.006.309-.003.077.013 1.016.036 2.087.036 1.896.04 2.161.044 2.751.004.156.007.456.01.665.003.208.004.427 0 .485.003.062.019.105.041.099.023-.006.537-.901 1.144-1.989 1.644-2.952 1.933-3.468 2.414-4.326.244-.432.594-1.065.782-1.401.183-.34.725-1.31 1.2-2.156.474-.847 1.093-1.961 1.376-2.48.28-.514.54-.941.572-.95.032-.008.335-.042.335-.042l.32.033s.088-.032.77.132c.587.148 1.757.43 2.014.494.154.035.375.09.488.117.114.031.314.082.452.112.133.03.35.087.487.117.133.03.334.082.448.113.113.027.334.082.488.117.154.04.493.12.744.181.746.186 1.26.31 1.773.435.153.035.385.092.512.12.221.055.591.146 1.069.26.256.06.477.116 1.396.34 1.137.282 1.198.294 1.49.368.154.035.386.092.513.12.221.055.591.146 1.069.26.61.147.718.175.909.224.113.027.334.082.487.117.258.064 1.428.346 2.019.492 1.187.291 1.478.356 1.495.333.006-.016-.289-.309-.65-.655-.367-.35-.69-.658-.713-.69a3.263 3.263 0 00-.194-.186 1693.25 1693.25 0 00-4.234-4.053c-.036-.028-.256-.241-.489-.464a1533.907 1533.907 0 01-4.228-4.05c-.231-.219-.47-.445-.527-.501a2.343 2.343 0 01-.161-.153 94.554 94.554 0 00-1.487-1.43c-.793-.755-1.449-1.413-1.452-1.46-.01-.092.62-1.252 2.419-4.455.254-.45.604-1.077.782-1.401.177-.324.69-1.243 1.133-2.044 1.66-2.98 2.344-4.212 2.757-4.947.23-.418.393-.758.358-.763-.053 0-.467.23-.864.485-.09.057-.276.174-.413.253-.137.08-.294.175-.35.214-.059.034-.223.136-.374.219-.15.088-.353.204-.456.27-.181.11-.818.496-1.281.773l-.351.213c-.066.041-.228.137-.352.209-.124.076-.32.19-.434.264-.397.24-1.365.819-1.594.952-.123.076-.3.185-.39.243-.09.057-.277.17-.414.249-.137.08-.51.299-.828.494-.319.19-.683.407-.808.478-.124.076-.301.186-.391.244-.09.057-.285.171-.435.26a6.72 6.72 0 00-.38.23 4.284 4.284 0 01-.247.152c-.142.08-.913.536-1.235.732-.168.107-.368.222-.87.519-.625.372-.909.53-.932.517-.04-.027-3.366-3.2-3.546-3.385a176.67 176.67 0 00-1.788-1.712 146.253 146.253 0 01-1.796-1.724c-.122-.134-.165-.117-.177.072z" fill="#fff" opacity=".2"/></svg>