<svg width="35" height="35" viewBox="0 0 35 35" fill="none" xmlns="http://www.w3.org/2000/svg"><path d="M33.896 14.674c-.083-.023-.543-.14-1.026-.26-.48-.116-1-.241-1.15-.283-.6-.157-.82-.213-1.842-.459-.58-.144-1.182-.287-1.334-.33l-.53-.138c-.437-.112-2.682-.673-2.853-.715-.483-.11-.819-.194-1.357-.333-.681-.177-.672-.167-.833-.78a10.016 10.016 0 00-.134-.486 35.638 35.638 0 01-.133-.441c-.037-.14-.152-.547-.253-.904-.106-.358-.221-.775-.262-.928a14.631 14.631 0 00-.134-.464 36.11 36.11 0 01-.133-.44c-.07-.255-.378-1.34-.506-1.786-.074-.241-.148-.5-.281-.974-.042-.153-.097-.338-.12-.417-.023-.074-.101-.357-.18-.626-.073-.27-.17-.59-.207-.72-.087-.314-.183-.644-.276-.973a7.802 7.802 0 00-.115-.394c-.018-.065-.073-.25-.115-.418-.046-.167-.087-.329-.096-.361-.028-.102-.115-.042-.226.153l-.543.997c-.073.139-.152.278-.17.301-.018.028-.138.25-.272.506-.133.25-.285.528-.335.626-.272.482-.69 1.243-1.174 2.129-.055.106-.161.292-.226.417-.068.12-.197.352-.285.52-.087.166-.202.375-.253.463-.05.088-.147.27-.216.394-.07.13-.235.432-.368.673-.134.241-.318.575-.405.742-.088.167-.221.399-.29.524-.074.12-.134.236-.134.26 0 .018-.041.074-.092.12-.087.08-.106.08-.515-.023-.235-.056-.53-.13-.658-.167a115.74 115.74 0 00-1.841-.46c-.883-.217-1.726-.426-1.864-.463a178.11 178.11 0 00-1.587-.394c-1.321-.325-1.758-.431-2.025-.51-.074-.023-.212-.051-.3-.07a4.719 4.719 0 01-.298-.074c-.074-.023-.985-.25-2.025-.505-1.841-.455-2.099-.52-2.67-.668-.151-.037-.441-.112-.644-.163a11.287 11.287 0 01-.469-.125c-.06-.014-.106-.01-.106.014 0 .023.732.751 1.625 1.619 2.425 2.351 2.848 2.764 3.552 3.45.355.348.875.849 1.15 1.118.281.264 1.078 1.039 1.772 1.716.695.677 1.611 1.563 2.04 1.97.423.404.768.766.768.799 0 .032-.046.333-.046.333l-.116.302s.01.093-.326.71c-.295.528-.87 1.585-.999 1.817-.073.14-.184.339-.24.441-.059.102-.16.283-.225.408-.064.12-.174.316-.239.44-.064.121-.166.302-.225.404-.056.102-.166.302-.24.44-.078.14-.244.446-.368.673-.373.673-.626 1.137-.879 1.6-.073.14-.188.348-.248.464-.11.2-.295.533-.53.965-.124.232-.234.43-.69 1.261-.566 1.025-.593 1.08-.74 1.345-.074.14-.19.348-.25.464-.11.2-.294.533-.528.965-.3.551-.355.649-.451.82-.056.102-.166.302-.24.44-.129.233-.704 1.29-.998 1.823-.59 1.072-.727 1.336-.709 1.36.014.009.373-.2.8-.46.433-.264.815-.496.852-.51.037-.018.138-.079.23-.139a1693.947 1693.947 0 005.011-3.042c.037-.028.3-.186.576-.353a1523.346 1523.346 0 015.007-3.038l.62-.38c.07-.046.153-.097.19-.116.036-.014.833-.496 1.767-1.067.934-.57 1.74-1.034 1.785-1.024.092.014 1.05.922 3.677 3.487.368.362.884.863 1.15 1.118.267.255 1.022.988 1.68 1.623 2.448 2.375 3.46 3.353 4.064 3.942.345.33.63.575.644.543.014-.051-.101-.51-.244-.96-.032-.102-.096-.311-.138-.464a7.751 7.751 0 00-.115-.394c-.018-.065-.074-.25-.115-.418-.046-.167-.106-.394-.143-.51-.06-.204-.267-.918-.414-1.438l-.115-.394a13.062 13.062 0 01-.11-.394c-.042-.139-.102-.357-.143-.487-.129-.445-.437-1.53-.506-1.785-.042-.14-.101-.339-.134-.441-.032-.102-.092-.31-.133-.464-.041-.153-.157-.57-.262-.927a84.697 84.697 0 01-.253-.905 35.5 35.5 0 00-.134-.44c-.032-.102-.092-.32-.138-.487a6.68 6.68 0 00-.124-.427 4.253 4.253 0 01-.083-.278 94.7 94.7 0 00-.387-1.382c-.06-.19-.12-.413-.276-.974-.198-.7-.276-1.016-.258-1.034a423.49 423.49 0 014.188-2.551c.065-.032 1.017-.612 2.117-1.285 1.1-.672 2.057-1.252 2.13-1.289.162-.083.157-.13-.022-.19z" fill="#fff" opacity=".25"/></svg>