<svg width="48" height="49" viewBox="0 0 48 49" fill="none" xmlns="http://www.w3.org/2000/svg"><path d="M30.397 8.813c-.065.055-.42.37-.791.702-.365.331-.76.69-.88.793-.467.406-.637.557-1.414 1.264-.445.398-.903.816-1.023.918-.12.102-.304.266-.412.36-.338.298-2.063 1.84-2.194 1.957-.363.337-.621.568-1.039.935-.528.464-.515.461-1.112.25-.16-.06-.375-.133-.477-.164-.102-.03-.3-.093-.44-.138a87.09 87.09 0 00-.889-.3 45.51 45.51 0 01-.914-.305c-.15-.052-.355-.12-.458-.15l-.439-.139c-.25-.086-1.32-.442-1.76-.586-.24-.075-.497-.16-.963-.317-.15-.052-.334-.11-.412-.136-.074-.022-.352-.117-.618-.204-.264-.09-.582-.19-.71-.233-.31-.106-.636-.211-.96-.32a7.888 7.888 0 00-.39-.127c-.065-.022-.249-.08-.41-.14-.164-.056-.322-.113-.354-.124-.1-.035-.099.072 0 .273l.519 1.01c.074.14.145.283.153.31.013.032.13.256.265.51.133.252.277.534.33.63.245.497.638 1.271 1.099 2.17.057.106.15.298.218.422.06.125.18.362.269.528.088.166.196.38.24.47.045.092.14.274.205.402.068.13.224.436.349.683.124.246.296.586.385.753.089.166.206.407.27.534.059.13.12.244.14.257.015.01.038.076.048.144.016.117.006.132-.309.413-.178.163-.405.365-.508.45-.1.082-.734.653-1.414 1.265-.677.608-1.322 1.187-1.43 1.28-.109.093-.655.584-1.219 1.091-1.01.91-1.344 1.211-1.56 1.387-.06.048-.16.147-.225.209a4.773 4.773 0 01-.23.205c-.06.048-.76.674-1.555 1.39a194.319 194.319 0 01-2.052 1.832c-.116.105-.34.303-.496.442-.156.138-.321.282-.368.317-.045.042-.067.082-.048.096.02.013 1.033-.183 2.25-.433 3.307-.681 3.886-.799 4.849-.995.486-.097 1.193-.245 1.57-.322.376-.083 1.464-.306 2.414-.499a333.5 333.5 0 002.774-.576c.572-.123 1.065-.205 1.092-.187.026.019.25.227.25.227l.184.264s.082.045.403.67c.271.542.822 1.613.94 1.85.075.14.177.343.23.446.051.107.144.293.211.416.063.122.162.323.23.447.063.12.155.306.206.413.053.103.156.307.23.446.07.143.23.453.349.683.346.688.587 1.158.828 1.628.073.14.181.352.243.467.103.204.275.544.5.981.122.233.224.437.654 1.281.53 1.046.56 1.1.695 1.37.074.14.182.353.244.467.103.204.275.544.5.981.288.559.337.66.425.836.053.103.155.306.23.446.118.237.669 1.308.944 1.852.554 1.09.695 1.354.725 1.352.015-.007.044-.421.07-.921.025-.507.048-.953.057-.992a3.23 3.23 0 00.015-.268 1669.53 1669.53 0 00.303-5.858c-.003-.047.014-.353.031-.675.02-.326.035-.628.036-.672.002-.11.228-4.444.268-5.18.015-.319.03-.647.035-.728 0-.083.005-.18.01-.221.01-.039.058-.969.112-2.063.053-1.093.123-2.02.156-2.054.064-.068 1.353-.348 4.949-1.077.506-.1 1.21-.245 1.57-.322.361-.077 1.39-.289 2.286-.475 3.338-.688 4.715-.974 5.54-1.141.467-.1.83-.198.811-.227-.034-.04-.478-.204-.93-.34-.102-.03-.311-.094-.46-.146a7.79 7.79 0 00-.391-.127c-.064-.021-.249-.08-.41-.14-.164-.056-.385-.134-.502-.17-.202-.065-.908-.296-1.42-.466-.139-.044-.313-.102-.39-.127a12.928 12.928 0 01-.389-.13c-.138-.045-.352-.118-.482-.157-.44-.144-1.51-.5-1.76-.587a35.575 35.575 0 00-.44-.138 14.93 14.93 0 01-.458-.15 45.51 45.51 0 00-.913-.306 87.09 87.09 0 01-.89-.3 35.575 35.575 0 00-.439-.137c-.102-.031-.316-.105-.48-.16a6.788 6.788 0 00-.422-.138 4.193 4.193 0 01-.277-.088c-.154-.055-1-.343-1.36-.459-.19-.058-.408-.133-.96-.32-.69-.23-.994-.343-.999-.37-.006-.048.223-4.642.246-4.9.01-.07.066-1.185.128-2.474.063-1.288.122-2.406.133-2.488.021-.18-.02-.203-.17-.088z" fill="#fff" opacity=".2"/></svg>