<svg width="84" height="84" viewBox="0 0 84 84" fill="none" xmlns="http://www.w3.org/2000/svg"><path d="M70.589 52.952c-.107-.112-.71-.712-1.344-1.34-.631-.618-1.318-1.287-1.514-1.49-.778-.791-1.067-1.08-2.416-2.395-.762-.752-1.56-1.526-1.755-1.73-.196-.203-.51-.515-.689-.699a1952.31 1952.31 0 00-3.743-3.714 85.507 85.507 0 01-1.786-1.759c-.889-.895-.883-.872-.576-1.948.087-.291.193-.677.236-.86.042-.185.13-.542.193-.791.07-.245.262-.97.43-1.604.16-.638.361-1.377.436-1.647.075-.27.172-.64.215-.825.043-.184.131-.541.194-.79.124-.45.633-2.379.838-3.172.105-.433.227-.894.45-1.734.075-.27.158-.602.194-.743.032-.133.168-.634.291-1.113.13-.476.271-1.05.332-1.28.151-.559.301-1.146.458-1.73.075-.27.156-.584.18-.703.03-.116.113-.448.2-.739.081-.295.164-.58.18-.637.05-.18-.14-.17-.486.024-.397.23-1.149.666-1.739 1.01-.239.142-.485.28-.535.299-.053.025-.439.252-.875.515-.432.256-.918.537-1.084.638-.855.48-2.188 1.245-3.734 2.141-.181.11-.512.294-.724.424-.216.12-.624.352-.91.524a29.67 29.67 0 01-.81.469c-.157.086-.47.271-.69.397-.223.133-.751.437-1.175.679-.424.242-1.01.578-1.295.75-.286.172-.701.4-.92.526-.223.115-.42.235-.441.27-.017.028-.131.075-.251.098-.206.039-.234.022-.772-.51-.31-.301-.697-.686-.861-.86a211.63 211.63 0 00-2.417-2.395 452.116 452.116 0 01-2.447-2.422 324.97 324.97 0 00-2.086-2.062c-1.738-1.71-2.314-2.275-2.654-2.64-.092-.104-.279-.274-.397-.382a8.626 8.626 0 01-.393-.389 253.572 253.572 0 00-2.657-2.634c-2.421-2.387-2.759-2.723-3.502-3.474-.2-.197-.58-.576-.845-.84-.265-.265-.54-.544-.608-.623-.08-.077-.155-.112-.176-.077-.02.035.445 1.813 1.034 3.95 1.602 5.8 1.88 6.815 2.34 8.505.231.853.578 2.092.759 2.754.192.66.716 2.567 1.172 4.234a600.04 600.04 0 001.351 4.866c.286 1.002.49 1.868.46 1.918-.03.049-.373.463-.373.463l-.45.35s-.07.15-1.146.773c-.931.53-2.774 1.6-3.183 1.833-.239.142-.59.342-.767.446-.184.1-.504.28-.716.41-.209.123-.555.316-.767.447-.209.123-.528.303-.713.402-.177.104-.528.304-.767.447-.247.139-.779.45-1.176.679a438.138 438.138 0 00-2.801 1.612c-.24.143-.605.353-.802.473-.351.2-.937.536-1.688.973-.402.236-.752.437-2.205 1.273-1.8 1.03-1.892 1.09-2.358 1.354-.24.143-.605.352-.803.473-.35.2-.936.536-1.687.973-.96.56-1.134.656-1.438.827-.177.103-.528.303-.767.446-.408.233-2.251 1.303-3.187 1.84-1.877 1.078-2.329 1.351-2.321 1.403.013.027.754.042 1.648.044.905-.001 1.702 0 1.771.013.074.006.284.008.48.001.185-.003.876 0 1.537.006 1.122.005 8.62.016 8.93.01.082-.007.628-.004 1.204-.002.583.006 1.122.005 1.2.004.196-.007 7.94.01 9.255.015l1.3-.003a4.18 4.18 0 01.396-.001c.069.013 1.73.017 3.685.015 1.953-.002 3.613.039 3.675.095.13.106.779 2.366 2.499 8.675.239.888.578 2.122.758 2.755.18.632.677 2.439 1.114 4.008 1.616 5.855 2.288 8.272 2.682 9.72.233.817.45 1.453.5 1.416.067-.064.306-.866.494-1.679.043-.184.133-.56.208-.83.074-.27.156-.583.18-.703.03-.115.113-.447.2-.738.08-.295.195-.695.243-.904.093-.365.421-1.637.665-2.56.062-.249.144-.563.18-.703.032-.134.118-.454.187-.7.062-.248.168-.633.222-.868.205-.793.713-2.722.838-3.172.062-.249.15-.606.194-.79.042-.184.14-.556.214-.826.075-.27.276-1.008.437-1.647.167-.634.36-1.358.43-1.603.062-.249.15-.606.193-.79.043-.184.148-.57.229-.865.087-.291.167-.635.195-.761.023-.12.08-.343.125-.498.079-.277.492-1.804.656-2.45.08-.343.19-.735.458-1.73.33-1.243.495-1.793.54-1.804.086-.015 8.293-.017 8.753.001.129.01 2.12.011 4.42.008 2.302-.004 4.3.001 4.447.013.323.022.358-.052.137-.31z" fill="#fff" opacity=".4"/></svg>