<svg width="43" height="43" viewBox="0 0 43 43" fill="none" xmlns="http://www.w3.org/2000/svg"><path d="M14.068 6.189c0 .086.007.56.015 1.058.012.492.026 1.027.025 1.184.002.62.006.847.033 1.897.011.598.028 1.217.027 1.374l.003.548c.006.45.045 2.765.049 2.94.018.496.024.842.029 1.398.006.703.013.692-.537 1.006-.15.083-.346.197-.436.255l-.39.243c-.126.071-.49.288-.809.478-.318.195-.69.414-.828.494-.137.08-.323.191-.413.248-.09.058-.268.167-.392.243-.228.133-1.196.712-1.593.951-.214.134-.446.272-.868.523-.137.08-.302.181-.372.224-.066.041-.32.19-.559.335-.24.141-.525.317-.64.386-.282.166-.575.345-.87.519-.137.08-.294.174-.35.213-.059.035-.224.136-.374.22-.15.087-.296.169-.325.186-.09.053-.01.122.207.178.251.062.729.177 1.103.267.154.035.309.075.336.086.031.01.277.069.558.132.277.064.585.139.692.162.536.138 1.38.345 2.36.583.117.026.324.08.462.11.134.035.391.1.575.141.184.041.416.098.514.124.098.027.298.073.437.107l.745.182c.267.066.637.158.821.2.184.04.443.11.581.144.136.04.264.067.286.061.018-.004.082.021.14.058.099.064.104.082.111.504.007.241.012.545.01.679-.004.13.013.982.032 1.897.019.91.035 1.777.035 1.92 0 .143.014.877.03 1.635.029 1.36.039 1.81.032 2.088-.004.077.005.218.01.307.005.09.008.226.006.308-.004.077.013 1.016.036 2.087.037 1.895.041 2.16.046 2.75l.01.665c.003.208.004.427 0 .485.002.062.019.105.041.1.023-.007.537-.902 1.143-1.989 1.643-2.95 1.933-3.466 2.413-4.324.244-.432.594-1.064.782-1.4.183-.34.725-1.31 1.199-2.156.474-.846 1.092-1.96 1.376-2.479.28-.513.54-.94.571-.948.032-.009.335-.042.335-.042l.32.033s.088-.033.77.132c.588.148 1.758.43 2.016.494.153.035.374.09.487.117.114.032.315.083.453.112.133.032.35.088.487.118.133.03.334.082.448.113.113.027.334.082.488.117.154.04.493.12.745.182.746.186 1.26.31 1.773.435.153.035.385.092.512.12.221.055.592.146 1.069.261.256.06.477.116 1.397.34 1.137.282 1.198.295 1.491.369.154.035.385.092.512.12.222.055.592.146 1.07.261.61.146.718.174.91.223.112.027.333.082.487.117.257.065 1.427.347 2.019.494 1.187.291 1.478.356 1.496.332.005-.015-.29-.308-.651-.654a24.93 24.93 0 01-.713-.69 3.243 3.243 0 00-.194-.187c-.077-.07-.355-.338-.62-.596-.454-.436-3.489-3.339-3.616-3.457-.037-.029-.257-.241-.49-.465a1518.312 1518.312 0 01-4.23-4.05l-.529-.502a2.367 2.367 0 01-.16-.152 94.926 94.926 0 00-1.488-1.43c-.793-.755-1.45-1.413-1.453-1.46-.01-.093.62-1.252 2.417-4.454.254-.45.604-1.077.782-1.4.177-.324.69-1.243 1.133-2.043 1.66-2.979 2.343-4.21 2.756-4.944.228-.419.392-.758.357-.763-.053 0-.467.23-.864.484-.09.057-.276.174-.413.253-.137.08-.294.174-.35.213-.059.035-.224.136-.374.22-.15.087-.353.204-.456.27-.181.11-.818.495-1.281.771l-.351.213c-.066.042-.228.137-.353.209-.123.076-.318.19-.433.264-.397.24-1.365.818-1.594.95-.123.077-.3.186-.39.244-.09.057-.277.169-.414.248-.137.08-.51.3-.828.494-.319.19-.683.407-.808.478l-.391.243c-.09.058-.285.172-.435.26-.15.083-.319.19-.38.23-.057.039-.168.107-.247.152-.142.08-.913.535-1.235.73-.168.108-.368.223-.87.52-.625.372-.909.529-.932.516-.04-.027-3.368-3.2-3.548-3.385-.048-.054-.855-.824-1.789-1.712a146.23 146.23 0 01-1.797-1.725c-.122-.134-.166-.117-.178.072z" fill="#fff" opacity=".2"/></svg>