<svg width="84" height="84" viewBox="0 0 84 84" fill="none" xmlns="http://www.w3.org/2000/svg"><path d="M70.554 52.854c-.106-.112-.71-.711-1.344-1.339-.631-.617-1.318-1.285-1.514-1.488-.778-.79-1.068-1.078-2.418-2.392-.762-.752-1.56-1.525-1.755-1.728-.196-.203-.51-.515-.689-.698-.572-.572-3.52-3.49-3.744-3.71a85.406 85.406 0 01-1.787-1.757c-.889-.894-.883-.872-.576-1.947.088-.29.194-.676.237-.86.043-.184.131-.541.194-.79.07-.245.262-.968.43-1.602.161-.638.363-1.376.438-1.646.075-.27.172-.641.215-.825.043-.184.132-.541.194-.79.125-.45.635-2.377.84-3.17.105-.432.228-.893.451-1.733.075-.27.159-.601.195-.742.032-.133.168-.634.291-1.113.13-.475.272-1.048.333-1.279.152-.558.302-1.145.459-1.729.075-.27.157-.583.18-.702.03-.116.114-.447.201-.738.081-.296.165-.58.18-.637.05-.18-.14-.17-.486.024l-1.74 1.009c-.24.143-.487.281-.536.3-.053.025-.44.251-.876.515-.433.256-.92.537-1.085.638-.856.48-2.19 1.245-3.737 2.14-.182.111-.513.295-.726.425-.216.119-.624.351-.91.523-.286.172-.653.382-.81.47-.158.086-.471.27-.691.397-.224.133-.753.436-1.177.678-.424.242-1.01.578-1.296.75-.286.173-.702.4-.922.527-.222.114-.42.235-.44.27-.017.028-.132.074-.252.098-.206.038-.234.021-.772-.51-.31-.3-.697-.685-.862-.86-.157-.17-1.247-1.242-2.417-2.39a457.4 457.4 0 01-2.448-2.42 322.71 322.71 0 00-2.087-2.06c-1.739-1.709-2.315-2.273-2.654-2.638-.092-.103-.28-.273-.398-.381a8.573 8.573 0 01-.393-.388 253.432 253.432 0 00-2.658-2.631c-2.422-2.385-2.76-2.72-3.503-3.47-.2-.197-.58-.576-.845-.84s-.54-.543-.609-.622c-.08-.076-.154-.112-.175-.077-.021.035.445 1.812 1.032 3.947 1.601 5.795 1.879 6.81 2.34 8.497.23.854.576 2.091.757 2.753.193.659.716 2.565 1.171 4.23.456 1.665 1.062 3.85 1.351 4.862.286 1.001.49 1.867.46 1.916-.03.05-.374.463-.374.463l-.45.35s-.07.15-1.147.774c-.933.529-2.777 1.6-3.186 1.831-.24.143-.59.343-.768.447-.185.1-.505.28-.717.41-.209.123-.555.316-.768.446-.209.123-.529.304-.713.403-.178.104-.529.304-.768.447-.247.138-.78.45-1.177.679-1.184.674-1.994 1.143-2.804 1.612-.24.143-.606.353-.803.473-.351.2-.937.536-1.69.972-.401.237-.752.437-2.206 1.274-1.801 1.03-1.894 1.089-2.36 1.353-.24.143-.607.353-.804.473-.35.2-.937.536-1.69.973-.96.56-1.134.656-1.438.827-.178.104-.529.304-.768.447-.409.232-2.253 1.303-3.19 1.839-1.879 1.079-2.33 1.352-2.324 1.404.013.026.755.041 1.65.042.905-.001 1.703 0 1.773.013.073.005.284.007.48.001.185-.004.876 0 1.537.005 1.124.004 8.626.012 8.937.007.082-.008.629-.005 1.205-.003.584.006 1.123.005 1.2.003.197-.006 7.947.007 9.262.012.57-.002 1.158-.004 1.302-.003.148-.007.322-.008.395-.002.07.013 1.733.016 3.688.014 1.955-.003 3.616.037 3.678.094.13.105.778 2.364 2.497 8.667.239.887.578 2.12.758 2.752.18.632.676 2.437 1.113 4.005 1.615 5.851 2.286 8.265 2.68 9.713.233.816.45 1.451.5 1.415.068-.065.307-.866.495-1.678.043-.185.133-.56.208-.83.075-.27.157-.583.18-.703.031-.115.114-.447.202-.737.08-.296.195-.695.243-.904.093-.364.422-1.636.666-2.558.063-.249.145-.562.18-.703.033-.133.119-.454.188-.698.063-.25.168-.634.222-.87.206-.792.715-2.719.84-3.169.063-.248.152-.605.195-.79.043-.184.14-.555.215-.825.075-.27.276-1.007.437-1.645.168-.634.361-1.358.43-1.603.063-.248.152-.605.195-.79.043-.184.148-.569.23-.864.087-.29.167-.634.195-.76.023-.12.08-.343.125-.498.079-.277.493-1.803.658-2.448.08-.343.19-.735.458-1.73.33-1.242.496-1.791.541-1.802.087-.015 8.3-.02 8.76-.003.129.01 2.121.01 4.424.006 2.303-.004 4.302 0 4.45.012.323.022.358-.052.136-.31z" fill="#fff" opacity=".3"/></svg>