<svg width="26" height="27" viewBox="0 0 26 27" fill="none" xmlns="http://www.w3.org/2000/svg"><path d="M19.283 6.744c-.012.047-.084.302-.16.57-.077.264-.162.551-.184.637a38.7 38.7 0 01-.29 1.02c-.093.321-.191.653-.213.739-.022.085-.06.218-.08.295-.068.243-.423 1.488-.45 1.582-.08.266-.134.452-.217.752-.104.379-.106.372.145.621.069.067.158.157.198.201.04.045.12.13.176.189.057.056.222.226.367.376.143.15.313.323.375.386s.147.15.187.195c.04.044.12.13.176.188a112.112 112.112 0 011.115 1.155c.062.062.137.141.168.174l.253.263c.11.11.237.247.29.302.128.13.26.27.394.406.062.063.133.137.158.166.027.027.1.106.17.173.068.07.135.135.148.148.042.042-.012.068-.137.067l-.633-.017a8.888 8.888 0 01-.513-.012l-.397-.013c-.309-.003-.793-.013-1.356-.028-.067-.003-.186-.003-.265-.007-.077 0-.225-.003-.33-.008a9.202 9.202 0 00-.295-.007c-.057 0-.171-.004-.25-.006a33.45 33.45 0 00-.428-.01 26.17 26.17 0 01-.472-.012c-.105-.004-.255-.004-.334-.006a.685.685 0 01-.163-.008c-.009-.005-.047 0-.084.01-.063.021-.068.03-.132.257-.039.13-.085.293-.103.365-.017.071-.149.53-.29 1.02-.142.49-.275.956-.296 1.034-.02.077-.134.472-.252.879-.21.73-.281.972-.317 1.124-.01.042-.035.117-.05.164a110.41 110.41 0 00-.788 2.768l-.101.358c-.032.112-.064.23-.07.262-.01.033-.025.054-.036.048-.012-.007-.16-.565-.33-1.24-.461-1.834-.543-2.155-.679-2.688-.07-.27-.167-.662-.22-.87-.05-.21-.202-.814-.336-1.34-.133-.526-.307-1.218-.385-1.54-.077-.318-.155-.586-.171-.595-.016-.01-.175-.072-.175-.072l-.177-.028s-.043-.03-.434-.041c-.338-.005-1.01-.023-1.158-.026l-.28-.007a5.56 5.56 0 01-.26-.005c-.076-.003-.2-.004-.28-.008a7.779 7.779 0 00-.257-.004l-.28-.007c-.089-.001-.283-.007-.428-.01-.429-.008-.723-.015-1.018-.023-.088-.003-.22-.006-.294-.01-.127-.002-.34-.006-.613-.013-.147-.005-.274-.008-.803-.02-.653-.012-.688-.015-.856-.017-.088-.004-.221-.006-.294-.01l-.614-.014c-.35-.01-.412-.01-.522-.011l-.28-.008c-.148-.002-.82-.02-1.16-.027-.682-.015-.848-.022-.854-.037 0-.01.2-.125.445-.26.249-.135.467-.255.484-.269A33.595 33.595 0 002.24 16c.307-.17 2.36-1.298 2.447-1.344.023-.01.173-.093.33-.18a862.72 862.72 0 003.22-1.769c.043-.02.09-.045.11-.058a52.09 52.09 0 011.008-.557c.536-.293.985-.553.993-.578.019-.048-.154-.767-.662-2.758-.072-.28-.17-.67-.22-.87l-.316-1.27c-.466-1.85-.657-2.615-.774-3.072-.063-.26-.103-.467-.083-.464.028.007.218.192.396.387.04.044.123.134.186.197.062.063.133.137.158.166.027.027.101.106.17.173.068.069.161.161.207.212l.58.603.158.166.16.164c.056.06.145.15.196.206.18.187.618.64.722.745l.176.188c.04.045.125.132.187.195.063.063.232.236.375.387.145.15.31.32.367.376l.176.188c.04.044.13.134.197.203.07.067.144.15.172.18.025.03.075.082.111.118.065.064.415.422.56.575.076.082.167.173.395.406.283.292.414.419.428.415.026-.009 2.277-1.24 2.4-1.314.034-.022.58-.321 1.21-.665a81.781 81.781 0 001.218-.671c.085-.055.106-.04.085.064z" fill="#fff" opacity=".34"/></svg>