<svg width="21" height="21" viewBox="0 0 21 21" fill="none" xmlns="http://www.w3.org/2000/svg"><path d="M17.163 7.568l-.29.327c-.135.15-.283.314-.325.364-.167.192-.23.263-.52.584-.164.183-.335.372-.377.422-.042.05-.11.126-.148.17-.123.14-.757.853-.805.906-.139.15-.234.257-.385.43-.19.218-.19.212-.103.458.025.067.055.155.067.197a13.548 13.548 0 00.18.549c.046.146.103.315.125.377.021.061.049.146.061.189l.057.18a81.634 81.634 0 01.37 1.124l.056.17.083.255c.037.109.079.24.096.293l.131.396c.021.062.045.134.052.162.009.026.033.102.058.168l.05.146c.014.041-.03.041-.112 0a310.495 310.495 0 01-.542-.277 6.334 6.334 0 01-.21-.109l-.258-.135a85.33 85.33 0 01-.891-.453c-.044-.024-.123-.062-.173-.09a7.679 7.679 0 01-.217-.11 6.645 6.645 0 00-.194-.1l-.164-.084-.28-.144c-.102-.051-.242-.122-.31-.159-.068-.036-.167-.084-.22-.111a.507.507 0 01-.105-.058c-.004-.006-.031-.015-.06-.02-.047-.006-.053-.002-.169.128a47.65 47.65 0 01-.705.794l-.527.591c-.038.045-.24.27-.448.503-.374.418-.498.555-.57.644-.02.025-.061.067-.086.093a79.97 79.97 0 00-1.41 1.585l-.181.205a4.585 4.585 0 00-.131.152c-.017.019-.034.028-.04.02-.005-.008.076-.426.179-.93.281-1.364.33-1.603.41-2 .04-.201.102-.493.134-.648.034-.156.126-.604.206-.997.08-.392.186-.906.237-1.145.051-.236.085-.44.077-.45-.007-.011-.093-.103-.093-.103l-.108-.076s-.019-.034-.275-.166c-.223-.112-.663-.339-.76-.388l-.183-.095a4.17 4.17 0 01-.171-.086c-.05-.026-.132-.067-.183-.095a5.7 5.7 0 00-.17-.085c-.043-.022-.126-.064-.183-.095-.06-.029-.186-.095-.28-.143l-.67-.341-.191-.1a60.879 60.879 0 01-.403-.207l-.526-.27c-.43-.217-.452-.23-.563-.286l-.192-.1a61.34 61.34 0 01-.402-.206c-.23-.119-.27-.139-.343-.175l-.184-.095-.76-.389c-.448-.228-.556-.286-.555-.298.002-.007.173-.019.378-.03.208-.01.392-.02.408-.024a24.008 24.008 0 00.464-.025l2.053-.108c.019.001.144-.006.277-.013l.276-.015a625.13 625.13 0 002.427-.127 39.015 39.015 0 01.938-.051c.45-.023.83-.052.844-.066.029-.026.144-.558.445-2.043.041-.208.1-.499.133-.648l.196-.943c.284-1.378.402-1.947.47-2.287.042-.193.082-.343.094-.335.017.014.084.198.14.384.012.042.038.128.06.19.02.062.044.134.051.161.009.027.033.103.058.17.023.067.055.158.069.206.027.084.121.375.191.586l.052.161c.01.031.034.104.054.16.018.057.048.146.064.2l.24.726.057.18c.012.043.04.128.062.19.02.062.078.23.125.377a13.98 13.98 0 01.18.548c.012.042.042.13.065.198.024.067.048.145.056.174.007.028.024.08.036.114.022.064.14.413.188.561.024.079.055.169.131.396.095.285.14.41.152.413.02.002 1.907-.094 2.013-.104.03-.003.487-.027 1.016-.053.53-.027.99-.051 1.023-.056.074-.009.083.008.036.07z" fill="#fff" opacity=".2"/></svg>