<svg width="34" height="34" viewBox="0 0 34 34" fill="none" xmlns="http://www.w3.org/2000/svg"><path d="M13.68.14c-.024.083-.14.543-.26 1.026-.116.479-.242.999-.283 1.15-.158.599-.214.82-.46 1.841-.143.58-.287 1.183-.329 1.335-.042.152-.102.391-.139.53-.111.436-.672 2.682-.714 2.852-.111.483-.195.82-.334 1.358-.176.68-.167.672-.78.833-.166.041-.384.101-.486.133a37.87 37.87 0 01-.44.134c-.14.036-.548.151-.905.253-.357.106-.775.22-.928.262-.153.042-.361.101-.463.133-.102.033-.302.093-.441.134-.255.069-1.34.377-1.785.506-.242.074-.501.147-.974.28-.153.042-.339.098-.418.12-.074.024-.357.102-.626.18-.269.074-.589.17-.719.207-.315.088-.644.184-.974.276a7.78 7.78 0 00-.394.115c-.065.019-.25.074-.417.115-.167.046-.33.088-.362.097-.102.028-.042.115.153.225.227.125.659.36.997.543.14.074.278.152.302.17.027.02.25.139.505.272.25.134.529.286.626.336.483.272 1.243.69 2.129 1.174.107.055.292.16.417.225.12.07.353.198.52.286.167.087.375.202.464.253.088.05.269.147.394.216.13.069.431.235.672.368.241.134.575.317.742.405.167.087.4.22.524.29.12.073.237.133.26.133.019 0 .074.042.12.092.08.088.08.106-.023.516-.055.235-.13.529-.167.658-.037.124-.24.952-.459 1.84-.218.884-.426 1.726-.463 1.864-.038.138-.214.852-.395 1.588-.324 1.32-.431 1.758-.51 2.025-.023.073-.05.212-.07.299-.018.087-.05.22-.074.3-.023.073-.25.984-.505 2.024a193.56 193.56 0 01-.668 2.669c-.037.152-.111.442-.162.644-.051.203-.107.414-.125.47-.014.06-.01.105.013.105.024 0 .752-.731 1.619-1.624 2.351-2.425 2.764-2.848 3.45-3.553.348-.354.85-.874 1.118-1.15.264-.28 1.039-1.077 1.716-1.772.677-.695 1.563-1.61 1.971-2.038.404-.424.765-.769.798-.769.032 0 .334.046.334.046l.301.115s.093-.01.71.327c.528.294 1.586.87 1.818.998.139.074.338.185.44.24.102.06.283.16.409.225.12.065.315.175.44.24.12.064.302.165.404.225.102.055.301.166.44.24.14.078.445.243.673.367.672.373 1.136.626 1.6.88.139.073.347.188.463.248l.965.53c.232.123.431.234 1.262.69 1.024.566 1.08.593 1.344.74.14.074.348.189.464.249l.965.53c.552.298.65.353.82.45.103.055.302.166.441.24.232.128 1.29.703 1.823.998 1.071.589 1.336.727 1.359.709.009-.014-.2-.373-.46-.801a25.298 25.298 0 01-.51-.851 3.273 3.273 0 00-.139-.23 1661.526 1661.526 0 00-3.042-5.012c-.028-.037-.186-.3-.352-.575a1542.436 1542.436 0 01-3.038-5.007 179.19 179.19 0 01-.38-.621 2.344 2.344 0 01-.116-.189 95.013 95.013 0 00-1.067-1.767c-.57-.934-1.034-1.74-1.025-1.786.014-.092.923-1.049 3.488-3.676.361-.369.862-.884 1.117-1.151s.988-1.022 1.623-1.68c2.375-2.448 3.353-3.46 3.943-4.063.329-.345.575-.63.542-.644-.05-.014-.51.1-.96.244-.102.032-.31.096-.464.138-.153.041-.329.092-.394.115-.065.018-.25.073-.417.115-.167.046-.395.105-.51.142-.204.06-.919.267-1.438.414l-.394.116c-.075.023-.255.073-.395.11-.139.041-.357.101-.486.143-.446.128-1.53.437-1.786.506-.14.041-.339.101-.44.133-.103.033-.311.092-.464.134-.153.041-.57.156-.928.262-.357.101-.765.216-.904.253-.14.042-.339.101-.44.134-.103.032-.32.092-.488.138a6.701 6.701 0 00-.426.124 4.23 4.23 0 01-.279.083c-.157.041-1.02.28-1.382.386-.19.06-.412.12-.974.276-.7.198-1.015.277-1.034.258a423.651 423.651 0 01-2.55-4.188 175.56 175.56 0 00-1.285-2.116c-.673-1.1-1.253-2.057-1.29-2.131-.083-.161-.13-.157-.19.023z" fill="#fff" opacity=".25"/></svg>