<svg width="44" height="44" viewBox="0 0 44 44" fill="none" xmlns="http://www.w3.org/2000/svg"><path d="M4.928 20.041c.071.047.475.298.898.56.421.255.879.533 1.01.618.523.332.716.453 1.615.997.508.313 1.04.633 1.171.72.132.085.342.215.462.293.383.239 2.352 1.455 2.501 1.547.427.253.722.434 1.192.73.596.375.59.364.557.996-.011.172-.02.397-.02.504l-.007.46c-.008.144-.022.568-.034.94-.008.372-.025.804-.032.963-.007.158-.013.375-.014.482 0 .107-.004.315-.007.46-.011.264-.047 1.392-.06 1.855-.003.252-.012.522-.028 1.013-.007.159-.011.352-.013.434 0 .078-.012.371-.02.651-.01.279-.016.613-.02.748-.013.327-.02.67-.033 1.012a7.847 7.847 0 00-.01.41c-.003.068-.006.261-.018.433l-.017.374c-.005.106.097.075.26-.077l.821-.785c.113-.11.23-.22.254-.236.026-.02.208-.196.412-.399.204-.198.433-.417.51-.494.406-.377 1.036-.975 1.765-1.672.085-.085.243-.23.342-.329.102-.094.296-.276.43-.408.134-.133.307-.297.382-.365.075-.069.222-.212.326-.31.105-.103.354-.34.555-.529.2-.189.477-.451.61-.584.135-.132.333-.313.436-.41.107-.093.2-.186.206-.208.006-.017.062-.058.125-.087.107-.048.125-.043.484.179.206.124.465.284.576.359.107.073.834.52 1.614.997.776.476 1.515.93 1.635 1.008.12.077.746.462 1.393.858 1.16.71 1.543.945 1.774 1.1.063.045.186.114.264.158.077.044.195.116.262.162.063.044.862.538 1.776 1.097a193.03 193.03 0 012.34 1.447c.133.081.387.24.564.35.178.11.362.227.41.262.052.031.097.041.104.019.007-.022-.468-.938-1.056-2.036a1485.117 1485.117 0 01-2.336-4.366c-.232-.44-.575-1.075-.756-1.415-.187-.337-.71-1.317-1.167-2.173-.456-.856-1.06-1.978-1.343-2.497-.281-.513-.5-.963-.49-.994.01-.03.145-.304.145-.304l.201-.252s.02-.091.527-.577c.441-.414 1.31-1.247 1.504-1.428l.362-.348c.088-.079.24-.22.339-.32.098-.095.262-.247.362-.347.098-.095.249-.237.337-.316.084-.08.25-.237.362-.347.117-.109.367-.35.555-.529.56-.527.941-.892 1.324-1.257.112-.11.285-.274.377-.366.166-.157.443-.419.797-.759.19-.183.355-.34 1.041-.992.851-.804.894-.849 1.115-1.056.112-.11.285-.274.377-.366.166-.157.443-.419.798-.758.453-.435.535-.511.679-.646.084-.08.25-.236.362-.347.193-.181 1.062-1.014 1.505-1.433.887-.841 1.099-1.051 1.088-1.079-.01-.013-.416.077-.902.194-.493.12-.927.226-.966.228-.041.006-.156.033-.262.062a1702.775 1702.775 0 00-5.699 1.376c-.043.015-.341.086-.655.161a1529.25 1529.25 0 01-5.693 1.373l-.708.174c-.08.023-.174.046-.215.053-.039.002-.944.22-2.007.48-1.064.259-1.972.456-2.013.433-.083-.041-.719-1.198-2.443-4.44-.241-.456-.58-1.09-.757-1.414-.177-.324-.673-1.252-1.107-2.057-1.61-3.006-2.278-4.246-2.673-4.99-.23-.419-.426-.74-.45-.713-.028.045-.058.517-.059.989 0 .107-.002.325-.009.484a7.736 7.736 0 00-.01.41c-.002.068-.006.261-.017.433-.007.173-.02.408-.02.53-.005.212-.024.955-.042 1.495l-.01.41c0 .078-.007.266-.014.41-.003.145-.013.37-.013.507-.012.463-.048 1.59-.06 1.855l-.007.46c0 .107-.006.324-.013.482-.007.159-.025.591-.032.964-.012.37-.027.794-.034.938l-.007.46c0 .107-.009.333-.016.506-.011.172-.012.371-.011.445.002.068-.001.199-.006.29a94.21 94.21 0 00-.051 1.434c-.001.2-.012.43-.033 1.012-.025.727-.046 1.051-.069 1.063-.045.02-4.512 1.107-4.765 1.158-.071.012-1.155.274-2.407.581-1.252.306-2.34.568-2.422.581-.178.03-.188.076-.035.188z" fill="#fff" opacity=".1"/></svg>