<svg width="83" height="84" viewBox="0 0 83 84" fill="none" xmlns="http://www.w3.org/2000/svg"><path d="M51.928 12.667c-.112.106-.711.71-1.34 1.344-.616.631-1.285 1.318-1.488 1.514-.79.778-1.078 1.068-2.392 2.417-.752.762-1.525 1.56-1.728 1.756-.203.196-.515.51-.699.688-.571.572-3.49 3.52-3.71 3.745a85.479 85.479 0 01-1.757 1.786c-.895.889-.872.883-1.948.576a17.68 17.68 0 00-.86-.236 62.794 62.794 0 01-.79-.194c-.244-.07-.968-.263-1.602-.43a80.736 80.736 0 01-1.646-.438c-.27-.075-.641-.172-.825-.215a62.224 62.224 0 01-.79-.194c-.45-.125-2.377-.635-3.17-.84a85.63 85.63 0 01-1.733-.45c-.27-.076-.602-.16-.742-.195-.134-.032-.634-.168-1.114-.292-.475-.13-1.048-.272-1.279-.333-.558-.151-1.146-.3-1.729-.458-.27-.075-.583-.157-.703-.18-.115-.03-.447-.114-.738-.201-.295-.081-.579-.165-.636-.18-.18-.05-.17.14.024.486l1.009 1.74c.142.24.28.486.3.536.024.053.251.44.514.876.256.432.538.918.638 1.085.48.855 1.246 2.19 2.142 3.736.11.182.293.513.424.726.119.215.35.624.523.91.172.286.382.652.469.81.087.158.271.47.397.69.133.224.437.753.68 1.177.241.424.577 1.01.75 1.296.171.286.4.702.525.922.115.222.236.42.27.44.029.017.075.131.098.251.04.206.022.235-.51.773-.3.31-.684.697-.86.861-.17.158-1.242 1.248-2.39 2.417a447.73 447.73 0 01-2.42 2.449c-.184.179-1.108 1.117-2.06 2.086-1.71 1.739-2.274 2.315-2.64 2.654-.102.093-.272.28-.38.398-.109.117-.281.293-.388.393-.103.092-1.287 1.289-2.632 2.658-2.385 2.422-2.72 2.76-3.471 3.503-.196.2-.576.58-.84.845-.263.265-.543.54-.622.609-.076.08-.111.154-.076.175.035.021 1.812-.445 3.947-1.033 5.795-1.6 6.81-1.878 8.499-2.34.853-.23 2.09-.576 2.752-.757a421.16 421.16 0 014.23-1.171c1.666-.456 3.851-1.062 4.864-1.351 1-.286 1.867-.49 1.916-.46.049.03.463.374.463.374l.35.45s.15.07.773 1.147c.53.932 1.6 2.777 1.832 3.185.143.24.343.59.447.768.099.185.28.505.41.717.123.209.316.555.446.768.123.209.304.528.403.713.104.178.304.529.447.768.138.247.449.78.678 1.176.675 1.184 1.144 1.994 1.613 2.804.142.24.352.606.473.803.2.351.536.937.972 1.69.237.401.437.752 1.274 2.206 1.03 1.8 1.089 1.894 1.353 2.36.143.24.353.606.473.803.2.35.536.937.973 1.69.56.96.656 1.133.827 1.438.104.177.304.528.446.768.233.408 1.303 2.252 1.84 3.19 1.078 1.878 1.351 2.33 1.403 2.322.027-.013.042-.754.043-1.648-.001-.906 0-1.704.013-1.773.005-.074.008-.285.001-.48-.004-.186 0-.877.005-1.538.005-1.123.013-8.625.008-8.936-.008-.081-.005-.628-.003-1.205.006-.583.004-1.123.003-1.2-.006-.197.007-7.946.013-9.26-.003-.57-.004-1.158-.004-1.302a4.228 4.228 0 01-.001-.396c.013-.069.016-1.732.014-3.687-.003-1.955.037-3.615.093-3.678.106-.129 2.365-.778 8.67-2.497.886-.239 2.12-.578 2.752-.758.632-.18 2.437-.676 4.005-1.113 5.852-1.616 8.266-2.287 9.714-2.68.816-.233 1.451-.45 1.415-.5-.065-.068-.866-.307-1.678-.495-.184-.043-.56-.133-.83-.208-.27-.075-.583-.157-.702-.18-.116-.031-.447-.114-.739-.202-.295-.08-.694-.194-.903-.243-.364-.093-1.636-.422-2.559-.666l-.702-.18a22.71 22.71 0 01-.699-.188c-.249-.062-.634-.168-.869-.222-.793-.205-2.72-.715-3.17-.84a62.224 62.224 0 00-.79-.194c-.184-.043-.555-.14-.825-.215a80.736 80.736 0 00-1.646-.437 150.91 150.91 0 01-1.602-.43 62.646 62.646 0 00-.79-.195c-.184-.043-.57-.148-.864-.229a11.7 11.7 0 00-.761-.195 7.393 7.393 0 01-.498-.125c-.276-.08-1.803-.493-2.448-.658-.343-.08-.735-.19-1.73-.458-1.242-.33-1.791-.496-1.802-.541-.016-.086-.02-8.299-.002-8.76.01-.128.01-2.12.006-4.423-.005-2.302 0-4.301.012-4.448.022-.324-.053-.359-.31-.137z" fill="#fff" opacity=".4"/></svg>