<svg width="406" height="66" viewBox="0 0 406 66" fill="none" xmlns="http://www.w3.org/2000/svg"><path d="M2.016 28V7.756h6.272l7.588 15.932V7.756h4.032V28h-5.964l-7.84-16.8V28H2.016zm20.953-6.944c0-.915.121-1.792.364-2.632a8.572 8.572 0 011.176-2.38c.541-.765 1.307-1.372 2.296-1.82.99-.467 2.147-.7 3.472-.7 2.427 0 4.256.71 5.488 2.128 1.232 1.4 1.848 3.164 1.848 5.292 0 2.147-.635 3.948-1.904 5.404-1.25 1.437-3.09 2.156-5.516 2.156-2.11 0-3.845-.644-5.208-1.932-1.344-1.288-2.016-3.127-2.016-5.516zm4.256.028c0 3.024 1.036 4.536 3.108 4.536.99 0 1.745-.364 2.268-1.092.523-.728.784-1.979.784-3.752 0-2.987-1.036-4.48-3.108-4.48-2.035 0-3.052 1.596-3.052 4.788zm21.821 4.004v2.716a12.276 12.276 0 01-3.22.448c-.784 0-1.465-.103-2.044-.308-.56-.205-.97-.43-1.232-.672-.261-.243-.466-.57-.616-.98-.15-.43-.233-.756-.252-.98a10.842 10.842 0 01-.028-.868v-7.756h-2.716v-2.744h2.716v-2.772L45.77 9.66v4.284h3.36v2.744h-3.36v6.384c0 .41.01.71.028.896.038.187.112.392.224.616a.953.953 0 00.56.476c.261.075.616.112 1.064.112.43 0 .896-.028 1.4-.084zM59.658 28V7.756H73.21v3.304h-9.212v4.816h8.624v3.304h-8.624v5.46h9.52V28h-13.86zm16.921 0V16.38c0-1.064-.028-1.923-.084-2.576h3.976l.112 2.128c1.008-1.643 2.539-2.464 4.592-2.464 1.232 0 2.194.28 2.884.84.71.541 1.186 1.148 1.428 1.82.262.728.392 2.137.392 4.228V28h-4.228v-8.792c0-.728-.075-1.241-.224-1.54-.392-.803-1.064-1.204-2.016-1.204s-1.67.364-2.156 1.092c-.336.485-.504 1.204-.504 2.156V28H76.58zm16.417-6.944c0-.915.122-1.792.364-2.632a8.572 8.572 0 011.176-2.38c.542-.765 1.307-1.372 2.296-1.82.99-.467 2.147-.7 3.472-.7 2.427 0 4.256.71 5.488 2.128 1.232 1.4 1.848 3.164 1.848 5.292 0 2.147-.634 3.948-1.904 5.404-1.25 1.437-3.089 2.156-5.516 2.156-2.109 0-3.845-.644-5.208-1.932-1.344-1.288-2.016-3.127-2.016-5.516zm4.256.028c0 3.024 1.036 4.536 3.108 4.536.99 0 1.746-.364 2.268-1.092.523-.728.784-1.979.784-3.752 0-2.987-1.036-4.48-3.108-4.48-2.034 0-3.052 1.596-3.052 4.788zm13.366-7.224h4.2v9.268c.018.187.065.448.14.784.074.317.186.57.336.756.149.187.364.355.644.504.298.15.662.224 1.092.224.522 0 .952-.084 1.288-.252.354-.168.616-.355.784-.56.186-.224.326-.56.42-1.008.093-.467.14-.85.14-1.148.018-.317.028-.793.028-1.428v-7.14h4.256v9.324c.018.877.028 1.615.028 2.212.018.579.028.961.028 1.148.018.187.028.327.028.42.018.336.056.681.112 1.036h-4.032l-.14-1.876c-1.027 1.493-2.418 2.24-4.172 2.24-.915 0-1.755-.177-2.52-.532-.747-.373-1.326-.83-1.736-1.372-.616-.765-.924-2.035-.924-3.808V13.86zm26.777.056h3.892a35.463 35.463 0 00-.196 3.5V27.86c0 3.808-2.352 5.712-7.056 5.712-3.958 0-6.03-1.512-6.216-4.536h3.976c.168 1.307.989 1.96 2.464 1.96.653 0 1.213-.159 1.68-.476.466-.317.765-.775.896-1.372.112-.448.177-1.568.196-3.36-.971 1.288-2.24 1.932-3.808 1.932-1.904 0-3.379-.69-4.424-2.072-1.027-1.381-1.54-3.005-1.54-4.872 0-1.923.522-3.565 1.568-4.928 1.064-1.381 2.557-2.072 4.48-2.072 1.717 0 3.033.672 3.948 2.016l.14-1.876zm-5.992 6.86c0 .355.018.69.056 1.008.037.299.13.728.28 1.288.149.541.429.98.84 1.316.429.336.961.504 1.596.504.672 0 1.222-.168 1.652-.504.448-.336.746-.775.896-1.316.168-.56.27-.99.308-1.288.037-.299.056-.607.056-.924 0-2.875-.943-4.312-2.828-4.312-.84 0-1.531.345-2.072 1.036-.523.69-.784 1.755-.784 3.192zM145.104 28V7.784h4.116v8.008c1.008-1.419 2.371-2.128 4.088-2.128 1.755 0 3.127.635 4.116 1.904.616.859.924 2.137.924 3.836V28h-4.116v-8.456c0-2.053-.775-3.08-2.324-3.08-.709 0-1.335.233-1.876.7-.523.448-.784 1.176-.784 2.184l.028 8.652h-4.172zM.812 52.912h3.892c.037.523.243.98.616 1.372.373.373.952.56 1.736.56.69 0 1.223-.159 1.596-.476.392-.336.588-.737.588-1.204 0-.355-.14-.653-.42-.896-.261-.261-.775-.495-1.54-.7l-2.576-.7c-.448-.13-.812-.252-1.092-.364a10.85 10.85 0 01-1.092-.616 2.766 2.766 0 01-1.036-1.176c-.243-.504-.364-1.092-.364-1.764 0-1.363.57-2.436 1.708-3.22 1.139-.803 2.632-1.204 4.48-1.204 1.53 0 2.79.355 3.78 1.064 1.008.71 1.54 1.745 1.596 3.108h-3.78c-.075-1.12-.747-1.68-2.016-1.68-.579 0-1.055.13-1.428.392a1.156 1.156 0 00-.532 1.008c0 .43.14.737.42.924.28.168.784.355 1.512.56l2.548.7c2.52.69 3.78 2.007 3.78 3.948 0 1.325-.57 2.473-1.708 3.444-1.12.952-2.716 1.428-4.788 1.428-2.128 0-3.743-.579-4.844-1.736-.635-.672-.98-1.596-1.036-2.772zM28.056 57h-3.752a12.194 12.194 0 01-.14-1.932c-1.045 1.512-2.455 2.268-4.228 2.268-1.568 0-2.744-.373-3.528-1.12-.821-.821-1.232-1.857-1.232-3.108 0-2.016.999-3.481 2.996-4.396 1.157-.523 3.024-.784 5.6-.784 0-.859-.065-1.484-.196-1.876-.28-.784-.896-1.176-1.848-1.176-.69 0-1.213.261-1.568.784-.205.317-.308.737-.308 1.26h-4.06c.056-1.493.588-2.604 1.596-3.332 1.064-.765 2.492-1.148 4.284-1.148 2.315 0 3.995.607 5.04 1.82.653.784.98 1.941.98 3.472l.028 5.684c0 1.344.112 2.539.336 3.584zm-4.284-6.664c-1.363-.112-2.464.037-3.304.448-.84.41-1.26 1.027-1.26 1.848 0 .523.177.99.532 1.4.355.41.85.616 1.484.616.71 0 1.297-.27 1.764-.812a3 3 0 00.644-1.372c.093-.523.14-1.232.14-2.128zM31.659 57V45.8h-2.1v-2.94h2.1v-1.932c0-1.419.345-2.52 1.036-3.304.69-.803 1.969-1.204 3.836-1.204.709 0 1.456.047 2.24.14v2.884a8.291 8.291 0 00-.868-.084c-.504 0-.915.056-1.232.168-.3.112-.514.28-.644.504a2.88 2.88 0 00-.224.56 5.24 5.24 0 00-.028.616v1.652h2.632v2.94h-2.632V57h-4.116zm21.868-6.02h-9.492c0 2.52.961 3.78 2.884 3.78 1.325 0 2.147-.653 2.464-1.96h3.78c-.093 1.213-.541 2.24-1.344 3.08-1.046 1.101-2.698 1.652-4.956 1.652-2.184 0-3.846-.588-4.984-1.764-1.213-1.27-1.82-3.108-1.82-5.516 0-3.099.98-5.33 2.94-6.692 1.176-.784 2.501-1.176 3.976-1.176 1.157 0 2.25.27 3.276.812 1.027.523 1.839 1.39 2.436 2.604.653 1.344.933 3.07.84 5.18zm-9.352-2.604h5.124c0-.28-.019-.541-.056-.784-.038-.261-.13-.597-.28-1.008a1.788 1.788 0 00-.756-.98c-.355-.261-.812-.392-1.372-.392-.859 0-1.512.299-1.96.896-.43.597-.663 1.353-.7 2.268zm18.2-5.516h4.395l2.604 10.668L72.37 42.86h4.564l2.968 10.668 2.772-10.668h4.116L81.946 57h-4.508l-2.912-10.472L71.558 57h-4.564l-4.62-14.14zM101.172 57h-3.752a12.194 12.194 0 01-.14-1.932c-1.045 1.512-2.455 2.268-4.228 2.268-1.568 0-2.744-.373-3.528-1.12-.821-.821-1.232-1.857-1.232-3.108 0-2.016.999-3.481 2.996-4.396 1.157-.523 3.024-.784 5.6-.784 0-.859-.065-1.484-.196-1.876-.28-.784-.896-1.176-1.848-1.176-.69 0-1.213.261-1.568.784-.205.317-.308.737-.308 1.26h-4.06c.056-1.493.588-2.604 1.596-3.332 1.064-.765 2.492-1.148 4.284-1.148 2.315 0 3.995.607 5.04 1.82.654.784.98 1.941.98 3.472l.028 5.684c0 1.344.112 2.539.336 3.584zm-4.284-6.664c-1.362-.112-2.464.037-3.304.448-.84.41-1.26 1.027-1.26 1.848 0 .523.177.99.532 1.4.355.41.85.616 1.484.616.71 0 1.297-.27 1.764-.812a3 3 0 00.644-1.372c.094-.523.14-1.232.14-2.128zm15.923 3.752v2.716a12.28 12.28 0 01-3.22.448c-.784 0-1.466-.103-2.044-.308-.56-.205-.971-.43-1.232-.672-.262-.243-.467-.57-.616-.98-.15-.43-.234-.756-.252-.98a10.702 10.702 0 01-.028-.868v-7.756h-2.716v-2.744h2.716v-2.772l4.116-1.512v4.284h3.36v2.744h-3.36v6.384c0 .41.009.71.028.896.037.187.112.392.224.616a.951.951 0 00.56.476c.261.075.616.112 1.064.112.429 0 .896-.028 1.4-.084zm15.391-3.108h-9.492c0 2.52.961 3.78 2.884 3.78 1.325 0 2.146-.653 2.464-1.96h3.78c-.094 1.213-.542 2.24-1.344 3.08-1.046 1.101-2.698 1.652-4.956 1.652-2.184 0-3.846-.588-4.984-1.764-1.214-1.27-1.82-3.108-1.82-5.516 0-3.099.98-5.33 2.94-6.692 1.176-.784 2.501-1.176 3.976-1.176 1.157 0 2.249.27 3.276.812 1.026.523 1.838 1.39 2.436 2.604.653 1.344.933 3.07.84 5.18zm-9.352-2.604h5.124c0-.28-.019-.541-.056-.784a5.376 5.376 0 00-.28-1.008 1.79 1.79 0 00-.756-.98c-.355-.261-.812-.392-1.372-.392-.859 0-1.512.299-1.96.896-.43.597-.663 1.353-.7 2.268zM130.937 57V46.332c0-1.083-.065-2.259-.196-3.528h3.892l.084 2.716c.168-.392.336-.719.504-.98.187-.261.458-.55.812-.868.355-.336.831-.579 1.428-.728.598-.15 1.288-.205 2.072-.168V46.5c-.989-.093-1.81-.056-2.464.112-.634.168-1.092.457-1.372.868-.261.41-.429.803-.504 1.176-.074.355-.112.812-.112 1.372V57h-4.144z" fill="#fff"/></svg>