<svg width="48" height="48" viewBox="0 0 48 48" fill="none" xmlns="http://www.w3.org/2000/svg"><path d="M8.193 17.255c.055.066.37.42.702.792.33.365.69.761.792.881.406.467.557.638 1.263 1.416.399.445.816.903.918 1.023.102.12.266.304.36.412.298.338 1.84 2.066 1.957 2.196.336.364.567.622.934 1.04.464.529.462.516.25 1.113-.06.16-.133.375-.163.477-.031.103-.094.301-.138.44-.048.135-.182.537-.3.89-.113.354-.253.764-.304.914-.052.15-.12.356-.151.458-.03.103-.094.301-.138.44-.086.25-.442 1.32-.586 1.76-.074.241-.16.498-.315.964-.052.15-.111.334-.136.412-.023.074-.118.352-.204.619-.09.264-.19.582-.233.71-.106.31-.21.637-.32.961a7.76 7.76 0 00-.127.39c-.021.065-.08.25-.14.41-.055.164-.113.322-.123.354-.035.1.072.1.272 0 .231-.118.668-.342 1.01-.519.14-.073.282-.144.31-.153.032-.013.256-.13.51-.265.25-.132.533-.277.63-.329.495-.246 1.27-.64 2.167-1.1.106-.057.298-.15.422-.218.124-.06.361-.18.528-.269.166-.088.378-.196.47-.24.091-.045.273-.14.4-.205.13-.068.437-.224.683-.349.246-.124.586-.297.752-.385.167-.09.407-.206.535-.27.129-.059.243-.121.256-.14.01-.016.076-.038.144-.048.117-.016.132-.006.413.31.163.177.365.404.45.507.082.1.652.736 1.264 1.415.608.678 1.187 1.324 1.28 1.432.093.109.584.656 1.09 1.22.91 1.01 1.211 1.345 1.388 1.56.047.061.146.162.208.226a4.7 4.7 0 01.205.23c.048.06.674.76 1.39 1.557a193.277 193.277 0 011.83 2.054c.106.116.303.34.442.496.139.156.283.321.318.368.041.045.082.067.095.048.013-.02-.182-1.033-.432-2.252-.682-3.308-.8-3.888-.996-4.851-.097-.487-.245-1.194-.322-1.572-.084-.376-.306-1.464-.5-2.415-.193-.95-.452-2.198-.576-2.776-.123-.572-.205-1.065-.187-1.092.018-.027.226-.25.226-.25l.265-.185s.044-.082.67-.403c.54-.271 1.61-.822 1.848-.94.139-.075.342-.177.445-.23.107-.051.293-.144.416-.211.121-.063.322-.162.446-.23.121-.063.307-.156.413-.206.104-.054.307-.156.446-.23.143-.071.452-.23.683-.349.686-.346 1.157-.587 1.627-.828.139-.074.351-.181.466-.244.204-.102.544-.275.98-.5.233-.121.437-.224 1.28-.654 1.045-.529 1.1-.56 1.37-.695.14-.074.352-.181.466-.244.204-.102.544-.275.98-.5.558-.287.659-.337.835-.424.103-.054.307-.156.446-.23.237-.12 1.307-.67 1.851-.945 1.09-.554 1.353-.695 1.35-.725-.006-.015-.42-.044-.92-.07a24.98 24.98 0 01-.99-.058 3.32 3.32 0 00-.27-.014c-.103-.003-.489-.025-.858-.046-.628-.035-4.822-.252-4.996-.258-.046.002-.352-.015-.674-.033-.326-.02-.628-.034-.671-.036-.11-.002-4.442-.229-5.177-.27l-.728-.034c-.083 0-.18-.005-.221-.01a95.65 95.65 0 00-2.061-.113c-1.093-.054-2.02-.123-2.053-.157-.068-.063-.348-1.353-1.078-4.952-.1-.506-.245-1.21-.322-1.571-.077-.361-.289-1.392-.475-2.287-.688-3.34-.975-4.719-1.142-5.545-.1-.466-.198-.83-.227-.811-.04.034-.204.479-.339.93-.03.103-.095.312-.147.462-.052.15-.109.324-.126.39-.022.065-.08.249-.14.41-.056.164-.134.386-.17.502-.064.203-.295.91-.466 1.422l-.126.39a12.8 12.8 0 01-.13.389c-.045.138-.118.352-.157.482-.144.441-.5 1.512-.586 1.761-.044.139-.107.337-.137.44-.031.102-.099.308-.15.458-.053.15-.192.56-.306.915-.117.352-.252.754-.3.89a35.34 35.34 0 00-.137.439c-.03.102-.104.316-.16.48-.06.162-.117.352-.137.423-.018.066-.058.19-.088.276a95.41 95.41 0 00-.458 1.36c-.058.191-.134.409-.32.961-.23.69-.343.995-.369 1-.048.006-4.64-.224-4.897-.247-.071-.01-1.185-.066-2.473-.13a144.971 144.971 0 01-2.487-.132c-.18-.021-.202.02-.087.17z" fill="#fff" opacity=".2"/></svg>