<svg width="36" height="37" viewBox="0 0 36 37" fill="none" xmlns="http://www.w3.org/2000/svg"><path d="M7.772 10.437c.026.058.177.372.337.702.16.325.335.677.383.783.193.412.266.563.609 1.256.192.395.395.803.443.908.048.106.127.27.171.365.144.3.886 1.832.943 1.948.165.325.276.554.452.924.221.467.222.458-.047.838a7.54 7.54 0 00-.211.305l-.186.284a66.39 66.39 0 00-.39.57c-.15.229-.332.49-.399.586a10.79 10.79 0 00-.198.295 26.41 26.41 0 01-.185.283 148.416 148.416 0 00-1.184 1.749c-.066.095-.145.214-.179.264-.03.048-.153.226-.268.398-.116.168-.251.374-.307.456-.136.198-.276.409-.418.616a5.791 5.791 0 00-.168.251c-.028.041-.107.16-.181.262l-.158.226c-.045.064.03.085.192.055l.818-.165c.113-.024.228-.046.25-.046.024-.003.206-.04.412-.086l.512-.106c.4-.075 1.025-.198 1.752-.344.086-.019.24-.047.341-.07.1-.018.292-.055.427-.084.135-.03.307-.063.38-.076l.325-.065.552-.11c.199-.038.474-.092.609-.122s.329-.064.432-.084a.9.9 0 00.21-.047c.01-.01.06-.012.11-.005.086.012.095.022.23.302.08.158.177.36.216.45.038.087.314.651.61 1.256.293.601.572 1.175.617 1.27.044.096.28.582.526 1.083.44.899.585 1.196.667 1.384.021.052.07.143.102.201a103.636 103.636 0 00.769 1.585c.61 1.255.696 1.43.881 1.823l.212.44c.067.139.135.284.15.324.021.04.046.064.059.053.013-.01.078-.767.146-1.681.181-2.48.214-2.914.27-3.636.028-.364.065-.894.086-1.177.017-.284.078-1.099.132-1.811.054-.712.121-1.648.15-2.082.027-.43.068-.795.087-.81.018-.016.21-.133.21-.133l.224-.077s.047-.05.553-.151c.437-.084 1.304-.259 1.495-.295.113-.025.277-.057.361-.074.086-.014.235-.042.336-.065.098-.02.26-.05.361-.073.099-.021.248-.05.334-.064.083-.017.248-.049.36-.073.116-.022.366-.073.553-.11.555-.107.935-.184 1.316-.26.113-.024.285-.058.378-.079.165-.032.44-.086.793-.157.19-.04.354-.072 1.036-.207l1.107-.217c.113-.024.285-.058.378-.079.165-.032.44-.086.793-.157.452-.092.533-.107.675-.134.083-.017.248-.049.36-.073.192-.037 1.06-.212 1.498-.298.881-.173 1.095-.22 1.1-.242-.002-.012-.288-.116-.636-.235a18.49 18.49 0 01-.689-.239 1277.346 1277.346 0 00-4.263-1.455c-.033-.007-.245-.08-.47-.158a1111.081 1111.081 0 01-4.071-1.39 110.636 110.636 0 01-.66-.223 69.763 69.763 0 00-1.434-.493c-.762-.258-1.403-.493-1.42-.523-.035-.059.026-1.028.232-3.723.03-.38.07-.907.088-1.178.018-.271.075-1.043.123-1.715.183-2.504.257-3.538.305-4.156.023-.35.027-.628.002-.62-.035.016-.24.298-.426.591-.042.067-.13.202-.196.297a5.816 5.816 0 00-.168.252c-.028.04-.106.16-.18.262-.073.105-.173.246-.22.321-.088.13-.392.585-.616.913-.058.09-.134.201-.167.252a9.786 9.786 0 01-.17.248c-.06.09-.154.226-.207.31-.19.284-.657.97-.768 1.13-.059.09-.143.217-.185.284-.042.066-.132.199-.198.294-.067.096-.248.358-.4.587-.153.226-.328.483-.39.57l-.185.283c-.042.067-.137.204-.209.309a4.966 4.966 0 00-.182.271 3.078 3.078 0 01-.118.179c-.069.097-.442.64-.596.87-.079.124-.176.263-.418.617-.302.442-.442.636-.462.634-.035-.005-3.233-1.09-3.41-1.158-.049-.021-.824-.285-1.722-.588-.897-.303-1.674-.569-1.73-.593-.123-.051-.147-.027-.096.103z" fill="#fff" opacity=".4"/></svg>