<svg width="25" height="24" viewBox="0 0 25 24" fill="none" xmlns="http://www.w3.org/2000/svg"><path d="M18.965 6.68l-.51.145c-.235.07-.491.146-.568.166-.298.081-.407.112-.91.262-.288.083-.584.171-.66.191l-.264.072-1.413.405c-.237.073-.403.121-.671.196-.339.094-.332.096-.555-.13a5.089 5.089 0 00-.18-.177 17.645 17.645 0 01-.502-.486c-.135-.128-.29-.28-.345-.336a7.286 7.286 0 00-.174-.167 17.39 17.39 0 01-.167-.158 100.932 100.932 0 00-1.03-.998c-.056-.056-.126-.123-.156-.151-.028-.027-.133-.13-.234-.226-.099-.099-.22-.213-.269-.26-.116-.115-.24-.233-.362-.353a3.89 3.89 0 00-.148-.142c-.025-.023-.095-.09-.154-.152-.062-.06-.12-.12-.133-.132-.037-.038-.06.01-.059.122l.014.568a7.913 7.913 0 00.01.46l.011.356c.003.277.012.711.024 1.216.002.06.003.167.006.237 0 .07.002.203.006.297.004.094.006.213.006.264 0 .051.004.154.005.225.003.074.006.246.009.384.002.138.006.328.01.423.004.094.004.228.005.3a.617.617 0 00.007.145c.005.008 0 .043-.01.076-.018.056-.026.06-.228.119a57.727 57.727 0 00-1.238.354l-.922.266c-.07.018-.422.12-.786.227-.653.19-.868.253-1.004.286-.037.008-.104.03-.146.044a96.439 96.439 0 01-2.472.71l-.32.091a5.66 5.66 0 01-.234.064c-.03.008-.048.022-.043.032.006.01.505.142 1.107.295 1.637.411 1.923.484 2.399.605.24.062.59.149.777.196.187.044.725.18 1.195.3.47.12 1.087.274 1.374.343.284.069.524.14.532.153.008.014.063.156.063.156l.026.16s.027.038.035.39c.005.302.02.904.022 1.037.003.079.005.193.006.25 0 .06.001.164.005.234.002.068.003.18.006.25.002.07.003.173.003.232l.006.25.009.384c.006.385.013.65.019.914.003.078.005.198.008.263l.012.55c.004.132.006.246.016.72.01.586.013.617.015.768.003.079.005.198.008.263l.012.55c.008.315.009.37.01.47.001.057.003.171.006.25l.023 1.04c.012.611.018.76.032.766.008 0 .112-.18.232-.4.121-.222.229-.418.241-.434a28.472 28.472 0 01.272-.495c.153-.275 1.162-2.119 1.202-2.196l.162-.296a743.135 743.135 0 011.583-2.89c.017-.038.04-.08.052-.098.012-.015.237-.424.498-.905.262-.48.495-.883.517-.891.044-.017.685.137 2.462.59.25.065.598.153.777.196l1.132.283c1.652.416 2.334.586 2.742.69.232.057.417.092.415.074-.007-.025-.172-.195-.346-.355-.04-.036-.119-.11-.175-.166a3.996 3.996 0 00-.148-.142c-.024-.024-.095-.09-.154-.152-.062-.06-.145-.144-.19-.185-.076-.074-.344-.331-.537-.52l-.149-.142a6.515 6.515 0 01-.146-.143c-.052-.05-.133-.129-.183-.175-.167-.16-.571-.553-.665-.647-.052-.05-.128-.121-.168-.157a7.692 7.692 0 01-.173-.168c-.056-.056-.21-.208-.345-.336-.133-.13-.285-.277-.335-.328l-.168-.158c-.04-.036-.12-.115-.181-.176a3.354 3.354 0 00-.16-.154 2.138 2.138 0 01-.106-.1 48.216 48.216 0 00-.512-.502c-.073-.067-.155-.149-.363-.353-.26-.253-.372-.37-.37-.383a211.9 211.9 0 011.177-2.154c.02-.03.287-.52.595-1.087a72.66 72.66 0 01.6-1.092c.05-.076.036-.095-.057-.076z" fill="#fff" opacity=".25"/></svg>