<svg width="40" height="40" viewBox="0 0 40 40" fill="none" xmlns="http://www.w3.org/2000/svg"><path d="M7.902 12.278c.036.061.242.394.459.742.216.343.453.715.518.827.264.436.363.596.827 1.327.26.418.535.848.601.96.066.112.173.285.234.386.194.316 1.202 1.935 1.279 2.058.222.343.373.585.612.976.302.494.302.484.047.939-.07.122-.16.286-.199.365l-.173.337c-.058.104-.223.412-.367.682a38.66 38.66 0 01-.375.7c-.063.114-.147.272-.186.351l-.173.338c-.105.19-.543 1.01-.722 1.348-.094.185-.199.382-.39.738-.063.115-.137.256-.168.316-.029.058-.144.27-.252.474-.11.202-.236.447-.288.545-.129.237-.26.488-.394.736a6.396 6.396 0 00-.157.3c-.026.048-.1.19-.17.313l-.15.27c-.042.076.044.09.22.038l.892-.28c.123-.04.249-.078.273-.081.027-.006.225-.07.45-.144.222-.072.47-.15.556-.179.437-.13 1.119-.341 1.911-.59.094-.031.262-.08.372-.118.11-.032.319-.095.466-.144.147-.049.334-.107.415-.13.08-.023.24-.075.353-.11.115-.037.385-.121.602-.188.217-.066.517-.158.664-.207.147-.05.359-.11.471-.145.113-.03.214-.064.227-.077.011-.011.067-.02.124-.02.097.004.108.015.291.31.107.167.24.38.294.476.052.093.426.689.827 1.327.398.635.777 1.242.837 1.343.06.1.382.614.714 1.143.595.95.793 1.263.906 1.463.03.056.096.151.137.212.041.061.102.157.135.216.03.056.439.712.908 1.46.83 1.324.945 1.51 1.197 1.925.069.109.198.319.289.465.09.146.184.3.206.343.027.043.057.066.07.053.014-.014-.003-.865-.035-1.89-.09-2.784-.105-3.271-.13-4.082-.01-.409-.031-1.004-.04-1.321-.016-.318-.044-1.233-.068-2.033-.024-.8-.06-1.85-.08-2.336-.019-.482-.016-.894.002-.913.019-.02.218-.172.218-.172l.24-.113s.048-.06.6-.233c.476-.145 1.42-.442 1.63-.506.123-.04.302-.095.393-.124.094-.026.257-.075.367-.113.107-.034.283-.086.393-.124.107-.034.27-.084.364-.11.091-.029.27-.084.393-.124.126-.037.4-.124.603-.188.605-.185 1.02-.314 1.434-.444.123-.04.31-.099.412-.133.18-.055.48-.147.865-.268.206-.067.385-.122 1.13-.353.92-.283.968-.3 1.206-.373.123-.04.31-.098.413-.132.179-.055.479-.148.864-.269.492-.155.58-.182.736-.228.091-.029.27-.084.393-.124.21-.064 1.154-.36 1.633-.508.96-.298 1.194-.375 1.196-.4-.003-.013-.334-.095-.736-.186a20.868 20.868 0 01-.795-.186 1382.211 1382.211 0 00-4.92-1.117c-.037-.005-.283-.061-.541-.12a1258.25 1258.25 0 01-4.698-1.068l-.585-.131a1.932 1.932 0 01-.178-.04c-.03-.012-.777-.183-1.655-.38-.879-.197-1.62-.383-1.642-.415-.047-.061-.094-1.149-.182-4.174-.01-.426-.03-1.018-.041-1.322-.012-.304-.04-1.171-.066-1.925-.09-2.81-.13-3.97-.15-4.665-.016-.393-.044-.702-.071-.69-.037.022-.232.36-.405.708-.039.079-.12.24-.183.354a6.416 6.416 0 00-.157.3c-.027.049-.1.19-.17.313-.07.125-.164.294-.208.384-.081.155-.367.697-.577 1.09l-.157.3c-.03.057-.102.193-.16.296-.055.107-.145.27-.194.37-.179.339-.617 1.159-.722 1.35-.055.105-.133.258-.172.337-.04.079-.124.237-.187.351-.063.115-.233.428-.375.7-.144.27-.31.578-.367.682-.055.106-.134.258-.173.337-.04.08-.128.243-.197.368-.07.123-.144.27-.17.324a3.486 3.486 0 01-.11.213c-.066.117-.417.765-.561 1.04-.074.147-.166.314-.394.736-.283.528-.417.76-.439.76-.04-.001-3.73-.832-3.935-.887-.057-.017-.951-.22-1.986-.451a119.212 119.212 0 01-1.998-.457c-.143-.042-.167-.012-.095.126z" fill="#fff" opacity=".1"/></svg>