<svg width="49" height="50" viewBox="0 0 49 50" fill="none" xmlns="http://www.w3.org/2000/svg"><path d="M9.66 15.546c.043.075.29.48.55.905.261.418.545.872.624 1.008.317.532.436.727.993 1.618.313.509.643 1.034.722 1.17.08.137.208.347.28.47.235.387 1.445 2.36 1.537 2.51.268.418.449.713.736 1.19.363.603.363.59.05 1.14-.087.149-.197.347-.245.442l-.213.409c-.07.125-.274.498-.451.824-.174.33-.384.709-.461.847-.078.139-.181.33-.23.425-.048.096-.144.28-.212.409-.129.23-.668 1.223-.887 1.632-.116.224-.245.461-.48.893-.077.138-.168.31-.206.382-.036.07-.178.327-.31.574-.135.244-.29.54-.354.659-.158.287-.32.59-.484.89-.078.138-.165.3-.194.362-.032.06-.122.231-.21.38-.083.151-.167.296-.183.326-.052.092.053.11.268.048l1.084-.332c.15-.048.303-.093.333-.097.032-.007.273-.082.547-.171.27-.086.573-.178.677-.213.53-.154 1.361-.405 2.325-.7.114-.038.32-.096.453-.14.133-.038.387-.114.566-.172.18-.058.407-.127.505-.155.098-.027.293-.089.43-.13.14-.044.469-.144.733-.223.264-.08.628-.189.807-.247.18-.058.437-.13.574-.172.136-.035.26-.076.276-.092.013-.013.082-.024.15-.022.118.005.13.018.352.378.129.204.287.463.353.58.063.114.511.84.993 1.618.478.775.933 1.514 1.006 1.637.072.123.458.75.857 1.394.716 1.158.953 1.54 1.089 1.784.036.068.115.184.164.259.05.074.122.191.162.262.036.069.528.87 1.092 1.78a192.985 192.985 0 011.438 2.348l.346.567c.109.178.221.367.248.419.033.051.069.08.085.064.016-.017.003-1.05-.028-2.296-.088-3.38-.101-3.972-.124-4.956-.01-.497-.03-1.22-.04-1.606-.015-.385-.042-1.497-.065-2.468-.023-.971-.057-2.246-.077-2.838-.02-.585-.014-1.085.009-1.109.022-.023.266-.206.266-.206l.293-.135s.058-.073.729-.279c.58-.172 1.729-.525 1.983-.6.15-.049.368-.114.479-.148.114-.031.312-.09.446-.134.13-.041.345-.103.479-.148.13-.04.328-.1.442-.13.111-.035.33-.1.48-.148.152-.044.484-.147.732-.223.736-.22 1.24-.374 1.745-.528.15-.048.378-.117.502-.158.218-.065.583-.175 1.052-.32.25-.078.469-.143 1.374-.418 1.12-.336 1.179-.357 1.469-.443.15-.048.377-.117.501-.158.218-.065.583-.175 1.052-.319.6-.185.707-.216.896-.27.11-.035.328-.1.478-.148.254-.076 1.404-.43 1.987-.605 1.169-.353 1.452-.445 1.455-.475-.003-.016-.405-.118-.892-.232a25.328 25.328 0 01-.964-.232 3.264 3.264 0 00-.262-.062 1678.596 1678.596 0 00-5.703-1.334c-.045-.006-.343-.077-.656-.151a1517.94 1517.94 0 01-5.696-1.335c-.31-.07-.631-.144-.71-.163a2.34 2.34 0 01-.215-.05 95.526 95.526 0 00-2.007-.474c-1.065-.246-1.964-.479-1.99-.518-.056-.074-.104-1.395-.187-5.07-.01-.516-.028-1.236-.04-1.605-.012-.37-.039-1.422-.064-2.338-.088-3.413-.126-4.822-.145-5.666-.016-.477-.048-.852-.08-.839-.046.027-.285.436-.497.858-.049.095-.149.29-.226.428a7.86 7.86 0 00-.193.362c-.033.06-.123.231-.21.38-.084.151-.2.356-.255.464-.1.188-.451.844-.709 1.319l-.193.362c-.036.07-.126.234-.197.36-.068.128-.177.326-.239.448-.219.409-.757 1.4-.886 1.631-.068.129-.165.314-.213.41-.048.095-.151.286-.229.424-.077.139-.287.518-.46.847-.178.327-.381.7-.452.825-.068.128-.165.313-.213.408-.048.096-.158.293-.242.445a6.775 6.775 0 00-.21.392c-.028.063-.09.178-.135.257-.08.142-.512.927-.69 1.26-.09.178-.203.379-.483.89-.349.64-.513.92-.54.92-.048-.003-4.522-1.04-4.77-1.11-.07-.021-1.154-.274-2.41-.563-1.254-.29-2.342-.546-2.42-.57-.174-.054-.203-.018-.117.151z" fill="#fff" opacity=".3"/></svg>