<svg width="40" height="41" viewBox="0 0 40 41" fill="none" xmlns="http://www.w3.org/2000/svg"><path d="M27.95 8.866l-.747.447c-.346.211-.721.442-.834.506-.44.257-.6.353-1.338.805-.42.254-.855.522-.967.586-.113.064-.287.169-.39.228-.318.19-1.95 1.172-2.074 1.247-.346.216-.59.364-.984.596-.499.295-.488.295-.938.032a8.42 8.42 0 00-.36-.206 28.91 28.91 0 01-.335-.18c-.102-.059-.406-.23-.673-.38a38.27 38.27 0 01-.692-.387c-.113-.065-.27-.152-.347-.192a28.91 28.91 0 01-.334-.18 164.348 164.348 0 00-2.063-1.15c-.113-.065-.253-.14-.312-.173-.057-.03-.267-.15-.469-.26-.2-.114-.442-.244-.539-.299-.234-.133-.482-.268-.727-.407a6.432 6.432 0 00-.296-.162c-.048-.027-.188-.103-.31-.177-.123-.07-.242-.14-.266-.154-.076-.043-.091.043-.042.22l.264.898c.038.124.073.251.076.275.005.027.065.227.136.453.068.224.142.475.169.561.123.44.321 1.127.556 1.925.03.095.076.265.111.375.03.11.09.321.136.47.047.148.101.336.123.417.022.081.07.243.103.356.036.116.115.388.177.607.063.218.15.52.197.668.046.149.103.362.136.475.027.113.06.216.073.23.01.01.02.067.017.123-.005.097-.016.108-.314.287-.168.105-.383.233-.48.286-.093.051-.694.415-1.337.806-.641.388-1.252.757-1.354.816-.102.059-.62.372-1.153.696-.957.58-1.273.773-1.474.883-.057.03-.153.093-.215.134a114.343 114.343 0 00-1.689 1.017c-1.335.808-1.523.92-1.94 1.166-.11.067-.323.193-.47.281-.147.088-.303.18-.346.2-.043.027-.067.057-.053.07.013.014.862.012 1.886-.003 2.778-.043 3.265-.05 4.074-.06.408-.003 1.002-.014 1.319-.019.317-.01 1.23-.022 2.028-.032.799-.01 1.846-.028 2.333-.04.48-.011.892-.001.91.017.02.02.168.222.168.222l.109.243s.059.049.222.604c.137.48.417 1.432.477 1.642.038.124.09.305.117.396.025.095.071.26.106.37.033.108.082.285.117.396.033.108.08.272.104.367.027.091.079.272.117.396.035.127.117.402.177.607.174.61.297 1.027.42 1.445.038.124.092.313.125.415.051.18.139.483.253.871.063.208.114.388.332 1.138.267.927.284.976.352 1.216.038.124.092.313.125.415.052.18.139.483.253.871.147.496.172.585.215.741l.117.397c.06.21.34 1.162.48 1.645.28.968.354 1.202.378 1.205.013-.003.1-.334.199-.735.097-.406.185-.764.198-.793a49.3 49.3 0 01.222-.904c.124-.503.944-3.867.976-4.007.005-.037.066-.282.13-.54a1251.041 1251.041 0 011.145-4.69l.14-.584c.014-.067.032-.146.043-.178.013-.03.195-.775.407-1.652.212-.877.41-1.617.442-1.638.062-.046 1.148-.074 4.168-.11.424-.004 1.016-.013 1.32-.02.303-.007 1.168-.02 1.92-.033 2.806-.043 3.964-.062 4.657-.07.392-.01.701-.033.69-.06-.021-.038-.355-.238-.7-.417a11.15 11.15 0 01-.35-.19 6.31 6.31 0 00-.296-.163c-.049-.027-.189-.103-.31-.176-.124-.07-.29-.168-.38-.214-.153-.084-.69-.38-1.077-.597l-.296-.163c-.057-.03-.191-.105-.294-.165-.105-.057-.266-.15-.366-.2-.334-.185-1.144-.638-1.333-.747a28.91 28.91 0 00-.334-.179c-.078-.04-.234-.127-.347-.192a37.579 37.579 0 00-.692-.388c-.267-.15-.571-.32-.674-.38a30.667 30.667 0 00-.333-.179c-.078-.04-.24-.133-.364-.203a5.513 5.513 0 00-.32-.177 3.437 3.437 0 01-.21-.114 78.019 78.019 0 00-1.03-.58c-.145-.076-.309-.17-.726-.407-.523-.293-.752-.43-.752-.452.003-.04.894-3.724.952-3.929.019-.056.236-.95.484-1.983.249-1.033.469-1.929.49-1.993.045-.143.015-.167-.124-.098z" fill="#fff" opacity=".1"/></svg>