<svg width="34" height="35" viewBox="0 0 34 35" fill="none" xmlns="http://www.w3.org/2000/svg"><path d="M20.32 34.644c.024-.083.14-.543.26-1.026.116-.479.242-.999.283-1.15.158-.599.214-.82.46-1.841.143-.58.287-1.183.329-1.335.041-.152.102-.39.139-.529.111-.437.672-2.683.714-2.853.111-.483.195-.82.334-1.358.176-.68.167-.671.78-.833.166-.041.384-.1.486-.133.102-.032.302-.092.44-.133.14-.037.548-.152.905-.254.357-.105.775-.22.928-.262.153-.041.361-.101.463-.133.102-.033.302-.092.441-.134.255-.069 1.34-.377 1.785-.506.242-.074.501-.147.974-.28.153-.042.339-.097.418-.12.074-.023.357-.102.626-.18.269-.073.589-.17.719-.207.315-.087.644-.184.974-.276.153-.041.329-.092.394-.115.065-.018.25-.074.417-.115.167-.046.33-.088.362-.097.102-.027.042-.115-.153-.225-.227-.125-.659-.36-.997-.543a4.08 4.08 0 01-.302-.17c-.027-.019-.25-.139-.505-.272l-.626-.336a205.27 205.27 0 00-2.129-1.174c-.107-.055-.292-.16-.417-.225a18.92 18.92 0 00-.52-.285 16.688 16.688 0 01-.463-.253c-.089-.051-.27-.148-.395-.217-.13-.069-.431-.234-.672-.368a48.643 48.643 0 00-.742-.405c-.167-.087-.4-.22-.524-.29a1.233 1.233 0 00-.26-.133c-.019 0-.074-.042-.12-.092-.08-.088-.08-.106.023-.516.055-.234.13-.529.167-.658.037-.124.24-.952.459-1.84.218-.884.426-1.726.463-1.864.038-.138.214-.851.395-1.588.324-1.32.431-1.758.51-2.025.023-.073.05-.211.07-.299a4.67 4.67 0 01.074-.299c.023-.074.25-.985.505-2.025.455-1.84.52-2.098.668-2.669.037-.152.111-.442.162-.644.051-.203.107-.414.125-.47.014-.06.01-.105-.013-.105-.024 0-.752.731-1.619 1.624-2.351 2.425-2.764 2.849-3.45 3.553-.348.354-.85.874-1.118 1.15-.265.281-1.039 1.077-1.716 1.772-.677.695-1.563 1.61-1.971 2.039-.404.423-.765.768-.798.768-.032 0-.334-.046-.334-.046l-.301-.115s-.093.01-.71-.327c-.528-.294-1.586-.87-1.818-.998-.139-.074-.338-.184-.44-.24-.102-.06-.283-.16-.409-.225-.12-.064-.315-.175-.44-.24-.12-.064-.301-.165-.403-.225-.103-.055-.302-.166-.441-.24l-.673-.367c-.672-.373-1.136-.626-1.6-.88-.139-.073-.347-.188-.463-.248-.2-.11-.534-.294-.965-.529-.232-.124-.431-.235-1.261-.69-1.025-.566-1.081-.594-1.345-.741-.14-.074-.348-.189-.464-.249-.2-.11-.534-.294-.965-.529-.552-.299-.65-.354-.82-.45-.103-.056-.302-.167-.441-.24-.232-.129-1.29-.704-1.823-.999C.875 2.523.61 2.385.587 2.404c-.009.013.2.372.46.8.264.433.496.815.51.852.018.036.078.138.139.23a1693.114 1693.114 0 003.042 5.011c.028.037.186.3.352.575.167.281.325.539.348.576.06.092 2.31 3.8 2.69 4.431l.38.622c.047.069.098.151.116.188.014.037.497.833 1.067 1.767.57.934 1.034 1.74 1.025 1.786-.014.092-.923 1.049-3.488 3.677-.361.368-.862.883-1.117 1.15-.255.267-.988 1.022-1.623 1.68-2.375 2.448-3.354 3.46-3.943 4.063-.329.345-.575.63-.542.645.05.013.51-.102.96-.244.102-.033.31-.097.464-.138.153-.042.329-.092.394-.115.065-.019.25-.074.417-.116.167-.046.394-.105.51-.142.204-.06.919-.267 1.438-.414.14-.042.315-.092.394-.115.075-.023.255-.074.395-.11.139-.042.357-.102.486-.143.446-.13 1.53-.438 1.786-.507.14-.041.339-.1.44-.133.103-.032.311-.092.464-.134.153-.041.57-.156.928-.262.357-.101.765-.216.904-.253.14-.041.339-.101.44-.133.103-.033.32-.093.488-.139.167-.04.357-.1.427-.124.064-.023.19-.06.278-.083.157-.041 1.02-.28 1.382-.386.19-.06.413-.12.974-.276.7-.198 1.015-.276 1.034-.258.032.037 2.425 3.962 2.55 4.188.033.064.613 1.017 1.285 2.117.673 1.1 1.252 2.057 1.29 2.13.083.161.13.157.19-.023z" fill="#fff" opacity=".35"/></svg>