<svg width="50" height="49" viewBox="0 0 50 49" fill="none" xmlns="http://www.w3.org/2000/svg"><path d="M39.376 34.07c-.043-.075-.29-.48-.551-.904-.26-.418-.545-.872-.624-1.008a68.867 68.867 0 00-.993-1.617c-.313-.509-.643-1.034-.723-1.17-.079-.136-.208-.347-.28-.47-.234-.386-1.445-2.359-1.538-2.508a47.283 47.283 0 01-.736-1.19c-.363-.602-.363-.59-.05-1.14.088-.148.197-.346.246-.441.048-.096.145-.28.212-.409.071-.125.275-.497.452-.823.174-.33.384-.709.461-.847.078-.138.181-.33.23-.425.048-.095.144-.28.212-.408.13-.231.668-1.223.887-1.631.116-.224.245-.462.48-.893.078-.139.169-.31.207-.382.036-.07.178-.326.31-.574.135-.243.29-.54.355-.659.158-.286.319-.59.483-.89.078-.137.165-.299.194-.361.032-.06.123-.231.21-.38.084-.151.167-.296.184-.326.051-.092-.053-.11-.268-.048l-1.085.332c-.15.048-.303.093-.333.097-.032.007-.273.082-.547.171-.27.086-.573.178-.678.213-.53.154-1.362.405-2.326.7-.114.037-.32.096-.453.14a18.62 18.62 0 00-.567.172c-.179.058-.407.127-.505.154-.097.028-.293.09-.43.13-.14.045-.469.145-.733.223-.264.08-.629.19-.808.247-.179.058-.436.13-.573.172-.137.035-.26.076-.277.092-.013.014-.081.024-.15.022-.118-.005-.13-.018-.352-.377a18.665 18.665 0 01-.353-.58c-.063-.114-.511-.84-.993-1.618-.479-.774-.934-1.513-1.007-1.636-.072-.123-.458-.749-.857-1.394-.716-1.156-.954-1.539-1.09-1.782-.036-.068-.115-.185-.164-.26a4.667 4.667 0 01-.162-.262c-.036-.068-.528-.868-1.092-1.779a192.849 192.849 0 01-1.439-2.346l-.346-.567a11.378 11.378 0 01-.248-.418c-.033-.052-.07-.081-.085-.064-.016.016-.003 1.049.028 2.294.087 3.379.1 3.97.124 4.954.01.497.03 1.22.04 1.605.015.385.042 1.496.065 2.467.022.97.057 2.245.077 2.837.02.584.014 1.085-.01 1.108-.022.023-.265.206-.265.206l-.293.135s-.059.073-.73.279c-.58.172-1.73.525-1.984.6-.15.048-.368.114-.479.148-.114.03-.313.09-.446.134-.13.04-.346.103-.48.147-.13.041-.328.1-.442.13-.111.035-.33.1-.48.148-.152.045-.485.148-.732.223-.737.22-1.242.374-1.747.528-.15.048-.378.117-.501.158-.219.065-.583.175-1.053.32-.25.078-.469.143-1.375.418-1.12.336-1.179.357-1.469.442-.15.048-.378.117-.502.158-.218.065-.583.175-1.052.319-.6.185-.707.216-.896.271-.11.034-.329.1-.479.148-.254.075-1.404.428-1.987.603-1.17.354-1.453.446-1.456.476.003.016.405.118.892.232.494.114.929.216.965.231.04.013.154.04.261.062a1655.895 1655.895 0 005.705 1.334c.046.006.344.077.658.15.317.078.611.146.654.155.108.021 4.329 1.01 5.045 1.18.31.07.63.144.71.163.08.015.176.036.215.049.036.016.942.228 2.008.475 1.065.246 1.965.478 1.991.517.056.075.104 1.395.187 5.068.01.516.027 1.235.04 1.604.012.37.038 1.422.064 2.337.087 3.412.126 4.82.145 5.663.016.477.048.853.08.84.046-.028.285-.436.497-.858.049-.095.149-.29.226-.428.078-.139.165-.3.194-.362.032-.06.122-.231.21-.38.083-.151.2-.355.254-.464.1-.188.452-.843.71-1.318.067-.128.154-.29.193-.362.036-.07.126-.234.197-.36.068-.128.177-.325.239-.447.219-.409.758-1.4.887-1.631.067-.129.164-.313.212-.409.049-.095.152-.286.23-.425.077-.138.287-.517.46-.846.178-.327.381-.699.452-.824.068-.129.165-.313.213-.409.048-.095.158-.293.242-.444a6.7 6.7 0 00.21-.392c.029-.063.09-.178.135-.257.08-.142.513-.926.69-1.259.09-.178.204-.379.484-.89.349-.639.513-.919.54-.92.049.003 4.524 1.04 4.773 1.11.069.021 1.154.274 2.41.563 1.255.29 2.344.545 2.422.57.174.053.203.017.117-.152z" fill="#fff" opacity=".3"/></svg>