<svg width="78" height="78" viewBox="0 0 78 78" fill="none" xmlns="http://www.w3.org/2000/svg"><path fill="#1CABE2" d="M0 0h78v78H0z"/><path d="M12.007 65.082V60.61H11v-.549h1.007v-1.07c0-.86.348-1.248 1.205-1.248.193.016.384.052.57.108v.48a2.216 2.216 0 00-.369-.04c-.817 0-.838.41-.807 1.13v.64h1.14v.55h-1.14v4.467l-.599.004zM18.623 62.572c0 1.32-.737 2.658-2.33 2.658-1.591 0-2.33-1.334-2.33-2.658 0-1.323.737-2.658 2.325-2.658 1.589 0 2.33 1.335 2.33 2.658h.005zm-2.335-2.108c-1.205 0-1.683 1.18-1.683 2.108 0 .929.478 2.11 1.683 2.11s1.684-1.181 1.684-2.11c0-.928-.48-2.108-1.684-2.108zM20.088 65.082h-.598v-3.888c0-.391-.029-.79-.05-1.129h.618l.03.736h.02a1.291 1.291 0 011.124-.889c.19 0 .4 0 .599.01v.572c-.12-.01-.25-.04-.369-.04-.885 0-1.355.64-1.374 1.6v3.028zM24.732 62.708c.02 1.07.508 1.97 1.733 1.97a1.487 1.487 0 001.444-1.2h.627c-.308 1.2-1.056 1.748-2.26 1.748-1.494 0-2.192-1.288-2.192-2.657 0-1.37.747-2.658 2.231-2.658 1.674 0 2.28 1.23 2.28 2.797h-3.863zm3.217-.55c-.07-.968-.587-1.698-1.624-1.698-.975 0-1.494.82-1.574 1.699h3.198zM29.403 60.065l1.723 4.187 1.663-4.187h.657l-1.982 5.017h-.678l-2.04-5.017h.657zM34.218 62.708c.019 1.07.507 1.97 1.733 1.97a1.486 1.486 0 001.444-1.2h.627c-.308 1.2-1.057 1.748-2.261 1.748-1.494 0-2.191-1.288-2.191-2.657 0-1.37.746-2.658 2.23-2.658 1.675 0 2.28 1.23 2.28 2.797h-3.862zm3.217-.55c-.07-.968-.588-1.698-1.625-1.698-.975 0-1.494.82-1.573 1.699h3.198zM39.608 65.082h-.596v-3.888c0-.391-.03-.79-.05-1.129h.618l.028.738h.021a1.289 1.289 0 011.125-.889c.2 0 .4 0 .599.01v.572c-.12-.01-.251-.04-.369-.04-.887 0-1.355.64-1.376 1.6v3.026zM42.635 60.065l1.684 4.197 1.674-4.197h.646L43.882 67h-.658l.757-1.918-2.072-5.017h.726zM52.335 61.604c-.049-.763-.537-1.144-1.364-1.144-.916 0-1.484.953-1.484 2.097 0 1.144.57 2.118 1.484 2.118.777 0 1.315-.48 1.364-1.168h.648c-.16 1.144-.817 1.716-1.951 1.716-1.495 0-2.19-1.29-2.19-2.658 0-1.37.746-2.658 2.228-2.658 1.026 0 1.864.62 1.913 1.69l-.648.007zM54.414 60.824h.021a1.713 1.713 0 011.564-.91c1.632 0 1.761 1.45 1.761 2.03v3.138h-.596V61.84c0-.867-.498-1.378-1.315-1.378-.986 0-1.435.829-1.435 1.729v2.889h-.596v-7.213h.596v2.957zM59.421 58.616h-.697v-.75h.697v.75zm-.05 1.449v5.017h-.596v-5.017h.597zM61.137 65.082h-.599v-7.215h.599v7.215zM65.84 64.342l-.02-.04a2.036 2.036 0 01-1.71.928c-1.483 0-2.05-1.418-2.05-2.67 0-1.3.57-2.638 2.05-2.638a1.998 1.998 0 011.71.91l.02-.021v-2.937h.598v6.084c0 .391.029.79.05 1.131h-.618l-.03-.74v-.007zm-1.633-3.878c-1.14 0-1.504 1.06-1.504 2.019 0 .928.27 2.198 1.415 2.198 1.304 0 1.71-1.089 1.71-2.229 0-1.018-.448-1.988-1.613-1.988h-.008zM11.087 54.564v-.303H66.44v.303H11.087zM59.326 37.007a5.21 5.21 0 00-2.9.885 5.236 5.236 0 00-1.921 2.352 5.257 5.257 0 001.134 5.709 5.205 5.205 0 005.69 1.134 5.225 5.225 0 002.343-1.93 5.252 5.252 0 00-.651-6.614 5.218 5.218 0 00-3.69-1.536h-.005zm4.072 2.317c-.268.18-.549.344-.84.488a5.626 5.626 0 00-.623-.98c.214-.13.417-.276.608-.437.323.272.61.584.855.928zm-2.196-1.74c.418.172.812.398 1.17.674-.18.15-.37.286-.57.408a5.496 5.496 0 00-.859-.797c.096-.088.184-.183.265-.284h-.006zm.404 1.19c-.28.152-.574.276-.88.368a7.853 7.853 0 00-.434-.854c.169-.074.329-.167.477-.278.306.223.587.479.837.762v.002zm-.617-1.27c-.07.086-.148.165-.232.237a5.287 5.287 0 00-.874-.484c.377.038.748.122 1.106.248zm-.408.382a2.18 2.18 0 01-.4.225 7.602 7.602 0 00-.503-.706c.316.131.619.292.904.48h-.002zm-1.14-.443c.194.236.374.483.539.74a2.084 2.084 0 01-.54.096v-.836zm0 1.053c.223-.01.444-.052.657-.122.16.268.303.546.427.833a4.739 4.739 0 01-1.085.15v-.865.004zm-.217-1.043v.826c-.18-.01-.36-.042-.532-.096.163-.253.341-.497.532-.73zm-.753.658a2.107 2.107 0 01-.4-.225c.283-.189.585-.348.9-.477-.18.224-.347.458-.5.702zm.3-.852a5.457 5.457 0 00-.881.488 2.432 2.432 0 01-.23-.237c.36-.126.733-.21 1.112-.252zm3.578 8.993c-.695-.38-.708-.913-.67-1.107.038-.195.173-.113.258-.113.456 0 .937-.135 1.52-.742.667-.682.878-2.2-.148-3.191-1.104-1.066-2.28-.88-3.04.08a1.153 1.153 0 01-.86.328c-.487-.017-.181.366-.181.446 0 .08-.075.137-.118.124-.164-.048-.099.19-.099.272a.11.11 0 01-.103.111c-.205 0-.148.19-.142.236a.19.19 0 01-.08.172.443.443 0 00-.142.322c0 .223.203.382.543.631a.809.809 0 01.38.668c-.002.216.032.431.099.637.091.223.08.63-.39.65-.57.023-1.588.482-1.674.513a2.02 2.02 0 01-1.085.072 5.344 5.344 0 01-.51-.416.79.79 0 01.165-.646c.179.143.406.211.634.19a7.448 7.448 0 001.053-.154.281.281 0 01.228 0c.3.109.709.141.876-.432.167-.574-.228-.414-.278-.382-.05.033-.117.017-.093-.03.074-.147-.036-.132-.099-.138a.744.744 0 00-.437.216.148.148 0 01-.16.044c-.212-.107-.845.047-1.04-.298a11.909 11.909 0 00-.253-1.731.235.235 0 01.025-.227c.16-.244.604.017.843.011a.43.43 0 00.414-.224c.075-.096.132-.042.171-.07.04-.026 0-.102.023-.138.023-.037.04-.02.088-.061.047-.042 0-.138.019-.174.072-.109.266-.023.148-.303a.457.457 0 01.112-.433c.139-.19.678-.942-.272-1.733-.906-.753-1.824-.692-2.417-.05-.593.643-.294 1.585-.233 1.833a.522.522 0 01-.32.572 4.53 4.53 0 00-.811.572c.02-.984.327-1.94.885-2.75a4.99 4.99 0 012.252-1.8c.081.101.17.196.264.285-.209.152-.663.56-.663.56s.063.01.12.025l.125.034s.401-.341.59-.478c.146.112.305.206.474.28-.091.154-.319.585-.319.585l.1.063a.911.911 0 01.079.06s.248-.47.342-.628c.21.07.428.11.65.12v.864a8.44 8.44 0 01-.57-.03h-.08l.043.066c.032.046.06.095.084.145l.01.017h.02c.093 0 .38.02.489.021v1.571h.216v-.389c.32-.015.584-.036.905-.065h.013l.281-.248-.154.014c-.338.044-.634.065-.904.08h-.14v-.997c.395-.008.789-.063 1.172-.164.104.26.302.888.302.888l.205-.065s-.19-.625-.302-.884c.325-.102.638-.235.937-.399.24.294.448.614.62.954-.155.072-.436.171-.436.171.134.015.266.042.395.08l.131-.057.06.135.28.126-.032-.078-.116-.275c.301-.149.592-.317.87-.505a5.035 5.035 0 01-1.162 6.746l.02.015zM53.632 38.401l-.082.073c-.306.27-1.005.99-.897 1.777l.01.055.036.156.097-.09c.427-.392.75-1.06.881-1.828l.036-.217-.081.074zM52.21 39.76l-.034.096c-.092.25-.155.511-.19.776-.066.52-.051 1.257.4 1.806l.049.064.053.067.066-.334c.074-.59-.024-1.828-.24-2.381l-.075-.19-.034.093.005.004zM51.692 41.89v.098c-.038.528-.012 1.836 1.043 2.528l.125.082v-.149c-.017-.496-.594-1.977-1.028-2.507l-.121-.149v.097h-.02zM51.874 44.228l.017.09c.156.75.865 1.965 1.961 2.318l.148.05-.053-.149c-.205-.563-1.26-1.87-1.94-2.301l-.152-.098.02.09zM54.074 39.532l-.085.053c-.817.498-1.2 1.104-1.169 1.852v.17l.118-.1c.441-.366.994-1.302 1.157-1.834l.06-.19-.088.053.007-.004zM53.596 41.162l-.063.057c-.21.19-.884.921-.827 1.813.013.15.044.297.093.439l.048.143.087-.122c.323-.458.76-1.66.728-2.22v-.17l-.06.06h-.006zM53.584 42.785c-.318.44-.494.966-.503 1.51.011.362.128.713.336 1.01l.07.107.061-.114c.146-.277.264-1.179.247-1.89 0-.203-.025-.405-.074-.602l-.046-.159-.09.138zM54.025 44.373l-.02.07c-.1.308-.148.63-.143.954a1.885 1.885 0 00.91 1.609l.099.063.02-.134v-.106c-.015-.563-.433-1.981-.76-2.414l-.09-.118-.024.07.008.006zM52.875 46.57l.042.07c.441.74 1.186 1.693 2.58 1.447l.117-.019-.067-.1c-.26-.38-1.951-1.345-2.55-1.444l-.163-.027.041.072zM54.939 48.446l-.22.059.21.085c.886.365 1.997.473 2.644.256.218-.083.413-.218.57-.393 1.14.118 2.196 1.064 2.816 1.838l.034.038.047-.015a.742.742 0 00.223-.156l.041-.048-.038-.051a5.596 5.596 0 00-1.71-1.394c-.91-.446-2.517-.793-4.623-.22h.006zM54.985 46.08l.013.074c.133.839.471 1.939 1.883 1.817h.09l-.024-.088c-.095-.381-1.387-1.489-1.839-1.8l-.135-.07.012.074v-.008zM64.958 38.327l.038.217c.132.763.453 1.436.882 1.829l.097.09.034-.157c0-.002.01-.052.012-.055.106-.788-.593-1.507-.9-1.777l-.08-.073-.083-.074zM66.427 39.667l-.074.19c-.216.554-.315 1.791-.241 2.382l.068.334.051-.067.05-.065c.45-.549.465-1.285.399-1.805a3.775 3.775 0 00-.19-.776l-.036-.096-.034-.093.007-.004zM66.974 41.793l-.123.149c-.431.53-1.01 2.011-1.028 2.507v.149l.123-.082c1.055-.692 1.082-2 1.046-2.528v-.195h-.018zM66.817 44.138l-.152.098c-.679.43-1.735 1.739-1.94 2.301l-.055.149.152-.05c1.094-.353 1.805-1.567 1.959-2.318l.019-.09.017-.09zM64.552 39.446l.057.19c.152.536.686 1.482 1.119 1.858l.118.103.01-.172c.043-.745-.328-1.36-1.14-1.874l-.086-.055-.078-.05zM65.015 41.109v.17c-.022.558.405 1.761.728 2.219l.088.122.047-.143c.05-.142.082-.29.093-.439.059-.892-.617-1.613-.826-1.813l-.061-.057-.063-.06h-.006zM64.998 42.647l-.047.159a2.47 2.47 0 00-.072.602c-.017.711.098 1.613.245 1.89l.06.114.073-.107a1.88 1.88 0 00.334-1.01 2.635 2.635 0 00-.503-1.51l-.044-.069-.046-.069zM64.624 44.302l-.091.119c-.327.432-.745 1.851-.76 2.413v.107l.022.134.1-.063a1.878 1.878 0 00.908-1.61 2.885 2.885 0 00-.143-.953l-.023-.07-.02-.07.007-.007zM65.838 46.5l-.161.028c-.599.099-2.292 1.058-2.552 1.445l-.065.099.116.019c1.395.246 2.14-.707 2.578-1.447l.042-.07.042-.073z" fill="#fff"/><path d="M59.11 48.665a5.597 5.597 0 00-1.7 1.394l-.04.051.043.048a.72.72 0 00.222.156l.048.015.032-.038c.62-.774 1.682-1.716 2.816-1.838.156.175.352.31.57.393.644.217 1.756.109 2.643-.255l.21-.086-.22-.06c-2.107-.571-3.714-.226-4.624.22zM63.699 46.005l-.135.07c-.453.311-1.745 1.42-1.84 1.8l-.022.088h.089c1.412.122 1.752-.978 1.885-1.817l.023-.149v.008zM27.613 37.377h1.786v1.633h-1.787v-1.633zm.14 11.44v-7.954h1.5v7.947l-1.5.008zM16.436 40.869h1.5v7.949h-1.458v-1.173h-.033c-.598.997-1.609 1.41-2.715 1.41-1.655 0-2.603-1.269-2.603-2.86v-5.326h1.501v4.703c0 1.377.316 2.392 1.75 2.392.616 0 1.452-.317 1.767-1.145.2-.602.301-1.233.3-1.868v-4.082h-.01zM20.928 42.041h.032c.506-.997 1.61-1.409 2.398-1.409.553 0 2.998.141 2.998 2.693v5.493H24.86v-5.003c0-1.314-.553-2.027-1.816-2.027a2.054 2.054 0 00-1.452.585c-.22.221-.63.572-.63 2.122v4.323h-1.5v-7.95h1.467v1.173zM35.53 43.418c-.08-.992-.549-1.682-1.615-1.682-1.425 0-1.976 1.242-1.976 3.099 0 1.857.551 3.1 1.976 3.1.986 0 1.598-.643 1.676-1.779h1.492c-.128 1.779-1.444 2.86-3.185 2.86-2.523 0-3.527-1.792-3.527-4.122s1.16-4.248 3.654-4.248c1.663 0 2.915 1.054 2.991 2.768l-1.486.004zM39.321 45.117c-.11 1.386.454 2.818 1.974 2.818 1.161 0 1.74-.456 1.912-1.607h1.57c-.236 1.796-1.616 2.692-3.497 2.692-2.523 0-3.528-1.793-3.528-4.123s1.16-4.248 3.654-4.248c2.35.05 3.464 1.541 3.464 3.73v.738H39.32zm3.98-1.037c.033-1.32-.57-2.344-2.006-2.344-1.24 0-1.974 1.05-1.974 2.344h3.98zM46.557 48.79v-6.865h-1.355v-1.041h1.355v-1.697c.047-1.731 1.347-2.187 2.46-2.187.36.021.717.074 1.068.156v1.242c-.252-.014-.501-.048-.76-.048-.845 0-1.33.223-1.284 1.087v1.447h1.818v1.041h-1.818v6.864h-1.484z" fill="#fff"/></svg>