<svg width="86" height="86" viewBox="0 0 86 86" fill="none" xmlns="http://www.w3.org/2000/svg"><path d="M68.836 59.966c-.079-.133-.53-.854-1.005-1.61-.475-.744-.992-1.552-1.137-1.795-.578-.946-.794-1.292-1.81-2.88-.572-.905-1.172-1.84-1.317-2.082-.145-.243-.38-.618-.512-.837-.427-.687-2.635-4.202-2.803-4.467a85.445 85.445 0 01-1.341-2.118c-.662-1.073-.662-1.05-.12-2.028.152-.264.342-.615.426-.785.083-.17.25-.498.367-.726.124-.223.475-.884.782-1.464.302-.586.665-1.26.8-1.505.133-.246.312-.586.395-.756.084-.17.251-.497.368-.725.224-.41 1.156-2.173 1.536-2.9.2-.397.424-.819.832-1.586.134-.246.29-.55.357-.68.061-.122.307-.58.536-1.018.234-.434.502-.96.614-1.171.273-.51.552-1.049.837-1.581.134-.246.285-.534.335-.645.056-.105.212-.41.363-.673.146-.27.291-.527.32-.58.088-.164-.098-.197-.48-.087l-1.921.588a7.204 7.204 0 01-.59.17 27.92 27.92 0 00-.969.304c-.479.151-1.016.315-1.2.376-.941.274-2.413.717-4.122 1.239-.202.066-.566.17-.802.248-.237.067-.687.2-1.005.304-.317.103-.721.224-.894.273-.174.049-.52.158-.762.23-.248.08-.831.255-1.299.395a85.54 85.54 0 00-1.431.437c-.318.103-.774.23-1.017.304-.242.06-.462.133-.49.163-.023.024-.144.043-.266.038-.21-.009-.233-.032-.636-.672a34.104 34.104 0 01-.644-1.033 209.81 209.81 0 00-1.81-2.88 449.21 449.21 0 01-1.835-2.914c-.133-.22-.836-1.333-1.564-2.482-1.305-2.06-1.738-2.74-1.985-3.174-.067-.121-.21-.329-.3-.461a8.612 8.612 0 01-.295-.468c-.067-.12-.963-1.546-1.991-3.168-1.816-2.874-2.07-3.278-2.623-4.178-.15-.237-.433-.692-.632-1.01a20.645 20.645 0 01-.451-.745c-.06-.092-.126-.143-.154-.114-.028.03.023 1.867.11 4.082.246 6.012.286 7.064.352 8.814.03.884.087 2.168.114 2.854.038.686.115 2.663.181 4.39.066 1.727.161 3.994.213 5.046.051 1.04.053 1.93.013 1.972-.04.04-.468.366-.468.366l-.518.24s-.102.129-1.291.493c-1.028.304-3.065.928-3.516 1.062-.265.085-.652.2-.848.261-.202.055-.554.158-.791.237-.23.073-.612.182-.849.26-.23.074-.583.177-.785.232-.196.06-.583.176-.848.26-.271.08-.86.262-1.299.395-1.305.389-2.2.662-3.094.935-.265.085-.67.206-.889.279-.386.115-1.033.31-1.864.564-.445.14-.831.255-2.436.741-1.986.595-2.09.631-2.604.783-.265.085-.67.207-.888.28-.387.114-1.034.309-1.865.564-1.062.327-1.252.382-1.587.48-.197.06-.583.175-.849.26-.45.134-2.488.759-3.521 1.069-2.072.625-2.574.788-2.579.84.006.03.725.212 1.595.417.882.204 1.658.386 1.723.414.07.023.274.072.467.11.181.039.853.2 1.495.354 1.092.26 8.391 1.97 8.695 2.036.081.01.613.138 1.173.27.567.139 1.092.26 1.168.276.193.039 7.731 1.81 9.01 2.114l1.267.292c.146.028.315.066.385.089.065.028 1.682.409 3.586.85 1.903.441 3.51.857 3.558.926.102.133.222 2.481.466 9.016.032.919.082 2.198.114 2.855.031.657.106 2.529.176 4.157.246 6.07.352 8.575.408 10.075.041.849.108 1.517.165 1.493.08-.048.495-.774.862-1.524.084-.17.257-.515.39-.76.135-.247.286-.534.336-.645.055-.105.212-.41.363-.673.145-.27.346-.633.441-.826.173-.334.781-1.5 1.228-2.342.117-.229.268-.516.335-.644.061-.123.218-.416.34-.639.118-.228.308-.58.413-.796a348.99 348.99 0 011.536-2.899c.117-.228.284-.556.368-.726.083-.17.262-.51.396-.755.134-.246.498-.92.799-1.505.307-.58.659-1.242.782-1.464.117-.228.284-.556.368-.726.083-.17.273-.521.418-.79.152-.264.308-.58.363-.697.05-.112.156-.317.234-.457.14-.252.889-1.646 1.196-2.237.156-.316.351-.674.837-1.581.604-1.136.89-1.635.936-1.635.087.005 8.08 1.864 8.525 1.986.122.04 2.061.492 4.303 1.01s4.187.976 4.327 1.021c.31.095.361.03.204-.27z" fill="#fff" opacity=".1"/></svg>