<svg width="253" height="58" viewBox="0 0 253 58" fill="none" xmlns="http://www.w3.org/2000/svg"><path d="M63.994 25V7.648h5.376l6.504 13.656V7.648h3.456V25h-5.112l-6.72-14.4V25h-3.504zm17.96-5.952c0-.784.103-1.536.311-2.256.224-.72.56-1.4 1.008-2.04.464-.656 1.12-1.176 1.968-1.56.848-.4 1.84-.6 2.976-.6 2.08 0 3.648.608 4.704 1.824 1.056 1.2 1.584 2.712 1.584 4.536 0 1.84-.544 3.384-1.632 4.632-1.072 1.232-2.648 1.848-4.728 1.848-1.808 0-3.296-.552-4.464-1.656-1.152-1.104-1.728-2.68-1.728-4.728zm3.647.024c0 2.592.888 3.888 2.664 3.888.848 0 1.496-.312 1.944-.936.448-.624.672-1.696.672-3.216 0-2.56-.888-3.84-2.664-3.84-1.744 0-2.616 1.368-2.616 4.104zm18.704 3.432v2.328c-.944.256-1.864.384-2.76.384-.672 0-1.256-.088-1.752-.264-.48-.176-.832-.368-1.056-.576-.224-.208-.4-.488-.528-.84-.128-.368-.2-.648-.216-.84a9.307 9.307 0 01-.024-.744v-6.648h-2.328v-2.352h2.328v-2.376l3.528-1.296v3.672h2.88v2.352h-2.88v5.472c0 .352.008.608.024.768.032.16.096.336.192.528a.817.817 0 00.48.408c.224.064.528.096.912.096.368 0 .768-.024 1.2-.072zM113.401 25V7.648h11.616v2.832h-7.896v4.128h7.392v2.832h-7.392v4.68h8.16V25h-11.88zm14.504 0v-9.96c0-.912-.024-1.648-.072-2.208h3.408l.096 1.824c.864-1.408 2.176-2.112 3.936-2.112 1.056 0 1.88.24 2.472.72.608.464 1.016.984 1.224 1.56.224.624.336 1.832.336 3.624V25h-3.624v-7.536c0-.624-.064-1.064-.192-1.32-.336-.688-.912-1.032-1.728-1.032s-1.432.312-1.848.936c-.288.416-.432 1.032-.432 1.848V25h-3.576zm14.072-5.952c0-.784.104-1.536.312-2.256.224-.72.56-1.4 1.008-2.04.464-.656 1.12-1.176 1.968-1.56.848-.4 1.84-.6 2.976-.6 2.08 0 3.648.608 4.704 1.824 1.056 1.2 1.584 2.712 1.584 4.536 0 1.84-.544 3.384-1.632 4.632-1.072 1.232-2.648 1.848-4.728 1.848-1.808 0-3.296-.552-4.464-1.656-1.152-1.104-1.728-2.68-1.728-4.728zm3.648.024c0 2.592.888 3.888 2.664 3.888.848 0 1.496-.312 1.944-.936.448-.624.672-1.696.672-3.216 0-2.56-.888-3.84-2.664-3.84-1.744 0-2.616 1.368-2.616 4.104zm11.456-6.192h3.6v7.944c.016.16.056.384.12.672.064.272.16.488.288.648.128.16.312.304.552.432.256.128.568.192.936.192.448 0 .816-.072 1.104-.216.304-.144.528-.304.672-.48.16-.192.28-.48.36-.864.08-.4.12-.728.12-.984.016-.272.024-.68.024-1.224v-6.12h3.648v7.992c.016.752.024 1.384.024 1.896.016.496.024.824.024.984.016.16.024.28.024.36.016.288.048.584.096.888h-3.456l-.12-1.608c-.88 1.28-2.072 1.92-3.576 1.92a5.074 5.074 0 01-2.16-.456c-.64-.32-1.136-.712-1.488-1.176-.528-.656-.792-1.744-.792-3.264V12.88zm22.952.048h3.336a30.485 30.485 0 00-.168 3v8.952c0 3.264-2.016 4.896-6.048 4.896-3.392 0-5.168-1.296-5.328-3.888h3.408c.144 1.12.848 1.68 2.112 1.68.56 0 1.04-.136 1.44-.408.4-.272.656-.664.768-1.176.096-.384.152-1.344.168-2.88-.832 1.104-1.92 1.656-3.264 1.656-1.632 0-2.896-.592-3.792-1.776-.88-1.184-1.32-2.576-1.32-4.176 0-1.648.448-3.056 1.344-4.224.912-1.184 2.192-1.776 3.84-1.776 1.472 0 2.6.576 3.384 1.728l.12-1.608zm-5.136 5.88c0 .304.016.592.048.864.032.256.112.624.24 1.104.128.464.368.84.72 1.128.368.288.824.432 1.368.432.576 0 1.048-.144 1.416-.432.384-.288.64-.664.768-1.128.144-.48.232-.848.264-1.104.032-.256.048-.52.048-.792 0-2.464-.808-3.696-2.424-3.696-.72 0-1.312.296-1.776.888-.448.592-.672 1.504-.672 2.736zM186.64 25V7.672h3.528v6.864c.864-1.216 2.032-1.824 3.504-1.824 1.504 0 2.68.544 3.528 1.632.528.736.792 1.832.792 3.288V25h-3.528v-7.248c0-1.76-.664-2.64-1.992-2.64-.608 0-1.144.2-1.608.6-.448.384-.672 1.008-.672 1.872l.024 7.416h-3.576zm20.392-3.504h3.336c.032.448.208.84.528 1.176.32.32.816.48 1.488.48.592 0 1.048-.136 1.368-.408.336-.288.504-.632.504-1.032 0-.304-.12-.56-.36-.768-.224-.224-.664-.424-1.32-.6l-2.208-.6a10.57 10.57 0 01-.936-.312 9.295 9.295 0 01-.936-.528 2.37 2.37 0 01-.888-1.008c-.208-.432-.312-.936-.312-1.512 0-1.168.488-2.088 1.464-2.76.976-.688 2.256-1.032 3.84-1.032 1.312 0 2.392.304 3.24.912.864.608 1.32 1.496 1.368 2.664h-3.24c-.064-.96-.64-1.44-1.728-1.44-.496 0-.904.112-1.224.336a.99.99 0 00-.456.864c0 .368.12.632.36.792.24.144.672.304 1.296.48l2.184.6c2.16.592 3.24 1.72 3.24 3.384 0 1.136-.488 2.12-1.464 2.952-.96.816-2.328 1.224-4.104 1.224-1.824 0-3.208-.496-4.152-1.488-.544-.576-.84-1.368-.888-2.376zM230.384 25h-3.216c-.08-.496-.12-1.048-.12-1.656-.896 1.296-2.104 1.944-3.624 1.944-1.344 0-2.352-.32-3.024-.96-.704-.704-1.056-1.592-1.056-2.664 0-1.728.856-2.984 2.568-3.768.992-.448 2.592-.672 4.8-.672 0-.736-.056-1.272-.168-1.608-.24-.672-.768-1.008-1.584-1.008-.592 0-1.04.224-1.344.672-.176.272-.264.632-.264 1.08h-3.48c.048-1.28.504-2.232 1.368-2.856.912-.656 2.136-.984 3.672-.984 1.984 0 3.424.52 4.32 1.56.56.672.84 1.664.84 2.976l.024 4.872c0 1.152.096 2.176.288 3.072zm-3.672-5.712c-1.168-.096-2.112.032-2.832.384-.72.352-1.08.88-1.08 1.584 0 .448.152.848.456 1.2.304.352.728.528 1.272.528.608 0 1.112-.232 1.512-.696.288-.352.472-.744.552-1.176.08-.448.12-1.056.12-1.824zm6.76 5.712v-9.6h-1.8v-2.52h1.8v-1.656c0-1.216.296-2.16.888-2.832.592-.688 1.688-1.032 3.288-1.032.608 0 1.248.04 1.92.12v2.472a7.107 7.107 0 00-.744-.072c-.432 0-.784.048-1.056.144-.256.096-.44.24-.552.432a2.47 2.47 0 00-.192.48 4.498 4.498 0 00-.024.528v1.416h2.256v2.52H237V25h-3.528zm18.744-5.16h-8.136c0 2.16.824 3.24 2.472 3.24 1.136 0 1.84-.56 2.112-1.68h3.24c-.08 1.04-.464 1.92-1.152 2.64-.896.944-2.312 1.416-4.248 1.416-1.872 0-3.296-.504-4.272-1.512-1.04-1.088-1.56-2.664-1.56-4.728 0-2.656.84-4.568 2.52-5.736 1.008-.672 2.144-1.008 3.408-1.008.992 0 1.928.232 2.808.696.88.448 1.576 1.192 2.088 2.232.56 1.152.8 2.632.72 4.44zm-8.016-2.232h4.392c0-.24-.016-.464-.048-.672a4.542 4.542 0 00-.24-.864 1.532 1.532 0 00-.648-.84c-.304-.224-.696-.336-1.176-.336-.736 0-1.296.256-1.68.768-.368.512-.568 1.16-.6 1.944zM186.464 37.88h3.768l2.232 9.144 2.568-9.144h3.912l2.544 9.144 2.376-9.144h3.528L203.24 50h-3.864l-2.496-8.976L194.336 50h-3.912l-3.96-12.12zM219.72 50h-3.216c-.08-.496-.12-1.048-.12-1.656-.896 1.296-2.104 1.944-3.624 1.944-1.344 0-2.352-.32-3.024-.96-.704-.704-1.056-1.592-1.056-2.664 0-1.728.856-2.984 2.568-3.768.992-.448 2.592-.672 4.8-.672 0-.736-.056-1.272-.168-1.608-.24-.672-.768-1.008-1.584-1.008-.592 0-1.04.224-1.344.672-.176.272-.264.632-.264 1.08h-3.48c.048-1.28.504-2.232 1.368-2.856.912-.656 2.136-.984 3.672-.984 1.984 0 3.424.52 4.32 1.56.56.672.84 1.664.84 2.976l.024 4.872c0 1.152.096 2.176.288 3.072zm-3.672-5.712c-1.168-.096-2.112.032-2.832.384-.72.352-1.08.88-1.08 1.584 0 .448.152.848.456 1.2.304.352.728.528 1.272.528.608 0 1.112-.232 1.512-.696.288-.352.472-.744.552-1.176.08-.448.12-1.056.12-1.824zm13.648 3.216v2.328c-.944.256-1.864.384-2.76.384-.672 0-1.256-.088-1.752-.264-.48-.176-.832-.368-1.056-.576-.224-.208-.4-.488-.528-.84-.128-.368-.2-.648-.216-.84a9.307 9.307 0 01-.024-.744v-6.648h-2.328v-2.352h2.328v-2.376l3.528-1.296v3.672h2.88v2.352h-2.88v5.472c0 .352.008.608.024.768.032.16.096.336.192.528a.817.817 0 00.48.408c.224.064.528.096.912.096.368 0 .768-.024 1.2-.072zm13.192-2.664h-8.136c0 2.16.824 3.24 2.472 3.24 1.136 0 1.84-.56 2.112-1.68h3.24c-.08 1.04-.464 1.92-1.152 2.64-.896.944-2.312 1.416-4.248 1.416-1.872 0-3.296-.504-4.272-1.512-1.04-1.088-1.56-2.664-1.56-4.728 0-2.656.84-4.568 2.52-5.736 1.008-.672 2.144-1.008 3.408-1.008.992 0 1.928.232 2.808.696.88.448 1.576 1.192 2.088 2.232.56 1.152.8 2.632.72 4.44zm-8.016-2.232h4.392c0-.24-.016-.464-.048-.672a4.542 4.542 0 00-.24-.864 1.532 1.532 0 00-.648-.84c-.304-.224-.696-.336-1.176-.336-.736 0-1.296.256-1.68.768-.368.512-.568 1.16-.6 1.944zM245.232 50v-9.144c0-.928-.056-1.936-.168-3.024h3.336l.072 2.328a5.78 5.78 0 01.432-.84c.16-.224.392-.472.696-.744.304-.288.712-.496 1.224-.624s1.104-.176 1.776-.144V41c-.848-.08-1.552-.048-2.112.096-.544.144-.936.392-1.176.744a2.995 2.995 0 00-.432 1.008 5.887 5.887 0 00-.096 1.176V50h-3.552z" fill="#fff"/></svg>